<?xml version="1.0" encoding="UTF-8"?> <svg xmlns="http://www.w3.org/2000/svg" width="186" height="196" viewBox="0 0 186 196" fill="none"><g filter="url(#filter0_bd_244_968)"><rect x="6.88672" y="5.91602" width="174.911" height="184.512" rx="12" fill="white" fill-opacity="0.9" shape-rendering="crispEdges"></rect></g><path d="M46.4737 49.1525C46.4737 49.3941 46.3778 49.6257 46.207 49.7965C46.0362 49.9672 45.8046 50.0632 45.5631 50.0632H32.8143C32.614 50.0632 32.4228 50.2453 32.2589 50.3637L29.1718 52.795V38.225C29.1718 37.9835 29.2678 37.7519 29.4386 37.5811C29.6093 37.4104 29.8409 37.3144 30.0825 37.3144H33.5975V35.4932H30.0825C29.3579 35.4932 28.6631 35.781 28.1507 36.2933C27.6384 36.8056 27.3506 37.5005 27.3506 38.225V54.6163C27.3519 54.7854 27.4004 54.9508 27.4904 55.094C27.5805 55.2371 27.7087 55.3523 27.8605 55.4268C28.0069 55.4933 28.1682 55.5199 28.3281 55.5039C28.4881 55.4879 28.6409 55.4299 28.7712 55.3357L33.4609 51.8844H45.6997C46.0448 51.8946 46.3884 51.8339 46.7091 51.7059C47.0298 51.5779 47.3208 51.3855 47.5641 51.1405C47.8074 50.8955 47.9978 50.6031 48.1235 50.2815C48.2492 49.9599 48.3076 49.616 48.295 49.2709V48.2419H46.4737V49.1525Z" fill="url(#paint0_linear_244_968)"></path><path d="M54.6695 37.5146V46.3659L51.4823 43.8799C51.3234 43.7565 51.128 43.6893 50.9268 43.6887H38.2783C38.0367 43.6887 37.8051 43.5927 37.6344 43.4219C37.4636 43.2512 37.3676 43.0195 37.3676 42.778V31.8505C37.3676 31.609 37.4636 31.3774 37.6344 31.2066C37.8051 31.0358 38.0367 30.9399 38.2783 30.9399H46.0186C46.021 30.3241 46.1067 29.7114 46.2736 29.1187H38.2783C37.5537 29.1187 36.8589 29.4065 36.3465 29.9188C35.8342 30.4311 35.5464 31.126 35.5464 31.8505V42.778C35.5464 43.5026 35.8342 44.1974 36.3465 44.7098C36.8589 45.2221 37.5537 45.5099 38.2783 45.5099H50.6172L54.97 48.8883C55.0994 48.984 55.2519 49.0437 55.4118 49.0613C55.5718 49.0789 55.7335 49.0537 55.8806 48.9885C56.0356 48.9147 56.1666 48.7986 56.2584 48.6536C56.3502 48.5086 56.3992 48.3406 56.3997 48.1689V36.7406C55.862 37.0783 55.2796 37.3388 54.6695 37.5146Z" fill="url(#paint1_linear_244_968)"></path><path d="M52.848 35.4935C55.3627 35.4935 57.4012 33.455 57.4012 30.9403C57.4012 28.4257 55.3627 26.3872 52.848 26.3872C50.3334 26.3872 48.2949 28.4257 48.2949 30.9403C48.2949 33.455 50.3334 35.4935 52.848 35.4935Z" fill="url(#paint2_linear_244_968)"></path><mask id="mask0_244_968" style="mask-type:alpha" maskUnits="userSpaceOnUse" x="6" y="5" width="176" height="186"><rect x="6.88672" y="5.91602" width="174.911" height="184.512" rx="12" fill="white" fill-opacity="0.9"></rect></mask><g mask="url(#mask0_244_968)"><path opacity="0.1" fill-rule="evenodd" clip-rule="evenodd" d="M132.989 190.376C114.118 190.579 90.5356 206.247 81.7871 189.551C70.802 168.587 80.8059 141.464 100.347 128.081C118.569 115.6 142.093 122.897 159.763 136.146C176.42 148.635 190.12 169.831 180.91 188.487C173.096 204.315 150.662 190.186 132.989 190.376Z" fill="#FFAD00"></path><path d="M142.471 114.078C145.91 116.716 148.288 120.702 148.974 124.984C149.338 127.252 149.286 129.707 150.547 131.626C152.267 134.24 155.984 135.13 157.37 137.936C156.619 139.01 155.149 139.366 153.846 139.512C151.963 139.722 150.07 139.844 148.176 139.877C147.061 139.897 145.908 139.878 144.887 139.427C143.45 138.793 142.498 137.403 141.79 135.999C139.415 131.292 138.985 125.638 140.621 120.625C141.282 118.602 142.328 116.202 142.471 114.078Z" fill="#030047"></path><path d="M148.209 125.93C148.92 128.357 149.042 130.234 151.006 131.652C152.537 132.758 155.289 134.899 156.747 136.192C162.34 141.158 158.655 147.447 156.286 149.373C153.917 151.3 150.672 152.606 147.289 152.67C143.906 152.733 140.443 151.452 138.619 149.18C137.154 147.353 136.825 145.089 136.905 142.923C136.985 140.756 137.435 138.6 137.368 136.433C137.301 134.266 136.648 132.009 134.832 130.396C134.147 129.788 133.314 129.287 132.705 128.63C132.096 127.973 131.737 127.077 132.163 126.334C132.703 125.391 134.197 125.11 135.492 125.019C139.97 124.704 143.983 124.419 148.126 125.808" fill="#030047"></path><path d="M140.94 184.743L142.27 185.581C142.894 185.97 143.714 185.783 144.104 185.163L144.942 183.833C145.332 183.212 145.145 182.392 144.525 182.001L143.195 181.159C142.575 180.769 141.754 180.956 141.36 181.576L140.524 182.912C140.134 183.531 140.32 184.352 140.94 184.743Z" fill="#3CF0C0"></path><path d="M111.607 149.947L105.56 156.166L81.1999 147.003L78.9434 158.586L103.009 170.999C106.218 172.655 110.137 171.963 112.587 169.309L126.638 154.091" fill="white"></path><path d="M106.675 172.12C105.39 172.12 104.095 171.822 102.901 171.206L78.8356 158.793C78.7433 158.746 78.6933 158.642 78.7134 158.54L80.97 146.957C80.9828 146.889 81.0256 146.831 81.0854 146.797C81.1447 146.764 81.2167 146.758 81.2815 146.783L105.499 155.892L111.439 149.783C111.529 149.69 111.677 149.688 111.77 149.778C111.863 149.869 111.865 150.017 111.774 150.11L105.728 156.329C105.663 156.395 105.565 156.418 105.478 156.385L81.3767 147.319L79.2063 158.458L103.116 170.79C106.22 172.392 110.045 171.717 112.415 169.15L126.466 153.932C126.554 153.837 126.702 153.831 126.797 153.919C126.892 154.007 126.897 154.155 126.81 154.25L112.758 169.468C111.157 171.201 108.931 172.12 106.675 172.12Z" fill="#030047"></path><path d="M93.117 141.665C93.117 141.665 97.0317 141.971 98.5848 150.06C101.374 164.59 93.8163 175.069 93.8163 175.069C93.8163 175.069 88.773 171.871 84.2788 170.497C79.7846 169.123 74.8164 169.373 74.8164 169.373C74.8164 169.373 81.2277 162.907 81.0408 155.524C80.8539 148.141 77.051 144.251 77.051 144.251L93.117 141.665Z" fill="white"></path><path d="M93.8157 175.304C93.7729 175.304 93.7296 175.292 93.6911 175.267C93.641 175.236 88.6216 172.071 84.2104 170.722C79.809 169.376 74.8775 169.605 74.8274 169.607C74.7382 169.611 74.6417 169.557 74.6026 169.469C74.5635 169.381 74.5825 169.278 74.6503 169.209C74.7138 169.144 80.9895 162.726 80.8063 155.532C80.6237 148.336 76.9203 144.454 76.883 144.415C76.822 144.353 76.8012 144.261 76.8287 144.178C76.8562 144.095 76.9276 144.034 77.0137 144.02L93.0804 141.435C93.0981 141.431 93.117 141.431 93.1359 141.433C93.3027 141.446 97.2467 141.846 98.815 150.017C101.592 164.479 94.0826 175.102 94.0068 175.207C93.9598 175.27 93.8883 175.304 93.8157 175.304ZM75.7337 169.123C77.3966 169.123 81.0176 169.256 84.3466 170.274C88.3266 171.491 92.7805 174.158 93.7491 174.753C94.7104 173.307 100.896 163.339 98.3551 150.105C96.9156 142.608 93.4431 141.947 93.1225 141.902L77.5029 144.416C78.4 145.511 81.1171 149.326 81.2741 155.52C81.4347 161.855 76.753 167.573 75.3642 169.126C75.4735 169.124 75.5969 169.123 75.7337 169.123Z" fill="#030047"></path><path d="M83.6567 156.196C83.6567 156.196 87.8365 155.307 96.6002 157.196L83.6567 156.196Z" fill="white"></path><path d="M96.6 157.429C96.5835 157.429 96.567 157.427 96.5505 157.424C87.9517 155.571 83.7463 156.416 83.7048 156.425C83.5784 156.451 83.4544 156.371 83.4275 156.245C83.4007 156.118 83.4813 155.994 83.6077 155.967C83.7811 155.931 87.9364 155.089 96.6489 156.967C96.7747 156.995 96.8553 157.119 96.8284 157.245C96.8046 157.354 96.7081 157.429 96.6 157.429Z" fill="#030047"></path><path d="M72.389 146.514L91.5245 146.319C90.1033 144.708 91.1849 142.379 93.1172 141.667L76.0893 141.592C76.0893 141.592 71.7148 142.116 72.389 146.514Z" fill="#E6F3FC"></path><path d="M72.3889 146.747C72.2734 146.747 72.1751 146.662 72.158 146.548C71.9479 145.179 72.1885 144.028 72.8725 143.128C74.0176 141.619 75.9786 141.368 76.0617 141.358L93.1183 141.432C93.2313 141.432 93.3284 141.514 93.3473 141.625C93.3669 141.737 93.3039 141.847 93.1983 141.886C92.2144 142.249 91.4242 143.096 91.1854 144.046C90.9912 144.815 91.1744 145.567 91.7002 146.164C91.7607 146.232 91.7759 146.33 91.7387 146.414C91.7014 146.497 91.619 146.552 91.5274 146.552L72.3919 146.747C72.3901 146.747 72.3895 146.747 72.3889 146.747ZM76.0879 141.825C76.0983 141.826 74.265 142.064 73.2426 143.414C72.6728 144.167 72.4542 145.129 72.5922 146.277L91.0602 146.089C90.6553 145.447 90.5374 144.696 90.7304 143.931C90.935 143.119 91.4614 142.393 92.1747 141.896L76.0879 141.825ZM94.8094 161.921C94.7849 161.921 94.7605 161.917 94.7361 161.909C90.91 160.644 86.9287 159.906 82.9035 159.717C82.7746 159.711 82.6751 159.601 82.6806 159.472C82.6867 159.343 82.8101 159.245 82.9249 159.249C86.9928 159.441 91.0156 160.187 94.8826 161.465C95.0054 161.505 95.072 161.638 95.031 161.76C94.9987 161.858 94.9071 161.921 94.8094 161.921ZM94.0002 166.35C93.9721 166.35 93.9434 166.345 93.9159 166.334C90.0324 164.834 85.9815 163.723 81.8763 163.032C81.7493 163.01 81.6631 162.889 81.6845 162.762C81.7059 162.635 81.8219 162.548 81.9538 162.57C86.0896 163.267 90.171 164.387 94.0838 165.898C94.2041 165.944 94.264 166.08 94.2176 166.2C94.1828 166.293 94.0942 166.35 94.0002 166.35Z" fill="#030047"></path><path d="M129.543 143.569L121.814 142.638C119.38 142.345 116.938 143.123 115.122 144.77L108.034 151.199L122.056 164.222L132.044 151.366L129.543 143.569Z" fill="#1328C9"></path><path opacity="0.4" d="M117.096 147.487C116.644 147.487 116.276 147.119 116.276 146.667C116.276 146.215 116.644 145.847 117.096 145.847C117.548 145.847 117.916 146.215 117.916 146.667C117.916 147.119 117.548 147.487 117.096 147.487ZM117.096 146.314C116.902 146.314 116.744 146.472 116.744 146.666C116.744 146.861 116.902 147.018 117.096 147.018C117.29 147.018 117.448 146.86 117.448 146.666C117.448 146.472 117.29 146.314 117.096 146.314ZM114.494 157.432C114.436 157.432 114.377 157.41 114.331 157.366C114.238 157.275 114.237 157.128 114.326 157.035C114.604 156.749 114.756 156.373 114.756 155.977C114.756 155.14 114.076 154.458 113.239 154.458C112.803 154.458 112.39 154.645 112.103 154.971C112.018 155.069 111.87 155.078 111.773 154.993C111.676 154.907 111.666 154.759 111.752 154.662C112.127 154.235 112.669 153.989 113.239 153.989C114.334 153.989 115.224 154.88 115.224 155.976C115.224 156.496 115.024 156.988 114.662 157.36C114.617 157.408 114.555 157.432 114.494 157.432Z" fill="white"></path><path d="M122.056 164.456C121.998 164.456 121.941 164.434 121.897 164.394L107.875 151.371C107.827 151.326 107.8 151.263 107.8 151.198C107.801 151.133 107.828 151.07 107.877 151.026L114.966 144.597C115.062 144.51 115.209 144.518 115.296 144.613C115.383 144.709 115.376 144.857 115.28 144.944L108.38 151.201L122.029 163.876L131.86 151.222C131.939 151.12 132.085 151.101 132.188 151.181C132.29 151.26 132.308 151.407 132.229 151.51L122.241 164.365C122.201 164.417 122.141 164.45 122.076 164.455C122.068 164.455 122.062 164.456 122.056 164.456ZM142.848 111.15C140.309 113.244 139.066 118.257 141.479 121.188C143.892 124.119 149.047 123.858 151.586 121.765C154.125 119.672 154.227 115.599 151.814 112.668C149.402 109.736 145.387 109.057 142.848 111.15Z" fill="#030047"></path><path d="M146.459 190.421V178.277H117.129L113.223 190.421H146.459Z" fill="#030047"></path><path d="M114.778 180.106L138.299 182.23L144.617 182.804L147.427 183.057L150.237 151.247C150.563 149.209 149.345 147.242 147.373 146.631C143.811 145.526 139.099 144.199 136.072 143.873C131.101 143.338 123.207 143.689 123.207 143.689C120.837 143.778 118.875 145.561 118.55 147.91L114.778 180.106Z" fill="#1328C9"></path><path opacity="0.4" d="M121.767 178.222C120.669 178.222 119.776 177.328 119.776 176.229C119.776 175.131 120.669 174.237 121.767 174.237C122.865 174.237 123.759 175.131 123.759 176.229C123.759 177.328 122.865 178.222 121.767 178.222ZM121.767 174.705C120.927 174.705 120.243 175.389 120.243 176.229C120.243 177.07 120.927 177.754 121.767 177.754C122.607 177.754 123.291 177.07 123.291 176.229C123.291 175.389 122.607 174.705 121.767 174.705ZM146.953 179.82C144.781 179.82 143.014 178.053 143.014 175.881C143.014 173.707 144.781 171.939 146.953 171.939C147.471 171.939 147.976 172.039 148.453 172.236C148.572 172.285 148.63 172.421 148.58 172.541C148.532 172.661 148.395 172.718 148.275 172.668C147.855 172.495 147.41 172.407 146.953 172.407C145.039 172.407 143.482 173.966 143.482 175.881C143.482 177.795 145.039 179.352 146.953 179.352C147.201 179.352 147.451 179.325 147.692 179.272C147.815 179.243 147.943 179.324 147.97 179.451C147.998 179.577 147.918 179.702 147.792 179.729C147.518 179.789 147.235 179.82 146.953 179.82ZM136.657 181.16C135.535 181.16 134.621 180.246 134.621 179.123C134.621 177.999 135.534 177.086 136.657 177.086C137.78 177.086 138.693 177.999 138.693 179.123C138.694 180.246 137.78 181.16 136.657 181.16ZM136.657 177.554C135.793 177.554 135.089 178.258 135.089 179.123C135.089 179.988 135.793 180.692 136.657 180.692C137.522 180.692 138.225 179.988 138.225 179.123C138.226 178.258 137.522 177.554 136.657 177.554ZM126.92 166.798C126.324 166.798 125.837 166.313 125.837 165.715C125.837 165.117 126.323 164.631 126.92 164.631C127.518 164.631 128.003 165.117 128.003 165.715C128.003 166.312 127.518 166.798 126.92 166.798ZM126.92 165.1C126.581 165.1 126.305 165.376 126.305 165.715C126.305 166.054 126.581 166.33 126.92 166.33C127.259 166.33 127.535 166.054 127.535 165.715C127.535 165.375 127.259 165.1 126.92 165.1ZM126.995 155.43C125.944 155.43 125.089 154.574 125.089 153.522C125.089 152.47 125.944 151.614 126.995 151.614C128.047 151.614 128.902 152.47 128.902 153.522C128.902 154.575 128.046 155.43 126.995 155.43ZM126.995 152.082C126.202 152.082 125.557 152.728 125.557 153.522C125.557 154.315 126.202 154.961 126.995 154.961C127.789 154.961 128.435 154.315 128.435 153.522C128.434 152.728 127.789 152.082 126.995 152.082ZM135.456 153.232C134.664 153.232 134.02 152.587 134.02 151.795C134.02 151.003 134.664 150.358 135.456 150.358C136.247 150.358 136.891 151.003 136.891 151.795C136.891 152.587 136.248 153.232 135.456 153.232ZM135.456 150.827C134.922 150.827 134.488 151.261 134.488 151.795C134.488 152.329 134.922 152.764 135.456 152.764C135.989 152.764 136.424 152.329 136.424 151.795C136.424 151.261 135.989 150.827 135.456 150.827ZM124.751 147.236C124.114 147.236 123.596 146.718 123.596 146.08C123.596 145.443 124.114 144.925 124.751 144.925C125.388 144.925 125.906 145.443 125.906 146.08C125.906 146.718 125.387 147.236 124.751 147.236ZM124.751 145.393C124.372 145.393 124.064 145.702 124.064 146.08C124.064 146.459 124.372 146.768 124.751 146.768C125.13 146.768 125.438 146.459 125.438 146.08C125.438 145.702 125.13 145.393 124.751 145.393ZM133.443 159.364C132.543 159.364 131.81 158.631 131.81 157.73C131.81 156.83 132.542 156.097 133.443 156.097C134.343 156.097 135.076 156.83 135.076 157.73C135.076 158.631 134.343 159.364 133.443 159.364ZM133.443 156.564C132.801 156.564 132.278 157.088 132.278 157.73C132.278 158.373 132.801 158.897 133.443 158.897C134.086 158.897 134.608 158.373 134.608 157.73C134.608 157.088 134.085 156.564 133.443 156.564ZM122.832 150.757C122.321 150.757 121.906 150.341 121.906 149.83C121.906 149.318 122.322 148.903 122.832 148.903C123.343 148.903 123.759 149.319 123.759 149.83C123.759 150.341 123.343 150.757 122.832 150.757ZM122.832 149.37C122.579 149.37 122.374 149.576 122.374 149.829C122.374 150.082 122.579 150.288 122.832 150.288C123.085 150.288 123.291 150.082 123.291 149.829C123.291 149.576 123.085 149.37 122.832 149.37ZM118.232 169.907C117.8 169.907 117.449 169.556 117.449 169.124C117.449 168.692 117.8 168.34 118.232 168.34C118.663 168.34 119.015 168.692 119.015 169.124C119.015 169.556 118.663 169.907 118.232 169.907ZM118.232 168.808C118.058 168.808 117.916 168.95 117.916 169.124C117.916 169.297 118.058 169.44 118.232 169.44C118.406 169.44 118.547 169.298 118.547 169.124C118.547 168.95 118.406 168.808 118.232 168.808ZM130.712 171.475C129.848 171.475 129.146 170.772 129.146 169.908C129.146 169.044 129.848 168.34 130.712 168.34C131.575 168.34 132.277 169.043 132.277 169.908C132.277 170.773 131.576 171.475 130.712 171.475ZM130.712 168.808C130.106 168.808 129.613 169.302 129.613 169.908C129.613 170.514 130.106 171.007 130.712 171.007C131.317 171.007 131.81 170.514 131.81 169.908C131.81 169.301 131.317 168.808 130.712 168.808ZM138.712 168.334C137.926 168.334 137.287 167.694 137.287 166.907C137.287 166.121 137.926 165.481 138.712 165.481C139.498 165.481 140.137 166.121 140.137 166.907C140.137 167.694 139.498 168.334 138.712 168.334ZM138.712 165.949C138.184 165.949 137.754 166.379 137.754 166.907C137.754 167.436 138.184 167.865 138.712 167.865C139.24 167.865 139.67 167.436 139.67 166.907C139.67 166.379 139.24 165.949 138.712 165.949Z" fill="white"></path><path d="M114.778 180.338C114.769 180.338 114.759 180.338 114.75 180.337C114.622 180.321 114.53 180.205 114.545 180.077L118.011 150.495C118.026 150.367 118.145 150.275 118.27 150.29C118.399 150.305 118.491 150.421 118.476 150.549L115.01 180.131C114.996 180.251 114.895 180.338 114.778 180.338Z" fill="#030047"></path><path d="M130.017 144.112L131.856 134.52L142.22 131.965L139.812 145.491C139.812 145.491 136.996 148.784 132.871 147.942C129.555 147.266 130.017 144.112 130.017 144.112Z" fill="white"></path><path d="M134.206 148.313C133.764 148.313 133.302 148.27 132.824 148.173C129.332 147.46 129.781 144.112 129.786 144.079C129.787 144.076 129.787 144.072 129.788 144.069L131.627 134.477C131.644 134.387 131.712 134.315 131.8 134.293L142.164 131.738C142.241 131.719 142.322 131.741 142.38 131.794C142.438 131.849 142.464 131.928 142.45 132.007L140.042 145.533C140.035 145.574 140.017 145.613 139.99 145.645C139.964 145.674 137.662 148.313 134.206 148.313ZM130.248 144.151C130.224 144.326 129.896 147.097 132.917 147.714C136.594 148.464 139.237 145.771 139.593 145.385L141.927 132.278L132.058 134.711L130.248 144.151Z" fill="#030047"></path><path d="M142.22 132.189C145.863 127 142.688 122.182 142.688 122.182L129.18 118.565C128.969 118.792 124.678 123.371 124.92 131.381C125.119 137.98 131.845 140.8 138.182 137.445" fill="white"></path><path d="M132.771 139.103C131.192 139.103 129.693 138.727 128.398 137.973C126.092 136.631 124.774 134.292 124.687 131.388C124.45 123.541 128.54 118.911 129.007 118.409C129.065 118.346 129.156 118.317 129.241 118.339L142.749 121.956C142.805 121.971 142.853 122.006 142.884 122.053C142.916 122.103 146.104 127.065 142.412 132.323C142.338 132.429 142.191 132.455 142.086 132.38C141.98 132.306 141.955 132.16 142.03 132.054C145.295 127.403 142.905 123.001 142.538 122.384L129.258 118.828C128.509 119.674 124.935 124.097 125.154 131.374C125.237 134.11 126.472 136.31 128.633 137.569C131.262 139.099 134.79 138.976 138.073 137.238C138.186 137.178 138.329 137.222 138.389 137.336C138.45 137.45 138.406 137.592 138.291 137.652C136.468 138.617 134.568 139.103 132.771 139.103ZM145.831 124.358V124.374C145.888 124.526 145.942 124.677 145.99 124.833C146.024 124.943 146.062 125.051 146.103 125.159C146.015 124.871 145.923 124.605 145.831 124.358Z" fill="#030047"></path><path d="M128.902 127.777C128.988 127.298 128.798 126.862 128.477 126.804C128.155 126.746 127.825 127.087 127.738 127.567C127.652 128.046 127.842 128.482 128.163 128.54C128.485 128.598 128.815 128.256 128.902 127.777Z" fill="#030047"></path><path d="M127.74 125.94C128.314 125.685 129.012 125.831 129.513 126.311L127.74 125.94Z" fill="white"></path><path d="M129.513 126.544C129.455 126.544 129.397 126.523 129.351 126.48C128.918 126.065 128.323 125.936 127.835 126.154C127.717 126.206 127.579 126.153 127.527 126.035C127.474 125.917 127.527 125.778 127.645 125.726C128.308 125.433 129.104 125.595 129.674 126.142C129.767 126.231 129.77 126.379 129.681 126.472C129.636 126.521 129.574 126.544 129.513 126.544Z" fill="#030047"></path><path d="M134.235 129.221C134.246 128.734 133.989 128.333 133.663 128.326C133.337 128.319 133.063 128.709 133.053 129.195C133.043 129.682 133.299 130.083 133.625 130.09C133.952 130.097 134.225 129.708 134.235 129.221Z" fill="#030047"></path><path d="M133.011 127.496C133.576 127.224 134.279 127.348 134.793 127.812L133.011 127.496Z" fill="white"></path><path d="M134.793 128.046C134.738 128.046 134.682 128.027 134.637 127.987C134.192 127.586 133.593 127.475 133.112 127.707C132.996 127.763 132.856 127.713 132.8 127.597C132.744 127.481 132.793 127.341 132.909 127.285C133.562 126.971 134.363 127.11 134.95 127.639C135.046 127.726 135.054 127.874 134.967 127.969C134.921 128.021 134.858 128.046 134.793 128.046Z" fill="#030047"></path><path d="M140.182 127.866C140.182 127.866 142.791 125.055 144.329 125.536C145.866 126.017 145.492 131.39 143.708 131.958C141.925 132.527 140.448 131.867 140.448 131.867" fill="white"></path><path d="M142.209 132.424C141.14 132.424 140.397 132.1 140.353 132.08C140.235 132.028 140.183 131.89 140.235 131.772C140.288 131.654 140.427 131.601 140.544 131.652C140.558 131.659 141.969 132.268 143.638 131.735C144.533 131.45 145.063 129.635 145.059 128.044C145.056 126.806 144.742 125.91 144.26 125.759C143.116 125.401 141.053 127.273 140.354 128.025C140.266 128.12 140.119 128.125 140.023 128.037C139.929 127.949 139.923 127.801 140.011 127.706C140.122 127.587 142.741 124.794 144.399 125.312C145.1 125.531 145.521 126.552 145.525 128.042C145.53 129.821 144.932 131.813 143.779 132.181C143.214 132.361 142.68 132.424 142.209 132.424Z" fill="#030047"></path><path d="M143.394 129.676C143.365 129.676 143.334 129.671 143.305 129.659C143.186 129.609 143.129 129.472 143.178 129.353C143.304 129.049 143.368 128.714 143.363 128.386C143.361 128.202 143.324 128.077 143.257 128.024C143.21 127.987 143.132 127.975 143.054 127.993C142.97 128.012 142.882 128.061 142.784 128.143C142.637 128.265 142.514 128.42 142.43 128.59C142.372 128.705 142.233 128.753 142.116 128.695C142 128.637 141.953 128.496 142.011 128.381C142.125 128.153 142.289 127.946 142.485 127.783C142.641 127.653 142.793 127.573 142.95 127.537C143.165 127.488 143.389 127.533 143.546 127.656C143.733 127.804 143.826 128.04 143.831 128.379C143.837 128.77 143.761 129.169 143.611 129.532C143.573 129.622 143.486 129.676 143.394 129.676Z" fill="#030047"></path><path d="M130.537 128.992C130.245 129.632 129.953 130.271 129.66 130.911C129.484 131.297 129.305 131.698 129.343 132.109C129.382 132.52 129.705 132.942 130.196 133.013" fill="white"></path><path d="M130.197 133.246C130.186 133.246 130.175 133.246 130.163 133.244C129.533 133.153 129.157 132.615 129.111 132.13C129.066 131.65 129.269 131.206 129.448 130.814L130.325 128.895C130.379 128.777 130.518 128.725 130.635 128.779C130.752 128.833 130.804 128.972 130.75 129.089L129.874 131.008C129.719 131.348 129.543 131.731 129.577 132.087C129.604 132.382 129.843 132.725 130.23 132.781C130.358 132.8 130.447 132.918 130.428 133.047C130.411 133.162 130.311 133.246 130.197 133.246Z" fill="#030047"></path><path d="M132.267 135.863C131.997 135.863 131.727 135.814 131.478 135.712C131.358 135.664 131.3 135.527 131.349 135.408C131.397 135.288 131.535 135.23 131.654 135.279C132.126 135.47 132.691 135.426 133.127 135.162C133.564 134.899 133.867 134.421 133.919 133.913C133.932 133.785 134.049 133.691 134.175 133.704C134.304 133.717 134.398 133.833 134.384 133.961C134.318 134.612 133.929 135.226 133.369 135.563C133.039 135.762 132.652 135.863 132.267 135.863Z" fill="#030047"></path><path d="M77.3982 155.075C77.8324 156.796 78.4113 159.121 80.6661 160.289C82.3944 161.185 87.5311 158.974 85.1628 156.361C85.1628 156.361 85.768 155.665 85.3802 154.458C84.9924 153.251 84.3676 153.451 84.3676 153.451C84.3676 153.451 85.3808 152.516 84.8556 151.517C84.3298 150.518 83.6073 150.592 83.6073 150.592C83.6073 150.592 84.6382 150.212 83.8791 148.589C83.1199 146.966 78.1665 148.916 77.6064 149.388C76.319 150.473 77.0427 153.668 77.3982 155.075Z" fill="white"></path><path d="M81.6601 160.722C81.2387 160.722 80.8576 160.651 80.5584 160.497C78.22 159.285 77.6166 156.898 77.1769 155.154L77.1714 155.132C76.3756 151.979 76.469 150.041 77.4566 149.209C77.9482 148.795 81.3731 147.407 83.1044 147.788C83.5924 147.896 83.9246 148.132 84.092 148.49C84.4095 149.169 84.4761 149.741 84.2917 150.191C84.2471 150.299 84.1915 150.391 84.1323 150.467C84.4205 150.592 84.7729 150.856 85.0636 151.408C85.4655 152.173 85.1131 152.884 84.8205 153.285C85.0807 153.408 85.3848 153.703 85.6041 154.387C85.9186 155.365 85.6358 156.046 85.4581 156.345C86.1611 157.209 86.1959 158.138 85.5503 158.977C84.7619 160 83.0055 160.722 81.6601 160.722ZM77.6245 155.017L77.63 155.039C78.0483 156.697 78.6218 158.966 80.7733 160.081C81.7578 160.591 84.2037 159.959 85.1784 158.691C85.7207 157.986 85.6572 157.255 84.9891 156.518C84.9097 156.43 84.9079 156.296 84.986 156.207C85.0056 156.183 85.4966 155.584 85.1577 154.529C84.8541 153.585 84.4498 153.673 84.4315 153.675C84.3295 153.702 84.2172 153.653 84.1665 153.56C84.1164 153.466 84.131 153.351 84.2086 153.279C84.2446 153.245 85.0825 152.451 84.6483 151.625C84.211 150.793 83.6498 150.822 83.6284 150.824C83.5069 150.834 83.4055 150.754 83.3811 150.64C83.3567 150.527 83.4177 150.412 83.5271 150.371C83.5332 150.369 83.753 150.279 83.8623 150.002C83.9881 149.683 83.921 149.229 83.6675 148.687C83.5637 148.465 83.3463 148.319 83.0031 148.244C81.4677 147.905 78.1864 149.204 77.757 149.566C76.932 150.262 76.8874 152.096 77.6245 155.017Z" fill="#030047"></path><path d="M81.8875 157.334C81.7806 157.334 81.6841 157.26 81.6597 157.151C81.631 157.025 81.7104 156.9 81.8362 156.871L85.1114 156.132C85.2378 156.103 85.3624 156.183 85.3911 156.308C85.4198 156.434 85.3404 156.56 85.2146 156.588L81.9394 157.328C81.9217 157.332 81.9046 157.334 81.8875 157.334Z" fill="#030047"></path><path d="M81.3347 154.37C81.2279 154.37 81.1314 154.296 81.1069 154.187C81.0782 154.061 81.1576 153.936 81.2834 153.907L84.3162 153.222C84.4427 153.193 84.5672 153.273 84.5959 153.399C84.6247 153.524 84.5453 153.65 84.4195 153.678L81.3867 154.363C81.3696 154.368 81.3518 154.37 81.3347 154.37Z" fill="#030047"></path><path d="M80.6843 151.486C80.5775 151.486 80.481 151.412 80.4566 151.303C80.4278 151.177 80.5072 151.052 80.633 151.023L83.5559 150.363C83.6817 150.335 83.8069 150.414 83.8356 150.54C83.8643 150.666 83.7849 150.791 83.6591 150.82L80.7363 151.48C80.7192 151.484 80.7014 151.486 80.6843 151.486Z" fill="#030047"></path><g opacity="0.4"><path d="M115.428 152.569C114.703 152.569 114.112 151.978 114.112 151.252C114.112 150.526 114.703 149.935 115.428 149.935C116.154 149.935 116.744 150.526 116.744 151.252C116.744 151.978 116.154 152.569 115.428 152.569ZM115.428 150.403C114.961 150.403 114.58 150.783 114.58 151.252C114.58 151.72 114.961 152.1 115.428 152.1C115.896 152.1 116.277 151.72 116.277 151.252C116.277 150.783 115.896 150.403 115.428 150.403Z" fill="white"></path></g><path d="M143.97 125.481C143.97 125.481 140.981 125.945 139.982 128.715C136.108 128.012 127.641 120.555 134.151 114.801C139.658 109.934 146.798 115.026 146.103 122.23C145.676 126.656 143.97 125.481 143.97 125.481Z" fill="#030047"></path><path d="M131.993 119.468C131.993 119.468 128.755 119.261 127.246 121.351C127.246 121.351 126.013 120.531 125.776 118.381C125.076 112.05 140.132 109.063 141.842 114.079C144.379 121.519 136.786 120.99 136.786 120.99L131.993 119.468Z" fill="#030047"></path><path d="M108.248 157.964C108.209 157.964 108.168 157.953 108.131 157.932L105.443 156.367C105.331 156.303 105.293 156.159 105.358 156.047C105.423 155.936 105.567 155.897 105.678 155.962L108.366 157.527C108.478 157.592 108.516 157.736 108.451 157.847C108.407 157.921 108.329 157.964 108.248 157.964Z" fill="#030047"></path><path d="M98.2096 141.538C99.2686 152.42 105.845 161.026 112.896 160.762C119.942 160.498 124.797 151.463 123.734 140.581C122.675 129.698 116.098 121.092 109.047 121.357C102 121.625 97.1463 130.66 98.2096 141.538ZM109.34 124.862C114.718 124.706 119.807 131.831 120.705 140.775C121.608 149.72 117.981 157.101 112.603 157.257C107.23 157.414 102.141 150.292 101.238 141.348C100.335 132.4 103.962 125.023 109.34 124.862Z" fill="#3CF0C0"></path><path opacity="0.3" d="M109.34 124.862C114.718 124.705 119.807 131.831 120.705 140.775C121.608 149.72 117.982 157.101 112.604 157.257C107.23 157.414 102.141 150.292 101.238 141.348C100.336 132.4 103.962 125.023 109.34 124.862Z" fill="white"></path><path d="M110.991 159.617L115.875 193.503C116.016 194.484 116.926 195.162 117.902 195.021C118.882 194.88 119.56 193.973 119.419 192.993L114.534 159.106C114.405 158.214 113.639 157.571 112.765 157.571C112.68 157.571 112.591 157.577 112.507 157.589C111.528 157.73 110.85 158.636 110.991 159.617Z" fill="#3CF0C0"></path><path d="M111.83 170.774C111.325 170.706 110.134 170.674 110.293 171.945C110.495 173.551 112.458 173.878 112.458 173.878C112.458 173.878 110.809 173.739 110.953 175.171C111.096 176.607 113.211 177.321 113.211 177.321L120.375 180.215L146.242 189.474C148.967 190.704 152.121 190.516 154.682 188.972C157.439 187.308 159.085 184.334 159.085 181.175C159.085 180.761 159.059 180.341 159 179.925L156.554 162.182L144.191 164.134L145.323 173.833L118.754 167.106C118.754 167.106 118.225 162.402 115.253 163.855L115.881 167.425C115.881 167.425 112.017 164.222 111.207 165.727C110.412 167.198 111.639 167.994 111.639 167.994C111.639 167.994 109.72 167.486 110.007 169.062C110.231 170.295 111.349 170.671 111.83 170.774Z" fill="white"></path><path d="M149.982 190.513C148.677 190.513 147.369 190.239 146.145 189.687L120.297 180.435L113.123 177.537C113.044 177.511 110.877 176.762 110.72 175.194C110.674 174.733 110.786 174.362 111.054 174.09C111.182 173.959 111.334 173.866 111.49 173.799C110.884 173.507 110.185 172.96 110.061 171.974C110.002 171.502 110.103 171.134 110.36 170.877C110.487 170.752 110.64 170.667 110.802 170.611C110.352 170.328 109.916 169.863 109.778 169.103C109.689 168.611 109.78 168.235 110.051 167.985C110.314 167.741 110.69 167.677 111.019 167.679C110.726 167.245 110.5 166.546 111.003 165.615C111.147 165.347 111.385 165.174 111.69 165.114C112.781 164.901 114.647 166.178 115.545 166.859L115.024 163.893C115.006 163.791 115.057 163.689 115.152 163.643C115.923 163.265 116.618 163.241 117.218 163.57C118.477 164.261 118.875 166.317 118.966 166.917L145.053 173.521L143.959 164.159C143.945 164.035 144.032 163.92 144.156 163.901L156.518 161.948C156.58 161.938 156.643 161.954 156.694 161.992C156.744 162.029 156.778 162.085 156.786 162.147L159.233 179.89C159.291 180.302 159.321 180.734 159.321 181.173C159.321 184.424 157.59 187.489 154.805 189.17C153.327 190.062 151.658 190.513 149.982 190.513ZM112.342 174.108C112.138 174.108 111.659 174.14 111.385 174.419C111.219 174.589 111.153 174.827 111.185 175.147C111.312 176.414 113.266 177.091 113.285 177.098L120.462 179.997L146.32 189.252C148.992 190.458 152.065 190.274 154.561 188.77C157.207 187.173 158.851 184.262 158.851 181.173C158.851 180.756 158.824 180.346 158.768 179.955L156.354 162.448L144.449 164.328L145.555 173.804C145.564 173.881 145.535 173.956 145.477 174.007C145.42 174.058 145.34 174.077 145.266 174.058L118.697 167.331C118.602 167.307 118.532 167.227 118.521 167.131C118.519 167.106 118.227 164.658 116.99 163.979C116.565 163.746 116.082 163.749 115.514 163.99L116.11 167.382C116.127 167.478 116.082 167.576 115.998 167.624C115.913 167.673 115.807 167.665 115.731 167.602C114.97 166.972 112.775 165.378 111.778 165.572C111.608 165.605 111.492 165.689 111.413 165.836C110.734 167.093 111.724 167.767 111.766 167.796C111.862 167.858 111.898 167.982 111.851 168.086C111.804 168.192 111.687 168.246 111.579 168.218C111.341 168.155 110.661 168.055 110.367 168.328C110.222 168.462 110.178 168.694 110.238 169.018C110.437 170.12 111.451 170.451 111.878 170.543C112.001 170.569 112.081 170.687 112.06 170.811C112.039 170.936 111.926 171.022 111.799 171.003C111.56 170.972 110.973 170.928 110.69 171.209C110.541 171.357 110.484 171.594 110.525 171.914C110.702 173.324 112.478 173.642 112.497 173.645C112.62 173.665 112.705 173.78 112.69 173.904C112.674 174.028 112.568 174.116 112.439 174.109C112.437 174.11 112.401 174.108 112.342 174.108Z" fill="#030047"></path><path d="M148.696 175.304C148.669 175.304 148.642 175.3 148.615 175.29L145.243 174.052C145.122 174.008 145.06 173.873 145.105 173.752C145.149 173.631 145.283 173.569 145.405 173.613L148.777 174.851C148.898 174.896 148.96 175.03 148.916 175.151C148.881 175.246 148.791 175.304 148.696 175.304Z" fill="#030047"></path><path d="M146.453 146.441L150.519 147.378C153.588 148.084 155.931 150.568 156.46 153.674L158.147 163.573L143.128 165.409L141.931 157.813C141.457 154.8 142.264 151.726 144.158 149.337L146.453 146.441Z" fill="#1328C9"></path><path d="M143.128 165.643C143.014 165.643 142.915 165.56 142.897 165.445L141.7 157.849C141.68 157.721 141.767 157.601 141.894 157.581C142.023 157.561 142.142 157.648 142.162 157.776L143.324 165.149L157.874 163.37L156.23 153.712C156.208 153.585 156.294 153.464 156.421 153.442C156.55 153.42 156.669 153.505 156.691 153.633L158.377 163.533C158.387 163.596 158.372 163.661 158.334 163.712C158.296 163.763 158.238 163.797 158.175 163.804L143.156 165.641C143.147 165.642 143.137 165.643 143.128 165.643Z" fill="#030047"></path><g opacity="0.4"><path d="M146.923 162.101C145.757 162.101 144.81 161.152 144.81 159.987C144.81 158.821 145.757 157.873 146.923 157.873C148.087 157.873 149.035 158.822 149.035 159.987C149.035 161.152 148.088 162.101 146.923 162.101ZM146.923 158.341C146.016 158.341 145.277 159.079 145.277 159.986C145.277 160.894 146.015 161.632 146.923 161.632C147.83 161.632 148.567 160.894 148.567 159.986C148.567 159.079 147.83 158.341 146.923 158.341Z" fill="white"></path></g><g opacity="0.4"><path d="M153.109 159.681C152.186 159.681 151.435 158.929 151.435 158.005C151.435 157.081 152.186 156.33 153.109 156.33C154.032 156.33 154.783 157.082 154.783 158.005C154.783 158.929 154.032 159.681 153.109 159.681ZM153.109 156.798C152.443 156.798 151.902 157.34 151.902 158.005C151.902 158.671 152.443 159.213 153.109 159.213C153.774 159.213 154.315 158.671 154.315 158.005C154.315 157.339 153.774 156.798 153.109 156.798Z" fill="white"></path></g><g opacity="0.4"><path d="M148.363 154.964C147.44 154.964 146.689 154.212 146.689 153.288C146.689 152.364 147.44 151.613 148.363 151.613C149.286 151.613 150.038 152.365 150.038 153.288C150.038 154.212 149.286 154.964 148.363 154.964ZM148.363 152.081C147.698 152.081 147.157 152.623 147.157 153.288C147.157 153.954 147.698 154.496 148.363 154.496C149.029 154.496 149.57 153.955 149.57 153.288C149.57 152.622 149.029 152.081 148.363 152.081Z" fill="white"></path></g><path d="M111.64 167.994C111.64 167.994 114.116 169.199 116.363 169.674L111.64 167.994Z" fill="white"></path><path d="M116.363 169.907C116.347 169.907 116.331 169.906 116.314 169.903C114.066 169.427 111.64 168.254 111.537 168.204C111.421 168.147 111.373 168.007 111.429 167.891C111.485 167.775 111.626 167.726 111.742 167.783C111.766 167.794 114.219 168.981 116.411 169.444C116.537 169.471 116.618 169.595 116.591 169.722C116.568 169.832 116.471 169.907 116.363 169.907Z" fill="#030047"></path><path d="M111.83 170.771C111.83 170.771 114.752 171.996 116.363 172.071L111.83 170.771Z" fill="white"></path><path d="M116.363 172.306C116.36 172.306 116.356 172.306 116.352 172.305C114.719 172.23 111.861 171.038 111.74 170.988C111.621 170.938 111.565 170.801 111.615 170.682C111.664 170.563 111.802 170.506 111.921 170.556C111.95 170.569 114.824 171.766 116.374 171.839C116.503 171.845 116.603 171.954 116.597 172.083C116.59 172.208 116.487 172.306 116.363 172.306Z" fill="#030047"></path><path d="M112.458 173.877C112.458 173.877 114.041 174.47 116.363 174.47L112.458 173.877Z" fill="white"></path><path d="M116.363 174.705C114.026 174.705 112.442 174.121 112.376 174.096C112.255 174.051 112.193 173.917 112.239 173.795C112.284 173.674 112.418 173.612 112.54 173.657C112.556 173.663 114.116 174.236 116.363 174.236C116.492 174.236 116.597 174.341 116.597 174.47C116.597 174.6 116.492 174.705 116.363 174.705Z" fill="#030047"></path></g><path d="M30.4809 144.619L33.8015 155.233C34.6712 158.008 37.6274 159.554 40.4062 158.684L58.0073 153.17C60.7871 152.3 62.332 149.341 61.4623 146.566L58.1417 135.952C57.272 133.177 54.3158 131.631 51.5427 132.501L33.9359 138.015C31.1618 138.885 29.617 141.844 30.4809 144.619Z" fill="#FFAD00"></path><path d="M45.8935 147.852C46.7384 147.852 47.5585 147.422 48.021 146.665L54.1461 136.657C54.2873 136.427 54.2148 136.127 53.985 135.987C53.7552 135.846 53.4557 135.919 53.3155 136.148L47.1904 146.157C46.7966 146.8 45.9793 147.056 45.2898 146.752L34.5587 142.026C34.3098 141.916 34.0247 142.029 33.9169 142.276C33.8082 142.522 33.9198 142.809 34.1658 142.918L44.897 147.644C45.2202 147.785 45.5588 147.852 45.8935 147.852Z" fill="#030047"></path><path d="M38.2161 155.27C38.3678 155.27 38.5165 155.201 38.6109 155.068L44.4242 147.017C44.5816 146.799 44.5329 146.494 44.3146 146.336C44.0962 146.178 43.792 146.227 43.6346 146.446L37.8213 154.497C37.664 154.715 37.7126 155.02 37.931 155.178C38.0178 155.241 38.117 155.27 38.2161 155.27ZM57.5842 149.203C57.7854 149.203 57.9733 149.078 58.0439 148.877C58.1335 148.623 58 148.345 57.7463 148.255L48.3779 144.96C48.1233 144.871 47.8468 145.004 47.7571 145.258C47.6675 145.512 47.801 145.789 48.0547 145.879L57.4231 149.174C57.4765 149.193 57.5299 149.203 57.5842 149.203Z" fill="#030047"></path><path d="M31.0796 84.4628C27.8156 84.4628 25.2146 82.0828 25.2146 78.5978C25.2146 75.1128 27.8156 72.7328 31.0796 72.7328C33.4596 72.7328 34.8706 73.9228 35.7206 75.2828L34.0206 76.1498C33.4766 75.2148 32.3886 74.5008 31.0796 74.5008C28.9206 74.5008 27.2546 76.2178 27.2546 78.5978C27.2546 80.9778 28.9206 82.6948 31.0796 82.6948C32.3886 82.6948 33.4766 81.9978 34.0206 81.0458L35.7206 81.9128C34.8536 83.2728 33.4596 84.4628 31.0796 84.4628ZM40.9675 84.4628C38.3665 84.4628 36.7515 82.5078 36.7515 80.1448C36.7515 77.7988 38.3665 75.8438 40.9675 75.8438C43.6025 75.8438 45.2005 77.7988 45.2005 80.1448C45.2005 82.5078 43.6025 84.4628 40.9675 84.4628ZM40.9675 82.8818C42.4975 82.8818 43.3475 81.6068 43.3475 80.1448C43.3475 78.6998 42.4975 77.4248 40.9675 77.4248C39.4545 77.4248 38.6045 78.6998 38.6045 80.1448C38.6045 81.6068 39.4545 82.8818 40.9675 82.8818ZM54.3336 84.2588H52.5486V79.1248C52.5486 77.8498 51.9026 77.4248 50.8996 77.4248C49.9816 77.4248 49.1996 77.9688 48.7916 78.5298V84.2588H47.0066V76.0478H48.7916V77.1698C49.3356 76.5238 50.3896 75.8438 51.6816 75.8438C53.4496 75.8438 54.3336 76.7958 54.3336 78.4788V84.2588ZM55.9381 83.1878L56.7541 81.8958C57.3321 82.4908 58.4711 83.0518 59.5421 83.0518C60.6131 83.0518 61.1571 82.6608 61.1571 82.0488C61.1571 81.3348 60.2901 81.0798 59.2871 80.8588C57.8761 80.5528 56.1931 80.1788 56.1931 78.3428C56.1931 76.9998 57.3491 75.8438 59.4231 75.8438C60.8171 75.8438 61.8711 76.3368 62.6191 76.9998L61.8711 78.2578C61.3781 77.6968 60.4601 77.2718 59.4401 77.2718C58.5051 77.2718 57.9101 77.6118 57.9101 78.1898C57.9101 78.8188 58.7261 79.0398 59.6951 79.2608C61.1231 79.5668 62.8741 79.9748 62.8741 81.9128C62.8741 83.3578 61.6671 84.4628 59.4571 84.4628C58.0631 84.4628 56.7881 84.0208 55.9381 83.1878ZM71.9976 84.2588H70.2126V83.1708C69.6176 83.8338 68.5976 84.4628 67.3056 84.4628C65.5376 84.4628 64.6706 83.5448 64.6706 81.8618V76.0478H66.4556V81.2158C66.4556 82.4908 67.1016 82.8818 68.1046 82.8818C69.0056 82.8818 69.7876 82.3718 70.2126 81.8108V76.0478H71.9976V84.2588ZM76.1012 84.2588H74.3162V72.9198H76.1012V84.2588ZM80.8817 84.4628C79.5047 84.4628 78.7737 83.7148 78.7737 82.3548V77.6118H77.4137V76.0478H78.7737V73.8038H80.5587V76.0478H82.2247V77.6118H80.5587V81.9128C80.5587 82.4738 80.8307 82.8818 81.3407 82.8818C81.6807 82.8818 82.0037 82.7458 82.1397 82.5928L82.5647 83.9358C82.2417 84.2418 81.7147 84.4628 80.8817 84.4628ZM90.6455 84.2588H88.8605V83.3748C88.2485 84.0718 87.2965 84.4628 86.2085 84.4628C84.8655 84.4628 83.3525 83.5618 83.3525 81.7428C83.3525 79.8558 84.8655 79.0738 86.2085 79.0738C87.3135 79.0738 88.2655 79.4308 88.8605 80.1278V78.9038C88.8605 77.9518 88.0785 77.3738 86.9395 77.3738C86.0215 77.3738 85.2225 77.7138 84.5085 78.4108L83.7775 77.1698C84.7295 76.2688 85.9195 75.8438 87.2285 75.8438C89.0475 75.8438 90.6455 76.6088 90.6455 78.8188V84.2588ZM88.8605 82.3888V81.1478C88.4525 80.5868 87.6875 80.2978 86.9055 80.2978C85.9025 80.2978 85.1545 80.8758 85.1545 81.7768C85.1545 82.6608 85.9025 83.2388 86.9055 83.2388C87.6875 83.2388 88.4525 82.9498 88.8605 82.3888ZM100.287 84.2588H98.5017V79.1248C98.5017 77.8498 97.8557 77.4248 96.8527 77.4248C95.9347 77.4248 95.1527 77.9688 94.7447 78.5298V84.2588H92.9597V76.0478H94.7447V77.1698C95.2887 76.5238 96.3427 75.8438 97.6347 75.8438C99.4027 75.8438 100.287 76.7958 100.287 78.4788V84.2588ZM102.095 80.1448C102.095 77.6628 103.846 75.8438 106.345 75.8438C107.943 75.8438 108.912 76.5238 109.49 77.3058L108.317 78.3938C107.858 77.7478 107.229 77.4248 106.43 77.4248C104.934 77.4248 103.948 78.5468 103.948 80.1448C103.948 81.7428 104.934 82.8818 106.43 82.8818C107.229 82.8818 107.858 82.5418 108.317 81.9128L109.49 83.0008C108.912 83.7828 107.943 84.4628 106.345 84.4628C103.846 84.4628 102.095 82.6438 102.095 80.1448ZM110.698 87.4718L110.97 85.8738C111.157 85.9588 111.446 86.0098 111.65 86.0098C112.211 86.0098 112.585 85.8398 112.823 85.2958L113.231 84.3608L109.865 76.0478H111.769L114.166 82.2018L116.563 76.0478H118.484L114.523 85.7378C113.962 87.1318 112.976 87.5738 111.701 87.5908C111.446 87.5908 110.953 87.5398 110.698 87.4718ZM131.264 82.0318C131.944 82.7458 132.658 83.4768 133.457 84.2588H131.128C130.856 84.0038 130.499 83.6468 130.125 83.2728C129.275 83.9868 128.238 84.4628 126.946 84.4628C124.923 84.4628 123.291 83.3918 123.291 81.2328C123.291 79.4818 124.464 78.5978 125.756 77.9178C125.28 77.0678 124.957 76.2178 124.957 75.4358C124.957 73.9058 126.266 72.7498 128.034 72.7498C129.581 72.7498 130.839 73.5998 130.839 75.0788C130.839 76.7958 129.428 77.5268 128.017 78.2238C128.391 78.7508 128.799 79.2438 129.122 79.6178C129.496 80.0768 129.87 80.5018 130.244 80.9268C130.788 80.1108 131.162 79.2098 131.366 78.5638L132.828 79.2268C132.437 80.1278 131.927 81.1308 131.264 82.0318ZM126.759 75.4698C126.759 75.9798 126.997 76.5748 127.32 77.1698C128.391 76.6598 129.258 76.1158 129.258 75.1638C129.258 74.4668 128.765 74.0758 128.119 74.0758C127.354 74.0758 126.759 74.6538 126.759 75.4698ZM127.167 83.0348C127.898 83.0348 128.561 82.7118 129.122 82.2358C128.561 81.6238 128.034 81.0288 127.728 80.6718C127.32 80.1788 126.878 79.6178 126.47 79.0398C125.739 79.5328 125.195 80.1278 125.195 81.0798C125.195 82.3208 126.13 83.0348 127.167 83.0348ZM29.9406 106.259H25.7246V94.9198H29.9406C33.4766 94.9198 35.8736 97.2658 35.8736 100.598C35.8736 103.93 33.4766 106.259 29.9406 106.259ZM27.7136 96.6708V104.508H29.9406C32.4056 104.508 33.8336 102.74 33.8336 100.598C33.8336 98.4048 32.4736 96.6708 29.9406 96.6708H27.7136ZM38.6269 96.6878C38.0319 96.6878 37.5219 96.1948 37.5219 95.5828C37.5219 94.9708 38.0319 94.4778 38.6269 94.4778C39.2389 94.4778 39.7319 94.9708 39.7319 95.5828C39.7319 96.1948 39.2389 96.6878 38.6269 96.6878ZM39.5279 106.259H37.7429V98.0478H39.5279V106.259ZM41.1295 105.188L41.9455 103.896C42.5235 104.491 43.6625 105.052 44.7335 105.052C45.8045 105.052 46.3485 104.661 46.3485 104.049C46.3485 103.335 45.4815 103.08 44.4785 102.859C43.0675 102.553 41.3845 102.179 41.3845 100.343C41.3845 98.9998 42.5405 97.8438 44.6145 97.8438C46.0085 97.8438 47.0625 98.3368 47.8105 98.9998L47.0625 100.258C46.5695 99.6968 45.6515 99.2718 44.6315 99.2718C43.6965 99.2718 43.1015 99.6118 43.1015 100.19C43.1015 100.819 43.9175 101.04 44.8865 101.261C46.3145 101.567 48.0655 101.975 48.0655 103.913C48.0655 105.358 46.8585 106.463 44.6485 106.463C43.2545 106.463 41.9795 106.021 41.1295 105.188ZM49.3521 102.145C49.3521 99.6628 51.1031 97.8438 53.6021 97.8438C55.2001 97.8438 56.1691 98.5238 56.7471 99.3058L55.5741 100.394C55.1151 99.7478 54.4861 99.4248 53.6871 99.4248C52.1911 99.4248 51.2051 100.547 51.2051 102.145C51.2051 103.743 52.1911 104.882 53.6871 104.882C54.4861 104.882 55.1151 104.542 55.5741 103.913L56.7471 105.001C56.1691 105.783 55.2001 106.463 53.6021 106.463C51.1031 106.463 49.3521 104.644 49.3521 102.145ZM62.0183 106.463C59.4173 106.463 57.8023 104.508 57.8023 102.145C57.8023 99.7988 59.4173 97.8438 62.0183 97.8438C64.6533 97.8438 66.2513 99.7988 66.2513 102.145C66.2513 104.508 64.6533 106.463 62.0183 106.463ZM62.0183 104.882C63.5483 104.882 64.3983 103.607 64.3983 102.145C64.3983 100.7 63.5483 99.4248 62.0183 99.4248C60.5053 99.4248 59.6552 100.7 59.6552 102.145C59.6552 103.607 60.5053 104.882 62.0183 104.882ZM72.1374 106.259H70.2164L66.8674 98.0478H68.7714L71.1684 104.202L73.5654 98.0478H75.4864L72.1374 106.259ZM76.0972 102.145C76.0972 99.7648 77.8312 97.8438 80.2622 97.8438C82.7272 97.8438 84.3082 99.7308 84.3082 102.315V102.74H77.9672C78.1032 103.981 79.0382 105.001 80.5852 105.001C81.3842 105.001 82.3362 104.678 82.9142 104.1L83.7302 105.273C82.9142 106.055 81.7072 106.463 80.3982 106.463C77.9332 106.463 76.0972 104.746 76.0972 102.145ZM80.2622 99.3058C78.7322 99.3058 78.0352 100.479 77.9502 101.482H82.5742C82.5402 100.513 81.8772 99.3058 80.2622 99.3058ZM87.8551 106.259H86.0701V98.0478H87.8551V99.2548C88.4671 98.4728 89.4531 97.8608 90.5241 97.8608V99.6288C90.3711 99.5948 90.1841 99.5778 89.9631 99.5778C89.2151 99.5778 88.2121 100.088 87.8551 100.666V106.259ZM91.6066 109.472L91.8786 107.874C92.0656 107.959 92.3546 108.01 92.5586 108.01C93.1196 108.01 93.4936 107.84 93.7316 107.296L94.1396 106.361L90.7736 98.0478H92.6776L95.0746 104.202L97.4716 98.0478H99.3926L95.4316 107.738C94.8706 109.132 93.8846 109.574 92.6096 109.591C92.3546 109.591 91.8616 109.54 91.6066 109.472Z" fill="#333333"></path><defs><filter id="filter0_bd_244_968" x="-22.2533" y="-23.224" width="233.191" height="242.792" filterUnits="userSpaceOnUse" color-interpolation-filters="sRGB"><feFlood flood-opacity="0" result="BackgroundImageFix"></feFlood><feGaussianBlur in="BackgroundImageFix" stdDeviation="14.57"></feGaussianBlur><feComposite in2="SourceAlpha" operator="in" result="effect1_backgroundBlur_244_968"></feComposite><feColorMatrix in="SourceAlpha" type="matrix" values="0 0 0 0 0 0 0 0 0 0 0 0 0 0 0 0 0 0 127 0" result="hardAlpha"></feColorMatrix><feOffset dx="-1"></feOffset><feGaussianBlur stdDeviation="2.5"></feGaussianBlur><feComposite in2="hardAlpha" operator="out"></feComposite><feColorMatrix type="matrix" values="0 0 0 0 0 0 0 0 0 0 0 0 0 0 0 0 0 0 0.06 0"></feColorMatrix><feBlend mode="normal" in2="effect1_backgroundBlur_244_968" result="effect2_dropShadow_244_968"></feBlend><feBlend mode="normal" in="SourceGraphic" in2="effect2_dropShadow_244_968" result="shape"></feBlend></filter><linearGradient id="paint0_linear_244_968" x1="37.8236" y1="35.4932" x2="37.8236" y2="55.5084" gradientUnits="userSpaceOnUse"><stop stop-color="#EA42D6"></stop><stop offset="1" stop-color="#1328C9"></stop></linearGradient><linearGradient id="paint1_linear_244_968" x1="45.973" y1="29.1187" x2="45.973" y2="49.0667" gradientUnits="userSpaceOnUse"><stop stop-color="#EA42D6"></stop><stop offset="1" stop-color="#1328C9"></stop></linearGradient><linearGradient id="paint2_linear_244_968" x1="52.848" y1="26.3872" x2="52.848" y2="35.4935" gradientUnits="userSpaceOnUse"><stop stop-color="#EA42D6"></stop><stop offset="1" stop-color="#1328C9"></stop></linearGradient></defs></svg> 