<?xml version="1.0" encoding="UTF-8"?> <svg xmlns="http://www.w3.org/2000/svg" width="196" height="195" viewBox="0 0 196 195" fill="none"><g filter="url(#filter0_d_244_1077)"><rect x="6.62988" y="5.58594" width="184.59" height="183.605" rx="12" fill="white"></rect></g><mask id="mask0_244_1077" style="mask-type:alpha" maskUnits="userSpaceOnUse" x="6" y="5" width="186" height="185"><rect x="6.62988" y="5.58594" width="184.59" height="183.605" rx="12" fill="white"></rect></mask><g mask="url(#mask0_244_1077)"><path opacity="0.05" fill-rule="evenodd" clip-rule="evenodd" d="M139.302 189.605C118.353 189.83 92.1728 207.225 82.4608 188.69C70.2656 165.416 81.3714 135.306 103.065 120.448C123.295 106.593 149.409 114.693 169.025 129.402C187.517 143.267 202.727 166.797 192.502 187.508C183.827 205.08 158.922 189.395 139.302 189.605Z" fill="#1328C9"></path></g><path d="M27.2662 112.047L28.1374 110.87C28.8253 111.634 29.9259 112.306 31.3475 112.306C32.9983 112.306 33.5792 111.466 33.5792 110.732C33.5792 109.662 32.4175 109.356 31.1182 109.02C29.4826 108.592 27.5872 108.118 27.5872 106.039C27.5872 104.358 29.0699 103.135 31.1946 103.135C32.769 103.135 34.0072 103.639 34.9091 104.556L34.0225 105.688C33.2429 104.862 32.1729 104.495 31.0723 104.495C29.9412 104.495 29.1616 105.076 29.1616 105.932C29.1616 106.849 30.2622 107.14 31.5309 107.461C33.197 107.904 35.1383 108.424 35.1383 110.594C35.1383 112.184 34.0378 113.667 31.2863 113.667C29.4673 113.667 28.1374 113.01 27.2662 112.047ZM36.42 109.784C36.42 107.644 37.9638 105.917 40.1191 105.917C42.3356 105.917 43.7113 107.644 43.7113 109.907V110.243H37.8721C37.9791 111.496 38.8963 112.536 40.379 112.536C41.1586 112.536 42.0146 112.23 42.5649 111.664L43.2069 112.566C42.4731 113.285 41.4337 113.667 40.2414 113.667C38.0403 113.667 36.42 112.108 36.42 109.784ZM40.1191 107.048C38.6364 107.048 37.9333 108.24 37.8568 109.249H42.3661C42.3356 108.271 41.6783 107.048 40.1191 107.048ZM46.8077 113.483H45.432V106.1H46.8077V107.232C47.3733 106.498 48.2446 105.932 49.2229 105.932V107.323C49.0853 107.293 48.9325 107.277 48.749 107.277C48.0612 107.277 47.1287 107.797 46.8077 108.347V113.483ZM54.0363 113.483H52.5535L49.5117 106.1H50.9791L53.2873 111.894L55.5954 106.1H57.0781L54.0363 113.483ZM58.8677 104.862C58.3938 104.862 57.9811 104.48 57.9811 103.991C57.9811 103.502 58.3938 103.104 58.8677 103.104C59.3568 103.104 59.7542 103.502 59.7542 103.991C59.7542 104.48 59.3568 104.862 58.8677 104.862ZM59.5708 113.483H58.1951V106.1H59.5708V113.483ZM61.3042 109.784C61.3042 107.568 62.8328 105.917 65.0645 105.917C66.4555 105.917 67.2962 106.498 67.8312 107.216L66.9141 108.057C66.4708 107.43 65.8746 107.14 65.1256 107.14C63.6735 107.14 62.7411 108.256 62.7411 109.784C62.7411 111.313 63.6735 112.444 65.1256 112.444C65.8746 112.444 66.4708 112.138 66.9141 111.527L67.8312 112.368C67.2962 113.086 66.4555 113.667 65.0645 113.667C62.8328 113.667 61.3042 112.001 61.3042 109.784ZM68.8874 109.784C68.8874 107.644 70.4312 105.917 72.5865 105.917C74.803 105.917 76.1787 107.644 76.1787 109.907V110.243H70.3395C70.4465 111.496 71.3637 112.536 72.8464 112.536C73.626 112.536 74.482 112.23 75.0323 111.664L75.6743 112.566C74.9406 113.285 73.9011 113.667 72.7088 113.667C70.5077 113.667 68.8874 112.108 68.8874 109.784ZM72.5865 107.048C71.1038 107.048 70.4007 108.24 70.3242 109.249H74.8336C74.803 108.271 74.1457 107.048 72.5865 107.048ZM77.2574 112.52L77.9147 111.512C78.4192 112.062 79.3974 112.566 80.391 112.566C81.4305 112.566 81.9807 112.138 81.9807 111.512C81.9807 110.778 81.14 110.533 80.1923 110.319C78.9389 110.029 77.4714 109.693 77.4714 108.103C77.4714 106.926 78.4803 105.917 80.284 105.917C81.5527 105.917 82.4699 106.375 83.0966 106.972L82.4852 107.935C82.0572 107.415 81.2317 107.033 80.2993 107.033C79.3669 107.033 78.786 107.4 78.786 107.996C78.786 108.638 79.5809 108.852 80.498 109.066C81.782 109.356 83.3106 109.708 83.3106 111.405C83.3106 112.673 82.2712 113.667 80.3299 113.667C79.0917 113.667 78.0064 113.285 77.2574 112.52Z" fill="#838B91"></path><path d="M33.7797 92.4834H28.3237V77.8094H33.7797C38.3557 77.8094 41.4577 80.8454 41.4577 85.1574C41.4577 89.4694 38.3557 92.4834 33.7797 92.4834ZM30.8977 80.0754V90.2174H33.7797C36.9697 90.2174 38.8177 87.9294 38.8177 85.1574C38.8177 82.3194 37.0577 80.0754 33.7797 80.0754H30.8977ZM43.2169 87.1594C43.2169 84.0794 45.4609 81.5934 48.6069 81.5934C51.7969 81.5934 53.8429 84.0354 53.8429 87.3794V87.9294H45.6369C45.8129 89.5354 47.0229 90.8554 49.0249 90.8554C50.0589 90.8554 51.2909 90.4374 52.0389 89.6894L53.0949 91.2074C52.0389 92.2194 50.4769 92.7474 48.7829 92.7474C45.5929 92.7474 43.2169 90.5254 43.2169 87.1594ZM48.6069 83.4854C46.6269 83.4854 45.7249 85.0034 45.6149 86.3014H51.5989C51.5549 85.0474 50.6969 83.4854 48.6069 83.4854ZM61.403 92.4834H58.917L54.583 81.8574H57.047L60.149 89.8214L63.251 81.8574H65.737L61.403 92.4834ZM66.5934 85.1574C66.5934 80.7794 69.6954 77.5674 74.0954 77.5674C78.4954 77.5674 81.5974 80.7794 81.5974 85.1574C81.5974 89.5354 78.4954 92.7474 74.0954 92.7474C69.6954 92.7474 66.5934 89.5354 66.5934 85.1574ZM78.9574 85.1574C78.9574 82.1214 77.0434 79.8554 74.0954 79.8554C71.1254 79.8554 69.2334 82.1214 69.2334 85.1574C69.2334 88.1714 71.1254 90.4594 74.0954 90.4594C77.0434 90.4594 78.9574 88.1714 78.9574 85.1574ZM86.3197 91.0094V96.5314H84.0097V81.8574H86.3197V83.3094C87.1117 82.2534 88.3437 81.5934 89.7297 81.5934C92.4797 81.5934 94.4377 83.6614 94.4377 87.1594C94.4377 90.6574 92.4797 92.7474 89.7297 92.7474C88.3877 92.7474 87.1777 92.1534 86.3197 91.0094ZM92.0397 87.1594C92.0397 85.1134 90.8737 83.6394 89.0477 83.6394C87.9697 83.6394 86.8257 84.2774 86.3197 85.0694V89.2714C86.8257 90.0414 87.9697 90.7014 89.0477 90.7014C90.8737 90.7014 92.0397 89.2274 92.0397 87.1594ZM95.8474 91.0974L96.9034 89.4254C97.6514 90.1954 99.1254 90.9214 100.511 90.9214C101.897 90.9214 102.601 90.4154 102.601 89.6234C102.601 88.6994 101.479 88.3694 100.181 88.0834C98.3554 87.6874 96.1774 87.2034 96.1774 84.8274C96.1774 83.0894 97.6734 81.5934 100.357 81.5934C102.161 81.5934 103.525 82.2314 104.493 83.0894L103.525 84.7174C102.887 83.9914 101.699 83.4414 100.379 83.4414C99.1694 83.4414 98.3994 83.8814 98.3994 84.6294C98.3994 85.4434 99.4554 85.7294 100.709 86.0154C102.557 86.4114 104.823 86.9394 104.823 89.4474C104.823 91.3174 103.261 92.7474 100.401 92.7474C98.5974 92.7474 96.9474 92.1754 95.8474 91.0974Z" fill="#333333"></path><path d="M48.4625 52.1092L53.3846 52.4724V56.6762C53.3846 56.6762 44.191 65.7375 30.794 55.0101H35.3589L35.8627 50.8789C35.8627 50.8789 41.0693 56.1663 48.4611 52.1092H48.4625ZM31.7944 32.6851C31.7944 32.6851 21.7979 42.0006 29.9824 53.9235L34.5516 54.3593L34.9872 49.939C34.9872 49.939 30.7853 43.0537 36.2112 37.6152L31.3429 37.2375L31.793 32.6851H31.7944ZM32.8819 32.0329C32.8819 32.0329 45.3525 23.9869 54.835 33.699L50.6332 33.4099L50.1976 38.1193C50.1976 38.1193 45.4164 32.3219 37.4482 36.8163L32.5944 36.6013L32.8833 32.0343L32.8819 32.0329ZM71.0618 33.1209L66.5709 32.6851L60.2768 39.6329L55.9951 34.8611L51.5769 34.4239L51.288 39.2799L55.9138 44.4482L49.6923 51.3161L54.2514 51.3887L54.1831 56.1721L60.303 49.3536L64.3277 53.8494L64.7633 49.7182H69.3282L64.6515 44.5078L70.7728 37.6878L71.0618 33.1209ZM67.2272 32.014L71.8995 32.396L71.5757 36.8555C71.5757 36.8555 78.4767 32.4498 83.5324 37.1257L88.4747 37.3407L88.9205 32.9989C88.9205 32.9989 81.1919 24.2862 67.2272 32.014ZM84.238 37.8302L89.1804 38.1193L89.5622 33.7528C89.5622 33.7528 100.378 45.802 88.6911 56.1663L83.9099 55.838L84.3454 50.8934C84.3454 50.8934 90.8109 43.6464 84.238 37.8287V37.8302ZM70.4897 50.8803L65.498 50.4445L65.2192 54.8503C65.2192 54.8503 74.0745 65.0722 87.4424 56.913L82.8775 56.5454L83.3131 51.8172C83.3131 51.8172 77.4938 56.4772 70.4897 50.8818V50.8803ZM81.9309 44.6705C81.7494 44.6124 81.0888 44.5092 81.0888 44.2594C81.0888 44.117 81.2891 44.1025 81.3879 44.1069C81.671 44.1069 82.092 44.4453 82.3273 44.3814C82.5378 44.3277 82.7193 43.7844 82.7977 43.6028C82.2053 43.2644 81.5098 43.1365 80.8332 43.2455C80.1973 43.3675 79.7762 43.9848 79.8982 44.6225C79.9083 44.6806 79.9272 44.7402 79.9476 44.7983C80.2466 45.5725 81.1614 45.2689 81.6274 45.7396C81.8176 45.9357 81.4271 46.0286 81.2935 46.0228C80.8971 45.9647 80.5153 45.818 80.177 45.6016C80.0594 45.7686 79.7065 46.1608 79.7515 46.3671C79.7951 46.5719 80.2612 46.7244 80.4572 46.7884C81.1134 46.999 82.1225 47.0818 82.6118 46.4833C83.2333 45.7585 82.6946 44.9203 81.9309 44.6705ZM72.3554 41.9614C70.9253 41.9614 69.7637 43.122 69.7637 44.5528C69.7637 45.9836 70.9253 47.1457 72.3554 47.1457C73.7856 47.1457 74.9457 45.9836 74.9457 44.5528C74.9413 43.1176 73.7856 41.9614 72.3554 41.9614ZM72.3554 45.8718C71.6208 45.8718 71.0284 45.2733 71.0327 44.5441C71.0327 43.8091 71.6309 43.215 72.3598 43.2208C73.0901 43.2208 73.6825 43.8178 73.6825 44.5485C73.6825 45.2791 73.0901 45.8718 72.3554 45.8718ZM77.8902 43.2644C77.4836 43.3181 77.1061 43.4953 76.807 43.7742C76.8056 43.7757 76.8041 43.7771 76.8027 43.7771V43.2644L75.5685 43.2498V47.9591H76.8027V46.5138L76.807 46.5182C77.0727 46.768 77.4096 46.9205 77.7726 46.954C78.9181 46.9845 79.4815 45.9938 79.4815 45.1077C79.4771 44.2245 78.7758 43.2106 77.8902 43.2644ZM78.2532 45.1905C78.2183 45.5827 77.9047 45.8907 77.5127 45.9255C77.1599 45.911 76.8666 45.651 76.807 45.3082C76.7925 45.2442 76.7882 45.176 76.7882 45.1121C76.7882 45.0481 76.7925 44.9799 76.807 44.916C76.8709 44.5673 77.1599 44.3131 77.5127 44.2986C77.9642 44.3422 78.2967 44.7402 78.2532 45.1905ZM45.714 46.2494C45.5921 46.1463 45.4396 45.9749 45.2784 45.9502C45.0186 45.9153 44.6962 46.264 44.4116 46.293C43.9659 46.3366 43.6421 46.0286 43.4708 45.6553H46.1903C46.1903 44.9014 46.1264 44.1069 45.4846 43.5926C44.2897 42.618 42.3354 43.3384 42.1147 44.8767C41.8795 46.4993 43.1528 47.5423 44.7049 47.3418C45.0926 47.288 45.4498 47.1254 45.7445 46.8712C45.852 46.7782 46.003 46.646 45.9246 46.4935C45.8708 46.3962 45.7982 46.3119 45.714 46.2494ZM44.2839 44.3422C44.5685 44.4017 44.7935 44.6269 44.8472 44.9116H43.4606C43.5303 44.5281 43.902 44.2739 44.2839 44.3422ZM40.6744 42.6325C40.1793 42.2897 39.6014 42.0732 39.0047 42.0151C38.2105 41.941 37.3582 42.034 36.6192 42.034V47.2822H36.6526C36.7948 47.2968 36.9371 47.3127 37.0794 47.3215C37.6428 47.3708 38.2148 47.3665 38.7782 47.3069C39.8613 47.1849 40.5524 46.8363 40.9778 46.3816C41.3553 45.9546 41.5702 45.4113 41.5804 44.8419V44.6516C41.5702 43.9064 41.3553 43.1525 40.6744 42.6325ZM39.4693 45.8369H39.4736C39.0279 46.0868 38.4892 46.0228 37.9999 46.0228V43.2934C38.5197 43.2934 39.1063 43.2251 39.5622 43.5433C40.3216 44.0778 40.2925 45.3764 39.4693 45.8369ZM49.354 43.2106L48.5946 45.5536V45.5478L47.8353 43.2063H46.3616L47.9239 47.2881H48.5946V47.2924H49.2654L50.8277 43.2106H49.354Z" fill="#1328C9"></path><path d="M68.3069 182.005L70.047 181.986C69.0986 181.997 68.4077 182.777 68.3393 183.734C68.2222 185.458 70.2083 185.434 71.1612 185.43C70.0957 185.438 68.7797 186.692 70.0443 188.341C70.5523 189.004 75.0343 188.886 75.8702 188.878L108.936 188.422C113.554 188.373 117.64 185.423 119.133 181.054L128.916 152.494L114.101 149.666L104.006 172.185C104.006 172.185 96.7497 172.637 88.9369 172.628C87.3381 172.626 85.7087 172.73 83.2299 170.227C82.8183 169.811 81.2961 167.922 80.7674 167.768C80.3071 167.631 79.7946 167.643 79.3181 167.816C78.0427 168.293 77.4491 169.762 78.0508 170.99L80.4647 175.023L69.9876 175.08H69.984C69.294 175.083 68.6554 175.496 68.405 176.137C67.9646 177.271 68.7203 178.402 69.7696 178.543L68.2843 178.551H68.2762C67.5493 178.555 66.8792 179.007 66.6576 179.709C66.2676 180.912 67.1638 182.013 68.3069 182.005Z" fill="white"></path><path d="M74.5622 189.191C70.8467 189.191 70.0586 188.858 69.8028 188.524C68.9958 187.472 69.2056 186.638 69.4029 186.235C69.5083 186.019 69.6596 185.823 69.8406 185.659C69.32 185.577 68.8057 185.399 68.4535 185.023C68.141 184.69 68.0005 184.249 68.0374 183.712C68.0779 183.151 68.295 182.661 68.6301 182.303L68.3103 182.307C68.3013 182.307 68.2995 182.307 68.295 182.307C67.6492 182.307 67.0358 181.997 66.653 181.475C66.2621 180.942 66.1585 180.264 66.3675 179.614C66.6242 178.8 67.3898 178.25 68.2725 178.245L68.5589 178.243C68.4454 178.126 68.3445 177.995 68.2599 177.853C67.9347 177.302 67.8834 176.635 68.1203 176.024C68.4103 175.28 69.157 174.777 69.9793 174.772L79.9296 174.718L77.7877 171.141C77.4526 170.46 77.4229 169.691 77.694 169.011C77.966 168.327 78.5181 167.786 79.209 167.529C79.7404 167.335 80.3223 167.316 80.851 167.474C81.2915 167.602 82.0318 168.415 82.9533 169.465C83.1649 169.706 83.3397 169.906 83.4424 170.009C85.7356 172.325 87.2677 172.324 88.7467 172.322H88.934C95.9533 172.344 102.627 171.959 103.801 171.89L113.822 149.539C113.879 149.411 114.018 149.338 114.155 149.365L128.97 152.193C129.056 152.209 129.131 152.263 129.175 152.338C129.22 152.414 129.229 152.506 129.2 152.589L119.417 181.149C117.885 185.628 113.673 188.671 108.935 188.721L75.6376 189.18C75.2557 189.188 74.8973 189.191 74.5622 189.191ZM71.1584 185.127C71.316 185.139 71.4502 185.268 71.4511 185.427C71.452 185.595 71.3295 185.731 71.1629 185.731C70.7441 185.735 70.1919 186 69.9469 186.501C69.71 186.986 69.8262 187.558 70.2838 188.155C70.3775 188.271 71.0413 188.644 75.6313 188.577L108.93 188.117C113.412 188.071 117.397 185.192 118.846 180.954L128.515 152.724L114.278 150.005L104.28 172.305C104.235 172.408 104.135 172.476 104.023 172.484C103.95 172.488 96.6568 172.92 88.934 172.927H88.7476C87.2155 172.924 85.4834 172.931 83.0118 170.435C82.9037 170.326 82.72 170.117 82.4975 169.864C82.0454 169.349 80.9879 168.144 80.6799 168.055C80.2727 167.933 79.826 167.949 79.418 168.097C78.8892 168.294 78.465 168.71 78.256 169.235C78.0453 169.764 78.0678 170.34 78.3191 170.852L80.7213 174.863C80.7771 174.956 80.7789 175.072 80.7249 175.167C80.6718 175.261 80.5718 175.321 80.4628 175.321L69.9865 175.378C69.4065 175.381 68.885 175.729 68.6841 176.242C68.5121 176.686 68.5463 177.148 68.7805 177.544C69.0039 177.922 69.3876 178.182 69.8073 178.238C69.9649 178.26 70.0793 178.4 70.0694 178.558C70.0595 178.717 69.928 178.841 69.7686 178.842L68.2824 178.85C67.6555 178.854 67.1205 179.235 66.943 179.797C66.7935 180.261 66.8656 180.741 67.1394 181.115C67.4105 181.485 67.8437 181.722 68.3031 181.7L70.0415 181.68C70.2 181.679 70.3459 181.812 70.3477 181.979C70.3495 182.147 70.2162 182.283 70.0487 182.285C69.2921 182.295 68.6994 182.912 68.6391 183.753C68.6139 184.119 68.6976 184.398 68.8931 184.607C69.3849 185.132 70.5216 185.126 71.1332 185.123C71.1368 185.123 71.1386 185.123 71.1413 185.123C71.1485 185.126 71.1539 185.126 71.1584 185.127Z" fill="#030047"></path><path d="M70.0434 182.291C69.8776 182.291 69.7425 182.157 69.7407 181.991C69.7389 181.823 69.8731 181.686 70.0407 181.684L74.2912 181.643C74.4695 181.633 74.5956 181.775 74.5965 181.943C74.5983 182.111 74.4641 182.247 74.2966 182.249L70.0461 182.291C70.0452 182.291 70.0443 182.291 70.0434 182.291Z" fill="#030047"></path><path d="M69.7685 178.846C69.6027 178.846 69.4676 178.712 69.4658 178.546C69.464 178.378 69.5982 178.241 69.7658 178.239L74.2568 178.195C74.2577 178.195 74.2586 178.195 74.2595 178.195C74.4252 178.195 74.5603 178.329 74.5621 178.495C74.5639 178.663 74.4297 178.8 74.2622 178.801L69.7712 178.846C69.7703 178.846 69.7694 178.846 69.7685 178.846Z" fill="#030047"></path><path d="M70.0849 185.74C69.9192 185.74 69.784 185.607 69.7822 185.44C69.7804 185.273 69.9146 185.136 70.0822 185.134L74.3255 185.093C74.5029 185.106 74.6299 185.226 74.6308 185.393C74.6326 185.56 74.4984 185.697 74.3309 185.699L70.0876 185.74C70.0867 185.74 70.0858 185.74 70.0849 185.74Z" fill="#030047"></path><path d="M80.4581 175.023C80.4581 175.023 79.9951 177.746 82.1226 179.27L80.4581 175.023Z" fill="white"></path><path d="M82.1226 179.573C82.0614 179.573 82.0001 179.554 81.947 179.516C79.6907 177.9 80.1392 175.091 80.16 174.973C80.1879 174.808 80.3401 174.697 80.5085 174.725C80.6734 174.753 80.7842 174.909 80.7571 175.074C80.7526 175.099 80.3563 177.632 82.3001 179.024C82.4361 179.121 82.4676 179.311 82.3703 179.447C82.31 179.529 82.2172 179.573 82.1226 179.573Z" fill="#030047"></path><path d="M139.532 106.089C142.604 106.089 145.094 103.599 145.094 100.527C145.094 97.455 142.604 94.9648 139.532 94.9648C136.46 94.9648 133.97 97.455 133.97 100.527C133.97 103.599 136.46 106.089 139.532 106.089Z" fill="#030047"></path><path d="M136.012 132.073L131.761 132.072C129.244 132.072 126.766 132.699 124.552 133.897L108.643 151.125L129.048 159.964L140.24 150.223L136.012 132.073Z" fill="#3CF0C0"></path><path d="M129.049 160.267C129.008 160.267 128.967 160.259 128.928 160.242L108.522 151.403C108.432 151.364 108.366 151.283 108.347 151.188C108.326 151.091 108.354 150.991 108.42 150.919L124.33 133.691C124.443 133.568 124.635 133.561 124.758 133.674C124.88 133.788 124.888 133.979 124.775 134.102L109.155 151.017L128.994 159.61L140.041 149.993C140.167 149.883 140.358 149.897 140.468 150.023C140.578 150.149 140.564 150.34 140.438 150.45L129.247 160.191C129.192 160.241 129.121 160.267 129.049 160.267Z" fill="#030047"></path><path d="M136.012 132.074L159.274 132.492C163.632 132.57 167.124 136.125 167.124 140.484L166.3 188.341H116.638L128.11 138.141C129.007 134.524 132.286 132.006 136.012 132.074Z" fill="#3CF0C0"></path><path d="M174.476 153.65L180.677 175.396C182.26 179.503 180.934 184.162 177.426 186.821C175.709 188.123 173.613 188.827 171.459 188.827H140.047L139.416 173.852L160.24 172.968L156.568 158.883L174.476 153.65Z" fill="white"></path><path d="M171.459 189.129H140.048C139.886 189.129 139.753 189.001 139.745 188.839L139.114 173.863C139.107 173.697 139.237 173.555 139.404 173.548L159.854 172.681L156.276 158.959C156.235 158.801 156.327 158.638 156.484 158.592L174.392 153.359C174.469 153.336 174.552 153.345 174.623 153.385C174.693 153.423 174.746 153.489 174.768 153.567L180.969 175.311C182.583 179.494 181.205 184.336 177.61 187.061C175.85 188.395 173.666 189.129 171.459 189.129ZM140.338 188.523H171.459C173.535 188.523 175.59 187.834 177.243 186.58C180.624 184.017 181.921 179.463 180.395 175.504L174.268 154.027L156.936 159.092L160.533 172.892C160.557 172.98 160.538 173.074 160.484 173.148C160.43 173.221 160.344 173.266 160.253 173.271L139.731 174.142L140.338 188.523Z" fill="#030047"></path><path d="M156.933 132.449H160.534C164.509 132.449 168.078 134.884 169.528 138.585L177.121 154.973L156.683 162.701L153.277 152.124C151.747 148.254 151.837 143.931 153.525 140.127L156.933 132.449Z" fill="#3CF0C0"></path><path d="M156.683 163.003C156.638 163.003 156.593 162.993 156.552 162.973C156.477 162.937 156.42 162.872 156.395 162.793L152.988 152.216C152.937 152.058 153.024 151.887 153.184 151.835C153.343 151.785 153.513 151.871 153.565 152.031L156.874 162.304L176.709 154.803L169.253 138.711C169.182 138.559 169.248 138.379 169.4 138.309C169.552 138.239 169.732 138.305 169.802 138.457L177.394 154.845C177.429 154.921 177.431 155.009 177.4 155.086C177.368 155.165 177.305 155.226 177.227 155.255L156.789 162.983C156.755 162.996 156.719 163.003 156.683 163.003ZM121.72 166.404C121.698 166.404 121.676 166.401 121.653 166.396C121.49 166.36 121.388 166.198 121.425 166.035L126.579 143.089C126.616 142.926 126.776 142.823 126.941 142.861C127.104 142.898 127.207 143.059 127.17 143.222L122.015 166.168C121.983 166.308 121.858 166.404 121.72 166.404Z" fill="#030047"></path><path d="M84.5449 182.945V188.896H127.973C129.37 188.896 130.5 187.766 130.5 186.369V186.127C130.5 184.37 129.075 182.945 127.323 182.945H84.5449Z" fill="#000028"></path><path d="M76.5486 154.612H105.356C107.447 154.612 109.146 155.926 109.6 157.895L116.761 188.895H83.8237C81.2701 188.895 79.1949 187.29 78.6391 184.886L72.7124 159.229C72.1927 156.979 74.1599 154.612 76.5486 154.612Z" fill="#030047"></path><path d="M91.0934 173.434C91.1484 175.094 92.5373 176.44 94.1964 176.44C95.8591 176.44 97.1598 175.094 97.1048 173.434C97.0499 171.774 95.6583 170.428 93.9982 170.428C92.3391 170.428 91.0394 171.774 91.0934 173.434ZM140.118 132.449L140.745 124.092L152.817 121.576L153.276 132.382C153.276 132.382 150.201 137.255 144.609 136.939C140.114 136.686 140.118 132.449 140.118 132.449Z" fill="white"></path><path d="M145.122 137.258C144.948 137.258 144.772 137.253 144.592 137.243C139.865 136.976 139.815 132.494 139.815 132.448C139.815 132.441 139.815 132.433 139.816 132.426L140.445 124.069C140.454 123.934 140.553 123.823 140.685 123.795L152.756 121.279C152.844 121.26 152.934 121.282 153.004 121.337C153.074 121.391 153.117 121.474 153.121 121.563L153.581 132.37C153.583 132.431 153.567 132.492 153.534 132.544C153.501 132.593 150.494 137.258 145.122 137.258ZM140.42 132.459C140.424 132.731 140.545 136.408 144.626 136.637C149.584 136.917 152.552 132.902 152.969 132.297L152.529 121.946L141.03 124.342L140.42 132.459Z" fill="#030047"></path><path d="M152.961 123.33C159.471 117.975 159.562 107.78 159.562 107.78L143.527 98.3506C143.176 98.5668 136.051 102.909 133.519 113.257C131.433 121.782 139.055 127.783 148.37 125.734" fill="white"></path><path d="M144.74 126.441C141.129 126.441 137.879 125.218 135.645 122.931C133.167 120.395 132.308 116.933 133.226 113.185C135.707 103.043 142.591 98.5713 143.367 98.0948C143.463 98.0363 143.586 98.0327 143.683 98.0894L159.718 107.519C159.812 107.574 159.868 107.674 159.867 107.783C159.867 107.887 159.699 118.182 153.155 123.564C153.026 123.671 152.835 123.651 152.729 123.522C152.623 123.392 152.642 123.202 152.771 123.096C158.64 118.269 159.204 109.306 159.257 107.95L143.536 98.7055C142.285 99.5135 136.121 103.908 133.815 113.33C132.949 116.868 133.754 120.127 136.079 122.509C138.909 125.405 143.481 126.501 148.307 125.44C148.471 125.405 148.631 125.507 148.668 125.67C148.704 125.833 148.6 125.995 148.437 126.031C147.18 126.306 145.94 126.441 144.74 126.441Z" fill="#030047"></path><path d="M139.899 110.046C140.18 109.463 140.09 108.838 139.699 108.65C139.308 108.461 138.763 108.781 138.482 109.364C138.201 109.947 138.291 110.573 138.682 110.761C139.073 110.95 139.618 110.63 139.899 110.046Z" fill="#030047"></path><path d="M139.065 107.288C139.891 107.166 140.734 107.601 141.206 108.392L139.065 107.288Z" fill="white"></path><path d="M141.206 108.695C141.104 108.695 141.003 108.642 140.946 108.547C140.537 107.86 139.817 107.481 139.11 107.588C138.945 107.61 138.791 107.498 138.766 107.333C138.742 107.167 138.856 107.013 139.021 106.989C139.972 106.85 140.931 107.339 141.467 108.238C141.552 108.383 141.505 108.568 141.361 108.654C141.313 108.682 141.26 108.695 141.206 108.695ZM159.121 98.163C160.829 100.311 158.196 102.982 158.196 102.982C158.196 102.982 161.951 102.51 163.66 106.845C165.368 111.179 158.371 116.817 158.371 116.817L154.537 114.108C154.537 114.108 154.343 114.853 153.297 113.766C153.297 113.766 150.557 108.186 153.251 106.469C153.251 106.469 137.008 106.356 138.458 94.343C139.593 84.9476 156.315 94.6331 159.121 98.163Z" fill="#030047"></path><path d="M146.221 113.798C146.407 113.178 146.22 112.575 145.804 112.45C145.388 112.325 144.9 112.726 144.714 113.346C144.528 113.966 144.715 114.57 145.131 114.695C145.547 114.82 146.035 114.418 146.221 113.798Z" fill="#030047"></path><path d="M145.271 111.152C146.092 111.004 146.949 111.413 147.444 112.19L145.271 111.152Z" fill="white"></path><path d="M147.444 112.494C147.344 112.494 147.246 112.444 147.188 112.354C146.757 111.68 146.027 111.325 145.323 111.451C145.159 111.479 145.001 111.371 144.972 111.207C144.942 111.042 145.052 110.884 145.216 110.855C146.161 110.688 147.136 111.146 147.698 112.029C147.788 112.17 147.746 112.358 147.605 112.447C147.555 112.479 147.5 112.494 147.444 112.494Z" fill="#030047"></path><path d="M154.334 114.172C154.334 114.172 158.676 111.497 160.476 112.659C162.277 113.821 159.89 120.571 157.402 120.667C154.914 120.762 153.255 119.392 153.255 119.392" fill="white"></path><path d="M157.152 120.974C154.725 120.974 153.132 119.682 153.062 119.624C152.934 119.518 152.916 119.327 153.022 119.198C153.128 119.07 153.318 119.052 153.448 119.157C153.464 119.17 155.057 120.45 157.391 120.363C158.643 120.315 159.97 118.174 160.529 116.131C160.965 114.542 160.88 113.278 160.312 112.912C158.968 112.046 155.656 113.713 154.493 114.429C154.35 114.517 154.164 114.472 154.077 114.33C153.989 114.188 154.033 114.001 154.176 113.913C154.359 113.8 158.704 111.152 160.642 112.403C161.46 112.931 161.637 114.385 161.115 116.292C160.492 118.569 159.02 120.907 157.416 120.967C157.326 120.973 157.238 120.974 157.152 120.974Z" fill="#030047"></path><path d="M141.567 112.19C140.966 112.906 140.364 113.622 139.762 114.338C139.399 114.769 139.027 115.22 138.931 115.76C138.835 116.3 139.099 116.955 139.704 117.221" fill="white"></path><path d="M139.704 117.524C139.663 117.524 139.622 117.516 139.582 117.499C138.81 117.16 138.52 116.342 138.633 115.708C138.744 115.079 139.162 114.582 139.53 114.145L141.335 111.997C141.443 111.869 141.634 111.853 141.762 111.96C141.89 112.068 141.907 112.259 141.799 112.387L139.994 114.535C139.674 114.915 139.313 115.345 139.229 115.815C139.16 116.206 139.345 116.734 139.825 116.945C139.978 117.012 140.048 117.191 139.981 117.344C139.932 117.457 139.82 117.524 139.704 117.524ZM142.003 121.297C141.338 121.297 140.676 121.105 140.115 120.737C139.976 120.645 139.936 120.458 140.028 120.318C140.12 120.179 140.307 120.14 140.448 120.231C141.067 120.636 141.838 120.785 142.563 120.635C143.288 120.487 143.939 120.048 144.349 119.432C144.442 119.292 144.63 119.255 144.768 119.347C144.907 119.439 144.946 119.627 144.853 119.767C144.355 120.515 143.565 121.048 142.684 121.228C142.459 121.275 142.231 121.297 142.003 121.297Z" fill="#030047"></path><path d="M144.125 188.826H129.095C128.624 188.756 128.243 188.409 128.021 188.028C127.869 187.771 127.791 187.474 127.819 187.159C127.876 186.365 128.554 185.714 129.352 185.742H132.072L127.018 185.718C126.438 185.718 125.88 185.432 125.584 184.93C125.58 184.926 125.58 184.923 125.576 184.919C125.424 184.662 125.347 184.364 125.375 184.05C125.431 183.255 126.11 182.605 126.908 182.633H132.072L124.358 182.609C123.888 182.538 123.507 182.192 123.284 181.811C123.132 181.553 123.054 181.256 123.082 180.942C123.139 180.147 123.817 179.543 124.615 179.571L132.072 179.499H126.65C126.18 179.429 125.799 179.082 125.576 178.701C125.424 178.444 125.347 178.147 125.375 177.832C125.431 177.038 126.11 176.433 126.908 176.461L136.17 176.391L132.538 174.575C132.301 174.43 132.117 174.239 131.98 174.01C131.743 173.603 131.69 173.087 131.867 172.618C132.213 171.689 133.294 171.283 134.17 171.745L141.167 173.775" fill="white"></path><path d="M144.125 189.129H129.094C129.079 189.129 129.065 189.128 129.049 189.126C128.542 189.05 128.06 188.696 127.759 188.181C127.569 187.858 127.485 187.495 127.517 187.132C127.548 186.707 127.725 186.322 127.996 186.025L127.015 186.021C126.317 186.021 125.669 185.665 125.327 185.091C125.327 185.091 125.327 185.091 125.327 185.091C125.323 185.085 125.319 185.079 125.316 185.073C125.125 184.749 125.041 184.386 125.074 184.023C125.104 183.598 125.283 183.212 125.554 182.916L124.357 182.913C124.343 182.913 124.328 182.912 124.313 182.909C123.805 182.833 123.323 182.479 123.023 181.964C122.833 181.641 122.749 181.278 122.781 180.916C122.85 179.961 123.654 179.241 124.627 179.269L125.618 179.259C125.505 179.14 125.402 179.004 125.315 178.855C125.125 178.532 125.041 178.169 125.074 177.806C125.142 176.851 125.953 176.129 126.919 176.159L134.907 176.098L132.404 174.847C132.109 174.668 131.887 174.443 131.722 174.166C131.432 173.669 131.382 173.052 131.585 172.512C131.779 171.99 132.189 171.577 132.709 171.379C133.221 171.183 133.793 171.215 134.283 171.464L141.251 173.485C141.412 173.532 141.504 173.7 141.458 173.86C141.411 174.021 141.243 174.113 141.082 174.067L134.085 172.037C134.065 172.031 134.046 172.024 134.028 172.014C133.687 171.834 133.284 171.809 132.923 171.945C132.567 172.081 132.285 172.364 132.15 172.724C132.011 173.097 132.044 173.52 132.241 173.857C132.357 174.049 132.505 174.2 132.695 174.316L136.305 176.119C136.43 176.182 136.496 176.322 136.464 176.459C136.432 176.595 136.312 176.692 136.171 176.693L126.909 176.763C126.265 176.755 125.721 177.219 125.676 177.852C125.655 178.097 125.709 178.329 125.836 178.546C126.042 178.898 126.353 179.139 126.674 179.194H132.072C132.239 179.194 132.374 179.33 132.375 179.495C132.376 179.662 132.241 179.798 132.075 179.8L124.618 179.871C123.957 179.859 123.429 180.327 123.384 180.96C123.362 181.201 123.418 181.439 123.544 181.653C123.749 182.006 124.061 182.247 124.382 182.303L132.073 182.328C132.24 182.328 132.375 182.464 132.375 182.632C132.375 182.799 132.239 182.934 132.072 182.934H126.907C126.262 182.904 125.722 183.421 125.676 184.069C125.655 184.311 125.708 184.54 125.833 184.756C125.836 184.762 125.84 184.767 125.844 184.773C126.077 185.167 126.526 185.412 127.017 185.412L132.074 185.437C132.241 185.438 132.376 185.573 132.375 185.741C132.375 185.907 132.239 186.043 132.072 186.043H129.352C128.702 186.016 128.167 186.53 128.121 187.178C128.099 187.42 128.155 187.658 128.281 187.872C128.486 188.224 128.798 188.465 129.119 188.52H144.125C144.292 188.52 144.427 188.656 144.427 188.823C144.427 188.99 144.292 189.129 144.125 189.129ZM158.537 117.276C158.478 117.276 158.418 117.258 158.366 117.222C158.228 117.128 158.193 116.939 158.288 116.801C158.606 116.34 158.805 115.801 158.864 115.244C158.874 115.15 158.88 115.053 158.858 114.98C158.845 114.938 158.822 114.913 158.812 114.908C158.785 114.901 158.687 114.93 158.647 114.943L156.853 115.484C156.691 115.533 156.523 115.442 156.475 115.281C156.427 115.121 156.518 114.952 156.678 114.904L158.472 114.363C158.596 114.326 158.779 114.271 158.977 114.327C159.192 114.387 159.364 114.565 159.437 114.802C159.491 114.98 159.483 115.157 159.467 115.307C159.397 115.965 159.162 116.6 158.787 117.144C158.728 117.23 158.633 117.276 158.537 117.276Z" fill="#030047"></path><path opacity="0.4" d="M166.733 140.516C166.655 140.516 166.578 140.486 166.518 140.428L164.237 138.145C164.119 138.027 164.119 137.835 164.237 137.717C164.355 137.599 164.547 137.599 164.665 137.717L166.946 140C167.064 140.118 167.064 140.31 166.946 140.428C166.888 140.486 166.81 140.516 166.733 140.516ZM158.014 146.61C157.936 146.61 157.859 146.58 157.799 146.522C157.681 146.404 157.681 146.212 157.799 146.094L159.682 144.212C159.8 144.094 159.992 144.094 160.11 144.212C160.228 144.33 160.228 144.521 160.11 144.639L158.227 146.522C158.169 146.58 158.091 146.61 158.014 146.61ZM161.708 142.932C161.63 142.932 161.553 142.902 161.493 142.843L159.411 140.761C159.293 140.643 159.293 140.451 159.411 140.333C159.529 140.215 159.721 140.215 159.839 140.333L161.921 142.416C162.039 142.534 162.039 142.725 161.921 142.843C161.863 142.902 161.785 142.932 161.708 142.932ZM165.081 152.44C165.003 152.44 164.926 152.41 164.866 152.351C164.748 152.233 164.748 152.042 164.866 151.924L166.31 150.48C166.428 150.362 166.62 150.362 166.738 150.48C166.856 150.598 166.856 150.79 166.738 150.908L165.294 152.351C165.236 152.41 165.158 152.44 165.081 152.44ZM159.218 156.093C159.158 156.093 159.096 156.075 159.043 156.037C158.623 155.74 158.307 155.313 158.148 154.83L158.058 154.741C157.94 154.623 157.939 154.431 158.057 154.313C158.175 154.194 158.367 154.194 158.486 154.312L158.628 154.455C158.664 154.491 158.69 154.536 158.705 154.584C158.815 154.963 159.065 155.312 159.392 155.543C159.528 155.639 159.561 155.828 159.464 155.964C159.407 156.048 159.314 156.093 159.218 156.093ZM171.336 147.555C171.259 147.555 171.181 147.525 171.122 147.467L168.791 145.136C168.673 145.018 168.673 144.826 168.791 144.708C168.909 144.59 169.101 144.59 169.219 144.708L171.55 147.039C171.668 147.157 171.668 147.349 171.55 147.467C171.491 147.525 171.414 147.555 171.336 147.555ZM163.233 149.554C163.156 149.554 163.079 149.524 163.019 149.465L161.53 147.977C161.412 147.859 161.412 147.667 161.53 147.549C161.648 147.431 161.84 147.431 161.958 147.549L163.447 149.038C163.565 149.156 163.565 149.347 163.447 149.465C163.388 149.524 163.311 149.554 163.233 149.554Z" fill="white"></path><g opacity="0.4"><path d="M169.771 153.502C169.604 153.502 169.469 153.366 169.469 153.199V152.543C169.469 152.375 169.605 152.24 169.771 152.24C169.938 152.24 170.074 152.376 170.074 152.543V153.199C170.074 153.366 169.939 153.502 169.771 153.502Z" fill="white"></path></g><g opacity="0.4"><path d="M158.126 137.007C158.049 137.007 157.971 136.977 157.912 136.918L155.984 134.991C155.866 134.873 155.866 134.681 155.984 134.563C156.102 134.445 156.294 134.445 156.412 134.563L158.34 136.491C158.458 136.609 158.458 136.8 158.34 136.918C158.281 136.977 158.204 137.007 158.126 137.007Z" fill="white"></path></g><path opacity="0.4" d="M146.142 150.367C145.975 150.367 145.839 150.231 145.839 150.064V147.537C145.839 147.37 145.975 147.235 146.142 147.235C146.309 147.235 146.445 147.371 146.445 147.537V150.064C146.445 150.231 146.309 150.367 146.142 150.367ZM142.188 156.483C142.11 156.483 142.033 156.454 141.974 156.395C141.856 156.277 141.856 156.085 141.974 155.967L143.582 154.359C143.7 154.241 143.892 154.241 144.01 154.359C144.128 154.476 144.128 154.668 144.01 154.786L142.401 156.395C142.344 156.454 142.266 156.483 142.188 156.483ZM134.084 156.255C134.007 156.255 133.929 156.226 133.87 156.167L132.083 154.381C131.965 154.263 131.965 154.071 132.083 153.953C132.201 153.835 132.393 153.835 132.511 153.953L134.298 155.739C134.416 155.857 134.416 156.049 134.298 156.167C134.239 156.226 134.162 156.255 134.084 156.255ZM144.833 165.291C144.756 165.291 144.678 165.262 144.619 165.203C144.501 165.085 144.501 164.893 144.619 164.775L146.423 162.971C146.541 162.853 146.733 162.853 146.851 162.971C146.969 163.089 146.969 163.281 146.851 163.399L145.047 165.203C144.988 165.263 144.911 165.291 144.833 165.291ZM128.916 165.878C128.748 165.878 128.613 165.742 128.613 165.575V164.131C128.613 163.964 128.749 163.829 128.916 163.829C129.082 163.829 129.218 163.965 129.218 164.131V165.575C129.218 165.743 129.082 165.878 128.916 165.878ZM151.463 167.202C151.296 167.202 151.161 167.066 151.161 166.899V163.275C151.161 163.107 151.297 162.972 151.463 162.972C151.63 162.972 151.766 163.108 151.766 163.275V166.899C151.766 167.066 151.63 167.202 151.463 167.202ZM129.05 170.478C128.973 170.478 128.895 170.448 128.836 170.389C128.718 170.271 128.718 170.08 128.836 169.962L130.325 168.473C130.443 168.355 130.634 168.355 130.752 168.473C130.87 168.591 130.87 168.783 130.752 168.901L129.264 170.389C129.205 170.449 129.128 170.478 129.05 170.478ZM127.249 172.914C127.171 172.914 127.094 172.884 127.034 172.826L126.176 171.968C126.058 171.85 126.058 171.658 126.176 171.54C126.294 171.422 126.486 171.422 126.604 171.54L127.462 172.398C127.58 172.516 127.58 172.708 127.462 172.826C127.404 172.884 127.326 172.914 127.249 172.914ZM138.03 164.891C137.953 164.891 137.875 164.861 137.816 164.802L135.601 162.587C135.483 162.469 135.483 162.278 135.601 162.16C135.719 162.042 135.911 162.042 136.029 162.16L138.244 164.374C138.362 164.492 138.362 164.684 138.244 164.802C138.185 164.861 138.108 164.891 138.03 164.891ZM140.009 146.667H137.556C137.388 146.667 137.253 146.531 137.253 146.365C137.253 146.198 137.389 146.062 137.556 146.062H140.009C140.177 146.062 140.312 146.198 140.312 146.365C140.312 146.531 140.177 146.667 140.009 146.667ZM141.918 141.031H138.025C137.857 141.031 137.722 140.895 137.722 140.728C137.722 140.561 137.858 140.425 138.025 140.425H141.918C142.085 140.425 142.22 140.561 142.22 140.728C142.22 140.895 142.085 141.031 141.918 141.031ZM149.02 149.968C148.942 149.968 148.865 149.938 148.805 149.879C148.687 149.761 148.687 149.569 148.805 149.451L149.985 148.271C150.103 148.153 150.295 148.153 150.413 148.271C150.531 148.389 150.531 148.58 150.413 148.698L149.233 149.879C149.175 149.938 149.097 149.968 149.02 149.968ZM150.117 155.828C150.039 155.828 149.962 155.799 149.903 155.74L148.633 154.471C148.515 154.353 148.515 154.161 148.633 154.043C148.751 153.925 148.943 153.925 149.061 154.043L150.33 155.312C150.448 155.43 150.448 155.622 150.33 155.74C150.272 155.799 150.194 155.828 150.117 155.828ZM150.853 141.55C150.775 141.55 150.698 141.521 150.638 141.462C150.52 141.344 150.52 141.152 150.638 141.034L152.466 139.207C152.584 139.089 152.776 139.089 152.894 139.207C153.012 139.325 153.012 139.516 152.894 139.634L151.066 141.462C151.008 141.521 150.93 141.55 150.853 141.55ZM132.644 136.536C132.566 136.536 132.489 136.506 132.43 136.448C132.312 136.33 132.312 136.138 132.43 136.02L134.113 134.336C134.231 134.218 134.423 134.218 134.541 134.336C134.659 134.454 134.659 134.645 134.541 134.763L132.857 136.448C132.799 136.507 132.721 136.536 132.644 136.536ZM132.281 146.008C132.203 146.008 132.126 145.978 132.067 145.92C131.949 145.802 131.949 145.61 132.067 145.492L133.03 144.528C133.148 144.41 133.34 144.41 133.458 144.528C133.576 144.646 133.576 144.838 133.458 144.956L132.494 145.92C132.436 145.978 132.358 146.008 132.281 146.008ZM118.37 143.684C118.293 143.684 118.215 143.654 118.156 143.596C118.038 143.478 118.038 143.286 118.156 143.168L119.37 141.954C119.488 141.836 119.68 141.836 119.798 141.954C119.916 142.072 119.916 142.264 119.798 142.382L118.584 143.596C118.525 143.655 118.448 143.684 118.37 143.684ZM120.191 151.428C120.114 151.428 120.037 151.399 119.977 151.34L117.854 149.217C117.736 149.099 117.736 148.907 117.854 148.789C117.972 148.671 118.164 148.671 118.282 148.789L120.405 150.912C120.523 151.03 120.523 151.222 120.405 151.34C120.346 151.399 120.269 151.428 120.191 151.428ZM123.332 148.844C123.165 148.844 123.03 148.708 123.03 148.542V146.223C123.03 146.056 123.166 145.921 123.332 145.921C123.499 145.921 123.635 146.057 123.635 146.223V148.542C123.635 148.709 123.499 148.844 123.332 148.844ZM127.608 138.206C127.44 138.206 127.305 138.07 127.305 137.903V136.218C127.305 136.051 127.441 135.915 127.608 135.915C127.775 135.915 127.911 136.051 127.911 136.218V137.903C127.911 138.071 127.776 138.206 127.608 138.206ZM145.159 173.011C145.082 173.011 145.004 172.982 144.945 172.923L142.185 170.163C142.067 170.045 142.067 169.854 142.185 169.736C142.303 169.618 142.495 169.618 142.613 169.736L145.373 172.495C145.491 172.613 145.491 172.805 145.373 172.923C145.314 172.982 145.237 173.011 145.159 173.011ZM154.166 173.006C154.088 173.006 154.011 172.976 153.951 172.918C153.833 172.8 153.833 172.608 153.951 172.49L154.27 172.171C154.496 171.943 154.728 171.717 154.958 171.492C155.183 171.271 155.41 171.052 155.631 170.828C155.749 170.709 155.941 170.708 156.06 170.826C156.179 170.944 156.179 171.136 156.062 171.254C155.837 171.48 155.609 171.702 155.382 171.924C155.153 172.148 154.924 172.371 154.699 172.597L154.379 172.917C154.321 172.976 154.243 173.006 154.166 173.006ZM121.836 177.382C121.669 177.382 121.534 177.246 121.534 177.079V176.262C121.534 176.095 121.67 175.96 121.836 175.96C122.003 175.96 122.139 176.096 122.139 176.262V177.079C122.139 177.246 122.003 177.382 121.836 177.382ZM129.678 159.695C129.6 159.695 129.523 159.666 129.463 159.607L128.206 158.35C128.088 158.232 128.088 158.04 128.206 157.922C128.324 157.804 128.516 157.804 128.634 157.922L129.891 159.179C130.009 159.297 130.009 159.489 129.891 159.607C129.833 159.666 129.755 159.695 129.678 159.695ZM147.674 181.99C147.597 181.99 147.519 181.96 147.46 181.902L145.341 179.784C145.223 179.666 145.223 179.474 145.341 179.356C145.459 179.238 145.651 179.238 145.769 179.356L147.888 181.474C148.006 181.592 148.006 181.784 147.888 181.902C147.829 181.96 147.752 181.99 147.674 181.99ZM158.451 182.548C158.374 182.548 158.296 182.519 158.237 182.46C158.119 182.342 158.119 182.15 158.237 182.032L161.094 179.175C161.212 179.057 161.404 179.057 161.522 179.175C161.64 179.293 161.64 179.485 161.522 179.603L158.665 182.46C158.606 182.519 158.529 182.548 158.451 182.548ZM161.217 170.043C161.14 170.043 161.062 170.013 161.003 169.954C160.885 169.836 160.885 169.645 161.003 169.527L163.92 166.609C164.038 166.491 164.23 166.491 164.348 166.609C164.466 166.727 164.466 166.919 164.348 167.037L161.431 169.954C161.372 170.013 161.295 170.043 161.217 170.043ZM154.459 179.937C154.382 179.937 154.304 179.907 154.245 179.849L152.436 178.04C152.318 177.922 152.318 177.73 152.436 177.612C152.554 177.494 152.746 177.494 152.864 177.612L154.673 179.421C154.791 179.539 154.791 179.731 154.673 179.849C154.614 179.907 154.537 179.937 154.459 179.937ZM152.89 184.683C152.813 184.683 152.735 184.653 152.676 184.595C152.558 184.477 152.558 184.285 152.676 184.167L154.661 182.182C154.779 182.064 154.971 182.064 155.089 182.182C155.207 182.3 155.207 182.492 155.089 182.61L153.104 184.595C153.045 184.653 152.968 184.683 152.89 184.683ZM133.145 183.144C133.067 183.144 132.99 183.114 132.93 183.055C132.812 182.937 132.812 182.746 132.93 182.628L134.098 181.46C134.216 181.342 134.407 181.342 134.525 181.46C134.643 181.578 134.643 181.77 134.525 181.888L133.358 183.055C133.3 183.114 133.222 183.144 133.145 183.144ZM138.931 178.057C138.853 178.057 138.776 178.028 138.717 177.969L136.622 175.876C136.504 175.758 136.504 175.566 136.622 175.448C136.74 175.33 136.932 175.33 137.05 175.448L139.144 177.541C139.262 177.659 139.262 177.851 139.144 177.969C139.086 178.028 139.008 178.057 138.931 178.057Z" fill="white"></path><defs><filter id="filter0_d_244_1077" x="0.629883" y="0.585938" width="194.59" height="193.605" filterUnits="userSpaceOnUse" color-interpolation-filters="sRGB"><feFlood flood-opacity="0" result="BackgroundImageFix"></feFlood><feColorMatrix in="SourceAlpha" type="matrix" values="0 0 0 0 0 0 0 0 0 0 0 0 0 0 0 0 0 0 127 0" result="hardAlpha"></feColorMatrix><feOffset dx="-1"></feOffset><feGaussianBlur stdDeviation="2.5"></feGaussianBlur><feComposite in2="hardAlpha" operator="out"></feComposite><feColorMatrix type="matrix" values="0 0 0 0 0 0 0 0 0 0 0 0 0 0 0 0 0 0 0.06 0"></feColorMatrix><feBlend mode="normal" in2="BackgroundImageFix" result="effect1_dropShadow_244_1077"></feBlend><feBlend mode="normal" in="SourceGraphic" in2="effect1_dropShadow_244_1077" result="shape"></feBlend></filter></defs></svg> 