<?xml version="1.0" encoding="UTF-8"?> <svg xmlns="http://www.w3.org/2000/svg" width="195" height="195" viewBox="0 0 195 195" fill="none"><g filter="url(#filter0_d_249_1399)"><rect x="6.09424" y="5.94922" width="184.59" height="183.605" rx="12" fill="white"></rect></g><mask id="mask0_249_1399" style="mask-type:alpha" maskUnits="userSpaceOnUse" x="6" y="5" width="185" height="185"><rect x="6.09375" y="5.94922" width="184.59" height="183.605" rx="12" fill="white"></rect></mask><g mask="url(#mask0_249_1399)"><path opacity="0.05" fill-rule="evenodd" clip-rule="evenodd" d="M121.867 190.313C95.0877 190.601 61.6207 212.836 49.2056 189.143C33.6164 159.391 47.8131 120.902 75.5442 101.908C101.404 84.1968 134.786 94.5515 159.862 113.353C183.501 131.078 202.944 161.157 189.873 187.632C178.783 210.094 146.947 190.044 121.867 190.313Z" fill="#5B0ED4"></path><path d="M162.775 189.528H121.092L123.038 178.83H161.32L162.775 189.528Z" fill="#030047"></path><path d="M76.804 117.833C77.1217 118.401 77.5793 118.977 78.2177 119.548C80.2516 121.363 83.8724 125.686 84.6696 126.648L96.8572 117.944L96.6726 118.069L81.4922 97.6621C80.8167 96.8768 79.7721 96.6183 78.8493 96.8987C78.4621 97.0166 78.1035 97.2305 77.7972 97.5366C77.0076 98.3408 76.8487 99.5728 77.4138 100.546L81.5768 107.749C81.5768 107.749 79.403 108.192 79.2403 110.286C79.2403 110.286 79.2251 110.286 79.1928 110.29C78.8902 110.308 77.3253 110.545 77.1293 112.968C76.6413 113.123 75.3979 115.354 76.804 117.833Z" fill="white"></path><path d="M84.6692 126.99C84.5712 126.99 84.4732 126.947 84.4057 126.866C83.9709 126.342 80.099 121.685 77.9899 119.803C77.3572 119.237 76.8587 118.631 76.5067 118.001C75.4231 116.09 75.8741 114.433 76.1195 113.808C76.2717 113.421 76.5191 112.982 76.8064 112.763C77.048 110.598 78.3666 110.098 78.9336 109.983C79.1628 108.594 80.2483 107.848 81.0646 107.545L77.1184 100.717C76.4791 99.6166 76.6589 98.2096 77.5541 97.298C77.9004 96.9519 78.3019 96.7086 78.75 96.5717C79.8383 96.2409 81.0141 96.5831 81.7524 97.4396L96.7626 117.615C96.9005 117.575 97.0527 117.624 97.1383 117.748C97.2458 117.901 97.2087 118.112 97.0565 118.221L84.869 126.925C84.8081 126.969 84.7377 126.99 84.6692 126.99ZM79.5871 97.1316C79.374 97.1316 79.159 97.163 78.9478 97.2267C78.6082 97.3303 78.3028 97.5157 78.0384 97.7799C77.3601 98.471 77.2231 99.5395 77.7083 100.377L81.8723 107.581C81.9274 107.676 81.9331 107.792 81.8875 107.892C81.8428 107.993 81.7514 108.065 81.6439 108.087C81.5669 108.103 79.7203 108.51 79.5805 110.316C79.5662 110.494 79.4178 110.631 79.2399 110.631C78.9516 110.65 77.6436 110.838 77.4695 112.999C77.458 113.136 77.3648 113.254 77.2326 113.296C77.1622 113.332 76.8644 113.664 76.6646 114.323C76.4744 114.948 76.2784 116.216 77.1013 117.667C77.1013 117.668 77.1023 117.668 77.1023 117.669C77.4171 118.233 77.869 118.78 78.4446 119.295C80.3948 121.035 83.793 125.067 84.7282 126.188L96.1927 118L81.2168 97.8683C80.8106 97.3959 80.2093 97.1316 79.5871 97.1316Z" fill="#030047"></path><path d="M83.2539 117.427C83.2539 117.427 84.6609 121.997 80.3209 120.132C80.3209 120.132 78.9938 119.666 76.8019 117.834C75.3978 115.356 76.6402 113.121 77.1273 112.972L83.2539 117.427Z" fill="white"></path><path d="M82.0712 120.917C81.549 120.917 80.9201 120.759 80.1867 120.445C80.1515 120.433 78.7967 119.946 76.583 118.095C76.5516 118.068 76.525 118.037 76.505 118.001C75.4138 116.076 75.8771 114.412 76.1263 113.786C76.3166 113.308 76.6524 112.759 77.0273 112.644C77.131 112.613 77.2413 112.631 77.3288 112.694L83.4554 117.15C83.5154 117.194 83.5591 117.255 83.581 117.326C83.6524 117.557 84.247 119.608 83.2281 120.523C82.9341 120.786 82.5479 120.917 82.0712 120.917ZM77.0691 117.612C79.1449 119.338 80.4226 119.805 80.4349 119.81C81.5766 120.299 82.3776 120.369 82.7714 120.015C83.3222 119.521 83.1082 118.196 82.9579 117.635L77.1272 113.394C77.0044 113.539 76.8085 113.842 76.6638 114.317C76.4755 114.935 76.2805 116.18 77.0691 117.612Z" fill="#030047"></path><path d="M85.8521 114.764C85.8311 114.762 85.8121 114.764 85.795 114.761C83.8162 114.649 79.2422 110.287 79.2422 110.287C79.403 108.19 81.5758 107.75 81.5758 107.75L86.8871 111.736C88.1886 112.71 87.4817 114.818 85.8521 114.764Z" fill="white"></path><path d="M85.9098 115.106C85.8823 115.106 85.8547 115.108 85.8261 115.105C85.809 115.104 85.7557 115.101 85.7424 115.099C83.7294 114.987 79.4836 110.989 79.006 110.535C78.9318 110.464 78.8937 110.364 78.9013 110.262C79.044 108.399 80.668 107.586 81.5071 107.415C81.6041 107.396 81.7021 107.418 81.7801 107.477L87.0914 111.463C87.8144 112.004 88.0865 112.908 87.784 113.767C87.4957 114.586 86.7651 115.106 85.9098 115.106ZM85.8623 114.422C86.5672 114.451 86.9829 113.982 87.139 113.54C87.2912 113.105 87.2636 112.445 86.6814 112.008L81.5004 108.12C81.0666 108.248 79.7927 108.739 79.5987 110.155C80.941 111.417 84.3392 114.336 85.8119 114.42L85.8623 114.422Z" fill="#030047"></path><path d="M84.8547 117.138C82.7265 118.792 77.127 112.972 77.127 112.972C77.3229 110.545 78.8888 110.311 79.1904 110.291C79.1904 110.291 86.9638 115.499 84.8547 117.138Z" fill="white"></path><path d="M83.9265 117.772C81.356 117.772 77.3917 113.74 76.8809 113.209C76.8133 113.139 76.7791 113.043 76.7867 112.945C77.0112 110.171 78.9481 109.966 79.1679 109.951C79.2449 109.949 79.3172 109.966 79.381 110.009C80.0051 110.427 85.4809 114.156 85.559 116.363C85.5732 116.785 85.4029 117.146 85.0652 117.409C84.738 117.662 84.3517 117.772 83.9265 117.772ZM77.4831 112.847C79.5874 115.002 83.2995 117.915 84.6447 116.868C84.8112 116.738 84.8826 116.59 84.8759 116.384C84.8207 114.842 80.7871 111.785 79.1032 110.644C78.7084 110.706 77.6819 111.042 77.4831 112.847Z" fill="#030047"></path><path d="M97.133 118.666L94.7537 107.873C94.3237 106.158 92.6132 105.089 90.8817 105.453L85.1671 106.654C84.582 106.777 84.2414 107.39 84.4459 107.952C84.9454 109.319 86.3153 110.167 87.7623 110.005L90.6363 109.685L90.2548 111.314C89.7534 113.453 90.036 115.701 91.0501 117.65L91.3355 118.198" fill="white"></path><path d="M97.1318 119.007C96.9748 119.007 96.834 118.899 96.7988 118.739L94.4195 107.947C94.0352 106.412 92.5112 105.458 90.951 105.788L85.2363 106.989C85.0546 107.028 84.8986 107.143 84.8082 107.305C84.7178 107.468 84.7026 107.661 84.7663 107.836C85.2125 109.058 86.4264 109.807 87.7231 109.666L90.5971 109.346C90.7074 109.337 90.8168 109.376 90.8901 109.458C90.9643 109.541 90.9928 109.655 90.9671 109.762L90.5856 111.392C90.1033 113.451 90.3754 115.617 91.3515 117.494L91.6369 118.041C91.7244 118.209 91.6588 118.415 91.4913 118.502C91.3229 118.59 91.1175 118.523 91.0309 118.356L90.7455 117.809C89.6943 115.788 89.4012 113.454 89.9207 111.236L90.1918 110.078L87.7982 110.345C86.1952 110.526 84.6779 109.589 84.1242 108.069C83.9919 107.709 84.0233 107.309 84.2098 106.973C84.3963 106.638 84.7188 106.399 85.0955 106.32L90.8102 105.119C92.7281 104.717 94.6079 105.889 95.0845 107.79L97.4657 118.592C97.5066 118.776 97.3896 118.958 97.2051 118.999C97.1813 119.004 97.1565 119.007 97.1318 119.007Z" fill="#030047"></path><path d="M132.424 117.533L129.33 117.21C125.773 116.839 122.265 118.268 119.982 121.019L111.059 135.111L98.0384 115.276L83.3926 127.101L101.145 152.646C103.51 156.02 107.423 157.969 111.543 157.826C115.631 157.685 119.376 155.499 121.51 152.011L135.425 129.261" fill="#1328C9"></path><path d="M101.146 152.989C101.037 152.989 100.931 152.938 100.864 152.843L83.1121 127.297C83.0104 127.15 83.0389 126.949 83.1778 126.837L97.8236 115.012C97.8988 114.952 97.9949 114.924 98.0919 114.94C98.187 114.955 98.2717 115.009 98.325 115.09L114.241 139.293C114.345 139.451 114.301 139.663 114.143 139.767C113.984 139.87 113.774 139.826 113.669 139.669L97.9606 115.781L83.8551 127.17L101.426 152.454C101.534 152.609 101.496 152.822 101.341 152.929C101.281 152.97 101.213 152.989 101.146 152.989Z" fill="#030047"></path><path d="M129.205 117.163C129.205 117.163 141.474 118.535 145.937 119.315C149.188 119.884 156.987 121.747 161.264 123.143C163.135 123.753 164.369 125.531 164.284 127.495L162.587 182.143H120.025L129.205 117.163Z" fill="#1328C9"></path><path d="M120.025 172.097C120.006 172.097 119.987 172.096 119.968 172.092C119.781 172.061 119.656 171.885 119.687 171.698L127.124 127.475C127.156 127.289 127.332 127.158 127.518 127.195C127.705 127.226 127.83 127.402 127.799 127.588L120.361 171.812C120.333 171.979 120.188 172.097 120.025 172.097Z" fill="#030047"></path><path d="M139.544 126.933L140.207 129.85L136.625 152.553L141.596 158.528L147.151 153.171L144.32 130.325L146.62 128.071L143.303 124.271L139.544 126.933Z" fill="white"></path><path d="M133.466 163.927L130.035 162.212C129.815 162.075 129.64 161.893 129.507 161.677C129.287 161.295 129.236 160.805 129.403 160.361C129.727 159.486 130.749 159.104 131.581 159.539L142.504 162.748L140.963 175.872" fill="white"></path><path d="M140.963 176.214C140.95 176.214 140.936 176.213 140.922 176.212C140.735 176.19 140.6 176.02 140.622 175.832L142.13 162.995L131.484 159.867C131.463 159.861 131.442 159.853 131.422 159.842C131.109 159.677 130.743 159.655 130.415 159.781C130.09 159.905 129.845 160.155 129.724 160.48C129.597 160.818 129.627 161.201 129.803 161.507C129.907 161.677 130.048 161.819 130.216 161.923L133.62 163.622C133.789 163.706 133.857 163.911 133.773 164.08C133.688 164.249 133.483 164.317 133.314 164.233L129.883 162.519C129.597 162.343 129.382 162.125 129.217 161.857C128.934 161.368 128.887 160.768 129.084 160.242C129.271 159.738 129.667 159.337 130.171 159.143C130.67 158.951 131.23 158.98 131.709 159.221L142.601 162.421C142.761 162.468 142.864 162.623 142.844 162.789L141.303 175.912C141.282 176.085 141.133 176.214 140.963 176.214ZM122.937 147.662H113.113C112.375 147.662 111.793 147.162 111.698 146.447L111.431 144.426C111.295 143.405 112.191 142.41 113.247 142.41H123.07C123.808 142.41 124.391 142.91 124.486 143.625L124.753 145.646C124.888 146.668 123.992 147.662 122.937 147.662Z" fill="#030047"></path><path d="M122.937 148.004H113.114C112.198 148.004 111.477 147.382 111.359 146.494L111.092 144.473C111.016 143.897 111.208 143.299 111.618 142.831C112.041 142.347 112.635 142.07 113.246 142.07H123.07C123.985 142.07 124.707 142.692 124.824 143.582L125.091 145.602C125.167 146.177 124.976 146.776 124.565 147.244C124.142 147.727 123.548 148.004 122.937 148.004ZM113.247 142.753C112.833 142.753 112.427 142.945 112.133 143.28C111.852 143.601 111.72 144.002 111.769 144.383L112.037 146.404C112.108 146.944 112.55 147.322 113.114 147.322H122.937C123.352 147.322 123.758 147.129 124.052 146.794C124.333 146.475 124.465 146.072 124.415 145.692L124.147 143.671C124.076 143.131 123.633 142.753 123.071 142.753H113.247Z" fill="#030047"></path><path d="M106.853 145.037L129.167 145.069C130.128 145.07 130.939 145.784 131.062 146.737L134.539 173.583C134.688 174.728 133.794 175.742 132.638 175.74L110.325 175.708C109.364 175.707 108.553 174.993 108.43 174.041L104.953 147.195C104.804 146.05 105.699 145.035 106.853 145.037Z" fill="#FFAD00"></path><path d="M132.642 176.081C132.641 176.081 132.64 176.081 132.639 176.081L110.325 176.049C109.197 176.047 108.236 175.203 108.09 174.084L104.613 147.238C104.53 146.595 104.728 145.945 105.157 145.459C105.585 144.973 106.202 144.694 106.85 144.694C106.851 144.694 106.853 144.694 106.854 144.694L129.167 144.728C130.295 144.73 131.256 145.574 131.401 146.692L134.878 173.537C134.961 174.181 134.763 174.829 134.334 175.316C133.907 175.803 133.29 176.081 132.642 176.081ZM106.851 145.378C106.4 145.378 105.97 145.572 105.671 145.91C105.372 146.25 105.233 146.702 105.291 147.151L108.769 173.996C108.869 174.775 109.539 175.364 110.325 175.365L132.639 175.398C132.64 175.398 132.641 175.398 132.641 175.398C133.092 175.398 133.523 175.204 133.821 174.865C134.12 174.526 134.259 174.074 134.201 173.626L130.724 146.78C130.623 146 129.954 145.411 129.167 145.411L106.854 145.378C106.853 145.378 106.852 145.378 106.851 145.378Z" fill="#030047"></path><path d="M140.962 175.872L126.781 175.669C126.337 175.602 125.976 175.278 125.767 174.917C125.622 174.672 125.547 174.394 125.576 174.095C125.63 173.343 126.27 172.729 127.026 172.758H129.594L124.815 172.733C124.271 172.733 123.743 172.463 123.46 171.99C123.456 171.986 123.456 171.981 123.456 171.981C123.311 171.736 123.237 171.455 123.265 171.159C123.319 170.407 123.959 169.793 124.711 169.823H129.594L122.302 169.798C121.857 169.731 121.5 169.403 121.287 169.042C121.142 168.802 121.071 168.519 121.096 168.225C121.15 167.473 121.79 166.904 122.546 166.929L129.593 166.862H124.47C124.025 166.796 123.664 166.468 123.455 166.107C123.31 165.866 123.236 165.584 123.264 165.289C123.318 164.537 123.958 163.965 124.71 163.993L133.465 163.927" fill="white"></path><path d="M140.962 176.214C140.96 176.214 140.959 176.214 140.957 176.214L126.777 176.011C126.761 176.011 126.746 176.01 126.731 176.007C126.23 175.932 125.759 175.589 125.471 175.088C125.285 174.772 125.202 174.416 125.236 174.063C125.263 173.693 125.405 173.353 125.624 173.08L124.814 173.076C124.135 173.076 123.502 172.727 123.167 172.166C123.163 172.16 123.159 172.152 123.155 172.145C122.97 171.828 122.89 171.477 122.925 171.128C122.951 170.757 123.093 170.418 123.312 170.145L122.3 170.141C122.283 170.141 122.266 170.141 122.25 170.138C121.75 170.063 121.291 169.727 120.992 169.217C120.807 168.911 120.724 168.558 120.755 168.198C120.822 167.267 121.626 166.568 122.557 166.59L123.371 166.582C123.293 166.49 123.222 166.388 123.16 166.28C122.972 165.969 122.89 165.615 122.925 165.258C122.992 164.326 123.776 163.616 124.724 163.654L133.462 163.587C133.463 163.587 133.464 163.587 133.465 163.587C133.652 163.587 133.805 163.738 133.806 163.925C133.807 164.114 133.656 164.269 133.467 164.269L124.713 164.336C124.136 164.316 123.647 164.744 123.606 165.314C123.585 165.531 123.634 165.742 123.75 165.931C123.935 166.253 124.212 166.47 124.498 166.521H129.594C129.782 166.521 129.934 166.674 129.935 166.861C129.936 167.049 129.785 167.202 129.596 167.204L122.55 167.271C121.973 167.246 121.479 167.681 121.438 168.249C121.419 168.468 121.469 168.68 121.581 168.866C121.77 169.187 122.048 169.405 122.331 169.456L129.595 169.481C129.784 169.481 129.936 169.635 129.936 169.823C129.936 170.011 129.783 170.164 129.595 170.164H124.712C124.14 170.15 123.65 170.6 123.607 171.184C123.586 171.401 123.635 171.613 123.751 171.807C123.755 171.814 123.759 171.82 123.763 171.827C123.978 172.175 124.379 172.392 124.817 172.392L129.596 172.416C129.785 172.417 129.937 172.57 129.936 172.759C129.936 172.947 129.783 173.099 129.595 173.099H127.027C126.437 173.084 125.959 173.534 125.918 174.119C125.897 174.339 125.945 174.546 126.062 174.742C126.245 175.059 126.523 175.275 126.812 175.326L140.968 175.529C141.156 175.532 141.307 175.686 141.305 175.875C141.302 176.064 141.149 176.214 140.962 176.214Z" fill="#030047"></path><path d="M156.491 121.758L146.434 130.862L143.287 124.614L151.423 120.488L156.491 121.758Z" fill="#030047"></path><path d="M143.287 124.613L137.944 128.503L135.425 117.89L140.813 118.567L143.287 124.613Z" fill="#030047"></path><path d="M161.229 123.132C166.115 124.867 169.699 129.083 170.622 134.182L177.033 162.964C178.609 170.041 173.22 176.758 165.963 176.758H140.5L141.456 160.683L159.061 161.135L154.817 142.516C154.27 140.302 154.485 137.968 155.429 135.892L161.229 123.132Z" fill="#1328C9"></path><path d="M159.489 177.1H140.5C140.406 177.1 140.316 177.061 140.251 176.992C140.186 176.924 140.153 176.832 140.159 176.738L141.114 160.662C141.124 160.482 141.275 160.341 141.456 160.341C141.458 160.341 141.461 160.341 141.464 160.341L158.637 160.782L156.007 148.298C155.968 148.113 156.087 147.932 156.272 147.893C156.452 147.856 156.637 147.972 156.677 148.157L159.396 161.065C159.417 161.167 159.39 161.273 159.324 161.354C159.257 161.433 159.156 161.471 159.052 161.476L141.777 161.032L140.864 176.415H159.49C159.678 176.415 159.832 176.568 159.832 176.757C159.832 176.945 159.678 177.1 159.489 177.1Z" fill="#030047"></path><path d="M151.618 121.176L154.148 108.02L142.596 105.801L140.072 118.922C140.08 118.936 140.087 118.949 140.094 118.963C140.877 125.683 144.787 126.287 151.618 121.176Z" fill="white"></path><path d="M144.323 124.915C143.743 124.915 143.212 124.811 142.729 124.603C141.115 123.909 140.116 122.039 139.76 119.045C139.74 118.982 139.727 118.91 139.738 118.859L142.261 105.737C142.279 105.648 142.331 105.57 142.405 105.518C142.48 105.468 142.573 105.449 142.661 105.466L154.213 107.685C154.399 107.72 154.519 107.9 154.484 108.085L151.954 121.241C151.937 121.324 151.891 121.399 151.822 121.45C148.723 123.769 146.248 124.915 144.323 124.915ZM140.427 118.891C140.431 118.903 140.433 118.915 140.434 118.924C140.755 121.683 141.617 123.383 142.999 123.976C144.798 124.751 147.592 123.741 151.307 120.982L153.748 108.291L142.867 106.202L140.427 118.891Z" fill="#030047"></path><path d="M153.466 111.49C158.604 106.488 161.645 97.2531 161.645 97.2531L147.434 86.2705C147.044 86.4369 139.912 88.1147 135.283 98.1619C131.253 106.909 135.214 115.207 147.345 114.725" fill="white"></path><path d="M146.376 115.084C141.163 115.084 137.165 113.375 135.053 110.22C132.907 107.012 132.877 102.565 134.972 98.0176C138.936 89.4144 144.825 86.7451 147.171 85.996C147.234 85.976 147.279 85.9627 147.303 85.9532C147.415 85.9076 147.548 85.9237 147.644 85.9979L161.855 96.9814C161.969 97.0698 162.016 97.221 161.971 97.3579C161.846 97.7381 158.844 106.73 153.706 111.732C153.571 111.864 153.354 111.861 153.223 111.726C153.092 111.591 153.094 111.374 153.23 111.243C157.805 106.789 160.738 98.8171 161.245 97.3712L147.372 86.6491C145.104 87.3744 139.44 89.9572 135.596 98.3019C133.602 102.629 133.612 106.834 135.623 109.839C137.728 112.983 141.894 114.598 147.334 114.381C147.524 114.368 147.682 114.52 147.689 114.708C147.697 114.896 147.55 115.056 147.362 115.062C147.027 115.078 146.699 115.084 146.376 115.084Z" fill="#030047"></path><path d="M162.29 86.7312C164.457 88.5336 160.947 92.3808 160.947 92.3808C160.947 92.3808 164.841 92.4749 165.917 97.1434C166.993 101.808 159.014 106.474 159.014 106.474C157.861 105.372 156.754 104.122 155.506 103.141C154.952 103.897 154.249 104.395 153.885 105.325C153.375 104.529 153.138 103.556 153.231 102.615C153.321 101.674 153.739 100.765 154.401 100.085C154.401 100.085 138.944 92.1888 142.688 84.7682C146.431 77.3485 152.821 79.6643 153.955 83.5362C155.088 87.4071 157.406 82.6701 162.29 86.7312Z" fill="#030047"></path><path d="M140.185 98.4116C140.578 97.8738 140.604 97.2246 140.243 96.9615C139.883 96.6985 139.272 96.9212 138.879 97.4589C138.486 97.9967 138.46 98.6459 138.821 98.9089C139.182 99.172 139.793 98.9493 140.185 98.4116Z" fill="#030047"></path><path d="M140.167 95.5293C141.015 95.6671 141.707 96.3563 141.921 97.2794L140.167 95.5293Z" fill="white"></path><path d="M141.921 97.6206C141.766 97.6206 141.625 97.5141 141.589 97.3563C141.405 96.5664 140.826 95.9817 140.113 95.8657C139.927 95.8353 139.8 95.6604 139.831 95.4741C139.861 95.2878 140.034 95.1585 140.223 95.1918C141.21 95.3515 142.007 96.1405 142.255 97.2014C142.298 97.3848 142.183 97.5683 141.999 97.6111C141.973 97.6178 141.946 97.6206 141.921 97.6206Z" fill="#030047"></path><path d="M145.868 102.546C146.26 102.009 146.286 101.359 145.925 101.096C145.565 100.833 144.954 101.056 144.561 101.594C144.168 102.131 144.143 102.781 144.503 103.044C144.864 103.307 145.475 103.084 145.868 102.546Z" fill="#030047"></path><path d="M145.85 99.6641C146.698 99.8019 147.389 100.491 147.603 101.414L145.85 99.6641Z" fill="white"></path><path d="M147.603 101.757C147.448 101.757 147.308 101.65 147.271 101.493C147.088 100.703 146.508 100.118 145.796 100.002C145.609 99.9716 145.483 99.7967 145.513 99.6103C145.544 99.424 145.719 99.2966 145.905 99.328C146.893 99.4877 147.69 100.277 147.937 101.338C147.98 101.521 147.866 101.705 147.681 101.747C147.656 101.754 147.629 101.757 147.603 101.757Z" fill="#030047"></path><path d="M155.308 103.171C155.308 103.171 160.135 101.113 161.79 102.569C163.444 104.025 159.986 110.526 157.439 110.242C154.892 109.96 153.414 108.314 153.414 108.314" fill="white"></path><path d="M157.601 110.593C157.535 110.593 157.468 110.589 157.401 110.581C154.756 110.288 153.223 108.612 153.159 108.541C153.034 108.402 153.045 108.186 153.185 108.059C153.325 107.933 153.541 107.944 153.668 108.084C153.683 108.099 155.1 109.638 157.478 109.903C158.748 110.034 160.41 108.078 161.286 106.096C161.956 104.582 162.068 103.267 161.564 102.824C160.339 101.746 156.73 102.935 155.442 103.484C155.269 103.558 155.068 103.477 154.994 103.304C154.919 103.131 155 102.931 155.173 102.857C155.688 102.637 160.25 100.758 162.015 102.313C162.777 102.984 162.738 104.501 161.911 106.373C160.964 108.514 159.206 110.592 157.601 110.593Z" fill="#030047"></path><path d="M158.447 107.268C158.357 107.268 158.266 107.232 158.199 107.161C158.068 107.024 158.074 106.808 158.212 106.678C158.536 106.37 158.801 105.991 158.977 105.58C159.074 105.356 159.097 105.186 159.046 105.089C159.012 105.023 158.924 104.968 158.825 104.949C158.712 104.925 158.578 104.939 158.414 104.984C158.165 105.054 157.929 105.177 157.73 105.341C157.584 105.46 157.369 105.44 157.248 105.294C157.128 105.149 157.149 104.934 157.295 104.813C157.566 104.59 157.889 104.421 158.228 104.326C158.498 104.25 158.738 104.234 158.957 104.278C159.259 104.337 159.519 104.52 159.65 104.768C159.805 105.063 159.791 105.416 159.606 105.848C159.393 106.344 159.075 106.802 158.683 107.173C158.616 107.236 158.532 107.268 158.447 107.268Z" fill="#030047"></path><path d="M142.343 99.8008C141.781 100.581 140.199 102.669 139.637 103.448C139.298 103.919 138.951 104.409 138.894 104.97C138.837 105.531 139.16 106.183 139.8 106.409" fill="white"></path><path d="M139.8 106.75C139.762 106.75 139.724 106.744 139.687 106.731C138.853 106.439 138.486 105.607 138.554 104.937C138.622 104.274 139.014 103.729 139.36 103.249C139.642 102.859 140.179 102.14 140.717 101.42C141.251 100.705 141.786 99.9905 142.066 99.6017C142.176 99.4496 142.389 99.4135 142.543 99.5247C142.697 99.635 142.731 99.8489 142.62 100.002C142.339 100.393 141.801 101.111 141.265 101.831C140.73 102.546 140.195 103.261 139.916 103.649C139.62 104.06 139.284 104.526 139.236 105.007C139.196 105.402 139.42 105.914 139.915 106.088C140.093 106.151 140.186 106.345 140.124 106.523C140.073 106.663 139.941 106.75 139.8 106.75Z" fill="#030047"></path><path d="M142.672 109.339C142.109 109.339 141.547 109.207 141.042 108.948C140.874 108.862 140.808 108.656 140.894 108.488C140.98 108.321 141.186 108.253 141.355 108.341C142.026 108.684 142.822 108.75 143.54 108.522C144.259 108.294 144.871 107.781 145.219 107.113C145.307 106.947 145.513 106.881 145.681 106.968C145.848 107.054 145.913 107.262 145.826 107.429C145.395 108.255 144.637 108.891 143.748 109.173C143.398 109.284 143.035 109.339 142.672 109.339Z" fill="#030047"></path></g><path d="M69.8936 60.2838L70.7649 59.1068C71.4527 59.8711 72.5533 60.5437 73.9749 60.5437C75.6258 60.5437 76.2066 59.703 76.2066 58.9693C76.2066 57.8993 75.0449 57.5935 73.7456 57.2572C72.11 56.8292 70.2146 56.3554 70.2146 54.2765C70.2146 52.5951 71.6973 51.3722 73.822 51.3722C75.3965 51.3722 76.6346 51.8766 77.5365 52.7938L76.6499 53.9249C75.8703 53.0995 74.8003 52.7326 73.6998 52.7326C72.5686 52.7326 71.789 53.3135 71.789 54.1695C71.789 55.0867 72.8896 55.3771 74.1583 55.6981C75.8245 56.1414 77.7658 56.6611 77.7658 58.8317C77.7658 60.4214 76.6652 61.9041 73.9138 61.9041C72.0947 61.9041 70.7649 61.2468 69.8936 60.2838ZM79.0474 58.0215C79.0474 55.8815 80.5913 54.1542 82.7466 54.1542C84.963 54.1542 86.3387 55.8815 86.3387 58.1438V58.4801H80.4996C80.6066 59.7335 81.5237 60.773 83.0064 60.773C83.786 60.773 84.642 60.4673 85.1923 59.9017L85.8343 60.8036C85.1006 61.522 84.0611 61.9041 82.8689 61.9041C80.6677 61.9041 79.0474 60.345 79.0474 58.0215ZM82.7466 55.2854C81.2638 55.2854 80.5607 56.4777 80.4843 57.4865H84.9936C84.963 56.5082 84.3057 55.2854 82.7466 55.2854ZM89.4352 61.7207H88.0595V54.3377H89.4352V55.4688C90.0008 54.7351 90.8721 54.1695 91.8503 54.1695V55.5605C91.7128 55.5299 91.5599 55.5147 91.3765 55.5147C90.6886 55.5147 89.7562 56.0344 89.4352 56.5847V61.7207ZM96.6637 61.7207H95.181L92.1391 54.3377H93.6065L95.9147 60.131L98.2229 54.3377H99.7056L96.6637 61.7207ZM101.495 53.0995C101.021 53.0995 100.609 52.7174 100.609 52.2282C100.609 51.7391 101.021 51.3416 101.495 51.3416C101.984 51.3416 102.382 51.7391 102.382 52.2282C102.382 52.7174 101.984 53.0995 101.495 53.0995ZM102.198 61.7207H100.823V54.3377H102.198V61.7207ZM103.932 58.0215C103.932 55.8051 105.46 54.1542 107.692 54.1542C109.083 54.1542 109.924 54.7351 110.459 55.4535L109.542 56.2942C109.098 55.6675 108.502 55.3771 107.753 55.3771C106.301 55.3771 105.368 56.493 105.368 58.0215C105.368 59.5501 106.301 60.6813 107.753 60.6813C108.502 60.6813 109.098 60.3756 109.542 59.7641L110.459 60.6048C109.924 61.3233 109.083 61.9041 107.692 61.9041C105.46 61.9041 103.932 60.238 103.932 58.0215ZM111.515 58.0215C111.515 55.8815 113.059 54.1542 115.214 54.1542C117.43 54.1542 118.806 55.8815 118.806 58.1438V58.4801H112.967C113.074 59.7335 113.991 60.773 115.474 60.773C116.253 60.773 117.109 60.4673 117.66 59.9017L118.302 60.8036C117.568 61.522 116.529 61.9041 115.336 61.9041C113.135 61.9041 111.515 60.345 111.515 58.0215ZM115.214 55.2854C113.731 55.2854 113.028 56.4777 112.952 57.4865H117.461C117.43 56.5082 116.773 55.2854 115.214 55.2854ZM119.885 60.7577L120.542 59.7488C121.047 60.2991 122.025 60.8036 123.018 60.8036C124.058 60.8036 124.608 60.3756 124.608 59.7488C124.608 59.0151 123.767 58.7705 122.82 58.5565C121.566 58.2661 120.099 57.9298 120.099 56.3401C120.099 55.1631 121.108 54.1542 122.911 54.1542C124.18 54.1542 125.097 54.6128 125.724 55.2089L125.113 56.172C124.685 55.6522 123.859 55.2701 122.927 55.2701C121.994 55.2701 121.413 55.637 121.413 56.2331C121.413 56.8751 122.208 57.0891 123.125 57.3031C124.409 57.5935 125.938 57.9451 125.938 59.6418C125.938 60.9106 124.899 61.9041 122.957 61.9041C121.719 61.9041 120.634 61.522 119.885 60.7577Z" fill="#838B91"></path><path d="M98.7952 33.3947C98.7952 35.5067 98.0692 37.3327 96.8372 38.6747L98.0472 40.0387L96.2652 41.5347L94.9892 40.1047C93.9332 40.6767 92.6792 40.9847 91.2932 40.9847C86.8932 40.9847 83.7912 37.7727 83.7912 33.3947C83.7912 29.0167 86.8932 25.8047 91.2932 25.8047C95.6932 25.8047 98.7952 29.0167 98.7952 33.3947ZM91.2932 38.6967C92.0632 38.6967 92.7672 38.5427 93.3832 38.2567L91.5572 36.1887L93.3392 34.7147L95.1652 36.7607C95.8032 35.8587 96.1552 34.6927 96.1552 33.3947C96.1552 30.3587 94.2412 28.0927 91.2932 28.0927C88.3232 28.0927 86.4312 30.3587 86.4312 33.3947C86.4312 36.4087 88.3232 38.6967 91.2932 38.6967ZM113.7 40.7207H110.884L109.806 37.9047H102.854L101.776 40.7207H98.96L104.724 26.0467H107.936L113.7 40.7207ZM109.08 35.6387L106.33 28.2247L103.58 35.6387H109.08Z" fill="#333333"></path><path d="M67.8432 122.067L62.7999 120.873C62.1829 120.727 61.5923 120.977 61.3583 121.485L59.4478 125.631C59.0172 126.564 57.5601 126.48 56.9778 125.487L45.1351 105.295C44.7466 104.632 44.9641 103.869 45.6205 103.59L55.4566 99.4137C56.1139 99.1351 56.9613 99.4457 57.3498 100.108L69.1934 120.3C69.7757 121.294 68.9795 122.335 67.8432 122.067Z" fill="#030047"></path><path d="M31.775 122.028L36.4828 120.854C37.0596 120.71 37.7205 120.962 38.0981 121.472L41.1833 125.628C41.878 126.565 43.3123 126.485 43.614 125.495L49.7515 105.339C49.9526 104.677 49.5193 103.913 48.7835 103.631L37.7598 99.413C37.024 99.1316 36.2634 99.4385 36.0623 100.1L29.9248 120.256C29.6222 121.247 30.7146 122.293 31.775 122.028Z" fill="#030047"></path><path d="M68.3855 90.0946C68.6497 91.9626 68.1688 93.8288 66.868 95.2474C66.2445 95.9307 65.7966 96.7354 65.5425 97.6114C65.282 98.4865 65.2152 99.4374 65.3514 100.4C65.6367 102.419 65.0333 104.239 63.8349 105.559C62.6291 106.873 60.8283 107.687 58.7093 107.682C57.69 107.68 56.7156 107.87 55.8453 108.233C54.9741 108.591 54.2007 109.123 53.5773 109.806C52.2838 111.23 50.418 111.934 48.4517 111.93C46.4863 111.926 44.4204 111.215 42.7228 109.784C41.9056 109.098 40.9814 108.563 40.0087 108.201C39.0352 107.834 38.0132 107.64 36.9939 107.638C34.8758 107.634 32.8428 106.813 31.265 105.493C29.6917 104.167 28.5737 102.344 28.2885 100.325C28.1523 99.3625 27.8159 98.4107 27.3077 97.5338C26.7994 96.6569 26.1238 95.8494 25.3066 95.1634C23.6036 93.7393 22.5953 91.8694 22.3311 90.0014C22.0669 88.1334 22.5477 86.2672 23.8485 84.8486C24.472 84.1653 24.9199 83.3606 25.1805 82.4855C25.441 81.6104 25.5077 80.6595 25.3715 79.6967C25.0872 77.6834 25.6896 75.8638 26.889 74.5439C28.0947 73.2294 29.8956 72.4155 32.0146 72.4201C33.0338 72.4219 34.0019 72.2328 34.8722 71.8693C35.7424 71.5057 36.5158 70.9732 37.1392 70.2908C38.4327 68.8667 40.2985 68.1634 42.2648 68.167C44.2302 68.1707 46.2962 68.8822 47.9937 70.3127C49.6282 71.6847 51.6905 72.4603 53.73 72.4639C55.848 72.4685 57.8811 73.2897 59.4589 74.6096C61.0321 75.9351 62.1501 77.7583 62.4344 79.7716C62.5706 80.7344 62.907 81.6862 63.4153 82.5631C63.9181 83.44 64.5936 84.2475 65.4109 84.9335C67.1121 86.3567 68.1213 88.2266 68.3855 90.0946Z" fill="#FFAD00"></path><path d="M57.1624 97.76C60.8364 92.1444 58.5297 84.1395 52.0102 79.8805C45.4907 75.6215 37.2273 76.7213 33.5533 82.3369C29.8792 87.9525 32.186 95.9575 38.7054 100.216C45.2249 104.475 53.4884 103.376 57.1624 97.76Z" fill="white"></path><path d="M45.3015 97.1485C45.1635 97.1485 45.0364 97.101 44.9194 97.006C44.8024 96.911 44.7338 96.7895 44.7128 96.6406L43.3471 86.9808L41.9951 88.2879C41.8844 88.3829 41.761 88.4167 41.6267 88.3884C41.4914 88.361 41.367 88.2861 41.2537 88.1646L39.8121 86.599C39.7124 86.4766 39.6631 86.345 39.6631 86.2034C39.664 86.0618 39.7271 85.9504 39.8532 85.8691L42.9193 83.084C42.9942 83.0301 43.0683 82.9935 43.1414 82.9725C43.2145 82.9524 43.2995 82.9424 43.3955 82.9424L45.9816 82.9479C46.1197 82.9479 46.2467 82.9963 46.3637 83.0904C46.4807 83.1854 46.5493 83.3078 46.5703 83.4557L48.4361 96.6461C48.4571 96.795 48.4224 96.9165 48.3328 97.0115C48.2423 97.1056 48.1289 97.1531 47.9909 97.1531L45.3015 97.1485Z" fill="#030047"></path><path d="M121.597 89.9896C121.71 92.3079 121.078 94.4681 119.925 96.2592V99.3073C119.925 100.256 119.067 100.976 118.132 100.811L115.144 100.286C113.697 100.902 112.09 101.204 110.397 101.112C105.118 100.825 100.799 96.6005 100.405 91.3333C99.922 84.8728 105.234 79.5215 111.685 79.9302C117.029 80.269 121.338 84.6441 121.597 89.9896Z" fill="#5B0DD4"></path><path d="M109.233 95.2709L105.804 91.8444L107.514 90.1357L109.233 91.8528L114.471 86.6191L116.181 88.3286L109.233 95.2709Z" fill="white"></path><defs><filter id="filter0_d_249_1399" x="0.0942383" y="0.949219" width="194.59" height="193.605" filterUnits="userSpaceOnUse" color-interpolation-filters="sRGB"><feFlood flood-opacity="0" result="BackgroundImageFix"></feFlood><feColorMatrix in="SourceAlpha" type="matrix" values="0 0 0 0 0 0 0 0 0 0 0 0 0 0 0 0 0 0 127 0" result="hardAlpha"></feColorMatrix><feOffset dx="-1"></feOffset><feGaussianBlur stdDeviation="2.5"></feGaussianBlur><feComposite in2="hardAlpha" operator="out"></feComposite><feColorMatrix type="matrix" values="0 0 0 0 0 0 0 0 0 0 0 0 0 0 0 0 0 0 0.11 0"></feColorMatrix><feBlend mode="normal" in2="BackgroundImageFix" result="effect1_dropShadow_249_1399"></feBlend><feBlend mode="normal" in="SourceGraphic" in2="effect1_dropShadow_249_1399" result="shape"></feBlend></filter></defs></svg> 