<?xml version="1.0" encoding="UTF-8"?> <svg xmlns="http://www.w3.org/2000/svg" width="99" height="75" viewBox="0 0 99 75" fill="none"><g filter="url(#filter0_d_360_4)"><path d="M81.3557 13.663L70.9238 38.8115L68.1071 26.2985L56.0801 23.4446L81.3557 13.663Z" fill="#5B0DD4"></path><path d="M81.0246 12.8074L83.025 12.0333L82.2031 14.0145L71.7712 39.163L70.6635 41.8332L70.0287 39.013L67.3379 27.0588L55.8683 24.3372L52.994 23.6551L55.749 22.589L81.0246 12.8074Z" stroke="white" stroke-width="1.83484"></path></g><g filter="url(#filter1_d_360_4)"><rect x="10.8535" y="32.2861" width="49.8818" height="28.6889" rx="7.23661" fill="#590DCE"></rect></g><path d="M35.8751 46.3906C35.8751 48.1273 35.2781 49.6289 34.265 50.7325L35.26 51.8542L33.7946 53.0844L32.7453 51.9085C31.8769 52.3789 30.8457 52.6321 29.7059 52.6321C26.0876 52.6321 23.5367 49.9908 23.5367 46.3906C23.5367 42.7903 26.0876 40.149 29.7059 40.149C33.3242 40.149 35.8751 42.7903 35.8751 46.3906ZM29.7059 50.7506C30.3391 50.7506 30.918 50.624 31.4246 50.3888L29.923 48.6882L31.3884 47.4761L32.89 49.1586C33.4147 48.4168 33.7041 47.458 33.7041 46.3906C33.7041 43.8939 32.1302 42.0305 29.7059 42.0305C27.2635 42.0305 25.7077 43.8939 25.7077 46.3906C25.7077 48.8691 27.2635 50.7506 29.7059 50.7506ZM48.132 52.415H45.8163L44.9298 50.0993H39.2128L38.3264 52.415H36.0106L40.7506 40.348H43.392L48.132 52.415ZM44.3328 48.2359L42.0713 42.139L39.8099 48.2359H44.3328Z" fill="white"></path><defs><filter id="filter0_d_360_4" x="36.1469" y="0.311685" width="62.3088" height="61.9738" filterUnits="userSpaceOnUse" color-interpolation-filters="sRGB"><feFlood flood-opacity="0" result="BackgroundImageFix"></feFlood><feColorMatrix in="SourceAlpha" type="matrix" values="0 0 0 0 0 0 0 0 0 0 0 0 0 0 0 0 0 0 127 0" result="hardAlpha"></feColorMatrix><feOffset dy="3.66969"></feOffset><feGaussianBlur stdDeviation="6.88066"></feGaussianBlur><feComposite in2="hardAlpha" operator="out"></feComposite><feColorMatrix type="matrix" values="0 0 0 0 0 0 0 0 0 0 0 0 0 0 0 0 0 0 0.16 0"></feColorMatrix><feBlend mode="normal" in2="BackgroundImageFix" result="effect1_dropShadow_360_4"></feBlend><feBlend mode="normal" in="SourceGraphic" in2="effect1_dropShadow_360_4" result="shape"></feBlend></filter><filter id="filter1_d_360_4" x="-0.00140381" y="24.3259" width="71.5917" height="50.3983" filterUnits="userSpaceOnUse" color-interpolation-filters="sRGB"><feFlood flood-opacity="0" result="BackgroundImageFix"></feFlood><feColorMatrix in="SourceAlpha" type="matrix" values="0 0 0 0 0 0 0 0 0 0 0 0 0 0 0 0 0 0 127 0" result="hardAlpha"></feColorMatrix><feOffset dy="2.89465"></feOffset><feGaussianBlur stdDeviation="5.42746"></feGaussianBlur><feComposite in2="hardAlpha" operator="out"></feComposite><feColorMatrix type="matrix" values="0 0 0 0 0 0 0 0 0 0 0 0 0 0 0 0 0 0 0.16 0"></feColorMatrix><feBlend mode="normal" in2="BackgroundImageFix" result="effect1_dropShadow_360_4"></feBlend><feBlend mode="normal" in="SourceGraphic" in2="effect1_dropShadow_360_4" result="shape"></feBlend></filter></defs></svg> 