<?xml version="1.0" encoding="UTF-8"?> <svg xmlns="http://www.w3.org/2000/svg" width="283" height="58" viewBox="0 0 283 58" fill="none"><path fill-rule="evenodd" clip-rule="evenodd" d="M2.37984 19.8442C11.369 3.36362 32.0155 -2.70702 48.4944 6.28519C48.9027 6.50796 49.4142 6.3576 49.637 5.94936C49.8597 5.54112 49.7094 5.02958 49.3011 4.80681C32.0056 -4.63099 10.336 1.7405 0.901317 19.0377C0.678622 19.446 0.829071 19.9575 1.23735 20.1802C1.64564 20.4029 2.15714 20.2524 2.37984 19.8442ZM11.1163 24.6146C17.4741 12.961 32.0768 8.66742 43.7303 15.0251C44.1386 15.2479 44.6501 15.0975 44.8728 14.6892C45.0956 14.2809 44.9452 13.7694 44.5369 13.5467C32.0669 6.74351 16.4411 11.3379 9.63789 23.808C9.41516 24.2162 9.56556 24.7278 9.97383 24.9505C10.3821 25.1732 10.8936 25.0228 11.1163 24.6146ZM23.3738 25.1584C24.8138 23.997 26.4685 23.1307 28.2434 22.6088C30.0182 22.0869 31.8785 21.9198 33.718 22.117C35.5574 22.3141 37.3401 22.8717 38.964 23.7578C39.3723 23.9806 39.8838 23.8303 40.1066 23.422C40.3293 23.0138 40.179 22.5022 39.7707 22.2795C37.9526 21.2874 35.9569 20.6631 33.8975 20.4424C31.8381 20.2217 29.7554 20.4088 27.7683 20.993C25.7812 21.5773 23.9287 22.5473 22.3165 23.8475C20.7043 25.1478 19.3641 26.7529 18.3723 28.5712C18.1496 28.9795 18.3 29.491 18.7083 29.7137C19.1166 29.9364 19.6281 29.7859 19.8508 29.3777C20.7367 27.7536 21.9338 26.3199 23.3738 25.1584ZM36.7056 28.6913C28.7348 28.6913 22.2732 35.2205 22.2732 43.1913C22.2732 51.1621 28.7348 57.6913 36.7056 57.6913H267.761C275.731 57.6913 282.193 51.1621 282.193 43.1913C282.193 35.2205 275.731 28.6913 267.761 28.6913H36.7056Z" fill="url(#paint0_linear_244_720)"></path><path d="M46.8184 48.6914H43.713L41.2172 44.138H39.2358V48.6914H36.5304V35.9837H42.4746C45.1228 35.9837 46.7422 37.7175 46.7422 40.0799C46.7422 42.328 45.3324 43.5283 43.9607 43.8522L46.8184 48.6914ZM43.9797 40.0609C43.9797 38.9939 43.1605 38.3081 42.0745 38.3081H39.2358V41.8136H42.0745C43.1605 41.8136 43.9797 41.1278 43.9797 40.0609ZM47.5482 44.0808C47.5482 41.4136 49.5106 39.2607 52.3112 39.2607C55.0547 39.2607 56.9218 41.3183 56.9218 44.3285V44.862H50.0821C50.2346 46.0241 51.1681 46.9958 52.7304 46.9958C53.5877 46.9958 54.5975 46.6528 55.1881 46.0813L56.255 47.6435C55.3214 48.5009 53.8925 48.92 52.4636 48.92C49.663 48.92 47.5482 47.0339 47.5482 44.0808ZM52.3112 41.1849C50.8061 41.1849 50.1583 42.309 50.044 43.2235H54.5784C54.5213 42.3471 53.9116 41.1849 52.3112 41.1849ZM66.6142 48.6914H64.1946V47.7388C63.5659 48.4818 62.4799 48.92 61.2796 48.92C59.8126 48.92 58.0789 47.9293 58.0789 45.8717C58.0789 43.7188 59.8126 42.9377 61.2796 42.9377C62.499 42.9377 63.5849 43.3187 64.1946 44.0618V42.7853C64.1946 41.8517 63.3944 41.2421 62.1751 41.2421C61.1844 41.2421 60.2699 41.6041 59.4888 42.328L58.5743 40.7086C59.6983 39.7179 61.1463 39.2607 62.5942 39.2607C64.6899 39.2607 66.6142 40.099 66.6142 42.7472V48.6914ZM64.1946 46.4814V45.3383C63.7945 44.8048 63.0324 44.5381 62.2513 44.5381C61.2987 44.5381 60.5176 45.0525 60.5176 45.9289C60.5176 46.7862 61.2987 47.2816 62.2513 47.2816C63.0324 47.2816 63.7945 47.0148 64.1946 46.4814ZM71.4337 48.6914H69.0141V35.9837H71.4337V48.6914ZM77.7767 45.1096H73.2042V43.052H77.7767V45.1096ZM85.2604 48.6914H82.536V38.3652H78.8209V35.9837H88.9565V38.3652H85.2604V48.6914ZM91.834 38.1366C91.0528 38.1366 90.386 37.4888 90.386 36.6887C90.386 35.8885 91.0528 35.2407 91.834 35.2407C92.6341 35.2407 93.2819 35.8885 93.2819 36.6887C93.2819 37.4888 92.6341 38.1366 91.834 38.1366ZM93.0533 48.6914H90.6337V39.4893H93.0533V48.6914ZM109.303 48.6914H106.865V42.8806C106.865 42.0232 106.484 41.4136 105.493 41.4136C104.636 41.4136 103.931 41.9851 103.588 42.4805V48.6914H101.149V42.8806C101.149 42.0232 100.768 41.4136 99.7773 41.4136C98.939 41.4136 98.2341 41.9851 97.8721 42.4995V48.6914H95.4525V39.4893H97.8721V40.6896C98.2531 40.1371 99.4725 39.2607 100.882 39.2607C102.235 39.2607 103.092 39.8894 103.435 40.9373C103.969 40.099 105.188 39.2607 106.598 39.2607C108.294 39.2607 109.303 40.1561 109.303 42.0423V48.6914ZM111.086 44.0808C111.086 41.4136 113.048 39.2607 115.849 39.2607C118.592 39.2607 120.459 41.3183 120.459 44.3285V44.862H113.62C113.772 46.0241 114.706 46.9958 116.268 46.9958C117.125 46.9958 118.135 46.6528 118.726 46.0813L119.793 47.6435C118.859 48.5009 117.43 48.92 116.001 48.92C113.201 48.92 111.086 47.0339 111.086 44.0808ZM115.849 41.1849C114.344 41.1849 113.696 42.309 113.582 43.2235H118.116C118.059 42.3471 117.449 41.1849 115.849 41.1849ZM133.197 48.92C129.482 48.92 126.529 46.2528 126.529 42.3471C126.529 38.4414 129.482 35.7742 133.197 35.7742C136.093 35.7742 137.713 37.2983 138.608 38.8796L136.284 40.0228C135.75 38.9939 134.607 38.1747 133.197 38.1747C130.987 38.1747 129.311 39.9465 129.311 42.3471C129.311 44.7476 130.987 46.5195 133.197 46.5195C134.607 46.5195 135.75 45.7193 136.284 44.6714L138.608 45.7955C137.694 47.3768 136.093 48.92 133.197 48.92ZM144.429 48.92C141.4 48.92 139.571 46.71 139.571 44.0808C139.571 41.4707 141.4 39.2607 144.429 39.2607C147.477 39.2607 149.306 41.4707 149.306 44.0808C149.306 46.71 147.477 48.92 144.429 48.92ZM144.429 46.7672C145.934 46.7672 146.791 45.5288 146.791 44.0808C146.791 42.6519 145.934 41.4136 144.429 41.4136C142.924 41.4136 142.086 42.6519 142.086 44.0808C142.086 45.5288 142.924 46.7672 144.429 46.7672ZM164.952 48.6914H162.514V42.8806C162.514 42.0232 162.132 41.4136 161.142 41.4136C160.284 41.4136 159.58 41.9851 159.237 42.4805V48.6914H156.798V42.8806C156.798 42.0232 156.417 41.4136 155.426 41.4136C154.588 41.4136 153.883 41.9851 153.521 42.4995V48.6914H151.101V39.4893H153.521V40.6896C153.902 40.1371 155.121 39.2607 156.531 39.2607C157.884 39.2607 158.741 39.8894 159.084 40.9373C159.618 40.099 160.837 39.2607 162.247 39.2607C163.942 39.2607 164.952 40.1561 164.952 42.0423V48.6914ZM181.176 48.6914H178.737V42.8806C178.737 42.0232 178.356 41.4136 177.366 41.4136C176.508 41.4136 175.803 41.9851 175.461 42.4805V48.6914H173.022V42.8806C173.022 42.0232 172.641 41.4136 171.65 41.4136C170.812 41.4136 170.107 41.9851 169.745 42.4995V48.6914H167.325V39.4893H169.745V40.6896C170.126 40.1371 171.345 39.2607 172.755 39.2607C174.108 39.2607 174.965 39.8894 175.308 40.9373C175.842 40.099 177.061 39.2607 178.471 39.2607C180.166 39.2607 181.176 40.1561 181.176 42.0423V48.6914ZM192.18 48.6914H189.76V47.5292C189.132 48.2342 188.026 48.92 186.521 48.92C184.502 48.92 183.549 47.815 183.549 46.0241V39.4893H185.969V45.0715C185.969 46.348 186.636 46.7672 187.665 46.7672C188.598 46.7672 189.341 46.2528 189.76 45.7193V39.4893H192.18V48.6914ZM203.213 48.6914H200.793V43.1282C200.793 41.8517 200.126 41.4136 199.098 41.4136C198.145 41.4136 197.402 41.947 197.002 42.4995V48.6914H194.582V39.4893H197.002V40.6896C197.593 39.9847 198.717 39.2607 200.222 39.2607C202.241 39.2607 203.213 40.4038 203.213 42.1947V48.6914ZM206.816 38.1366C206.034 38.1366 205.368 37.4888 205.368 36.6887C205.368 35.8885 206.034 35.2407 206.816 35.2407C207.616 35.2407 208.264 35.8885 208.264 36.6887C208.264 37.4888 207.616 38.1366 206.816 38.1366ZM208.035 48.6914H205.615V39.4893H208.035V48.6914ZM209.844 44.0808C209.844 41.2611 211.882 39.2607 214.721 39.2607C216.607 39.2607 217.75 40.0799 218.36 40.9373L216.778 42.4043C216.34 41.7755 215.673 41.4136 214.835 41.4136C213.368 41.4136 212.339 42.4805 212.339 44.0808C212.339 45.6812 213.368 46.7672 214.835 46.7672C215.673 46.7672 216.34 46.3861 216.778 45.7765L218.36 47.2435C217.75 48.1008 216.607 48.92 214.721 48.92C211.882 48.92 209.844 46.9196 209.844 44.0808ZM227.886 48.6914H225.467V47.7388C224.838 48.4818 223.752 48.92 222.552 48.92C221.085 48.92 219.351 47.9293 219.351 45.8717C219.351 43.7188 221.085 42.9377 222.552 42.9377C223.771 42.9377 224.857 43.3187 225.467 44.0618V42.7853C225.467 41.8517 224.666 41.2421 223.447 41.2421C222.456 41.2421 221.542 41.6041 220.761 42.328L219.846 40.7086C220.97 39.7179 222.418 39.2607 223.866 39.2607C225.962 39.2607 227.886 40.099 227.886 42.7472V48.6914ZM225.467 46.4814V45.3383C225.067 44.8048 224.304 44.5381 223.523 44.5381C222.571 44.5381 221.79 45.0525 221.79 45.9289C221.79 46.7862 222.571 47.2816 223.523 47.2816C224.304 47.2816 225.067 47.0148 225.467 46.4814ZM233.373 48.92C231.677 48.92 230.762 48.0436 230.762 46.4052V41.6041H229.238V39.4893H230.762V36.9744H233.201V39.4893H235.068V41.6041H233.201V45.7574C233.201 46.329 233.506 46.7672 234.039 46.7672C234.401 46.7672 234.744 46.6338 234.878 46.5004L235.392 48.3294C235.03 48.6533 234.382 48.92 233.373 48.92ZM237.924 38.1366C237.143 38.1366 236.476 37.4888 236.476 36.6887C236.476 35.8885 237.143 35.2407 237.924 35.2407C238.724 35.2407 239.372 35.8885 239.372 36.6887C239.372 37.4888 238.724 38.1366 237.924 38.1366ZM239.143 48.6914H236.724V39.4893H239.143V48.6914ZM245.81 48.92C242.781 48.92 240.952 46.71 240.952 44.0808C240.952 41.4707 242.781 39.2607 245.81 39.2607C248.858 39.2607 250.687 41.4707 250.687 44.0808C250.687 46.71 248.858 48.92 245.81 48.92ZM245.81 46.7672C247.315 46.7672 248.173 45.5288 248.173 44.0808C248.173 42.6519 247.315 41.4136 245.81 41.4136C244.305 41.4136 243.467 42.6519 243.467 44.0808C243.467 45.5288 244.305 46.7672 245.81 46.7672ZM261.113 48.6914H258.693V43.1282C258.693 41.8517 258.027 41.4136 256.998 41.4136C256.045 41.4136 255.302 41.947 254.902 42.4995V48.6914H252.482V39.4893H254.902V40.6896C255.493 39.9847 256.617 39.2607 258.122 39.2607C260.141 39.2607 261.113 40.4038 261.113 42.1947V48.6914ZM262.715 47.4911L263.763 45.7955C264.43 46.4242 265.802 47.0529 266.945 47.0529C267.993 47.0529 268.488 46.6909 268.488 46.1194C268.488 45.4716 267.688 45.243 266.64 45.0334C265.059 44.7286 263.02 44.3476 263.02 42.1566C263.02 40.6134 264.373 39.2607 266.792 39.2607C268.355 39.2607 269.593 39.7941 270.489 40.5181L269.536 42.1756C268.983 41.585 267.936 41.1087 266.811 41.1087C265.935 41.1087 265.364 41.4326 265.364 41.9661C265.364 42.5376 266.088 42.7472 267.116 42.9568C268.698 43.2616 270.812 43.6807 270.812 45.967C270.812 47.6626 269.384 48.92 266.831 48.92C265.23 48.92 263.687 48.3866 262.715 47.4911Z" fill="white"></path><defs><linearGradient id="paint0_linear_244_720" x1="320.273" y1="10.1914" x2="24.0076" y2="63.1144" gradientUnits="userSpaceOnUse"><stop stop-color="#EA42D6"></stop><stop offset="1" stop-color="#1328C9"></stop></linearGradient></defs></svg> 