<?xml version="1.0" encoding="UTF-8"?> <svg xmlns="http://www.w3.org/2000/svg" width="203" height="258" viewBox="0 0 203 258" fill="none"><g filter="url(#filter0_d_244_530)"><rect x="6.69727" y="5.61914" width="191.383" height="246.899" rx="14" fill="white"></rect></g><path d="M88.3867 42.2588H85.1747L79.4107 27.5848H82.3367L86.7807 39.4648L91.2247 27.5848H94.1507L88.3867 42.2588ZM99.1729 42.5228C95.8069 42.5228 93.7169 39.9928 93.7169 36.9348C93.7169 33.8988 95.8069 31.3688 99.1729 31.3688C102.583 31.3688 104.651 33.8988 104.651 36.9348C104.651 39.9928 102.583 42.5228 99.1729 42.5228ZM99.1729 40.4768C101.153 40.4768 102.253 38.8268 102.253 36.9348C102.253 35.0648 101.153 33.4148 99.1729 33.4148C97.2149 33.4148 96.1149 35.0648 96.1149 36.9348C96.1149 38.8268 97.2149 40.4768 99.1729 40.4768ZM109.628 42.2588H107.054V27.5848H109.628V42.2588ZM115.322 42.2588H112.748V27.5848H119.194C122.274 27.5848 123.99 29.6968 123.99 32.1828C123.99 34.6688 122.252 36.7808 119.194 36.7808H115.322V42.2588ZM121.35 32.1828C121.35 30.7748 120.294 29.8508 118.842 29.8508H115.322V34.5148H118.842C120.294 34.5148 121.35 33.5908 121.35 32.1828Z" fill="#333333"></path><path d="M70.6626 227.622L71.5339 226.445C72.2218 227.209 73.3224 227.882 74.7439 227.882C76.3948 227.882 76.9757 227.041 76.9757 226.307C76.9757 225.237 75.814 224.931 74.5147 224.595C72.8791 224.167 70.9836 223.693 70.9836 221.614C70.9836 219.933 72.4664 218.71 74.5911 218.71C76.1655 218.71 77.4037 219.215 78.3055 220.132L77.419 221.263C76.6394 220.437 75.5694 220.071 74.4688 220.071C73.3377 220.071 72.5581 220.651 72.5581 221.507C72.5581 222.425 73.6587 222.715 74.9274 223.036C76.5935 223.479 78.5348 223.999 78.5348 226.17C78.5348 227.759 77.4342 229.242 74.6828 229.242C72.8638 229.242 71.5339 228.585 70.6626 227.622ZM83.5462 229.242C81.2533 229.242 79.8164 227.499 79.8164 225.359C79.8164 223.235 81.2533 221.492 83.5462 221.492C85.8543 221.492 87.2759 223.235 87.2759 225.359C87.2759 227.499 85.8543 229.242 83.5462 229.242ZM83.5462 228.019C85.0289 228.019 85.8391 226.766 85.8391 225.359C85.8391 223.968 85.0289 222.715 83.5462 222.715C82.0787 222.715 81.2533 223.968 81.2533 225.359C81.2533 226.766 82.0787 228.019 83.5462 228.019ZM90.3983 229.059H89.0226V218.863H90.3983V229.059ZM98.9491 229.059H97.5734V228.05C97.0078 228.661 96.0754 229.242 94.9443 229.242C93.3698 229.242 92.5902 228.447 92.5902 226.888V221.676H93.966V226.429C93.966 227.652 94.5774 228.019 95.5251 228.019C96.3811 228.019 97.1607 227.53 97.5734 226.98V221.676H98.9491V229.059ZM103.162 229.242C102 229.242 101.404 228.585 101.404 227.423V222.883H100.181V221.676H101.404V219.658H102.78V221.676H104.278V222.883H102.78V227.117C102.78 227.637 103.024 228.019 103.498 228.019C103.819 228.019 104.11 227.882 104.247 227.729L104.599 228.768C104.308 229.043 103.88 229.242 103.162 229.242ZM106.474 220.437C106 220.437 105.587 220.055 105.587 219.566C105.587 219.077 106 218.68 106.474 218.68C106.963 218.68 107.36 219.077 107.36 219.566C107.36 220.055 106.963 220.437 106.474 220.437ZM107.177 229.059H105.801V221.676H107.177V229.059ZM112.64 229.242C110.347 229.242 108.91 227.499 108.91 225.359C108.91 223.235 110.347 221.492 112.64 221.492C114.948 221.492 116.37 223.235 116.37 225.359C116.37 227.499 114.948 229.242 112.64 229.242ZM112.64 228.019C114.123 228.019 114.933 226.766 114.933 225.359C114.933 223.968 114.123 222.715 112.64 222.715C111.173 222.715 110.347 223.968 110.347 225.359C110.347 226.766 111.173 228.019 112.64 228.019ZM124.475 229.059H123.1V224.335C123.1 223.112 122.473 222.715 121.525 222.715C120.669 222.715 119.89 223.235 119.492 223.785V229.059H118.116V221.676H119.492V222.715C119.981 222.119 120.96 221.492 122.106 221.492C123.665 221.492 124.475 222.318 124.475 223.877V229.059ZM126.013 228.096L126.67 227.087C127.175 227.637 128.153 228.141 129.147 228.141C130.186 228.141 130.736 227.713 130.736 227.087C130.736 226.353 129.896 226.108 128.948 225.894C127.694 225.604 126.227 225.268 126.227 223.678C126.227 222.501 127.236 221.492 129.04 221.492C130.308 221.492 131.225 221.951 131.852 222.547L131.241 223.51C130.813 222.99 129.987 222.608 129.055 222.608C128.122 222.608 127.541 222.975 127.541 223.571C127.541 224.213 128.336 224.427 129.254 224.641C130.538 224.931 132.066 225.283 132.066 226.98C132.066 228.248 131.027 229.242 129.085 229.242C127.847 229.242 126.762 228.86 126.013 228.096Z" fill="#838B91"></path><circle opacity="0.6" cx="102.389" cy="127.994" r="63.0433" fill="#F4F5F6"></circle><path d="M185.472 120.944L182.475 122.83C181.068 123.708 179.219 123.287 178.339 121.89L176.451 118.892C175.572 117.495 175.992 115.646 177.39 114.766L180.39 112.869C181.787 111.989 183.636 112.41 184.525 113.809L186.411 116.817C187.29 118.215 186.87 120.064 185.472 120.944Z" fill="#FFAD00"></path><path d="M58.1462 60.7837L56.9217 61.5545C56.3473 61.9132 55.5915 61.7413 55.2328 61.1702L54.462 59.9457C54.1022 59.3745 54.2741 58.6197 54.8453 58.26L56.0708 57.4849C56.642 57.1251 57.3968 57.297 57.7597 57.8692L58.5295 59.098C58.8892 59.6692 58.7173 60.4239 58.1462 60.7837Z" fill="#FFAD00"></path><path d="M28.8602 108.536L27.0912 109.649C26.2606 110.167 25.1706 109.918 24.6518 109.094L23.5383 107.326C23.0195 106.502 23.2671 105.411 24.0924 104.892L25.8624 103.773C26.6866 103.254 27.7776 103.502 28.3018 104.328L29.4132 106.103C29.9331 106.926 29.6843 108.017 28.8602 108.536Z" fill="#FFAD00"></path><path d="M144.975 66.7759L143.206 67.8894C142.375 68.4071 141.285 68.1584 140.766 67.3342L139.654 65.5653C139.135 64.7411 139.383 63.65 140.208 63.1312L141.978 62.0124C142.802 61.4935 143.893 61.7412 144.418 62.5675L145.529 64.3418C146.048 65.166 145.8 66.256 144.975 66.7759Z" fill="#FFAD00"></path><path d="M158.735 144.224H128.44C124.067 144.224 120.509 140.592 120.509 136.129V81.2287C120.509 76.7677 124.067 73.1387 128.44 73.1387H158.735C163.108 73.1387 166.667 76.7677 166.667 81.2287V136.129C166.666 140.592 163.108 144.224 158.735 144.224ZM128.44 73.6579C124.353 73.6579 121.028 77.0544 121.028 81.2287V136.129C121.028 140.306 124.353 143.704 128.44 143.704H158.735C162.822 143.704 166.147 140.306 166.147 136.129V81.2287C166.147 77.0537 162.822 73.6579 158.735 73.6579H128.44Z" fill="#030047"></path><path d="M164.155 81.2282V136.128C164.155 140.456 160.72 143.963 156.483 143.963H126.188C121.951 143.963 118.516 140.456 118.516 136.128V81.2282C118.516 76.9057 121.951 73.3975 126.188 73.3975H156.483C160.72 73.3982 164.155 76.9057 164.155 81.2282Z" fill="white"></path><path d="M158.115 144.224H127.458C123.033 144.224 119.432 140.595 119.432 136.135V81.2721C119.432 76.8141 123.033 73.1875 127.458 73.1875H158.115C162.54 73.1875 166.141 76.8141 166.141 81.2721V136.135C166.141 140.595 162.541 144.224 158.115 144.224ZM127.458 73.7064C123.322 73.7064 119.958 77.1006 119.958 81.2721V136.135C119.958 140.309 123.322 143.705 127.458 143.705H158.115C162.251 143.705 165.616 140.309 165.616 136.135V81.2721C165.616 77.0999 162.251 73.7064 158.115 73.7064H127.458Z" fill="#030047"></path><path d="M134.243 112.903L132.824 117.249L132.231 119.059C131.826 118.855 131.431 118.639 131.045 118.406C131.039 118.404 131.035 118.4 131.029 118.396C129.35 117.39 127.841 116.127 126.559 114.662L127.052 113.708H127.054L127.471 112.902H134.243V112.903Z" fill="white"></path><path d="M132.23 119.318C132.19 119.318 132.15 119.309 132.114 119.291C131.699 119.082 131.294 118.86 130.911 118.629C130.899 118.622 130.887 118.615 130.878 118.608C129.196 117.601 127.67 116.328 126.363 114.834C126.292 114.753 126.278 114.639 126.327 114.544L126.821 113.589C126.826 113.58 126.831 113.571 126.836 113.563L127.239 112.784C127.283 112.697 127.372 112.643 127.469 112.643H134.241C134.324 112.643 134.402 112.683 134.451 112.751C134.5 112.818 134.514 112.904 134.488 112.983L132.476 119.14C132.452 119.211 132.399 119.27 132.329 119.298C132.298 119.312 132.265 119.318 132.23 119.318ZM131.162 118.175C131.168 118.178 131.173 118.18 131.178 118.184C131.467 118.358 131.769 118.528 132.078 118.689L133.884 113.162H127.629L127.284 113.828C127.28 113.837 127.275 113.846 127.269 113.854L126.871 114.624C128.116 116.019 129.56 117.213 131.163 118.173L131.162 118.175ZM143.291 90.3438C143.291 90.3438 141.324 90.8328 140.3 92.6266C139.276 94.4204 139.342 95.9058 138.357 96.4636C137.373 97.0208 136.683 97.0152 136.023 98.1654C135.363 99.3156 136.355 100.529 135.85 101.225C135.346 101.922 133.161 102.423 133.178 105.316C133.195 108.209 134.825 110.433 137.506 111.352C140.186 112.27 147.877 107.786 147.877 107.786L144.772 94.1344L143.291 90.3438Z" fill="#030047"></path><path d="M143.766 90.2549C143.766 90.2549 145.507 90.8816 146.27 92.6052C147.033 94.3294 146.836 95.6721 147.678 96.2694C148.52 96.8673 149.147 96.9256 149.64 98.0316C150.133 99.1375 149.119 100.147 149.513 100.826C149.906 101.505 151.843 102.163 151.56 104.789C151.276 107.414 149.589 109.283 147.069 109.868C144.549 110.453 137.982 105.668 137.982 105.668L142.068 93.5593L143.766 90.2549Z" fill="#030047"></path><path d="M136.536 110.144L135.081 118.633L130.635 115.905L129.06 114.939L126.594 113.428L130.102 108.555C130.107 108.547 130.112 108.54 130.118 108.533C130.858 107.432 132.111 106.786 133.436 106.804L135.336 106.831L136.536 110.144Z" fill="#3CF0C0"></path><path opacity="0.4" d="M131.065 114.745C131.199 115.195 131.011 115.663 130.634 115.904L129.059 114.938C129.098 114.536 129.375 114.18 129.784 114.057C130.328 113.893 130.902 114.201 131.065 114.745Z" fill="white"></path><path d="M135.081 118.892C135.034 118.892 134.986 118.879 134.945 118.854L126.457 113.648C126.395 113.61 126.353 113.549 126.339 113.478C126.324 113.407 126.34 113.334 126.383 113.275L129.891 108.402C129.975 108.286 130.136 108.259 130.254 108.343C130.37 108.427 130.396 108.589 130.313 108.706L126.968 113.351L134.892 118.21L136.281 110.1C136.305 109.958 136.44 109.867 136.581 109.887C136.723 109.912 136.818 110.046 136.794 110.187L135.339 118.676C135.324 118.761 135.269 118.833 135.19 118.868C135.154 118.884 135.117 118.892 135.081 118.892Z" fill="#030047"></path><path d="M149.748 109.78L149.516 113.029L149.489 113.419C149.489 113.422 149.489 113.423 149.489 113.423L149.481 113.515L149.376 114.989L149.291 116.181V116.183L149.086 119.054C148.203 119.5 147.282 119.878 146.326 120.179C144.537 120.748 142.631 121.055 140.654 121.055C140.476 121.055 140.299 121.053 140.122 121.047C139.689 121.036 139.259 121.008 138.832 120.966C136.477 120.74 134.248 120.077 132.231 119.058C131.826 118.854 131.431 118.638 131.045 118.405L131.594 116.493V116.491L131.868 115.536C131.895 115.446 131.92 115.355 131.947 115.265L132.623 112.902L132.941 111.793C132.945 111.782 132.947 111.772 132.951 111.76L133.919 108.392L134.351 106.885L135.347 106.862L138.426 106.789L139.583 106.762H139.585L144.027 106.657L144.067 106.654L146.603 106.595H146.628L146.713 106.593C147.033 106.585 147.344 106.629 147.634 106.718C148.565 106.994 149.302 107.714 149.606 108.627C149.725 108.987 149.777 109.376 149.748 109.78Z" fill="#3CF0C0"></path><path opacity="0.4" d="M142.601 117.8C143.045 117.8 143.405 117.44 143.405 116.996C143.405 116.553 143.045 116.193 142.601 116.193C142.158 116.193 141.798 116.553 141.798 116.996C141.798 117.44 142.158 117.8 142.601 117.8Z" fill="white"></path><path opacity="0.4" d="M135.944 119.543C136.209 119.543 136.423 119.329 136.423 119.064C136.423 118.799 136.209 118.585 135.944 118.585C135.679 118.585 135.465 118.799 135.465 119.064C135.465 119.329 135.679 119.543 135.944 119.543Z" fill="white"></path><path d="M131.029 118.656C131.005 118.656 130.982 118.652 130.957 118.646C130.819 118.606 130.74 118.462 130.78 118.324C130.965 117.688 131.15 117.053 131.339 116.417C131.431 116.099 131.525 115.78 131.62 115.463L131.698 115.191C131.932 114.4 132.162 113.613 132.383 112.832C132.488 112.46 132.591 112.091 132.691 111.725C132.692 111.719 132.704 111.68 132.707 111.674C132.754 111.539 132.903 111.468 133.037 111.516C133.172 111.563 133.243 111.71 133.197 111.844C133.195 111.852 133.188 111.875 133.186 111.88C133.092 112.229 132.988 112.601 132.882 112.973C132.661 113.755 132.43 114.546 132.196 115.339L132.117 115.61C132.024 115.926 131.929 116.244 131.837 116.562C131.649 117.199 131.463 117.833 131.279 118.468C131.246 118.582 131.142 118.656 131.029 118.656Z" fill="#030047"></path><path d="M138.432 107.389L138.369 101.8L143.497 100.428L144.023 106.336C144.07 106.854 143.903 107.37 143.555 107.756C142.985 108.389 141.957 109.213 140.47 109.212C138.533 109.211 138.432 107.389 138.432 107.389Z" fill="white"></path><path d="M140.473 109.471C140.472 109.471 140.472 109.471 140.471 109.471C138.743 109.47 138.213 108.118 138.173 107.403C138.173 107.4 138.173 107.395 138.173 107.392L138.109 101.802C138.108 101.684 138.187 101.579 138.302 101.549L143.43 100.177C143.505 100.158 143.583 100.17 143.645 100.214C143.708 100.259 143.749 100.328 143.755 100.404L144.282 106.313C144.335 106.905 144.14 107.494 143.748 107.929C143.114 108.633 142.031 109.471 140.473 109.471ZM138.692 107.379C138.7 107.494 138.839 108.952 140.471 108.952C140.472 108.952 140.472 108.952 140.472 108.952C141.84 108.952 142.799 108.208 143.362 107.583C143.657 107.255 143.804 106.809 143.764 106.36L143.265 100.759L138.63 102L138.692 107.379Z" fill="#030047"></path><path d="M143.602 101.178C145.914 98.381 145.116 94.0648 145.116 94.0648L137.566 91.3955C137.435 91.5157 134.78 93.9355 134.559 98.5166C134.377 102.291 138.091 104.202 141.859 102.572" fill="white"></path><path d="M139.155 103.417C138.054 103.417 137.023 103.122 136.177 102.536C134.884 101.641 134.217 100.209 134.299 98.5034C134.518 93.9616 137.096 91.4736 137.389 91.2052C137.46 91.1405 137.562 91.1181 137.652 91.1504L145.203 93.8197C145.29 93.8506 145.354 93.9258 145.371 94.0171C145.405 94.1984 146.165 98.4858 143.802 101.343C143.711 101.454 143.547 101.469 143.437 101.379C143.327 101.287 143.311 101.123 143.402 101.013C145.378 98.6235 144.993 95.0233 144.884 94.2581L137.63 91.6942C137.075 92.2465 135.01 94.5553 134.819 98.5294C134.745 100.049 135.333 101.321 136.473 102.111C137.869 103.076 139.845 103.16 141.756 102.333C141.888 102.276 142.041 102.337 142.098 102.468C142.155 102.6 142.094 102.753 141.963 102.81C141.022 103.216 140.064 103.417 139.155 103.417Z" fill="#030047"></path><path d="M142.81 97.735C143.338 97.9472 143.679 96.9825 143.679 96.9825C144.321 98.529 144.755 100.054 143.447 101.393L143.472 101.608L148.342 101.335C148.215 98.5648 147.961 95.4951 147.457 93.8867C146.399 90.5176 142.053 88.9009 138.141 89.756C135.675 90.2949 135.297 91.9784 135.814 93.5516C136.402 95.3398 140.315 94.8782 142.306 95.9159C142.633 96.086 142.555 97.6325 142.81 97.735ZM144.054 106.561L144.065 106.655L145.826 106.6C146.27 106.599 146.677 106.528 147.033 106.394L144.054 106.561Z" fill="#030047"></path><path d="M136.993 96.6472C137.064 96.3777 136.975 96.1207 136.794 96.0732C136.613 96.0256 136.409 96.2055 136.338 96.475C136.267 96.7444 136.357 97.0014 136.538 97.049C136.718 97.0965 136.922 96.9166 136.993 96.6472Z" fill="#030047"></path><path d="M137.408 96.0897C137.336 96.0897 137.265 96.0602 137.214 96.0026C137.019 95.7848 136.739 95.699 136.498 95.7833C136.363 95.8318 136.215 95.7602 136.167 95.6253C136.12 95.4904 136.191 95.3414 136.326 95.2943C136.765 95.139 137.266 95.2817 137.601 95.6576C137.696 95.7651 137.687 95.9288 137.58 96.0243C137.531 96.0679 137.469 96.0897 137.408 96.0897Z" fill="#030047"></path><path d="M139.975 97.709C140.002 97.4318 139.874 97.192 139.688 97.1733C139.502 97.1547 139.328 97.3643 139.301 97.6416C139.273 97.9188 139.401 98.1587 139.587 98.1773C139.774 98.1959 139.947 97.9863 139.975 97.709Z" fill="#030047"></path><path d="M140.356 97.1824C140.287 97.1824 140.219 97.1557 140.168 97.1016C139.967 96.8894 139.685 96.8121 139.446 96.9042C139.313 96.9561 139.162 96.8894 139.11 96.7559C139.058 96.6224 139.125 96.472 139.259 96.42C139.693 96.2514 140.197 96.3793 140.545 96.744C140.643 96.8479 140.639 97.0124 140.535 97.1107C140.485 97.1592 140.421 97.1824 140.356 97.1824Z" fill="#030047"></path><path d="M144.621 100.022C143.849 100.022 143.308 99.7342 143.279 99.7181C143.154 99.6499 143.107 99.4918 143.175 99.3661C143.244 99.2403 143.402 99.1932 143.527 99.2621C143.534 99.2656 144.274 99.6541 145.201 99.4356C145.606 99.3408 146.009 98.4569 146.081 97.5055C146.134 96.8029 145.982 96.3637 145.805 96.2928C145.289 96.0862 144.184 96.8549 143.605 97.3861C143.5 97.4837 143.336 97.476 143.239 97.3706C143.142 97.2652 143.149 97.1008 143.254 97.0038C143.432 96.8401 145.016 95.4187 145.999 95.8101C146.449 95.9906 146.668 96.623 146.598 97.5442C146.52 98.5721 146.086 99.761 145.318 99.9408C145.073 99.9991 144.837 100.022 144.621 100.022Z" fill="#030047"></path><path d="M145.194 98.4988C145.154 98.4988 145.114 98.4897 145.076 98.4707C144.948 98.4054 144.898 98.2494 144.963 98.1215C145.041 97.9691 145.088 97.7983 145.099 97.6269C145.104 97.5383 145.09 97.5116 145.09 97.5109C145.064 97.5243 145.029 97.5355 144.976 97.5728C144.901 97.6262 144.837 97.6957 144.79 97.7737C144.716 97.8967 144.557 97.9367 144.433 97.863C144.31 97.7892 144.27 97.6297 144.344 97.5067C144.428 97.3676 144.542 97.2439 144.676 97.1491C144.789 97.0697 144.897 97.024 145.008 97.0079C145.172 96.9847 145.332 97.0303 145.446 97.1343C145.574 97.2524 145.632 97.4294 145.617 97.6599C145.601 97.9009 145.535 98.1419 145.425 98.3569C145.379 98.4468 145.288 98.4988 145.194 98.4988Z" fill="#030047"></path><path d="M137.498 99.9437C137.479 99.9437 137.461 99.9415 137.441 99.9373C137.021 99.8425 136.797 99.4617 136.792 99.1342C136.787 98.8251 136.938 98.5532 137.059 98.3353L137.646 97.28C137.716 97.1549 137.874 97.1093 137.999 97.1795C138.124 97.2491 138.169 97.4072 138.099 97.5322L137.513 98.5876C137.412 98.7689 137.308 98.9558 137.311 99.1265C137.313 99.2481 137.399 99.3963 137.555 99.4314C137.694 99.4631 137.782 99.6015 137.751 99.742C137.724 99.8621 137.617 99.9437 137.498 99.9437ZM138.519 101.375C138.312 101.375 138.105 101.336 137.911 101.256C137.778 101.202 137.715 101.05 137.769 100.918C137.823 100.785 137.975 100.721 138.108 100.776C138.368 100.882 138.677 100.881 138.936 100.773C139.195 100.666 139.415 100.447 139.523 100.188C139.578 100.055 139.73 99.9935 139.863 100.048C139.995 100.104 140.057 100.256 140.003 100.388C139.84 100.777 139.525 101.092 139.136 101.253C138.94 101.333 138.729 101.375 138.519 101.375Z" fill="#030047"></path><path opacity="0.4" d="M136.804 111.727C137.073 111.727 137.292 111.509 137.292 111.24C137.292 110.97 137.073 110.752 136.804 110.752C136.535 110.752 136.316 110.97 136.316 111.24C136.316 111.509 136.535 111.727 136.804 111.727Z" fill="white"></path><path opacity="0.4" d="M139.053 115.779C139.408 115.779 139.697 115.49 139.697 115.135C139.697 114.779 139.408 114.49 139.053 114.49C138.697 114.49 138.408 114.779 138.408 115.135C138.408 115.49 138.697 115.779 139.053 115.779Z" fill="white"></path><g opacity="0.4"><path d="M142.914 120.87C143.27 120.87 143.559 120.581 143.559 120.225C143.559 119.87 143.27 119.581 142.914 119.581C142.558 119.581 142.27 119.87 142.27 120.225C142.27 120.581 142.558 120.87 142.914 120.87Z" fill="white"></path></g><g opacity="0.4"><path d="M142.12 113.489C142.689 113.489 143.15 113.029 143.15 112.46C143.15 111.892 142.689 111.431 142.12 111.431C141.552 111.431 141.091 111.892 141.091 112.46C141.091 113.029 141.552 113.489 142.12 113.489Z" fill="white"></path></g><g opacity="0.4"><path d="M134.899 116.489C135.386 116.489 135.781 116.094 135.781 115.606C135.781 115.119 135.386 114.724 134.899 114.724C134.411 114.724 134.016 115.119 134.016 115.606C134.016 116.094 134.411 116.489 134.899 116.489Z" fill="white"></path></g><g opacity="0.4"><path d="M130.971 111.013C131.198 111.013 131.382 110.829 131.382 110.602C131.382 110.375 131.198 110.191 130.971 110.191C130.744 110.191 130.56 110.375 130.56 110.602C130.56 110.829 130.744 111.013 130.971 111.013Z" fill="white"></path></g><g opacity="0.4"><path d="M129.558 113.311C129.783 113.311 129.966 113.129 129.966 112.904C129.966 112.679 129.783 112.496 129.558 112.496C129.333 112.496 129.151 112.679 129.151 112.904C129.151 113.129 129.333 113.311 129.558 113.311Z" fill="white"></path></g><g opacity="0.4"><path d="M134.709 109.974C135.105 109.974 135.426 109.654 135.426 109.258C135.426 108.862 135.105 108.541 134.709 108.541C134.313 108.541 133.992 108.862 133.992 109.258C133.992 109.654 134.313 109.974 134.709 109.974Z" fill="white"></path></g><path d="M153.489 115.967V115.972H153.485C152.18 117.199 150.7 118.241 149.086 119.055C148.203 119.5 147.282 119.878 146.326 120.18L146.229 116.338V116.336L146.161 113.672L148.117 113.58L149.449 113.517L149.482 113.515L153.3 113.334L153.489 115.967Z" fill="white"></path><path d="M146.326 120.439C146.272 120.439 146.219 120.423 146.174 120.391C146.108 120.344 146.068 120.268 146.066 120.186L145.9 113.679C145.897 113.538 146.007 113.419 146.148 113.413L153.286 113.075C153.412 113.063 153.547 113.174 153.558 113.316L153.747 115.948C153.747 115.954 153.748 115.96 153.748 115.966V115.971C153.748 116.06 153.704 116.138 153.636 116.185C152.307 117.429 150.815 118.473 149.201 119.286C148.295 119.744 147.353 120.127 146.402 120.427C146.378 120.435 146.352 120.439 146.326 120.439ZM146.427 113.92L146.576 119.825C147.389 119.551 148.192 119.215 148.969 118.823C150.513 118.044 151.944 117.049 153.222 115.863L153.059 113.606L146.427 113.92Z" fill="#030047"></path><path d="M154.44 115.007C154.133 115.34 153.816 115.66 153.49 115.965V115.969L153.486 115.971L151.515 116.068L149.291 116.179L148.351 116.227L146.228 116.335L145.564 116.369L145.598 109.968V109.778L145.602 109.006L145.615 106.638L146.602 106.593H146.627L147.184 106.569C147.323 106.563 147.462 106.561 147.6 106.567C148.675 106.591 149.719 106.912 150.614 107.49C150.986 107.728 151.332 108.012 151.642 108.337C152.117 108.834 152.526 109.394 152.848 109.968C153.063 110.35 153.232 110.75 153.347 111.154L154.44 115.007Z" fill="#3CF0C0"></path><g opacity="0.4"><path d="M148.764 113.94C149.187 113.94 149.53 113.597 149.53 113.174C149.53 112.751 149.187 112.408 148.764 112.408C148.341 112.408 147.999 112.751 147.999 113.174C147.999 113.597 148.341 113.94 148.764 113.94Z" fill="white"></path></g><g opacity="0.4"><path d="M151.666 112.469C152.147 112.469 152.537 112.079 152.537 111.598C152.537 111.117 152.147 110.727 151.666 110.727C151.185 110.727 150.794 111.117 150.794 111.598C150.794 112.079 151.185 112.469 151.666 112.469Z" fill="white"></path></g><g opacity="0.4"><path d="M147.948 109.882C148.406 109.882 148.778 109.51 148.778 109.051C148.778 108.593 148.406 108.221 147.948 108.221C147.489 108.221 147.117 108.593 147.117 109.051C147.117 109.51 147.489 109.882 147.948 109.882Z" fill="white"></path></g><g opacity="0.4"><path d="M151.514 116.069L148.351 116.228C148.476 115.5 149.092 114.927 149.86 114.884C150.637 114.841 151.316 115.35 151.514 116.069Z" fill="white"></path></g><path d="M154.439 115.268C154.326 115.268 154.222 115.194 154.189 115.079L153.097 111.227C153.058 111.089 153.138 110.946 153.277 110.906C153.416 110.868 153.558 110.948 153.597 111.085L154.689 114.938C154.728 115.076 154.648 115.219 154.51 115.258C154.487 115.265 154.463 115.268 154.439 115.268Z" fill="#030047"></path><path d="M145.563 116.632C145.496 116.632 145.432 116.606 145.384 116.56C145.333 116.511 145.303 116.443 145.304 116.371L145.338 109.97C145.339 109.826 145.455 109.711 145.597 109.711C145.597 109.711 145.598 109.711 145.599 109.711C145.742 109.712 145.858 109.828 145.857 109.972L145.824 116.099L153.472 115.713L153.489 116.231H153.485L145.576 116.63C145.572 116.632 145.567 116.632 145.563 116.632Z" fill="#030047"></path><path d="M137.254 76.999H135.554C134.968 76.999 134.494 77.474 134.494 78.0593C134.494 78.6453 134.969 79.1196 135.554 79.1196H137.254C137.84 79.1196 138.314 78.6446 138.314 78.0593C138.314 77.474 137.839 76.999 137.254 76.999ZM147.806 76.999H140.556C139.97 76.999 139.495 77.474 139.495 78.0593C139.495 78.6453 139.97 79.1196 140.556 79.1196H147.806C148.392 79.1196 148.866 78.6446 148.866 78.0593C148.867 77.474 148.392 76.999 147.806 76.999Z" fill="#030047"></path><path d="M140.623 121.427C140.441 121.427 140.262 121.426 140.082 121.42C139.647 121.408 139.207 121.38 138.776 121.337C136.429 121.112 134.178 120.461 132.083 119.403C131.668 119.195 131.264 118.972 130.881 118.741C130.869 118.734 130.857 118.727 130.848 118.72C129.166 117.713 127.64 116.44 126.333 114.946C123.295 111.485 121.622 107.039 121.622 102.426C121.622 91.9494 130.146 83.4258 140.623 83.4258C151.1 83.4258 159.623 91.9487 159.623 102.426C159.623 107.21 157.839 111.781 154.6 115.297C154.285 115.638 153.963 115.963 153.643 116.262C153.64 116.266 153.635 116.269 153.632 116.273L153.633 116.274C152.297 117.529 150.796 118.58 149.172 119.399C148.266 119.856 147.324 120.24 146.373 120.54C144.52 121.129 142.585 121.427 140.623 121.427ZM131.132 118.288C131.137 118.291 131.142 118.294 131.148 118.297C131.52 118.521 131.913 118.738 132.317 118.941C134.354 119.969 136.544 120.603 138.827 120.822C139.247 120.864 139.675 120.891 140.099 120.902C142.184 120.971 144.248 120.671 146.217 120.046C147.142 119.754 148.057 119.381 148.939 118.937C150.513 118.143 151.968 117.125 153.264 115.91C153.27 115.903 153.276 115.897 153.283 115.891C153.595 115.598 153.91 115.281 154.22 114.946C157.37 111.527 159.105 107.08 159.105 102.427C159.105 92.2367 150.815 83.9464 140.625 83.9464C130.434 83.9464 122.142 92.2367 122.142 102.427C122.142 106.915 123.77 111.239 126.725 114.606C127.997 116.059 129.48 117.297 131.134 118.288H131.132Z" fill="#030047"></path><path d="M140.622 138.56C144.539 138.56 147.714 135.384 147.714 131.467C147.714 127.55 144.539 124.375 140.622 124.375C136.705 124.375 133.53 127.55 133.53 131.467C133.53 135.384 136.705 138.56 140.622 138.56Z" fill="#5B0DD4"></path><path d="M144.13 132.451C144.401 132.517 144.578 132.777 144.526 133.053C144.408 133.665 144.292 134.278 144.175 134.89C144.119 135.183 143.831 135.371 143.541 135.298C140.204 134.459 137.593 131.848 136.753 128.51C136.68 128.221 136.868 127.933 137.161 127.876C137.773 127.759 138.386 127.643 138.998 127.526C139.273 127.473 139.535 127.65 139.601 127.921C139.72 128.406 139.892 128.872 140.114 129.309C140.211 129.503 140.176 129.734 140.031 129.894C139.926 130.008 139.824 130.126 139.722 130.244C139.564 130.428 139.562 130.7 139.709 130.892C140.126 131.437 140.614 131.924 141.159 132.342C141.351 132.489 141.621 132.485 141.806 132.33C141.925 132.229 142.042 132.125 142.158 132.021C142.317 131.875 142.548 131.84 142.742 131.938C143.179 132.159 143.644 132.332 144.13 132.451Z" fill="white"></path><path d="M154.246 135.03C156.214 135.03 157.809 133.435 157.809 131.467C157.809 129.5 156.214 127.904 154.246 127.904C152.278 127.904 150.683 129.5 150.683 131.467C150.683 133.435 152.278 135.03 154.246 135.03Z" fill="#E6F3FC"></path><path d="M126.998 135.03C128.965 135.03 130.561 133.435 130.561 131.467C130.561 129.5 128.965 127.904 126.998 127.904C125.03 127.904 123.435 129.5 123.435 131.467C123.435 133.435 125.03 135.03 126.998 135.03Z" fill="#E6F3FC"></path><mask id="mask0_244_530" style="mask-type:alpha" maskUnits="userSpaceOnUse" x="26" y="64" width="140" height="128"><path d="M165.433 127.994C165.433 162.812 137.208 191.038 102.39 191.038C91.1386 191.038 81.2408 188.462 72.0964 183.297C52.9425 172.479 39.3465 151.561 39.3465 127.994C39.3465 93.1766 67.5719 64.9512 102.39 64.9512C137.208 64.9512 165.433 93.1766 165.433 127.994Z" fill="#F4F6F9"></path><path d="M39.3465 127.994C36.1307 140.569 27.4001 167.97 26.4874 178.379C25.8216 185.972 38.9274 183.297 72.0964 183.297C52.9425 172.479 39.3465 151.561 39.3465 127.994Z" fill="#F4F6F9"></path></mask><g mask="url(#mask0_244_530)"><path d="M78.8315 100.357C78.6136 100.357 78.4316 100.187 78.4199 99.9664C78.0896 93.9297 74.1822 87.8956 69.1272 85.617C65.753 84.0963 62.3495 84.4819 59.5453 86.701C59.3659 86.8435 59.1069 86.8125 58.9652 86.6331C58.8236 86.4545 58.8537 86.1946 59.0331 86.0529C62.0913 83.6327 65.7966 83.2102 69.4667 84.8642C74.7858 87.2626 78.8977 93.5944 79.244 99.922C79.2565 100.15 79.0822 100.344 78.8542 100.357C78.8466 100.357 78.8391 100.357 78.8315 100.357Z" fill="#3CF0C0"></path><path d="M78.8844 107.05C81.7039 105.833 82.8133 102.122 81.3623 98.7609C79.9114 95.3999 76.4495 93.6619 73.63 94.8791C70.8105 96.0963 69.7011 99.8076 71.1521 103.169C72.6031 106.53 76.0649 108.268 78.8844 107.05Z" fill="#3CF0C0"></path><path d="M76.9924 107.742C76.8498 107.742 76.7065 107.736 76.5623 107.726C73.2527 107.462 70.4058 104.231 70.2163 100.521C70.1182 98.5905 70.7637 96.8007 71.9876 95.6112C73.0481 94.5792 74.4607 94.0762 75.9529 94.1961C79.2625 94.4593 82.1094 97.691 82.2989 101.401C82.3969 103.332 81.7515 105.122 80.5275 106.311C79.5693 107.243 78.3269 107.742 76.9924 107.742ZM75.5253 94.798C74.3517 94.798 73.261 95.2364 72.4194 96.0546C71.3229 97.1201 70.7453 98.7364 70.835 100.489C71.0085 103.9 73.6006 106.869 76.6118 107.107C77.9262 107.21 79.1644 106.771 80.0958 105.866C81.1923 104.801 81.7699 103.184 81.6802 101.432C81.5067 98.0213 78.9146 95.052 75.9034 94.8139C75.7768 94.8039 75.6502 94.798 75.5253 94.798Z" fill="#030047"></path><path d="M77.2925 103.362C78.4032 102.883 78.8402 101.421 78.2686 100.097C77.697 98.7725 76.3332 98.0879 75.2225 98.5673C74.1118 99.0468 73.6748 100.509 74.2464 101.833C74.818 103.157 76.1818 103.842 77.2925 103.362Z" fill="#E6F3FC"></path><path d="M50.0144 197.085L48.4434 180.866L91.0212 175.025L94.7994 197.085H50.0144Z" fill="#030047"></path><path d="M133.233 124.41L124.415 138.34L113.969 163.097C112.078 167.095 108.179 169.766 103.764 170.085C103.467 170.106 103.17 170.117 102.873 170.117C98.6474 170.117 94.6914 167.937 92.4448 164.307L78.0107 140.994L95.3562 137.888C95.4057 138.045 102.555 148.411 102.555 148.411L113.269 126.839L115.995 123.229L121.145 115.279L121.154 115.271C121.554 114.635 122.302 114.272 123.041 114.412C124.346 114.651 124.965 116.006 124.49 117.067L125.354 115.688L125.358 115.68C125.783 115.007 126.593 114.647 127.365 114.842C128.711 115.176 129.215 116.642 128.554 117.7L127.53 119.306C128.091 118.426 129.211 118.24 130.132 118.727C131.808 119.603 130.644 121.445 130.091 122.32C130.71 121.341 132.089 121.127 132.985 121.961C133.654 122.589 133.728 123.634 133.233 124.41Z" fill="white"></path><path d="M102.872 170.427C98.4863 170.427 94.4893 168.2 92.1814 164.47L77.7474 141.157C77.6937 141.069 77.6862 140.961 77.7281 140.867C77.77 140.774 77.8555 140.707 77.9561 140.689L95.3016 137.583C95.4391 137.557 95.5765 137.63 95.6361 137.755C95.8415 138.108 99.743 143.787 102.511 147.803L112.992 126.701C113 126.684 113.01 126.667 113.022 126.652L115.747 123.042L120.884 115.11C120.891 115.1 120.899 115.09 120.906 115.08C121.386 114.34 122.266 113.949 123.097 114.107C123.792 114.235 124.377 114.66 124.699 115.273C124.792 115.448 124.86 115.634 124.902 115.824L125.09 115.524C125.604 114.708 126.546 114.316 127.439 114.541C128.157 114.72 128.723 115.202 128.991 115.864C129.256 116.518 129.189 117.266 128.816 117.863L128.598 118.204C129.132 118.085 129.722 118.161 130.275 118.454C130.792 118.723 131.12 119.104 131.249 119.583C131.393 120.119 131.259 120.703 131.038 121.231C131.155 121.195 131.278 121.169 131.403 121.153C132.049 121.068 132.706 121.28 133.195 121.735C133.961 122.453 134.086 123.648 133.493 124.577L124.69 138.484L114.255 163.217C112.313 167.323 108.304 170.067 103.787 170.394C103.46 170.416 103.162 170.427 102.872 170.427ZM78.5136 141.218L92.7079 164.144C94.9025 167.69 98.7026 169.808 102.872 169.808C103.147 169.808 103.432 169.797 103.743 169.776C108.036 169.466 111.848 166.856 113.69 162.964L124.13 138.22C124.137 138.204 124.145 138.189 124.154 138.175L132.971 124.245C132.971 124.245 132.971 124.245 132.972 124.244C133.398 123.576 133.312 122.693 132.773 122.187C132.416 121.855 131.956 121.707 131.483 121.767C131.015 121.828 130.603 122.09 130.352 122.487C130.261 122.632 130.069 122.674 129.925 122.583C129.781 122.492 129.738 122.301 129.829 122.155C129.829 122.155 129.829 122.155 129.83 122.155C130.191 121.583 130.862 120.521 130.653 119.744C130.57 119.434 130.353 119.192 129.988 119.003C129.168 118.568 128.246 118.765 127.793 119.47L127.791 119.472C127.7 119.616 127.509 119.659 127.364 119.567C127.219 119.475 127.177 119.283 127.269 119.139C127.269 119.138 127.27 119.138 127.271 119.137L128.292 117.533C128.56 117.105 128.608 116.567 128.417 116.096C128.225 115.62 127.814 115.272 127.29 115.142C126.665 114.986 125.98 115.275 125.619 115.846L124.753 117.232C124.667 117.37 124.487 117.417 124.345 117.341C124.201 117.265 124.141 117.09 124.207 116.941C124.4 116.511 124.379 115.996 124.152 115.563C123.915 115.113 123.501 114.812 122.985 114.717C122.389 114.606 121.758 114.893 121.416 115.436C121.408 115.448 121.4 115.46 121.391 115.471L116.255 123.399L113.534 127.003L102.832 148.55C102.784 148.648 102.686 148.713 102.576 148.721C102.462 148.725 102.362 148.678 102.299 148.587C97.0117 140.921 95.5958 138.824 95.2094 138.229L78.5136 141.218Z" fill="#030047"></path><path d="M121.864 121.525C121.807 121.525 121.75 121.51 121.698 121.477C121.554 121.386 121.511 121.194 121.602 121.049L124.228 116.901C124.32 116.757 124.51 116.713 124.656 116.805C124.8 116.896 124.844 117.088 124.752 117.233L122.126 121.381C122.066 121.474 121.966 121.525 121.864 121.525Z" fill="#030047"></path><path d="M125.047 123.54C124.991 123.54 124.933 123.525 124.882 123.492C124.737 123.401 124.694 123.209 124.785 123.065L127.271 119.14C127.362 118.996 127.552 118.951 127.698 119.043C127.842 119.135 127.886 119.327 127.795 119.471L125.309 123.396C125.25 123.489 125.15 123.54 125.047 123.54Z" fill="#030047"></path><path d="M128.233 125.558C128.177 125.558 128.119 125.543 128.068 125.511C127.924 125.419 127.88 125.227 127.972 125.083L130.453 121.165C130.544 121.021 130.735 120.977 130.881 121.068C131.025 121.16 131.068 121.352 130.977 121.496L128.496 125.414C128.436 125.507 128.335 125.558 128.233 125.558Z" fill="#030047"></path><path d="M75.9233 125.973L82.4278 148.076L90.2207 144.793L96.3949 142.191L99.6249 140.832L92.0172 129.996C89.6507 126.63 85.6486 124.8 81.5518 125.213L75.9233 125.973Z" fill="#1328C9"></path><path opacity="0.4" d="M89.6431 142.89C89.6431 143.596 89.8577 144.249 90.2215 144.794L96.3957 142.191C96.0779 140.639 94.7023 139.474 93.0583 139.474C91.1713 139.474 89.6431 141.003 89.6431 142.89Z" fill="white"></path><path d="M82.4301 148.386C82.3849 148.386 82.3388 148.376 82.2968 148.356C82.2172 148.318 82.1577 148.248 82.1325 148.163L79.3669 138.668C79.3192 138.504 79.4131 138.332 79.5774 138.284C79.7425 138.237 79.9135 138.331 79.9613 138.495L82.6296 147.656L99.1528 140.696L92.3423 130.828C92.2451 130.687 92.2803 130.494 92.4211 130.397C92.562 130.3 92.7548 130.335 92.852 130.476L99.8796 140.658C99.9324 140.734 99.9483 140.83 99.9223 140.92C99.8963 141.01 99.8309 141.083 99.7454 141.119L82.5508 148.362C82.5123 148.379 82.4712 148.386 82.4301 148.386Z" fill="#030047"></path><path d="M80.4065 125.454C80.4065 125.454 68.2116 126.818 63.7753 127.595C60.5444 128.16 52.6836 129.486 48.4317 130.875C46.5731 131.482 45.454 133.778 45.5387 135.731L47.2262 181.983L93.8522 178.747L80.4065 125.454Z" fill="#1328C9"></path><path opacity="0.4" d="M62.9837 157.493C64.1045 157.493 65.0132 156.584 65.0132 155.463C65.0132 154.342 64.1045 153.434 62.9837 153.434C61.8628 153.434 60.9541 154.342 60.9541 155.463C60.9541 156.584 61.8628 157.493 62.9837 157.493Z" fill="white"></path><path opacity="0.4" d="M64.5768 138.907C65.8648 138.907 66.909 137.862 66.909 136.574C66.909 135.286 65.8648 134.242 64.5768 134.242C63.2888 134.242 62.2446 135.286 62.2446 136.574C62.2446 137.862 63.2888 138.907 64.5768 138.907Z" fill="white"></path><path opacity="0.4" d="M87.0815 131.053C88.0644 131.053 88.8612 130.256 88.8612 129.273C88.8612 128.29 88.0644 127.493 87.0815 127.493C86.0986 127.493 85.3018 128.29 85.3018 129.273C85.3018 130.256 86.0986 131.053 87.0815 131.053Z" fill="white"></path><path opacity="0.4" d="M86.4293 136.234C86.8965 136.234 87.2752 135.855 87.2752 135.388C87.2752 134.921 86.8965 134.542 86.4293 134.542C85.9622 134.542 85.5835 134.921 85.5835 135.388C85.5835 135.855 85.9622 136.234 86.4293 136.234Z" fill="white"></path><path opacity="0.4" d="M75.5838 141.203C76.4283 141.203 77.1128 140.672 77.1128 140.016C77.1128 139.361 76.4283 138.829 75.5838 138.829C74.7393 138.829 74.0547 139.361 74.0547 140.016C74.0547 140.672 74.7393 141.203 75.5838 141.203Z" fill="white"></path><path opacity="0.4" d="M82.6224 156.176C83.4813 156.176 84.1775 155.479 84.1775 154.62C84.1775 153.762 83.4813 153.065 82.6224 153.065C81.7636 153.065 81.0674 153.762 81.0674 154.62C81.0674 155.479 81.7636 156.176 82.6224 156.176Z" fill="white"></path><path opacity="0.4" d="M70.8324 163.147C71.7093 163.147 72.4202 162.436 72.4202 161.559C72.4202 160.683 71.7093 159.972 70.8324 159.972C69.9555 159.972 69.2446 160.683 69.2446 161.559C69.2446 162.436 69.9555 163.147 70.8324 163.147Z" fill="white"></path><path opacity="0.4" d="M58.4227 165.677C59.2996 165.677 60.0105 164.967 60.0105 164.09C60.0105 163.213 59.2996 162.502 58.4227 162.502C57.5458 162.502 56.835 163.213 56.835 164.09C56.835 164.967 57.5458 165.677 58.4227 165.677Z" fill="white"></path><path opacity="0.4" d="M71.8015 152.775C73.2136 152.775 74.3583 151.63 74.3583 150.218C74.3583 148.806 73.2136 147.661 71.8015 147.661C70.3894 147.661 69.2446 148.806 69.2446 150.218C69.2446 151.63 70.3894 152.775 71.8015 152.775Z" fill="white"></path><path opacity="0.4" d="M82.4293 169.447C84.347 169.447 85.9016 167.893 85.9016 165.975C85.9016 164.058 84.347 162.503 82.4293 162.503C80.5116 162.503 78.957 164.058 78.957 165.975C78.957 167.893 80.5116 169.447 82.4293 169.447Z" fill="white"></path><path opacity="0.4" d="M65.1564 175.261C66.5769 175.261 67.7283 174.11 67.7283 172.689C67.7283 171.269 66.5769 170.117 65.1564 170.117C63.736 170.117 62.5845 171.269 62.5845 172.689C62.5845 174.11 63.736 175.261 65.1564 175.261Z" fill="white"></path><path opacity="0.4" d="M60.1893 147.161C61.063 147.161 61.7712 146.453 61.7712 145.579C61.7712 144.705 61.063 143.997 60.1893 143.997C59.3157 143.997 58.6074 144.705 58.6074 145.579C58.6074 146.453 59.3157 147.161 60.1893 147.161Z" fill="white"></path><path d="M58.1288 128.404L57.9478 115.079L69.6388 114.921C69.6388 114.921 71.0648 128.019 71.0547 128.031C69.1174 134.474 63.9216 134.599 58.1288 128.404Z" fill="white"></path><path d="M65.9122 133.269C63.5398 133.269 60.7432 131.655 57.9021 128.616C57.8493 128.56 57.82 128.486 57.8183 128.409L57.6372 115.084C57.6364 115.002 57.6682 114.923 57.7252 114.864C57.7823 114.804 57.8611 114.771 57.9432 114.77L69.6343 114.611C69.7961 114.612 69.9285 114.729 69.9461 114.888C71.1474 125.926 71.3461 127.748 71.3294 128.114L71.3512 128.121C70.5028 130.942 69.003 132.679 67.0146 133.145C66.66 133.227 66.2911 133.269 65.9122 133.269ZM58.437 128.28C61.5446 131.575 64.5399 133.087 66.8746 132.54C68.6224 132.132 69.9587 130.562 70.7425 127.998C70.6704 127.273 69.8346 119.574 69.3627 115.234L58.2626 115.385L58.437 128.28Z" fill="#030047"></path><path d="M58.0793 116.505C53.8273 110.783 52.3008 101.233 52.3008 101.233L66.0566 92.7393C66.4137 92.9639 77.2514 95.4076 79.0462 106.264C80.6449 115.933 77.2741 122.696 63.5752 120.647" fill="white"></path><path d="M68.0858 121.321C66.6884 121.321 65.1685 121.199 63.5288 120.954C63.3594 120.929 63.2429 120.772 63.2681 120.602C63.2932 120.433 63.4483 120.318 63.6201 120.341C69.723 121.255 74.0764 120.44 76.5586 117.918C78.8875 115.553 79.621 111.649 78.7391 106.315C77.7096 100.089 73.2984 95.4177 66.3195 93.1609C66.2189 93.1282 66.1443 93.1039 66.0865 93.0847L52.6399 101.386C52.8906 102.794 54.5085 111.182 58.3262 116.321C58.4285 116.458 58.4 116.652 58.2625 116.754C58.1242 116.857 57.9305 116.828 57.8291 116.691C53.5814 110.973 52.0087 101.379 51.9928 101.282C51.9727 101.159 52.0297 101.036 52.1361 100.971L65.892 92.4777C65.9917 92.4148 66.1191 92.4148 66.2197 92.4786C66.2466 92.4895 66.3522 92.5213 66.509 92.5724C73.7209 94.9038 78.2805 99.7492 79.3502 106.215C80.2665 111.756 79.4751 115.84 76.9996 118.354C75.0547 120.328 72.0661 121.321 68.0858 121.321Z" fill="#030047"></path><path d="M75.8797 96.1971C74.7438 97.7454 73.0303 98.857 71.155 99.2611C69.6561 99.5872 68.0943 99.4673 66.5786 99.7238C64.01 100.157 61.7013 101.756 60.2678 103.915C59.904 104.469 59.5905 105.06 59.3507 105.679C59.1445 106.2 61.4331 110.033 61.1154 110.486C60.9418 110.73 53.4205 110.486 53.4205 110.486C53.4205 110.486 46.325 104.646 48.1215 100.232C49.9139 95.8173 53.7508 96.3413 53.7508 96.3413C53.7508 96.3413 51.1487 92.3517 53.3258 90.5804C55.502 88.809 60.1488 90.4974 60.1488 90.4974L60.1404 90.8612C60.4338 88.5525 62.5313 86.8055 64.7779 86.1902C67.0204 85.5706 69.3996 85.8515 71.7083 86.1407C73.2943 86.3352 75.0037 86.5951 76.1228 87.7352C76.9033 88.5324 77.2713 89.6599 77.3744 90.7707C77.5571 92.682 77.0114 94.6521 75.8797 96.1971Z" fill="#030047"></path><path d="M74.4294 106.251C74.8251 106.05 74.9022 105.408 74.6018 104.818C74.3013 104.228 73.737 103.913 73.3414 104.115C72.9457 104.316 72.8686 104.958 73.169 105.548C73.4695 106.138 74.0338 106.453 74.4294 106.251Z" fill="#030047"></path><path d="M73.6447 102.711C72.7913 102.712 72.0041 103.28 71.647 104.153L73.6447 102.711Z" fill="white"></path><path d="M71.6479 104.463C71.6085 104.463 71.5691 104.455 71.5305 104.44C71.3721 104.376 71.2958 104.195 71.3604 104.036C71.7661 103.044 72.6622 102.402 73.6439 102.401C73.8149 102.401 73.9532 102.54 73.9532 102.711C73.9532 102.882 73.8149 103.02 73.6439 103.021C72.9146 103.022 72.2431 103.512 71.9329 104.27C71.8851 104.391 71.7694 104.463 71.6479 104.463Z" fill="#030047"></path><path d="M68.2004 109.416C68.5961 109.215 68.6732 108.573 68.3728 107.983C68.0723 107.393 67.508 107.078 67.1124 107.28C66.7167 107.481 66.6396 108.123 66.94 108.713C67.2405 109.303 67.8048 109.618 68.2004 109.416Z" fill="#030047"></path><path d="M67.4152 105.877C66.5618 105.878 65.7746 106.446 65.4175 107.319L67.4152 105.877Z" fill="white"></path><path d="M65.4184 107.628C65.379 107.628 65.3396 107.62 65.301 107.605C65.1426 107.541 65.0663 107.36 65.1309 107.201C65.5366 106.209 66.4328 105.567 67.4144 105.566C67.5854 105.566 67.7238 105.705 67.7238 105.876C67.7238 106.047 67.5854 106.186 67.4144 106.186C66.6851 106.187 66.0136 106.677 65.7034 107.435C65.6556 107.556 65.54 107.628 65.4184 107.628Z" fill="#030047"></path><path d="M59.2773 109.897C59.2773 109.897 54.3698 106.802 52.3084 108.102C50.247 109.402 52.8801 117.109 55.7086 117.247C58.5371 117.386 60.4409 115.846 60.4409 115.846" fill="white"></path><path d="M56.0711 117.566C55.9471 117.566 55.8213 117.564 55.6931 117.557C53.8857 117.469 52.2526 114.805 51.5736 112.22C51.0069 110.06 51.2198 108.423 52.1428 107.84C54.3459 106.453 59.2358 109.504 59.4428 109.635C59.587 109.727 59.6306 109.918 59.5392 110.063C59.4478 110.207 59.2576 110.25 59.1117 110.159C57.7922 109.328 54.0265 107.384 52.4731 108.364C51.8108 108.782 51.6926 110.233 52.173 112.062C52.7883 114.403 54.2847 116.868 55.7241 116.939C58.3933 117.063 60.2283 115.621 60.2468 115.606C60.3792 115.499 60.5754 115.519 60.6827 115.653C60.79 115.786 60.7699 115.981 60.6366 116.088C60.5569 116.151 58.7738 117.566 56.0711 117.566Z" fill="#030047"></path><path d="M55.1921 113.759C55.0982 113.759 55.0069 113.717 54.9457 113.637C54.5885 113.17 54.3253 112.623 54.1828 112.053C54.0621 111.57 54.104 111.2 54.3111 110.924C54.4854 110.692 54.7814 110.547 55.1033 110.535C55.3313 110.525 55.587 110.584 55.8594 110.71C56.2031 110.87 56.5183 111.104 56.769 111.39C56.8822 111.518 56.8696 111.713 56.7413 111.827C56.6131 111.94 56.4177 111.929 56.3037 111.799C56.1092 111.579 55.8653 111.396 55.5979 111.273C55.416 111.188 55.2575 111.156 55.1251 111.155C54.9901 111.16 54.8677 111.214 54.8057 111.297C54.7185 111.413 54.7109 111.617 54.783 111.903C54.9046 112.391 55.1309 112.862 55.4369 113.261C55.5409 113.397 55.5149 113.592 55.3791 113.696C55.3237 113.738 55.2575 113.759 55.1921 113.759Z" fill="#030047"></path><path d="M70.8364 106.562C71.2648 107.418 72.4871 109.717 72.9154 110.572C73.1736 111.088 73.4369 111.624 73.4042 112.184C73.3715 112.744 72.9523 113.334 72.2884 113.453" fill="white"></path><path d="M72.2879 113.764C72.1412 113.764 72.0104 113.659 71.9836 113.509C71.9534 113.341 72.0649 113.18 72.2334 113.149C72.7615 113.053 73.0717 112.571 73.0952 112.166C73.1237 111.678 72.8663 111.165 72.6383 110.711C72.4254 110.284 72.0129 109.498 71.6013 108.711C71.1872 107.92 70.7739 107.13 70.5593 106.701C70.483 106.549 70.545 106.362 70.6976 106.286C70.851 106.209 71.0371 106.271 71.1134 106.424C71.3272 106.851 71.7388 107.637 72.1504 108.424C72.5645 109.215 72.9778 110.005 73.1924 110.434C73.4548 110.957 73.7516 111.549 73.7139 112.203C73.6753 112.86 73.1924 113.606 72.3441 113.759C72.3248 113.762 72.3063 113.764 72.2879 113.764ZM69.3136 117.033C68.767 117.033 68.2204 116.907 67.7292 116.659C66.9085 116.245 66.2705 115.507 65.9796 114.635C65.9251 114.473 66.0123 114.297 66.1749 114.244C66.3359 114.19 66.5128 114.276 66.5664 114.439C66.8062 115.157 67.3318 115.764 68.0075 116.106C68.6832 116.447 69.4846 116.507 70.2039 116.273C70.3665 116.22 70.5417 116.309 70.5945 116.472C70.6482 116.635 70.5585 116.81 70.3958 116.863C70.0454 116.977 69.6799 117.033 69.3136 117.033ZM91.585 170.884C91.4458 170.884 91.3184 170.789 91.284 170.647L82.1288 132.595C82.0886 132.428 82.1917 132.261 82.3577 132.221C82.5237 132.181 82.6913 132.283 82.7316 132.45L91.8868 170.502C91.927 170.669 91.8239 170.836 91.6579 170.876C91.6336 170.881 91.6093 170.884 91.585 170.884Z" fill="#030047"></path><path d="M90.5743 175.028C90.5911 175.35 90.4997 175.66 90.3304 175.924C90.0823 176.3 89.6782 176.638 89.1903 176.696L81.2196 176.403L86.5555 176.621C87.377 176.621 88.0544 177.32 88.0837 178.141C88.0963 178.459 87.9932 178.773 87.8238 179.025C87.8238 179.025 87.828 179.029 87.8238 179.046C87.4977 179.546 86.9109 179.822 86.3166 179.794L81.0964 179.612L83.888 179.723C84.7263 179.719 85.3953 180.426 85.4288 181.256C85.4414 181.573 85.3458 181.879 85.1807 182.135C84.9367 182.523 84.5243 182.866 84.0406 182.92L69.4749 183.048L41.1811 183.333C38.2118 183.333 35.4118 181.962 33.586 179.62C32.2564 177.91 31.5581 175.829 31.5581 173.71C31.5581 172.897 31.6612 172.074 31.8716 171.27L37.9553 148.076L53.8471 149.922L50.6875 167.305L69.2435 167.764L79.5103 165.071C80.4392 164.629 81.534 165.096 81.8475 166.066C82.0169 166.566 81.9305 167.091 81.6782 167.499C81.5256 167.73 81.3269 167.921 81.0796 168.061L77.2511 169.783L86.8162 170.245C87.6294 170.249 88.3109 170.898 88.3319 171.724C88.357 172.046 88.2573 172.356 88.0963 172.608C87.8482 173 87.4441 173.339 86.952 173.392L81.3521 173.161L89.0503 173.545C89.876 173.549 90.5492 174.206 90.5743 175.028Z" fill="white"></path><path d="M41.1837 183.642C38.097 183.642 35.2392 182.246 33.3413 179.81C31.9916 178.074 31.248 175.908 31.248 173.71C31.248 172.86 31.357 172.012 31.5725 171.191L37.6553 147.997C37.6947 147.848 37.838 147.752 37.9906 147.768L53.8824 149.614C53.9671 149.625 54.0442 149.669 54.0954 149.738C54.1465 149.806 54.1666 149.894 54.1515 149.977L51.0565 167.004L69.2059 167.453L79.404 164.778C79.9237 164.54 80.5173 164.532 81.0387 164.756C81.5635 164.982 81.9658 165.425 82.1419 165.97C82.3314 166.528 82.2584 167.146 81.9415 167.661C81.7529 167.947 81.5157 168.169 81.2315 168.33L78.5539 169.535L86.8306 169.936C87.7988 169.94 88.6162 170.739 88.6413 171.717C88.6681 172.064 88.5675 172.445 88.3571 172.774C88.2607 172.928 88.1501 173.065 88.0277 173.184L89.0647 173.236C90.0472 173.241 90.8519 174.023 90.883 175.016C90.9014 175.393 90.8008 175.765 90.5912 176.092C90.2492 176.611 89.7521 176.943 89.2273 177.005C89.2114 177.007 89.1954 177.009 89.1795 177.007L87.9363 176.962C88.2062 177.279 88.3781 177.687 88.394 178.133C88.4074 178.477 88.3102 178.833 88.1199 179.141C88.1115 179.167 88.0989 179.193 88.0838 179.217C87.7032 179.799 87.02 180.137 86.3024 180.105L85.2789 180.069C85.5488 180.387 85.7206 180.797 85.7382 181.245C85.7525 181.614 85.6502 181.981 85.4415 182.304C85.1145 182.823 84.6032 183.17 84.075 183.229L69.4775 183.359L41.1837 183.642ZM38.1867 148.415L32.1719 171.348C31.9698 172.118 31.8676 172.913 31.8676 173.71C31.8676 175.771 32.5642 177.803 33.83 179.43C35.6098 181.713 38.2899 183.023 41.1812 183.023L69.4717 182.738L84.0382 182.61C84.4104 182.567 84.7423 182.251 84.9192 181.97C85.0601 181.751 85.1288 181.509 85.1196 181.267C85.0919 180.583 84.5378 180.015 83.8898 180.033L81.0839 179.92C80.9129 179.914 80.7805 179.77 80.7872 179.599C80.7939 179.428 80.9331 179.303 81.1074 179.301L86.3276 179.483C86.8054 179.507 87.264 179.294 87.5306 178.925C87.5398 178.9 87.5515 178.875 87.5674 178.851C87.7108 178.638 87.7846 178.39 87.7753 178.153C87.7519 177.49 87.1944 176.931 86.5573 176.931L81.2089 176.712C81.0378 176.705 80.9054 176.561 80.9121 176.391C80.9188 176.22 81.0697 176.072 81.2323 176.093L89.1778 176.385C89.509 176.337 89.8426 176.103 90.074 175.753C90.2123 175.538 90.2794 175.291 90.2668 175.043C90.2668 175.041 90.2668 175.039 90.2668 175.036C90.2467 174.376 89.7127 173.858 89.0504 173.854L81.3388 173.469C81.1678 173.461 81.037 173.316 81.0445 173.146C81.0529 172.975 81.1946 172.837 81.3665 172.851L86.9421 173.081C87.2782 173.037 87.611 172.799 87.8365 172.442C87.9757 172.224 88.0428 171.977 88.0252 171.747C88.0084 171.085 87.4668 170.558 86.8172 170.555L77.2386 170.092C77.0953 170.085 76.9762 169.981 76.9494 169.84C76.9226 169.7 76.9963 169.559 77.1271 169.5L80.9557 167.778C81.1284 167.678 81.2944 167.522 81.4235 167.328C81.6381 166.979 81.6892 166.553 81.5584 166.165C81.4352 165.785 81.1586 165.481 80.7981 165.325C80.4309 165.167 80.0117 165.176 79.6471 165.35C79.6295 165.358 79.611 165.365 79.5926 165.37L69.3258 168.062C69.2973 168.07 69.268 168.071 69.2395 168.072L50.6843 167.614C50.5937 167.611 50.5091 167.57 50.4512 167.5C50.3942 167.429 50.3708 167.338 50.3867 167.249L53.4876 150.191L38.1867 148.415Z" fill="#030047"></path><path d="M50.687 167.616C50.6811 167.616 50.6761 167.616 50.6711 167.616L46.5541 167.405C46.3831 167.395 46.2515 167.25 46.2607 167.079C46.2699 166.908 46.4342 166.773 46.586 166.786L50.7029 166.997C50.8739 167.006 51.0056 167.151 50.9963 167.322C50.9871 167.488 50.8505 167.616 50.687 167.616Z" fill="#030047"></path><path d="M56.517 128.919L54.137 154.3H34.9531C35.9398 151.034 37.1956 146.829 39.3392 139.841C39.5873 139.031 39.8304 138.239 40.066 137.466C40.5036 136.041 41.2145 134.749 42.1307 133.646C43.9809 131.408 46.6819 129.937 49.6881 129.665L56.517 128.919Z" fill="#1328C9"></path><path opacity="0.4" d="M52.1918 153.574C52.1918 153.822 52.1666 154.065 52.1172 154.301H45.0058C44.9563 154.065 44.9312 153.822 44.9312 153.574C44.9312 151.567 46.5583 149.944 48.561 149.944C50.5688 149.944 52.1918 151.567 52.1918 153.574Z" fill="white"></path><path d="M54.1362 154.61H34.9531C34.8551 154.61 34.7628 154.564 34.7042 154.485C34.6463 154.406 34.6287 154.305 34.6564 154.211L35.3396 151.942C36.2408 148.951 37.3616 145.229 39.0424 139.751C39.0919 139.587 39.2654 139.495 39.4289 139.545C39.5924 139.596 39.6846 139.769 39.6343 139.932C37.9543 145.409 36.8335 149.13 35.9323 152.12L35.3689 153.99H53.8545L55.5831 136.484C55.5999 136.314 55.7533 136.185 55.9218 136.207C56.0928 136.223 56.2169 136.375 56.1993 136.545L54.4439 154.331C54.4288 154.489 54.2955 154.61 54.1362 154.61Z" fill="#030047"></path><path opacity="0.4" d="M50.0866 145.107C51.4922 145.107 52.6317 143.967 52.6317 142.562C52.6317 141.156 51.4922 140.017 50.0866 140.017C48.681 140.017 47.5415 141.156 47.5415 142.562C47.5415 143.967 48.681 145.107 50.0866 145.107Z" fill="white"></path><path opacity="0.4" d="M42.0606 148.179C43.0889 148.179 43.9225 147.345 43.9225 146.317C43.9225 145.289 43.0889 144.455 42.0606 144.455C41.0323 144.455 40.1987 145.289 40.1987 146.317C40.1987 147.345 41.0323 148.179 42.0606 148.179Z" fill="white"></path><path opacity="0.4" d="M39.3413 139.986C39.8041 140.222 40.328 140.358 40.8897 140.358C42.7692 140.358 44.2882 138.833 44.2882 136.959C44.2882 135.518 43.3962 134.287 42.132 133.791C41.2149 134.893 40.5049 136.186 40.0673 137.611C39.8326 138.384 39.5886 139.176 39.3413 139.986Z" fill="white"></path><path d="M113.269 126.839V121.059C113.269 119.399 114.079 117.843 115.44 116.89L118.044 115.069C119.311 114.181 121.05 114.404 122.05 115.585C122.524 116.143 122.76 116.832 122.76 117.522C122.76 118.224 122.516 118.922 122.029 119.487L118.238 123.861V130.423" fill="white"></path><path d="M118.237 130.733C118.066 130.733 117.928 130.594 117.928 130.423V123.861C117.928 123.786 117.954 123.714 118.003 123.658L121.794 119.285C122.216 118.794 122.45 118.167 122.45 117.522C122.45 116.884 122.223 116.268 121.812 115.786C120.91 114.719 119.367 114.52 118.219 115.322L115.616 117.145C114.339 118.038 113.578 119.501 113.578 121.059V126.839C113.578 127.01 113.439 127.148 113.268 127.148C113.097 127.148 112.959 127.009 112.959 126.839V121.059C112.959 119.299 113.82 117.646 115.262 116.637L117.866 114.815C119.275 113.828 121.175 114.073 122.285 115.385C122.791 115.978 123.069 116.737 123.069 117.522C123.069 118.316 122.782 119.086 122.263 119.69L118.546 123.977V130.423C118.546 130.594 118.408 130.733 118.237 130.733Z" fill="#030047"></path><path d="M59.6194 117.485C62.3335 116.048 63.1453 112.261 61.4325 109.025C59.7197 105.79 56.1309 104.332 53.4168 105.769C50.7027 107.205 49.8909 110.993 51.6037 114.228C53.3165 117.464 56.9052 118.922 59.6194 117.485Z" fill="#3CF0C0"></path><path d="M57.3565 118.345C54.036 118.345 50.9426 115.349 50.4598 111.666C50.2091 109.749 50.7104 107.914 51.8363 106.631C52.812 105.519 54.176 104.906 55.6774 104.906C58.9979 104.906 62.0913 107.902 62.5742 111.585C62.8248 113.502 62.3227 115.337 61.1968 116.621C60.221 117.733 58.8571 118.345 57.3565 118.345ZM55.6774 105.526C54.3571 105.526 53.1591 106.063 52.3024 107.04C51.2939 108.189 50.8462 109.846 51.0742 111.585C51.5177 114.971 54.3361 117.726 57.3565 117.726C58.6769 117.726 59.8748 117.188 60.7316 116.213C61.7401 115.063 62.1877 113.406 61.9605 111.666C61.5171 108.28 58.6987 105.526 55.6774 105.526Z" fill="#030047"></path><path d="M56.5167 112.039C56.3365 112.039 56.1713 111.92 56.1194 111.738C55.8997 110.958 50.8271 92.5475 59.0325 86.0548C59.2119 85.9131 59.4709 85.9442 59.6126 86.1227C59.7543 86.3013 59.7241 86.5612 59.5447 86.7028C51.7702 92.8552 56.8621 111.328 56.9141 111.514C56.9761 111.734 56.8479 111.962 56.6282 112.024C56.5922 112.034 56.5545 112.039 56.5167 112.039Z" fill="#3CF0C0"></path><path d="M57.7394 113.935C58.8086 113.369 59.1283 111.877 58.4536 110.602C57.7788 109.327 56.365 108.753 55.2958 109.319C54.2266 109.885 53.9069 111.377 54.5816 112.652C55.2564 113.926 56.6701 114.501 57.7394 113.935Z" fill="#E6F3FC"></path><path d="M56.8478 114.459C55.4486 114.459 54.1467 113.206 53.9447 111.664C53.8382 110.855 54.0529 110.078 54.5315 109.533C54.9524 109.053 55.54 108.789 56.1855 108.789C57.5847 108.789 58.8866 110.043 59.0886 111.584C59.1942 112.393 58.9804 113.17 58.5009 113.716C58.0818 114.195 57.4941 114.459 56.8478 114.459ZM56.1864 109.409C55.7211 109.409 55.2994 109.599 54.9976 109.942C54.6363 110.354 54.4762 110.953 54.5592 111.585C54.7218 112.829 55.7488 113.841 56.8486 113.841C57.3139 113.841 57.7356 113.651 58.0373 113.308C58.3987 112.897 58.5588 112.297 58.4758 111.665C58.3123 110.421 57.2862 109.409 56.1864 109.409Z" fill="#030047"></path></g><defs><filter id="filter0_d_244_530" x="0.697266" y="0.619141" width="201.383" height="256.899" filterUnits="userSpaceOnUse" color-interpolation-filters="sRGB"><feFlood flood-opacity="0" result="BackgroundImageFix"></feFlood><feColorMatrix in="SourceAlpha" type="matrix" values="0 0 0 0 0 0 0 0 0 0 0 0 0 0 0 0 0 0 127 0" result="hardAlpha"></feColorMatrix><feOffset dx="-1"></feOffset><feGaussianBlur stdDeviation="2.5"></feGaussianBlur><feComposite in2="hardAlpha" operator="out"></feComposite><feColorMatrix type="matrix" values="0 0 0 0 0 0 0 0 0 0 0 0 0 0 0 0 0 0 0.06 0"></feColorMatrix><feBlend mode="normal" in2="BackgroundImageFix" result="effect1_dropShadow_244_530"></feBlend><feBlend mode="normal" in="SourceGraphic" in2="effect1_dropShadow_244_530" result="shape"></feBlend></filter></defs></svg> 