<?xml version="1.0" encoding="UTF-8"?> <svg xmlns="http://www.w3.org/2000/svg" width="210" height="210" viewBox="0 0 210 210" fill="none"><g filter="url(#filter0_bd_244_1078)"><rect x="6.88672" y="5.05566" width="198.782" height="199.288" rx="12" fill="white" fill-opacity="0.9" shape-rendering="crispEdges"></rect></g><mask id="mask0_244_1078" style="mask-type:alpha" maskUnits="userSpaceOnUse" x="6" y="5" width="200" height="200"><rect x="6.88672" y="5.05566" width="198.782" height="199.288" rx="12" fill="white" fill-opacity="0.9"></rect></mask><g mask="url(#mask0_244_1078)"><path opacity="0.1" fill-rule="evenodd" clip-rule="evenodd" d="M110.019 210.803C80.9593 211.115 44.6426 235.244 31.1704 209.533C14.2537 177.248 29.6593 135.481 59.7517 114.871C87.8135 95.651 124.038 106.887 151.249 127.29C176.901 146.524 197.999 179.164 183.815 207.894C171.781 232.269 137.234 210.511 110.019 210.803Z" fill="#3CF0C0"></path><path d="M150.872 187.251C150.472 190.597 147.856 193.25 144.511 193.695L135.84 194.841L104.992 197.884C99.9157 198.387 95.3081 194.894 94.4223 189.876L90.8003 169.329L106.959 163.345L109.947 180.638L135.563 182.5" fill="white"></path><path d="M104.039 198.25C99.2204 198.25 94.9604 194.758 94.1082 189.931L90.4862 169.384C90.4599 169.232 90.5452 169.083 90.6904 169.029L106.849 163.046C106.939 163.013 107.038 163.022 107.12 163.069C107.202 163.116 107.259 163.198 107.275 163.291L110.22 180.339L135.587 182.182C135.763 182.195 135.895 182.348 135.883 182.524C135.87 182.7 135.716 182.825 135.54 182.82L109.924 180.958C109.778 180.947 109.657 180.838 109.632 180.694L106.71 163.779L91.1614 169.536L94.7371 189.82C95.5893 194.647 100.078 198.047 104.96 197.567L135.808 194.522L144.468 193.377C147.669 192.952 150.171 190.416 150.553 187.211C150.574 187.036 150.736 186.919 150.909 186.932C151.084 186.953 151.209 187.113 151.188 187.288C150.772 190.782 148.043 193.547 144.552 194.01L135.882 195.156L105.023 198.201C104.694 198.235 104.364 198.25 104.039 198.25Z" fill="#030047"></path><path d="M85.2778 142.173L95.5395 143.656C99.4419 144.22 102.739 146.838 104.173 150.508L110.643 165.649L90.3846 173.51L85.2778 142.173Z" fill="#3CF0C0"></path><path d="M90.3845 173.829C90.3291 173.829 90.2746 173.815 90.2256 173.787C90.1421 173.739 90.0841 173.656 90.0686 173.561L86.9548 154.454C86.9267 154.28 87.0447 154.115 87.2189 154.087C87.3941 154.057 87.5574 154.178 87.5856 154.351L90.6358 173.069L110.218 165.47L103.878 150.633C103.809 150.471 103.884 150.283 104.047 150.214C104.209 150.145 104.397 150.22 104.466 150.382L110.936 165.523C110.969 165.603 110.97 165.693 110.937 165.773C110.903 165.853 110.839 165.915 110.758 165.947L90.4997 173.808C90.4625 173.822 90.4235 173.829 90.3845 173.829Z" fill="#030047"></path><path d="M73.809 140.916C68.676 140.822 53.0017 142.717 53.0017 142.717C49.2454 143.311 46.4093 146.435 46.1833 150.229L43.3926 206.105H96.5232L96.0766 151.01C96.1474 147.087 93.3912 143.677 89.5378 142.922C89.5378 142.922 78.1861 140.996 73.809 140.916Z" fill="#3CF0C0"></path><path d="M96.5233 206.425C96.3482 206.425 96.2048 206.284 96.2039 206.108L95.7573 151.012C95.7555 150.836 95.898 150.691 96.075 150.69C96.0759 150.69 96.0768 150.69 96.0777 150.69C96.2529 150.69 96.3963 150.832 96.3972 151.008L96.8437 206.103C96.8455 206.28 96.703 206.424 96.526 206.425C96.5251 206.425 96.5242 206.425 96.5233 206.425Z" fill="#030047"></path><path d="M105.87 183.726C105.767 183.726 105.667 183.677 105.605 183.586C105.506 183.44 105.544 183.242 105.69 183.142L109.769 180.374C109.915 180.276 110.114 180.314 110.213 180.459C110.312 180.605 110.274 180.803 110.128 180.903L106.05 183.671C105.994 183.708 105.932 183.726 105.87 183.726Z" fill="#030047"></path><path d="M130.82 178.687V183.696H94.2326C93.0555 183.696 92.1035 182.745 92.1035 181.568V181.365C92.1035 179.887 93.3042 178.687 94.7808 178.687H130.82V178.687Z" fill="#000028"></path><path d="M151.816 154.836H119.105C117.344 154.836 115.773 155.941 115.179 157.599L105.833 183.696H142.024C144.176 183.696 146.095 182.345 146.82 180.321L154.555 158.722C155.233 156.829 153.828 154.836 151.816 154.836Z" fill="#030047"></path><path d="M135.414 169.266C135.16 170.849 133.672 172.132 132.087 172.132C130.5 172.132 129.423 170.848 129.676 169.266C129.929 167.683 131.421 166.399 133.005 166.399C134.59 166.399 135.667 167.683 135.414 169.266ZM134.57 185.218L140.153 182.045L141.524 174.403C141.693 173.79 142.242 173.196 143.359 173.033C143.697 172.984 144.335 173.485 144.657 173.876L145.136 172.496C145.374 171.806 146.053 171.331 146.778 171.422C147.188 171.476 147.549 171.684 147.615 172.231C147.615 172.231 148.148 171.085 149.191 171.295C150.185 171.491 149.913 172.733 149.882 172.86C149.947 172.725 150.569 171.522 151.719 171.867C152.794 172.189 151.601 181.082 150.872 187.25" fill="white"></path><path d="M150.873 187.57C150.86 187.57 150.847 187.569 150.835 187.569C150.659 187.548 150.534 187.389 150.554 187.214L150.782 185.311C151.345 180.629 152.289 172.793 151.6 172.16C150.731 171.907 150.225 172.887 150.17 173C150.099 173.147 149.929 173.216 149.775 173.162C149.621 173.106 149.533 172.944 149.572 172.786C149.623 172.578 149.672 172.112 149.499 171.841C149.42 171.718 149.303 171.645 149.13 171.61C148.34 171.453 147.91 172.357 147.905 172.367C147.844 172.497 147.704 172.569 147.565 172.548C147.423 172.525 147.314 172.412 147.298 172.27C147.259 171.946 147.092 171.787 146.737 171.741C146.179 171.667 145.635 172.032 145.439 172.601L144.959 173.982C144.921 174.091 144.827 174.172 144.713 174.192C144.6 174.211 144.484 174.17 144.41 174.08C144.067 173.664 143.558 173.325 143.404 173.349C142.264 173.516 141.93 174.135 141.833 174.488L140.468 182.103C140.45 182.196 140.393 182.277 140.311 182.324L134.727 185.497C134.574 185.583 134.379 185.531 134.292 185.378C134.205 185.224 134.258 185.029 134.412 184.941L139.865 181.843L141.21 174.348C141.452 173.463 142.216 172.879 143.314 172.717C143.703 172.657 144.183 172.984 144.524 173.288L144.836 172.393C145.13 171.539 145.966 171.002 146.82 171.107C147.203 171.157 147.498 171.314 147.689 171.561C148.034 171.181 148.568 170.846 149.255 170.983C149.594 171.051 149.865 171.227 150.037 171.497C150.122 171.629 150.177 171.774 150.211 171.92C150.58 171.6 151.113 171.354 151.812 171.562C152.852 171.874 152.612 175.455 151.417 185.388L151.189 187.289C151.17 187.451 151.032 187.57 150.873 187.57Z" fill="#030047"></path><path d="M148.047 181.151C148.024 181.151 147.999 181.148 147.976 181.143C147.803 181.103 147.696 180.931 147.735 180.759L149.565 172.799C149.605 172.627 149.774 172.52 149.948 172.558C150.12 172.598 150.227 172.77 150.188 172.942L148.359 180.902C148.325 181.05 148.193 181.151 148.047 181.151Z" fill="#030047"></path><path d="M145.824 181.151C145.802 181.151 145.78 181.149 145.759 181.144C145.585 181.108 145.474 180.939 145.511 180.766L147.304 172.164C147.339 171.992 147.51 171.879 147.683 171.916C147.856 171.953 147.967 172.121 147.93 172.294L146.137 180.897C146.105 181.047 145.972 181.151 145.824 181.151Z" fill="#030047"></path><path d="M143.438 180.794C143.419 180.794 143.399 180.793 143.38 180.789C143.207 180.757 143.092 180.59 143.124 180.416L144.345 173.815C144.377 173.642 144.545 173.525 144.717 173.56C144.89 173.591 145.006 173.758 144.973 173.932L143.752 180.533C143.724 180.687 143.59 180.794 143.438 180.794Z" fill="#030047"></path><path d="M103.987 171.31C103.4 172.72 101.739 172.207 101.646 172.18C101.696 172.234 102.759 173.365 102.091 174.407C101.519 175.297 100.311 174.779 100.043 174.649C100.269 174.775 101.174 175.361 100.599 176.461C100.07 177.466 98.124 176.522 98.124 176.522C98.124 176.522 99.2485 178.136 97.7901 178.615C95.3805 179.412 89.0704 176.065 89.0704 176.065L81.3816 178.538L41.9931 195.736C36.5342 197.273 30.6951 195.238 27.3798 190.634C25.6918 188.292 24.8359 185.532 24.8359 182.753C24.8359 180.572 25.365 178.379 26.4396 176.378L35.5777 159.373L51.4761 169.788L46.6271 177.554C46.6271 177.554 72.2998 164.233 81.6094 162.007C84.6461 161.281 91.548 161.499 94.0954 162.304C96.6638 163.114 104.896 169.125 103.987 171.31Z" fill="white"></path><path d="M38.3577 196.559C33.9833 196.559 29.7541 194.477 27.1213 190.822C25.4179 188.458 24.5176 185.669 24.5176 182.754C24.5176 180.486 25.0848 178.228 26.1593 176.228L35.2983 159.223C35.341 159.144 35.4145 159.087 35.5016 159.064C35.5888 159.043 35.6813 159.058 35.7557 159.107L51.6542 169.523C51.7994 169.618 51.842 169.811 51.7504 169.959L47.5148 176.741C52.412 174.236 73.3618 163.653 81.537 161.699C84.5246 160.984 91.5037 161.151 94.1936 162.002C96.4235 162.704 102.841 167.219 104.136 169.999C104.396 170.559 104.446 171.042 104.283 171.434C103.905 172.339 103.106 172.64 102.34 172.614C102.613 173.125 102.822 173.862 102.362 174.58C102.034 175.091 101.526 175.258 101 175.237C101.155 175.617 101.16 176.083 100.883 176.612C100.493 177.353 99.5573 177.329 98.7613 177.106C98.8584 177.412 98.9075 177.771 98.794 178.109C98.706 178.374 98.4773 178.729 97.8919 178.921C95.5432 179.696 89.9608 176.889 89.0424 176.413L81.4816 178.845L42.1231 196.031C42.1095 196.037 42.0959 196.042 42.0823 196.046C40.8507 196.392 39.5983 196.559 38.3577 196.559ZM35.6968 159.832L26.7238 176.53C25.7001 178.439 25.1583 180.59 25.1583 182.754C25.1583 185.534 26.0168 188.195 27.6414 190.448C30.8586 194.918 36.5825 196.921 41.8871 195.436L81.2556 178.247L88.9743 175.762C89.0569 175.736 89.1459 175.743 89.2221 175.784C90.9437 176.697 95.8218 178.929 97.6913 178.313C97.9627 178.223 98.1251 178.091 98.1878 177.905C98.323 177.502 97.999 176.902 97.8629 176.704C97.7803 176.585 97.7884 176.425 97.8828 176.315C97.9772 176.204 98.1342 176.171 98.2649 176.235C98.6978 176.444 100.004 176.907 100.317 176.312C100.721 175.541 100.221 175.113 99.8876 174.927C99.736 174.842 99.6798 174.654 99.7596 174.5C99.8395 174.347 100.027 174.286 100.183 174.361C100.38 174.457 101.392 174.903 101.822 174.234C102.338 173.429 101.509 172.502 101.413 172.398C101.315 172.292 101.299 172.135 101.375 172.012C101.45 171.89 101.598 171.833 101.736 171.873C102.088 171.979 103.256 172.232 103.691 171.187C103.782 170.967 103.737 170.658 103.555 170.267C102.345 167.669 96.0922 163.268 94.0003 162.609C91.441 161.801 84.5355 161.637 81.6849 162.319C72.5205 164.51 47.032 177.705 46.7761 177.839C46.6481 177.905 46.4911 177.878 46.394 177.771C46.296 177.665 46.2815 177.508 46.3577 177.385L51.0416 169.885L35.6968 159.832Z" fill="#030047"></path><path d="M98.1277 176.525C98.1277 176.525 97.8455 176.002 97.2592 175.438C96.6729 174.873 92.4038 172.307 92.4038 172.307" fill="white"></path><path d="M98.1287 176.845C98.0153 176.845 97.9055 176.785 97.8474 176.679C97.8447 176.673 97.577 176.188 97.0379 175.668C96.5787 175.226 93.4186 173.29 92.2397 172.581C92.0881 172.49 92.04 172.293 92.1308 172.142C92.2215 171.99 92.4176 171.94 92.57 172.033C93.0102 172.298 96.8881 174.635 97.4826 175.208C98.097 175.8 98.3983 176.35 98.411 176.374C98.4945 176.529 98.4364 176.722 98.2821 176.806C98.2322 176.833 98.1796 176.845 98.1287 176.845Z" fill="#030047"></path><path d="M100.109 174.687C100.109 174.687 99.4147 173.925 98.9119 173.492C98.41 173.06 94.4014 170.6 94.4014 170.6" fill="white"></path><path d="M100.11 175.007C100.023 175.007 99.9364 174.971 99.8729 174.902C99.8665 174.895 99.1859 174.15 98.704 173.735C98.3083 173.394 95.3433 171.553 94.2352 170.872C94.0845 170.78 94.0373 170.583 94.1299 170.433C94.2225 170.283 94.4194 170.237 94.5701 170.328C94.9821 170.581 98.6141 172.815 99.1214 173.251C99.6324 173.691 100.318 174.441 100.347 174.472C100.466 174.603 100.456 174.805 100.326 174.924C100.263 174.979 100.186 175.007 100.11 175.007Z" fill="#030047"></path><path d="M101.648 172.18C101.648 172.18 100.967 171.324 99.865 170.6C99.139 170.123 96.1187 167.84 96.1187 167.84" fill="white"></path><path d="M101.648 172.5C101.554 172.5 101.461 172.459 101.398 172.379C101.391 172.371 100.731 171.551 99.6887 170.868C98.9627 170.39 96.0486 168.188 95.9251 168.095C95.7845 167.988 95.7563 167.788 95.8634 167.647C95.9696 167.506 96.1702 167.479 96.3118 167.586C96.3417 167.608 99.3321 169.868 100.041 170.334C101.173 171.077 101.87 171.945 101.899 171.981C102.008 172.119 101.986 172.319 101.848 172.43C101.788 172.477 101.718 172.5 101.648 172.5Z" fill="#030047"></path><path d="M55.3263 142.446L49.3319 142.878C45.758 143.135 42.4999 145.016 40.4906 147.981L30.2344 162.106L50.4527 173.51L59.9203 159.402C60.3858 158.709 60.7715 157.959 61.003 157.156C61.5257 155.341 61.4059 153.385 60.6381 151.63C60.5265 151.375 60.3904 151.131 60.2506 150.891L55.3263 142.446Z" fill="#3CF0C0"></path><path d="M50.4528 173.83C50.3992 173.83 50.3457 173.816 50.2958 173.789L30.0774 162.386C29.9985 162.34 29.9413 162.264 29.9222 162.175C29.9032 162.086 29.9222 161.993 29.9758 161.92L40.232 147.794C40.3354 147.651 40.5351 147.62 40.6785 147.723C40.8219 147.827 40.8527 148.027 40.7493 148.169L30.7036 162.005L50.3521 173.087L58.3221 161.21C58.4211 161.064 58.6198 161.025 58.7659 161.123C58.9129 161.221 58.952 161.42 58.854 161.567L50.7187 173.689C50.6579 173.78 50.5562 173.83 50.4528 173.83Z" fill="#030047"></path><path d="M41.5167 180.399C41.3987 180.399 41.2853 180.334 41.2299 180.221C41.1519 180.063 41.2163 179.871 41.3751 179.793L46.4882 177.269C46.6452 177.191 46.8376 177.256 46.9166 177.415C46.9946 177.572 46.9302 177.765 46.7714 177.843L41.6583 180.366C41.612 180.388 41.5639 180.399 41.5167 180.399Z" fill="#030047"></path><path d="M86.2107 111.463C86.2107 111.463 92.1243 123.117 91.3057 129.728C90.3682 137.307 59.4099 135.492 59.4099 135.492C52.2893 133.046 72.7953 117.332 72.7953 117.332L86.2107 111.463Z" fill="#030047"></path><path d="M78.2299 125.39L79.9887 138.994C79.9887 138.994 81.7584 146.527 76.3068 147.342C73.2093 147.805 65.7674 141.39 65.7674 141.39L64.751 122.503L78.2299 125.39Z" fill="white"></path><path d="M75.9829 147.684C72.6204 147.684 65.8556 141.887 65.5588 141.631C65.4926 141.574 65.4526 141.494 65.4481 141.407L64.4316 122.519C64.4262 122.419 64.4679 122.323 64.5433 122.259C64.6186 122.194 64.7211 122.17 64.8182 122.189L78.2971 125.077C78.4296 125.105 78.5295 125.214 78.5476 125.349L80.3065 138.953C80.3409 139.093 81.2757 143.184 79.535 145.748C78.8163 146.807 77.7463 147.45 76.355 147.657C76.2361 147.675 76.1118 147.684 75.9829 147.684ZM66.0797 141.235C66.9818 141.997 73.5316 147.441 76.2597 147.025C77.4667 146.845 78.3897 146.295 79.0041 145.391C80.5878 143.061 79.6866 139.106 79.6775 139.066L77.9423 125.655L65.0932 122.902L66.0797 141.235Z" fill="#030047"></path><path d="M64.3553 125.807C63.8208 125.128 63.3334 124.403 62.8996 123.638C60.9547 120.203 59.6524 116.227 57.6885 112.177L80.3835 99.8506C80.7792 100.126 87.0368 106.243 89.0533 118.657C90.4382 127.182 86.1392 131.783 79.8971 132.405C76.2106 132.772 72.5723 131.955 69.4648 130.192" fill="white"></path><path d="M78.1395 132.813C75.0529 132.813 72.0308 132.015 69.3081 130.47C69.1548 130.383 69.1003 130.188 69.1874 130.035C69.2746 129.882 69.4706 129.828 69.6231 129.914C72.755 131.691 76.2963 132.441 79.8656 132.087C82.9168 131.783 85.3699 130.53 86.959 128.463C88.7759 126.101 89.3904 122.728 88.7378 118.708C86.8583 107.138 81.2769 101.168 80.3348 100.24L58.1081 112.313C58.8822 113.93 59.5556 115.535 60.2072 117.09C61.1602 119.361 62.0595 121.507 63.1776 123.48C63.5988 124.223 64.0788 124.939 64.6061 125.61C64.715 125.748 64.6914 125.95 64.5526 126.058C64.4137 126.167 64.2132 126.143 64.1033 126.005C63.5561 125.309 63.0569 124.566 62.6204 123.795C61.4842 121.788 60.5766 119.626 59.6164 117.337C58.9312 115.701 58.2215 114.012 57.3993 112.316C57.3249 112.163 57.3839 111.978 57.5345 111.896L80.2296 99.5698C80.3357 99.5127 80.4655 99.519 80.5654 99.5889C80.6298 99.6342 87.2585 105.62 89.3686 118.606C90.051 122.805 89.3931 126.348 87.4663 128.853C85.7665 131.063 83.1609 132.402 79.9292 132.724C79.332 132.783 78.7348 132.813 78.1395 132.813Z" fill="#030047"></path><path d="M67.6791 119.764L66.7833 118.483L65.0027 126.551L65.4619 135.711L58.8523 135.651C54.4997 136.075 50.9148 132.256 51.6472 127.948C53.4351 117.444 56.7204 102.879 63.0497 98.48C71.9627 92.2863 90.4322 96.9764 86.7303 105.69C83.8897 112.375 70.6821 111.259 70.6821 111.259C70.526 115.588 67.6791 119.764 67.6791 119.764Z" fill="#030047"></path><path d="M67.6888 124.648C67.6888 124.648 65.6577 126.135 62.759 125.855C59.8593 125.575 57.5297 117.535 59.7114 116.301C61.8932 115.067 66.7839 118.483 66.7839 118.483" fill="white"></path><path d="M63.492 126.21C63.2442 126.21 62.9892 126.199 62.7279 126.173C60.8746 125.995 59.3264 123.181 58.7546 120.493C58.2772 118.247 58.5749 116.576 59.5532 116.024C61.8847 114.705 66.7601 118.078 66.9661 118.222C67.1104 118.323 67.1458 118.522 67.0451 118.666C66.9434 118.812 66.7437 118.845 66.5994 118.745C65.2844 117.827 61.5117 115.647 59.8682 116.579C59.1675 116.975 58.976 118.46 59.3799 120.359C59.8981 122.793 61.3148 125.394 62.7887 125.537C65.5213 125.798 67.4798 124.403 67.4997 124.389C67.6422 124.284 67.8428 124.317 67.9463 124.459C68.0497 124.602 68.0198 124.801 67.8773 124.905C67.7983 124.963 66.0631 126.21 63.492 126.21Z" fill="#030047"></path><path d="M64.3056 119.604C63.987 119.207 63.585 118.877 63.133 118.641C62.8499 118.493 62.5404 118.382 62.2209 118.377C61.9015 118.373 61.5702 118.49 61.366 118.736C61.0774 119.084 61.101 119.591 61.19 120.034C61.3515 120.842 61.681 121.616 62.1502 122.295" fill="white"></path><path d="M62.1496 122.615C62.048 122.615 61.9482 122.567 61.8864 122.477C61.3946 121.767 61.0452 120.945 60.8754 120.098C60.7375 119.408 60.8174 118.897 61.1196 118.532C61.3701 118.229 61.7893 118.047 62.2241 118.058C62.5562 118.062 62.9011 118.16 63.2804 118.357C63.7696 118.613 64.2107 118.975 64.5546 119.404C64.6654 119.542 64.6427 119.742 64.5047 119.853C64.3668 119.963 64.1662 119.942 64.0555 119.803C63.766 119.442 63.3957 119.138 62.9846 118.923C62.6969 118.773 62.4455 118.698 62.2168 118.696C61.9491 118.686 61.7412 118.784 61.6124 118.939C61.4408 119.145 61.4055 119.483 61.5035 119.97C61.6559 120.732 61.9709 121.472 62.4128 122.111C62.5136 122.256 62.4773 122.454 62.3321 122.555C62.2758 122.597 62.2123 122.615 62.1496 122.615Z" fill="#030047"></path><path d="M84.4952 117.763C84.9877 117.631 85.2282 116.93 85.0323 116.197C84.8364 115.463 84.2783 114.975 83.7858 115.106C83.2933 115.237 83.0528 115.938 83.2487 116.672C83.4446 117.406 84.0027 117.894 84.4952 117.763Z" fill="#030047"></path><path d="M81.8076 114.456C82.2977 113.627 83.3023 113.185 84.356 113.337L81.8076 114.456Z" fill="white"></path><path d="M81.8072 114.776C81.7518 114.776 81.6956 114.761 81.6447 114.732C81.4923 114.642 81.4424 114.446 81.5313 114.294C82.0885 113.35 83.2139 112.849 84.401 113.022C84.5752 113.048 84.6968 113.209 84.6714 113.384C84.646 113.559 84.4845 113.677 84.3093 113.654C83.3836 113.521 82.5078 113.899 82.0822 114.619C82.0232 114.72 81.9161 114.776 81.8072 114.776Z" fill="#030047"></path><path d="M77.6632 120.002C78.1557 119.871 78.3961 119.169 78.2002 118.436C78.0044 117.702 77.4463 117.214 76.9538 117.345C76.4613 117.477 76.2208 118.178 76.4167 118.911C76.6126 119.645 77.1706 120.133 77.6632 120.002Z" fill="#030047"></path><path d="M74.9751 116.694C75.4652 115.864 76.4698 115.423 77.5235 115.576L74.9751 116.694Z" fill="white"></path><path d="M74.9752 117.014C74.9198 117.014 74.8644 117 74.8127 116.97C74.6602 116.88 74.6103 116.684 74.6993 116.533C75.2565 115.589 76.3819 115.087 77.5689 115.26C77.7432 115.286 77.8648 115.447 77.8394 115.622C77.814 115.796 77.6533 115.917 77.4773 115.892C76.5507 115.76 75.6758 116.136 75.2502 116.857C75.1912 116.958 75.0841 117.014 74.9752 117.014Z" fill="#030047"></path><path d="M79.1856 127.357C78.5957 127.357 78.0031 127.183 77.5148 126.853C76.8405 126.399 76.365 125.647 76.2434 124.844C76.2171 124.67 76.3369 124.506 76.512 124.48C76.6853 124.454 76.8496 124.574 76.8759 124.748C76.9712 125.378 77.3442 125.966 77.8724 126.323C78.4006 126.679 79.0867 126.803 79.7075 126.657C79.8808 126.616 80.0514 126.722 80.0923 126.893C80.1331 127.065 80.0269 127.237 79.8554 127.278C79.6367 127.33 79.4107 127.357 79.1856 127.357Z" fill="#030047"></path><path d="M83.0244 125.14C82.8747 125.14 82.7413 125.034 82.7113 124.882C82.6768 124.709 82.7903 124.541 82.9636 124.507C83.5263 124.396 83.9601 123.799 83.892 123.23C83.8539 122.913 83.6797 122.581 83.3747 122.241C83.215 122.065 83.039 121.902 82.8529 121.731C82.7095 121.598 82.5661 121.466 82.43 121.327C81.7403 120.622 81.2402 119.747 80.9834 118.795C80.9371 118.624 81.0387 118.449 81.2084 118.403C81.3791 118.357 81.5542 118.458 81.6005 118.629C81.8292 119.476 82.2739 120.255 82.8865 120.881C83.0145 121.013 83.1497 121.137 83.2858 121.261C83.4746 121.435 83.6706 121.616 83.8503 121.815C84.2451 122.254 84.4729 122.705 84.5273 123.155C84.6353 124.053 83.9764 124.959 83.088 125.134C83.0653 125.138 83.0444 125.14 83.0244 125.14Z" fill="#030047"></path><path d="M165.759 147.879H120.621C118.598 147.879 116.958 146.24 116.958 144.219V95.1955C116.958 93.1744 118.598 91.5361 120.621 91.5361H165.759C167.781 91.5361 169.421 93.1744 169.421 95.1955V144.219C169.421 146.24 167.781 147.879 165.759 147.879Z" fill="white"></path><path d="M165.759 148.123H120.621C118.467 148.123 116.714 146.371 116.714 144.219V95.1954C116.714 93.0426 118.467 91.292 120.621 91.292H165.759C167.913 91.292 169.665 93.0433 169.665 95.1954V144.219C169.665 146.372 167.912 148.123 165.759 148.123ZM120.621 91.7801C118.736 91.7801 117.204 93.3123 117.204 95.1954V144.219C117.204 146.102 118.737 147.634 120.621 147.634H165.759C167.643 147.634 169.177 146.102 169.177 144.219V95.1954C169.177 93.3123 167.643 91.7801 165.759 91.7801H120.621Z" fill="#030047"></path><path d="M169.421 97.1101V95.3678C169.421 93.2511 167.703 91.5352 165.585 91.5352H120.794C118.676 91.5352 116.958 93.2511 116.958 95.3678V97.1101H169.421Z" fill="#030047"></path><path d="M169.421 97.3544H116.959C116.823 97.3544 116.714 97.2448 116.714 97.1103V95.3687C116.714 93.121 118.545 91.292 120.794 91.292H165.585C167.835 91.292 169.665 93.121 169.665 95.3687V97.1103C169.665 97.2448 169.556 97.3544 169.421 97.3544ZM117.203 96.8663H169.176V95.3687C169.176 93.39 167.565 91.7808 165.585 91.7808H120.794C118.814 91.7808 117.204 93.3907 117.204 95.3687V96.8663H117.203Z" fill="#030047"></path><path d="M121.804 95.5202C122.329 95.5202 122.755 95.0946 122.755 94.5697C122.755 94.0447 122.329 93.6191 121.804 93.6191C121.278 93.6191 120.853 94.0447 120.853 94.5697C120.853 95.0946 121.278 95.5202 121.804 95.5202Z" fill="white"></path><path d="M124.966 95.5202C125.492 95.5202 125.918 95.0946 125.918 94.5697C125.918 94.0447 125.492 93.6191 124.966 93.6191C124.441 93.6191 124.015 94.0447 124.015 94.5697C124.015 95.0946 124.441 95.5202 124.966 95.5202Z" fill="white"></path><path d="M128.13 95.5202C128.655 95.5202 129.081 95.0946 129.081 94.5697C129.081 94.0447 128.655 93.6191 128.13 93.6191C127.605 93.6191 127.179 94.0447 127.179 94.5697C127.179 95.0946 127.605 95.5202 128.13 95.5202Z" fill="white"></path><path d="M162.758 117.053H123.621C123.396 117.053 123.212 116.87 123.212 116.644V102.935C123.212 102.709 123.396 102.526 123.621 102.526H162.758C162.983 102.526 163.166 102.709 163.166 102.935V116.644C163.166 116.87 162.983 117.053 162.758 117.053Z" fill="#5B0DD4"></path><path d="M161.247 117.297H125.132C123.939 117.297 122.968 116.327 122.968 115.135V104.445C122.968 103.252 123.939 102.282 125.132 102.282H161.247C162.441 102.282 163.411 103.252 163.411 104.445V115.135C163.411 116.327 162.44 117.297 161.247 117.297ZM125.132 102.771C124.209 102.771 123.457 103.522 123.457 104.445V115.135C123.457 116.058 124.209 116.809 125.132 116.809H161.247C162.171 116.809 162.922 116.058 162.922 115.135V104.445C162.922 103.522 162.171 102.771 161.247 102.771H125.132Z" fill="#030047"></path><path d="M132.513 113.792C132.411 113.792 132.316 113.728 132.281 113.627C132.238 113.499 132.307 113.36 132.435 113.317L154.71 105.804C154.838 105.761 154.976 105.829 155.019 105.957C155.062 106.085 154.994 106.223 154.866 106.267L132.591 113.78C132.565 113.788 132.539 113.792 132.513 113.792Z" fill="white"></path><path d="M154.788 113.792C154.762 113.792 154.736 113.787 154.71 113.779L132.435 106.266C132.307 106.223 132.237 106.085 132.281 105.956C132.324 105.829 132.462 105.759 132.591 105.803L154.866 113.316C154.993 113.359 155.063 113.498 155.019 113.626C154.985 113.727 154.89 113.792 154.788 113.792Z" fill="white"></path><path d="M134.521 123.073H124.789C124.654 123.073 124.545 122.964 124.545 122.829C124.545 122.694 124.655 122.585 124.789 122.585H134.521C134.657 122.585 134.766 122.694 134.766 122.829C134.766 122.964 134.657 123.073 134.521 123.073Z" fill="#030047"></path><path d="M161.59 123.073H138.891C138.756 123.073 138.647 122.964 138.647 122.829C138.647 122.694 138.757 122.585 138.891 122.585H161.59C161.726 122.585 161.834 122.694 161.834 122.829C161.834 122.964 161.725 123.073 161.59 123.073Z" fill="#030047"></path><path d="M140.722 126.735H124.79C124.654 126.735 124.545 126.626 124.545 126.491C124.545 126.357 124.655 126.247 124.79 126.247H140.722C140.857 126.247 140.966 126.357 140.966 126.491C140.966 126.626 140.857 126.735 140.722 126.735Z" fill="#030047"></path><path d="M151.542 126.735H143.19C143.055 126.735 142.946 126.626 142.946 126.491C142.946 126.357 143.055 126.247 143.19 126.247H151.542C151.677 126.247 151.786 126.357 151.786 126.491C151.786 126.626 151.677 126.735 151.542 126.735Z" fill="#030047"></path><path d="M161.59 126.735H155.953C155.818 126.735 155.709 126.626 155.709 126.491C155.709 126.357 155.819 126.247 155.953 126.247H161.59C161.725 126.247 161.834 126.357 161.834 126.491C161.834 126.626 161.725 126.735 161.59 126.735Z" fill="#030047"></path><path d="M138.433 130.397H124.79C124.654 130.397 124.545 130.288 124.545 130.153C124.545 130.019 124.655 129.909 124.79 129.909H138.433C138.568 129.909 138.677 130.019 138.677 130.153C138.677 130.288 138.568 130.397 138.433 130.397Z" fill="#030047"></path><path d="M152.915 130.397H145.882C145.747 130.397 145.638 130.288 145.638 130.153C145.638 130.019 145.748 129.909 145.882 129.909H152.915C153.051 129.909 153.16 130.019 153.16 130.153C153.16 130.288 153.051 130.397 152.915 130.397Z" fill="#030047"></path><path d="M161.59 130.397H155.163C155.027 130.397 154.918 130.288 154.918 130.153C154.918 130.019 155.028 129.909 155.163 129.909H161.59C161.725 129.909 161.834 130.019 161.834 130.153C161.834 130.288 161.725 130.397 161.59 130.397Z" fill="#030047"></path><path d="M130.193 134.059H124.79C124.654 134.059 124.545 133.95 124.545 133.815C124.545 133.681 124.655 133.571 124.79 133.571H130.193C130.329 133.571 130.438 133.681 130.438 133.815C130.438 133.95 130.329 134.059 130.193 134.059Z" fill="#030047"></path><path d="M139.118 134.059H133.19C133.055 134.059 132.946 133.95 132.946 133.815C132.946 133.681 133.055 133.571 133.19 133.571H139.118C139.253 133.571 139.362 133.681 139.362 133.815C139.362 133.95 139.252 134.059 139.118 134.059Z" fill="#030047"></path><path d="M138.683 137.722H124.79C124.654 137.722 124.545 137.613 124.545 137.478C124.545 137.344 124.655 137.234 124.79 137.234H138.683C138.818 137.234 138.927 137.344 138.927 137.478C138.927 137.613 138.818 137.722 138.683 137.722Z" fill="#030047"></path><path d="M139.34 141.385H124.79C124.654 141.385 124.545 141.275 124.545 141.141C124.545 141.006 124.655 140.896 124.79 140.896H139.34C139.475 140.896 139.584 141.006 139.584 141.141C139.584 141.275 139.475 141.385 139.34 141.385Z" fill="#030047"></path><path d="M161.59 133.188H142.614V143.833H161.59V133.188Z" fill="#030047"></path><path d="M154.348 137.824V139.196H152.789V140.756H151.414V139.196H149.855V137.824H151.414V136.264H152.789V137.824H154.348Z" fill="white"></path></g><path d="M65.7027 42.873H63.5777L61.3677 34.509L59.1747 42.873H57.0497L53.8027 31.534H56.0297L58.2397 40.272L60.5857 31.534H62.1667L64.5127 40.272L66.7057 31.534H68.9327L65.7027 42.873ZM69.0225 38.759C69.0225 36.379 70.7565 34.458 73.1875 34.458C75.6525 34.458 77.2335 36.345 77.2335 38.929V39.354H70.8925C71.0285 40.595 71.9635 41.615 73.5105 41.615C74.3095 41.615 75.2615 41.292 75.8395 40.714L76.6555 41.887C75.8395 42.669 74.6325 43.077 73.3235 43.077C70.8585 43.077 69.0225 41.36 69.0225 38.759ZM73.1875 35.92C71.6575 35.92 70.9605 37.093 70.8755 38.096H75.4995C75.4655 37.127 74.8025 35.92 73.1875 35.92ZM80.7804 42.873H78.9954V31.534H80.7804V35.801C81.4264 34.934 82.3784 34.458 83.4154 34.458C85.5234 34.458 87.0534 36.124 87.0534 38.776C87.0534 41.479 85.5064 43.077 83.4154 43.077C82.3444 43.077 81.4094 42.567 80.7804 41.751V42.873ZM80.7804 37.161V40.408C81.1714 41.02 82.0554 41.496 82.8884 41.496C84.3164 41.496 85.2174 40.374 85.2174 38.776C85.2174 37.178 84.3164 36.039 82.8884 36.039C82.0554 36.039 81.1714 36.549 80.7804 37.161ZM100.532 40.646C101.212 41.36 101.926 42.091 102.725 42.873H100.396C100.124 42.618 99.7675 42.261 99.3935 41.887C98.5435 42.601 97.5065 43.077 96.2145 43.077C94.1915 43.077 92.5595 42.006 92.5595 39.847C92.5595 38.096 93.7325 37.212 95.0245 36.532C94.5485 35.682 94.2255 34.832 94.2255 34.05C94.2255 32.52 95.5345 31.364 97.3025 31.364C98.8495 31.364 100.107 32.214 100.107 33.693C100.107 35.41 98.6965 36.141 97.2855 36.838C97.6595 37.365 98.0675 37.858 98.3905 38.232C98.7645 38.691 99.1385 39.116 99.5125 39.541C100.056 38.725 100.43 37.824 100.634 37.178L102.096 37.841C101.705 38.742 101.195 39.745 100.532 40.646ZM96.0275 34.084C96.0275 34.594 96.2655 35.189 96.5885 35.784C97.6595 35.274 98.5265 34.73 98.5265 33.778C98.5265 33.081 98.0335 32.69 97.3875 32.69C96.6225 32.69 96.0275 33.268 96.0275 34.084ZM96.4355 41.649C97.1665 41.649 97.8295 41.326 98.3905 40.85C97.8295 40.238 97.3025 39.643 96.9965 39.286C96.5885 38.793 96.1465 38.232 95.7385 37.654C95.0075 38.147 94.4635 38.742 94.4635 39.694C94.4635 40.935 95.3985 41.649 96.4355 41.649ZM120.362 42.873H118.373V34.288L114.888 42.873H114.038L110.57 34.288V42.873H108.581V31.534H111.386L114.463 39.167L117.557 31.534H120.362V42.873ZM126.43 43.077C123.829 43.077 122.214 41.122 122.214 38.759C122.214 36.413 123.829 34.458 126.43 34.458C129.065 34.458 130.663 36.413 130.663 38.759C130.663 41.122 129.065 43.077 126.43 43.077ZM126.43 41.496C127.96 41.496 128.81 40.221 128.81 38.759C128.81 37.314 127.96 36.039 126.43 36.039C124.917 36.039 124.067 37.314 124.067 38.759C124.067 40.221 124.917 41.496 126.43 41.496ZM134.254 42.873H132.469V31.534H134.254V35.801C134.9 34.934 135.852 34.458 136.889 34.458C138.997 34.458 140.527 36.124 140.527 38.776C140.527 41.479 138.98 43.077 136.889 43.077C135.818 43.077 134.883 42.567 134.254 41.751V42.873ZM134.254 37.161V40.408C134.645 41.02 135.529 41.496 136.362 41.496C137.79 41.496 138.691 40.374 138.691 38.776C138.691 37.178 137.79 36.039 136.362 36.039C135.529 36.039 134.645 36.549 134.254 37.161ZM143.231 33.302C142.636 33.302 142.126 32.809 142.126 32.197C142.126 31.585 142.636 31.092 143.231 31.092C143.843 31.092 144.336 31.585 144.336 32.197C144.336 32.809 143.843 33.302 143.231 33.302ZM144.132 42.873H142.347V34.662H144.132V42.873ZM148.233 42.873H146.448V31.534H148.233V42.873ZM150.038 38.759C150.038 36.379 151.772 34.458 154.203 34.458C156.668 34.458 158.249 36.345 158.249 38.929V39.354H151.908C152.044 40.595 152.979 41.615 154.526 41.615C155.325 41.615 156.277 41.292 156.855 40.714L157.671 41.887C156.855 42.669 155.648 43.077 154.339 43.077C151.874 43.077 150.038 41.36 150.038 38.759ZM154.203 35.92C152.673 35.92 151.976 37.093 151.891 38.096H156.515C156.481 37.127 155.818 35.92 154.203 35.92ZM71.4921 63.275L72.5971 61.745C73.3791 62.578 74.6031 63.309 76.1841 63.309C77.8161 63.309 78.4621 62.51 78.4621 61.762C78.4621 60.742 77.2551 60.436 75.8781 60.079C74.0251 59.62 71.8491 59.076 71.8491 56.679C71.8491 54.809 73.4981 53.364 75.9801 53.364C77.7481 53.364 79.1761 53.925 80.2301 54.945L79.0911 56.424C78.2071 55.54 77.0001 55.132 75.8101 55.132C74.6371 55.132 73.8891 55.693 73.8891 56.543C73.8891 57.427 75.0451 57.716 76.3881 58.056C78.2581 58.532 80.4851 59.11 80.4851 61.575C80.4851 63.462 79.1591 65.077 76.0991 65.077C74.0081 65.077 72.4951 64.346 71.4921 63.275ZM85.9719 65.077C83.3709 65.077 81.7559 63.122 81.7559 60.759C81.7559 58.413 83.3709 56.458 85.9719 56.458C88.6069 56.458 90.2049 58.413 90.2049 60.759C90.2049 63.122 88.6069 65.077 85.9719 65.077ZM85.9719 63.496C87.5019 63.496 88.3519 62.221 88.3519 60.759C88.3519 59.314 87.5019 58.039 85.9719 58.039C84.4589 58.039 83.6089 59.314 83.6089 60.759C83.6089 62.221 84.4589 63.496 85.9719 63.496ZM93.796 64.873H92.011V53.534H93.796V64.873ZM103.439 64.873H101.654V63.785C101.059 64.448 100.039 65.077 98.7466 65.077C96.9786 65.077 96.1116 64.159 96.1116 62.476V56.662H97.8966V61.83C97.8966 63.105 98.5426 63.496 99.5456 63.496C100.447 63.496 101.229 62.986 101.654 62.425V56.662H103.439V64.873ZM108.222 65.077C106.845 65.077 106.114 64.329 106.114 62.969V58.226H104.754V56.662H106.114V54.418H107.899V56.662H109.565V58.226H107.899V62.527C107.899 63.088 108.171 63.496 108.681 63.496C109.021 63.496 109.344 63.36 109.48 63.207L109.905 64.55C109.582 64.856 109.055 65.077 108.222 65.077ZM112.07 55.302C111.475 55.302 110.965 54.809 110.965 54.197C110.965 53.585 111.475 53.092 112.07 53.092C112.682 53.092 113.175 53.585 113.175 54.197C113.175 54.809 112.682 55.302 112.07 55.302ZM112.971 64.873H111.186V56.662H112.971V64.873ZM118.992 65.077C116.391 65.077 114.776 63.122 114.776 60.759C114.776 58.413 116.391 56.458 118.992 56.458C121.627 56.458 123.225 58.413 123.225 60.759C123.225 63.122 121.627 65.077 118.992 65.077ZM118.992 63.496C120.522 63.496 121.372 62.221 121.372 60.759C121.372 59.314 120.522 58.039 118.992 58.039C117.479 58.039 116.629 59.314 116.629 60.759C116.629 62.221 117.479 63.496 118.992 63.496ZM132.358 64.873H130.573V59.739C130.573 58.464 129.927 58.039 128.924 58.039C128.006 58.039 127.224 58.583 126.816 59.144V64.873H125.031V56.662H126.816V57.784C127.36 57.138 128.414 56.458 129.706 56.458C131.474 56.458 132.358 57.41 132.358 59.093V64.873ZM133.963 63.802L134.779 62.51C135.357 63.105 136.496 63.666 137.567 63.666C138.638 63.666 139.182 63.275 139.182 62.663C139.182 61.949 138.315 61.694 137.312 61.473C135.901 61.167 134.218 60.793 134.218 58.957C134.218 57.614 135.374 56.458 137.448 56.458C138.842 56.458 139.896 56.951 140.644 57.614L139.896 58.872C139.403 58.311 138.485 57.886 137.465 57.886C136.53 57.886 135.935 58.226 135.935 58.804C135.935 59.433 136.751 59.654 137.72 59.875C139.148 60.181 140.899 60.589 140.899 62.527C140.899 63.972 139.692 65.077 137.482 65.077C136.088 65.077 134.813 64.635 133.963 63.802Z" fill="#333333"></path><defs><filter id="filter0_bd_244_1078" x="-22.2533" y="-24.0843" width="257.062" height="257.568" filterUnits="userSpaceOnUse" color-interpolation-filters="sRGB"><feFlood flood-opacity="0" result="BackgroundImageFix"></feFlood><feGaussianBlur in="BackgroundImageFix" stdDeviation="14.57"></feGaussianBlur><feComposite in2="SourceAlpha" operator="in" result="effect1_backgroundBlur_244_1078"></feComposite><feColorMatrix in="SourceAlpha" type="matrix" values="0 0 0 0 0 0 0 0 0 0 0 0 0 0 0 0 0 0 127 0" result="hardAlpha"></feColorMatrix><feOffset dx="-1"></feOffset><feGaussianBlur stdDeviation="2.5"></feGaussianBlur><feComposite in2="hardAlpha" operator="out"></feComposite><feColorMatrix type="matrix" values="0 0 0 0 0 0 0 0 0 0 0 0 0 0 0 0 0 0 0.06 0"></feColorMatrix><feBlend mode="normal" in2="effect1_backgroundBlur_244_1078" result="effect2_dropShadow_244_1078"></feBlend><feBlend mode="normal" in="SourceGraphic" in2="effect2_dropShadow_244_1078" result="shape"></feBlend></filter></defs></svg> 