<svg xmlns="http://www.w3.org/2000/svg" xmlns:xlink="http://www.w3.org/1999/xlink" width="59.123" height="50.677" viewBox="0 0 59.123 50.677">
  <defs>
    <style>
      .cls-1 {
        fill: url(#linear-gradient);
      }
    </style>
    <linearGradient id="linear-gradient" x1="0.955" y1="1" x2="-0.051" y2="-0.073" gradientUnits="objectBoundingBox">
      <stop offset="0" stop-color="#fd5dc8"/>
      <stop offset="0.492" stop-color="#018acb"/>
      <stop offset="1" stop-color="#53c0b0"/>
    </linearGradient>
  </defs>
  <path id="Path_98577" data-name="Path 98577" class="cls-1" d="M59.011,39.008H54.788V28.45a2.11,2.11,0,0,0-2.112-2.112H42.993l-9.32-9.32V13.669H44.231a2.11,2.11,0,0,0,2.112-2.112V3.112A2.11,2.11,0,0,0,44.231,1H18.892a2.111,2.111,0,0,0-2.112,2.112v8.446a2.111,2.111,0,0,0,2.112,2.112H29.45v3.349l-9.32,9.32H10.446A2.111,2.111,0,0,0,8.335,28.45V39.008H4.112A2.111,2.111,0,0,0,2,41.119v8.446a2.111,2.111,0,0,0,2.112,2.112H16.781a2.111,2.111,0,0,0,2.112-2.112V41.119a2.111,2.111,0,0,0-2.112-2.112H12.558V30.561H20.13L30.069,40.5a2.11,2.11,0,0,0,2.986,0l9.939-9.939h7.572v8.446H46.342a2.11,2.11,0,0,0-2.112,2.112v8.446a2.11,2.11,0,0,0,2.112,2.112H59.011a2.11,2.11,0,0,0,2.112-2.112V41.119A2.11,2.11,0,0,0,59.011,39.008ZM14.669,43.231v4.223H6.223V43.231ZM21,9.446V5.223H42.119V9.446ZM31.561,36.022,23.989,28.45l7.572-7.572,7.572,7.572ZM56.9,47.454H48.454V43.231H56.9Z" transform="translate(-2 -1)"/>
</svg>
