<svg xmlns="http://www.w3.org/2000/svg" width="59.123" height="63.346" viewBox="0 0 59.123 63.346">
  <defs>
    <style>
      .cls-1 {
        fill: #fff;
      }
    </style>
  </defs>
  <g id="noun_algorithm_3948742" transform="translate(-2 -1)">
    <g id="Group_58579" data-name="Group 58579" transform="translate(2 1)">
      <path id="Path_98576" data-name="Path 98576" class="cls-1" d="M27.892,29.446H23.669V23.112A2.111,2.111,0,0,0,21.558,21H13.112a2.112,2.112,0,1,0,0,4.223h6.335v4.223H15.223a2.111,2.111,0,0,0-2.112,2.112V40a2.111,2.111,0,0,0,2.112,2.112H27.892A2.11,2.11,0,0,0,30,40V31.558A2.11,2.11,0,0,0,27.892,29.446Zm-2.112,8.446H17.335V33.669h8.446Z" transform="translate(8.004 21.231)"/>
      <path id="Path_98577" data-name="Path 98577" class="cls-1" d="M59.011,39.008H54.788V28.45a2.11,2.11,0,0,0-2.112-2.112H42.993l-9.32-9.32V13.669H44.231a2.11,2.11,0,0,0,2.112-2.112V3.112A2.11,2.11,0,0,0,44.231,1H18.892a2.111,2.111,0,0,0-2.112,2.112v8.446a2.111,2.111,0,0,0,2.112,2.112H29.45v3.349l-9.32,9.32H10.446A2.111,2.111,0,0,0,8.335,28.45V39.008H4.112A2.111,2.111,0,0,0,2,41.119v8.446a2.111,2.111,0,0,0,2.112,2.112H16.781a2.111,2.111,0,0,0,2.112-2.112V41.119a2.111,2.111,0,0,0-2.112-2.112H12.558V30.561H20.13L30.069,40.5a2.11,2.11,0,0,0,2.986,0l9.939-9.939h7.572v8.446H46.342a2.11,2.11,0,0,0-2.112,2.112v8.446a2.11,2.11,0,0,0,2.112,2.112H59.011a2.11,2.11,0,0,0,2.112-2.112V41.119A2.11,2.11,0,0,0,59.011,39.008ZM14.669,43.231v4.223H6.223V43.231ZM21,9.446V5.223H42.119V9.446ZM31.561,36.022,23.989,28.45l7.572-7.572,7.572,7.572ZM56.9,47.454H48.454V43.231H56.9Z" transform="translate(-2 -1)"/>
    </g>
  </g>
</svg>
