<svg xmlns="http://www.w3.org/2000/svg" width="56.885" height="55.348" viewBox="0 0 56.885 55.348">
  <defs>
    <style>
      .cls-1 {
        isolation: isolate;
      }

      .cls-2 {
        fill: #fff;
      }
    </style>
  </defs>
  <g id="noun_analysis_3106201" class="cls-1" transform="translate(0 -0.486)">
    <path id="Path_98586" data-name="Path 98586" class="cls-2" d="M56.809,2.244a1.223,1.223,0,0,0-.092-.3l-.077-.153a2.268,2.268,0,0,0-.428-.632,2.137,2.137,0,0,0-.6-.41L55.428.654a1.222,1.222,0,0,0-.3-.092,1.857,1.857,0,0,0-.549-.075H46.891a2.306,2.306,0,0,0,0,4.612H49l-4.331,4.33A25.348,25.348,0,0,0,0,25.854a24.067,24.067,0,0,0,.614,5.468,22.6,22.6,0,0,0,.941,3.285A25.348,25.348,0,0,0,41.59,45.338l9.82,9.821A2.306,2.306,0,1,0,54.671,51.9l-9.82-9.821a25.3,25.3,0,0,0,2.528-28.813l4.893-4.894V10.48a2.306,2.306,0,1,0,4.612,0V2.793A1.857,1.857,0,0,0,56.809,2.244ZM4.612,25.854A20.744,20.744,0,0,1,41.4,12.7l-7.58,7.594L27,13.457a2.323,2.323,0,0,0-3.018-.21L4.7,27.713C4.641,27.076,4.612,26.461,4.612,25.854Zm35.43,14.679A20.757,20.757,0,0,1,5.762,32.671L25.156,18.137l7.032,7.046a2.316,2.316,0,0,0,3.27,0l8.519-8.517A20.755,20.755,0,0,1,40.042,40.533Z" transform="translate(0)"/>
  </g>
</svg>
