<svg xmlns="http://www.w3.org/2000/svg" xmlns:xlink="http://www.w3.org/1999/xlink" width="53.557" height="53.469" viewBox="0 0 53.557 53.469">
  <defs>
    <style>
      .cls-1 {
        fill: url(#linear-gradient);
      }
    </style>
    <linearGradient id="linear-gradient" x1="0.136" y1="0.062" x2="0.833" y2="0.932" gradientUnits="objectBoundingBox">
      <stop offset="0" stop-color="#53c0b0"/>
      <stop offset="0.503" stop-color="#018acb"/>
      <stop offset="1" stop-color="#fd5dc8"/>
    </linearGradient>
  </defs>
  <path id="Path_98929" data-name="Path 98929" class="cls-1" d="M233.967,65.75a13.8,13.8,0,0,1-5.948-1.9,58.208,58.208,0,0,1-8.854-5.957.856.856,0,0,0-.957-.142,19.794,19.794,0,0,1-14.011.05.988.988,0,0,0-1.09.175,54.859,54.859,0,0,1-9.951,6.411,13.789,13.789,0,0,1-4.741,1.375,3.915,3.915,0,0,1-4-4.449,16.125,16.125,0,0,1,1.717-5.022,59.422,59.422,0,0,1,6.041-9.173.987.987,0,0,0,.174-1.094,19.684,19.684,0,0,1-.008-13.986,1.034,1.034,0,0,0-.185-1.14,59.616,59.616,0,0,1-5.989-9.08,16.052,16.052,0,0,1-1.735-4.9,3.793,3.793,0,0,1,4.511-4.544,16.8,16.8,0,0,1,6.553,2.613c2.572,1.625,5.051,3.4,7.55,5.134a.994.994,0,0,0,1.052.159,19.833,19.833,0,0,1,14.112.014.733.733,0,0,0,.81-.125A61.287,61.287,0,0,1,228.4,14.04a15.924,15.924,0,0,1,4.927-1.694,3.812,3.812,0,0,1,4.446,2.764,6.5,6.5,0,0,1-.268,3.263A26.259,26.259,0,0,1,234,25.415c-1.271,1.911-2.643,3.755-3.988,5.615a.8.8,0,0,0-.136.864,19.708,19.708,0,0,1-.018,14.287.733.733,0,0,0,.163.809,59.968,59.968,0,0,1,6.137,9.238,13.409,13.409,0,0,1,1.769,5.491A3.7,3.7,0,0,1,233.967,65.75ZM197.875,47.227c.043.082.065.131.093.175a15.672,15.672,0,0,0,26.218.19.57.57,0,0,0-.082-.815A173.673,173.673,0,0,0,211.34,33.269a2.287,2.287,0,0,0-.193-.152C209.334,34.457,199.758,44.64,197.875,47.227Zm28.512-4.9a15.135,15.135,0,0,0-.55-8.521,15.577,15.577,0,0,0-6.56-8.085L214.5,29.866Zm-30.515-.02,11.82-12.53c-.043-.032-.177-.117-.3-.22-1.349-1.163-2.706-2.316-4.035-3.5a.585.585,0,0,0-.863-.038,15.51,15.51,0,0,0-6,7.572A15.176,15.176,0,0,0,195.872,42.305Zm-1.027,8.69c-2.265,3.177-4.665,6.362-5.9,10.248,3.918-1.236,7.134-3.62,10.287-5.9Zm-5.914-34.112c1.243,3.877,3.639,7.052,5.89,10.194l4.357-4.345C196.009,20.471,192.821,18.088,188.931,16.883Zm34.16,5.849,4.346,4.344c.5-.7,1.066-1.452,1.6-2.226a36.321,36.321,0,0,0,3.952-6.816c.15-.366.257-.748.438-1.282C229.431,18.1,226.233,20.475,223.091,22.732Zm10.152,38.334c-1.232-3.839-3.586-6.99-5.821-10.1l-4.33,4.312C226.236,57.53,229.4,59.86,233.242,61.066ZM207.661,23.827l3.405,2.995,3.423-3.021A15.4,15.4,0,0,0,207.661,23.827Z" transform="translate(-184.37 -12.3)"/>
</svg>
