<svg xmlns="http://www.w3.org/2000/svg" width="65.467" height="46.371" viewBox="0 0 65.467 46.371">
  <defs>
    <style>
      .cls-1 {
        fill: #fff;
      }
    </style>
  </defs>
  <path id="Union_17" data-name="Union 17" class="cls-1" d="M-4650.174,3560.643a9.022,9.022,0,0,1,5.9-8.217,18.426,18.426,0,0,0-11.355-15.182,6.984,6.984,0,0,1-5.732,3.214h-3.818a6.76,6.76,0,0,1-5.947-3.541,19.1,19.1,0,0,0-11.358,15.269h3.122a2.578,2.578,0,0,1,2.728,2.728v11.729a2.934,2.934,0,0,1-2.728,2.727h-11.729a2.577,2.577,0,0,1-2.729-2.727v-11.729a2.578,2.578,0,0,1,2.729-2.728h3.124a24.849,24.849,0,0,1,10.425-17.73h-15.731a2.578,2.578,0,0,1-2.729-2.728,2.577,2.577,0,0,1,2.729-2.727h21.323a6.744,6.744,0,0,1,6.772-6h3.818a6.744,6.744,0,0,1,6.773,6h21.323a2.577,2.577,0,0,1,2.728,2.727,2.578,2.578,0,0,1-2.728,2.728h-16.167a23.521,23.521,0,0,1,10.63,17.906,9.024,9.024,0,0,1,6.082,8.28,8.79,8.79,0,0,1-8.729,8.728A8.789,8.789,0,0,1-4650.174,3560.643Zm5.455,0a3.52,3.52,0,0,0,3.273,3.273,3.518,3.518,0,0,0,3.273-3.273,3.317,3.317,0,0,0-3.273-3.274A3.317,3.317,0,0,0-4644.719,3560.643Zm-43.644,3.273h6.273v-6.273h-6.273Zm21.822-34.1v3.546a1.289,1.289,0,0,0,1.364,1.364h3.818a1.273,1.273,0,0,0,1.316-.962,2.67,2.67,0,0,1,.048-.674v-3.274a1.289,1.289,0,0,0-1.365-1.364h-3.818A1.289,1.289,0,0,0-4666.541,3529.819Z" transform="translate(4696 -3523)"/>
</svg>
