<svg xmlns="http://www.w3.org/2000/svg" width="56.2" height="38.863" viewBox="0 0 56.2 38.863">
  <defs>
    <style>
      .cls-1 {
        fill: #fff;
      }
    </style>
  </defs>
  <path id="Union_23" data-name="Union 23" class="cls-1" d="M23.584,38.719A3.643,3.643,0,0,1,21,34.378L28.458,2.7a3.607,3.607,0,0,1,4.3-2.6,3.572,3.572,0,0,1,2.581,4.34L27.885,36.115a3.666,3.666,0,0,1-3.441,2.749C24.157,38.863,23.871,38.719,23.584,38.719ZM12.258,32.5,1.075,21.213a3.519,3.519,0,0,1,0-5.064L12.258,4.866a3.444,3.444,0,0,1,5.018,0,3.571,3.571,0,0,1-.143,5.208l-8.6,8.679,8.6,8.681a3.519,3.519,0,0,1,0,5.064A3.135,3.135,0,0,1,14.7,33.511,3.344,3.344,0,0,1,12.258,32.5Zm26.81-.145a3.519,3.519,0,0,1,0-5.064l8.6-8.681-8.6-8.679a3.519,3.519,0,0,1,0-5.064,3.444,3.444,0,0,1,5.018,0L55.125,16a3.519,3.519,0,0,1,0,5.064L43.941,32.353a3.131,3.131,0,0,1-2.436,1.013A3.344,3.344,0,0,1,39.068,32.353Z" transform="translate(0 0)"/>
</svg>
