<?xml version="1.0" encoding="UTF-8"?> <svg xmlns="http://www.w3.org/2000/svg" width="128" height="128" viewBox="0 0 128 128" fill="none"><g filter="url(#filter0_d_9_3967)"><rect x="18" y="18" width="90" height="90" rx="12" fill="white"></rect></g><g clip-path="url(#clip0_9_3967)"><path d="M74.3413 57.629C74.1943 57.9392 74.0403 58.3116 73.8473 58.6609C73.5922 59.1206 73.7025 59.3918 74.1919 59.5894C75.4787 60.1088 75.4741 60.1203 75.4741 61.5131C75.4741 63.1196 75.4581 64.7261 75.4833 66.3303C75.4902 66.7831 75.3592 67.029 74.9135 67.1692C73.2544 67.6863 73.5623 67.7622 74.1759 68.9917C74.362 69.3664 74.3574 69.633 74.0334 69.9478C72.6524 71.2969 71.2875 72.6644 69.9364 74.0434C69.6445 74.3422 69.3918 74.3789 69.031 74.1951C67.6477 73.4849 67.6707 73.37 67.1376 74.9788C67.0158 75.3465 66.8205 75.4867 66.4322 75.4821C64.4813 75.466 62.5328 75.4637 60.5819 75.4821C60.1591 75.4867 59.9684 75.319 59.8443 74.9374C59.2997 73.2413 59.2492 73.5539 57.983 74.1882C57.5901 74.3858 57.3351 74.3169 57.034 74.0089C55.6967 72.6437 54.3456 71.29 52.9784 69.9547C52.6636 69.6468 52.6222 69.3848 52.8152 69.0032C53.4586 67.7323 53.7206 67.684 52.0478 67.1462C51.6594 67.0221 51.5101 66.8153 51.5147 66.4016C51.533 64.471 51.5307 62.5404 51.5147 60.6099C51.5124 60.2077 51.6295 59.9824 52.0317 59.8537C53.7229 59.3136 53.4517 59.2631 52.8198 58.0059C52.6314 57.6313 52.6406 57.3647 52.9623 57.0498C54.3433 55.7007 55.7082 54.3332 57.0593 52.9543C57.3511 52.6578 57.6016 52.6164 57.9647 52.8003C59.3066 53.4783 59.3066 53.6897 59.8558 52.0188C59.9776 51.6511 60.1729 51.5109 60.5612 51.5155C62.5121 51.5316 64.4606 51.5293 66.4115 51.5155C66.7906 51.5132 67.0043 51.6258 67.1284 52.0051C67.6661 53.6368 67.65 53.5104 69.0103 52.8072C69.3987 52.6072 69.6583 52.6739 69.9593 52.9841C71.2967 54.3493 72.657 55.6938 74.0081 57.0475C74.1529 57.1923 74.3413 57.3164 74.3344 57.6267L74.3413 57.629ZM68.9989 71.9405C69.2378 71.9611 69.3619 71.8049 69.4975 71.6716C70.2167 70.9568 70.9221 70.2282 71.6528 69.5272C71.9539 69.24 72.0159 68.9665 71.793 68.6217C71.5058 68.1827 71.4759 67.7438 71.7723 67.2887C71.8642 67.1462 71.9309 66.9784 71.9699 66.813C72.1078 66.2177 72.4364 65.8362 73.0637 65.7259C73.4406 65.6592 73.5738 65.4087 73.5646 65.018C73.5417 64.0435 73.5302 63.0667 73.5692 62.0923C73.5876 61.6027 73.4268 61.3246 72.9534 61.2327C72.4548 61.1339 72.14 60.8558 72.0343 60.3433C71.9975 60.1594 71.9217 59.9709 71.8183 59.8147C71.4874 59.3113 71.4966 58.8218 71.8229 58.3231C72.0435 57.9875 71.9171 57.7301 71.6505 57.4704C70.9497 56.7924 70.2535 56.1075 69.5848 55.3996C69.2723 55.0687 68.9828 54.9653 68.5898 55.2273C68.1693 55.5077 67.7442 55.5191 67.3076 55.2365C67.1491 55.133 66.963 55.0595 66.7791 55.0181C66.1978 54.8871 65.8439 54.5493 65.7267 53.9609C65.6463 53.5495 65.3867 53.43 64.9776 53.4392C63.985 53.4645 62.9877 53.4622 61.9951 53.4392C61.609 53.43 61.4137 53.5679 61.2758 53.931C60.8599 55.0411 59.4169 55.6524 58.3392 55.1744C57.983 55.0158 57.7441 55.0687 57.4798 55.3422C56.7767 56.0707 56.0598 56.7901 55.3291 57.4911C55.0487 57.7623 54.9844 58.0243 55.1958 58.3483C55.4899 58.8057 55.5359 59.2608 55.2188 59.7342C55.1154 59.8905 55.0395 60.079 55.0005 60.2628C54.8787 60.8328 54.534 61.1546 53.971 61.2695C53.5689 61.3499 53.4242 61.5912 53.4356 62.0095C53.4632 62.984 53.4701 63.9608 53.4356 64.9353C53.4173 65.4064 53.5873 65.6592 54.0308 65.7489C54.5501 65.8546 54.8695 66.1579 54.9798 66.6843C55.0142 66.8497 55.0809 67.0198 55.1751 67.16C55.5175 67.6794 55.5106 68.1873 55.1751 68.7045C54.989 68.9894 55.0556 69.2308 55.2992 69.4652C56.0506 70.2006 56.7951 70.9453 57.5304 71.6968C57.7625 71.9359 57.9785 71.9772 58.2933 71.8393C59.4123 71.3452 60.8553 71.9382 61.2827 73.0712C61.4206 73.4366 61.6182 73.5676 62.002 73.5608C62.9969 73.5378 63.9919 73.5355 64.9845 73.5608C65.3959 73.5722 65.6187 73.4366 65.7428 73.0413C65.837 72.7426 65.8531 72.3312 66.2001 72.2231C67.0595 71.9565 67.866 71.143 68.8564 71.8922C68.9 71.9244 68.9644 71.9267 69.0034 71.9382L68.9989 71.9405ZM84.3897 80.7406C84.569 82.0208 84.5804 82.0001 85.8511 81.899C86.3934 81.8553 86.5129 81.6232 86.4463 81.1175C86.1338 78.7526 85.8465 76.3854 85.5524 74.0181C85.4697 73.3493 85.4123 73.2965 84.7643 73.4573C82.6135 73.9928 80.4604 74.5122 78.3166 75.0753C76.7655 75.4821 76.9126 75.1167 77.3032 76.8105C77.4066 77.2564 77.6203 77.2909 77.9995 77.1921C79.1438 76.891 80.2927 76.6014 81.4462 76.3348C81.7242 76.2704 82.0942 75.9901 82.2826 76.2635C82.4274 76.475 82.0712 76.7554 81.9035 76.9737C77.0436 83.3308 70.651 86.5277 62.6086 86.3347C59.9982 86.2726 57.4982 85.7164 55.074 84.7787C53.8056 84.2892 53.8217 84.2892 53.2426 85.5441C53.0634 85.9348 53.1323 86.1026 53.5276 86.2749C57.6889 88.0952 62.0387 88.7226 66.5264 88.1641C72.3904 87.4333 77.3653 84.8592 81.46 80.5981C82.3584 79.6627 83.1535 78.6354 83.983 77.4656C84.1278 78.6607 84.2404 79.7041 84.3874 80.7429L84.3897 80.7406ZM47.8979 35.0023C49.4259 35.0023 50.954 34.9954 52.4843 35.0023C54.0951 35.0115 55.2739 36.179 55.2785 37.7855C55.2877 40.8606 55.2877 43.938 55.2785 47.0132C55.2739 48.5783 54.0836 49.7596 52.5096 49.7642C49.4328 49.7734 46.3583 49.7734 43.2815 49.7642C41.7098 49.7596 40.5218 48.5783 40.5172 47.0109C40.508 43.9151 40.5057 40.8193 40.5172 37.7257C40.5218 36.1997 41.719 35.0184 43.254 35.0069C44.8004 34.9954 46.3491 35.0046 47.8979 35.0046V35.0023ZM53.3621 42.4441C53.3621 41.01 53.369 39.5759 53.3621 38.1417C53.3575 37.2615 53.0243 36.9259 52.1443 36.9236C49.3156 36.9168 46.4847 36.9168 43.6561 36.9236C42.7737 36.9236 42.4405 37.2615 42.4382 38.1417C42.4313 40.9709 42.4313 43.8001 42.4382 46.6293C42.4382 47.5119 42.776 47.8451 43.6561 47.8474C46.4847 47.8543 49.3156 47.8543 52.1443 47.8474C53.0243 47.8474 53.3575 47.5096 53.3621 46.6293C53.3713 45.2343 53.3621 43.8392 53.3621 42.4419V42.4441ZM77.2274 63.4414C77.2274 61.9314 77.2205 60.4214 77.2274 58.9137C77.2366 57.3026 78.4062 56.1213 80.0101 56.1167C83.0869 56.1075 86.1613 56.1075 89.2381 56.1167C90.8076 56.1213 91.9864 57.3072 91.9909 58.8838C92.0001 61.959 92.0001 65.0364 91.9909 68.1115C91.9864 69.6858 90.8053 70.8741 89.2381 70.8786C86.143 70.8901 83.0478 70.8901 79.9526 70.8786C78.4223 70.8717 77.2412 69.6766 77.2297 68.1414C77.2182 66.5739 77.2274 65.0088 77.2274 63.4414ZM79.1461 63.4414C79.1461 64.8755 79.1392 66.3096 79.1461 67.7438C79.1507 68.6263 79.4839 68.9619 80.3639 68.9619C83.1926 68.9688 86.0235 68.9688 88.8521 68.9619C89.7322 68.9619 90.07 68.624 90.07 67.7438C90.0769 64.9146 90.0769 62.0854 90.07 59.2562C90.07 58.3736 89.7322 58.0404 88.8521 58.0381C86.0235 58.0312 83.1926 58.0312 80.3639 58.0381C79.4816 58.0381 79.1507 58.3759 79.1461 59.2562C79.1392 60.6512 79.1461 62.0463 79.1461 63.4437V63.4414ZM49.7729 84.6707C49.7729 86.1807 49.7798 87.6907 49.7729 89.1984C49.7637 90.8072 48.5918 91.9862 46.9879 91.9908C43.9111 92 40.8366 92 37.7598 91.9908C36.1973 91.9862 35.0139 90.7934 35.0093 89.2213C35.0001 86.1462 35.0001 83.0688 35.0093 79.9937C35.0139 78.4216 36.1973 77.2357 37.7644 77.2311C40.8412 77.2219 43.9157 77.2219 46.9925 77.2311C48.5964 77.2357 49.7568 78.4148 49.7729 80.0305C49.7729 80.0695 49.7729 80.1063 49.7729 80.1454C49.7729 81.6553 49.7729 83.1653 49.7729 84.673V84.6707ZM42.4129 79.1456C40.9975 79.1456 39.5843 79.141 38.1689 79.1456C37.252 79.1502 36.9257 79.4766 36.9257 80.3959C36.9211 83.2067 36.9211 86.0175 36.9257 88.826C36.9257 89.743 37.2566 90.0694 38.1757 90.0694C40.986 90.074 43.7962 90.074 46.6065 90.0694C47.5233 90.0694 47.8496 89.7384 47.8519 88.8168C47.8565 86.006 47.8565 83.1952 47.8519 80.3867C47.8519 79.4697 47.521 79.1456 46.5996 79.1433C45.2048 79.1364 43.8077 79.1433 42.4129 79.1433V79.1456ZM66.6757 40.8422C73.8611 41.9707 79.3827 45.6204 83.1811 51.8396C83.898 53.014 83.8727 53.0094 85.1089 52.3383C85.5042 52.1246 85.5111 51.9246 85.3135 51.573C83.5166 48.3554 81.1797 45.6089 78.1879 43.4462C73.76 40.2424 68.815 38.6221 63.337 38.6726C62.9969 38.6749 62.6545 38.6726 62.3145 38.6726C62.8292 38.2015 63.36 37.8613 63.8747 37.4982C65.2051 36.5628 65.1684 37.0271 64.2217 35.5286C64.0034 35.1815 63.8012 35.1815 63.4818 35.3976C61.5493 36.7007 59.6099 37.9969 57.6591 39.2771C57.2133 39.569 57.2891 39.7437 57.682 40.0011C59.3916 41.1249 61.0897 42.2649 62.7901 43.4002C63.9528 44.1748 63.9367 44.1633 64.718 43.0003C64.9868 42.6004 64.8834 42.4143 64.525 42.189C63.769 41.711 63.0314 41.2008 62.2869 40.7043C63.7874 40.5595 65.2419 40.617 66.6734 40.8399L66.6757 40.8422ZM40.6459 62.8783C40.7217 60.1525 41.2525 57.537 42.2475 55.0043C42.7507 53.7242 42.7438 53.738 41.5007 53.1565C41.1147 52.9772 40.9331 53.0393 40.7631 53.4346C38.3665 59.0447 37.9414 64.7606 39.8187 70.6029C39.9635 71.0487 40.1128 71.4946 40.2622 71.952C40.1726 71.9611 40.1266 71.9818 40.1013 71.968C39.2442 71.5061 38.3871 71.0418 37.5301 70.5799C36.3651 69.9501 36.3811 69.9593 35.7217 71.1223C35.4965 71.5222 35.5057 71.729 35.9446 71.9657C38.1643 73.1632 40.3748 74.3767 42.5692 75.62C43.0747 75.9073 43.2011 75.7579 43.3137 75.2707C43.8284 73.039 44.3822 70.8143 44.8946 68.5804C45.2209 67.1554 45.4576 67.4289 43.918 67.0152C43.4516 66.8888 43.2356 66.9784 43.1276 67.491C42.8633 68.7412 42.537 69.9777 42.236 71.2188C41.0986 68.5298 40.5632 65.7672 40.6436 62.8783H40.6459ZM63.5254 56.1144C67.6408 56.119 70.8877 59.3872 70.8831 63.5241C70.8785 67.6381 67.6087 70.8878 63.4726 70.8832C59.3617 70.8809 56.1103 67.6059 56.1126 63.4735C56.1172 59.3642 59.3916 56.1121 63.5231 56.1144H63.5254ZM58.0451 63.5172C58.1692 66.6567 60.4877 68.9067 63.5185 68.9389C66.4988 68.9711 68.9966 66.4223 68.9368 63.4804C68.8748 60.3685 66.508 58.045 63.4818 58.068C60.3452 58.0909 58.1393 60.4858 58.0451 63.5172ZM52.0294 40.0034C51.8157 39.785 51.5767 39.5851 51.3883 39.3483C51.0758 38.9599 50.8368 38.9599 50.476 39.3323C49.1456 40.7043 47.7807 42.0419 46.4319 43.3956C46.2365 43.591 46.0941 43.7795 45.7816 43.4968C44.7751 42.5866 44.7728 42.6096 43.8307 43.5979C43.5688 43.8714 43.5756 44.0484 43.8399 44.3035C44.4603 44.8987 45.0715 45.5032 45.6621 46.1283C45.9493 46.4317 46.1538 46.4432 46.4548 46.1352C48.2678 44.3012 50.0992 42.4832 51.9214 40.6561C52.0271 40.5504 52.1144 40.4285 52.1856 40.3435C52.1971 40.1642 52.1098 40.0838 52.0317 40.0034H52.0294ZM88.7211 61.0925C88.5097 60.8719 88.2708 60.6742 88.08 60.4375C87.7813 60.0721 87.5492 60.079 87.2092 60.426C85.8626 61.8073 84.4839 63.1587 83.1259 64.5285C82.9099 64.7468 82.7583 64.8502 82.4733 64.5836C81.5289 63.6988 81.5174 63.7126 80.6075 64.6526C80.5799 64.6801 80.5569 64.71 80.5271 64.733C80.2467 64.9559 80.2927 65.1559 80.5363 65.3903C81.1682 66.0017 81.7932 66.6199 82.3998 67.2565C82.6732 67.5415 82.8709 67.5438 83.1512 67.2611C84.9803 65.4156 86.8231 63.5816 88.6591 61.7429C88.7648 61.6372 88.8935 61.5407 88.9119 61.3407C88.859 61.2695 88.7993 61.1707 88.7234 61.0902L88.7211 61.0925ZM46.4985 82.2069C46.2871 81.9863 46.0481 81.7887 45.8574 81.5519C45.5587 81.1865 45.3266 81.1934 44.9865 81.5404C43.64 82.9217 42.2613 84.2731 40.9033 85.6429C40.6873 85.8612 40.5356 85.9646 40.2507 85.698C39.3063 84.8132 39.2948 84.827 38.3848 85.767C38.3573 85.7946 38.3343 85.8245 38.3044 85.8474C38.0264 86.0704 38.0677 86.2703 38.3113 86.5047C38.9432 87.1161 39.5682 87.7343 40.1749 88.371C40.4483 88.656 40.6436 88.6606 40.9262 88.3756C42.7553 86.53 44.5982 84.696 46.4341 82.8574C46.5398 82.7516 46.6685 82.6551 46.6869 82.4552C46.6341 82.3839 46.5743 82.2851 46.4985 82.2046V82.2069ZM59.7868 63.508C59.7868 61.4189 61.3999 59.7917 63.4772 59.7894C65.5728 59.7848 67.2065 61.3913 67.2111 63.4643C67.218 65.5903 65.605 67.2152 63.4909 67.2152C61.4114 67.2152 59.7868 65.5926 59.7868 63.5103V63.508ZM63.4887 61.7291C62.5534 61.736 61.7308 62.5611 61.7262 63.4965C61.7216 64.4457 62.5948 65.303 63.5346 65.2731C64.4744 65.2432 65.2856 64.4021 65.2672 63.4781C65.2488 62.5427 64.4147 61.7222 63.4887 61.7291Z" fill="url(#paint0_linear_9_3967)"></path></g><defs><filter id="filter0_d_9_3967" x="0" y="0" width="128" height="128" filterUnits="userSpaceOnUse" color-interpolation-filters="sRGB"><feFlood flood-opacity="0" result="BackgroundImageFix"></feFlood><feColorMatrix in="SourceAlpha" type="matrix" values="0 0 0 0 0 0 0 0 0 0 0 0 0 0 0 0 0 0 127 0" result="hardAlpha"></feColorMatrix><feMorphology radius="2" operator="dilate" in="SourceAlpha" result="effect1_dropShadow_9_3967"></feMorphology><feOffset dx="1" dy="1"></feOffset><feGaussianBlur stdDeviation="8.5"></feGaussianBlur><feComposite in2="hardAlpha" operator="out"></feComposite><feColorMatrix type="matrix" values="0 0 0 0 0.6875 0 0 0 0 0.644531 0 0 0 0 0.644531 0 0 0 0.15 0"></feColorMatrix><feBlend mode="normal" in2="BackgroundImageFix" result="effect1_dropShadow_9_3967"></feBlend><feBlend mode="normal" in="SourceGraphic" in2="effect1_dropShadow_9_3967" result="shape"></feBlend></filter><linearGradient id="paint0_linear_9_3967" x1="36.9397" y1="63.4958" x2="95.4729" y2="63.4958" gradientUnits="userSpaceOnUse"><stop stop-color="#FD5DC8"></stop><stop offset="0.61" stop-color="#018ACB"></stop><stop offset="1" stop-color="#53C0B0"></stop></linearGradient><clipPath id="clip0_9_3967"><rect width="57" height="57" fill="white" transform="translate(35 35)"></rect></clipPath></defs></svg> 