<?xml version="1.0" encoding="UTF-8"?> <svg xmlns="http://www.w3.org/2000/svg" width="128" height="128" viewBox="0 0 128 128" fill="none"><g filter="url(#filter0_d_9_3968)"><rect x="18" y="18" width="90" height="90" rx="12" fill="white"></rect></g><g clip-path="url(#clip0_9_3968)"><path d="M40.1231 62.6829C41.1599 62.6829 42.1968 62.6673 43.2336 62.6896C43.6542 62.6985 43.8344 62.5783 43.8277 62.1286C43.8077 60.7772 43.8144 59.4235 43.8299 58.0721C43.8344 57.6603 43.6786 57.4888 43.2737 57.5311C43.1825 57.54 43.0868 57.5445 42.9956 57.5311C42.3392 57.4265 41.9498 57.6514 41.6094 58.2814C40.9129 59.5638 39.3465 60.0558 38.0049 59.5482C36.5875 59.0139 35.7888 57.618 36.0491 56.133C36.2961 54.7237 37.5843 53.6061 39.0328 53.6261C40.2588 53.6417 41.2 54.2183 41.7585 55.3248C41.9431 55.6922 42.1612 55.8458 42.5706 55.828C43.2181 55.8012 43.8655 55.8079 44.513 55.828C45.2094 55.848 45.5254 56.1708 45.5276 56.8721C45.5365 58.6131 45.5432 60.3542 45.5209 62.0952C45.5143 62.5605 45.6722 62.703 46.1284 62.6941C47.499 62.6696 48.8674 62.6829 50.238 62.6874C51.0301 62.6896 51.2882 62.9568 51.3082 63.7605C51.455 69.6982 55.7871 74.6385 61.6589 75.5624C68.2783 76.6021 74.6619 71.8778 75.5497 65.2722C75.6209 64.7423 75.6476 64.2035 75.6765 63.6692C75.7165 62.9768 75.9813 62.6963 76.6733 62.6918C78.0795 62.6829 79.4879 62.674 80.8941 62.6963C81.3369 62.703 81.4682 62.5449 81.4637 62.1152C81.4437 60.412 81.4526 58.7066 81.4548 57.0035C81.4548 56.1285 81.7485 55.8369 82.6207 55.8257C83.177 55.8191 83.7333 55.7946 84.2873 55.8324C84.7768 55.8658 85.0393 55.6966 85.2752 55.2469C85.8492 54.156 86.8193 53.586 88.0475 53.6395C89.367 53.6973 90.3215 54.3875 90.7932 55.6387C91.365 57.1504 90.6775 58.7645 89.2068 59.4569C87.7672 60.1315 86.0895 59.5816 85.273 58.1768C85.1417 57.9497 85.1372 57.5779 84.7879 57.5578C84.3095 57.5311 83.8267 57.5445 83.3505 57.5868C83.1503 57.6046 83.1681 57.8406 83.1681 58.0031C83.1681 59.4102 83.177 60.8195 83.1681 62.2265C83.1636 62.6562 83.4039 62.6941 83.7399 62.6918C85.7758 62.6852 87.8117 62.6874 89.8498 62.6896C90.7443 62.6896 90.9712 62.9145 90.9734 63.7983C90.9757 64.6132 90.9823 65.428 90.9712 66.2429C90.949 67.6121 89.8787 68.7008 88.5103 68.7631C85.5155 68.8989 83.6042 70.6689 83.3528 73.6633C83.2393 75.0281 83.7599 76.237 84.6811 77.2634C85.936 78.6615 85.9004 79.9862 84.581 81.3109C83.4573 82.4396 82.3315 83.5662 81.2034 84.6883C79.9819 85.9039 78.5913 85.9306 77.3185 84.7751C74.4461 82.1658 69.9894 83.3814 68.9458 87.0593C68.8146 87.5224 68.7589 87.9989 68.7456 88.4842C68.7033 89.918 67.6086 90.9866 66.169 90.9955C64.3912 91.0067 62.6157 91.0067 60.8379 90.9955C59.3672 90.9866 58.288 89.918 58.2413 88.4441C58.1479 85.5588 56.0831 83.4304 53.2061 83.3525C51.8822 83.3168 50.7163 83.82 49.7262 84.7217C48.3667 85.9595 47.025 85.9239 45.7234 84.6259C44.5953 83.5016 43.4695 82.3751 42.3459 81.2463C41.1021 79.9951 41.0776 78.6281 42.2502 77.319C43.7187 75.6804 44.048 73.8014 43.1936 71.7999C42.3481 69.8229 40.7438 68.8499 38.6078 68.7653C37.0948 68.7075 36.0291 67.6455 36.0179 66.1471C36.0113 65.3501 36.0135 64.5553 36.0179 63.7583C36.0224 62.9367 36.2605 62.6918 37.0681 62.6874C38.0872 62.6829 39.104 62.6874 40.1231 62.6874V62.6829ZM43.7187 64.3193C41.8853 64.3193 40.0541 64.3304 38.2229 64.3104C37.789 64.3059 37.5999 64.4417 37.6533 64.8826C37.6689 65.0095 37.6533 65.1408 37.6533 65.2722C37.6533 66.8729 37.7712 67.0043 39.3443 67.1312C43.0512 67.4318 45.917 71.1787 45.2673 74.8633C45.0225 76.2548 44.4151 77.4526 43.4673 78.4901C43.0089 78.991 42.9399 79.4096 43.3338 79.8148C44.5976 81.1172 45.8836 82.3973 47.1786 83.6664C47.5279 84.0092 47.9462 84.0003 48.3378 83.6953C48.5136 83.5595 48.676 83.4081 48.8473 83.2656C51.277 81.233 54.6791 81.1305 57.2178 83.0163C58.9889 84.3343 59.81 86.1399 59.9479 88.3083C59.9946 89.0319 60.3239 89.3436 61.0426 89.3503C62.6891 89.3659 64.3378 89.3659 65.9843 89.3503C66.6697 89.3436 66.9878 89.0208 67.0457 88.3328C67.1391 87.2352 67.3327 86.1688 67.8778 85.1937C70.0428 81.3331 75.0468 80.5094 78.391 83.466C79.0941 84.0872 79.4212 84.0827 80.0865 83.4192C81.2145 82.2949 82.3426 81.1706 83.4618 80.0396C84.0492 79.4474 84.0581 79.0801 83.5018 78.4656C82.2136 77.0385 81.5972 75.3865 81.6684 73.4452C81.7797 70.3795 84.3585 67.4496 87.409 67.169C89.4604 66.9798 89.3269 66.706 89.3536 64.9627C89.3603 64.4351 89.1823 64.3104 88.6839 64.3126C85.1484 64.3304 81.6128 64.3304 78.0795 64.3126C77.5477 64.3104 77.2295 64.3839 77.2829 65.0206C77.3074 65.3256 77.2117 65.644 77.1517 65.9512C75.6587 73.7168 68.4452 78.6036 60.7022 77.0942C54.8415 75.952 50.1712 70.7513 49.704 64.818C49.6684 64.3727 49.4748 64.3148 49.1077 64.3171C47.3121 64.3282 45.5165 64.3215 43.7209 64.3215L43.7187 64.3193ZM40.3812 56.6673C40.3789 55.9259 39.7893 55.3226 39.0595 55.3159C38.3253 55.3092 37.6822 55.9615 37.6956 56.7007C37.7089 57.4577 38.2763 58.0209 39.0373 58.0276C39.8316 58.0343 40.3856 57.4755 40.3812 56.6673ZM86.6169 56.6272C86.5968 57.4421 87.1308 58.0165 87.9185 58.0276C88.6995 58.0387 89.3002 57.4554 89.3024 56.6851C89.3047 55.9705 88.6883 55.3315 87.9763 55.3159C87.251 55.3003 86.6347 55.8925 86.6169 56.6272ZM63.3388 73.0711C62.8916 73.0422 62.2797 73.1379 61.6745 73.0088C60.8513 72.8329 60.2728 72.2785 60.1593 71.4459C60.1103 71.0808 59.9657 70.9449 59.623 70.8826C58.4927 70.6822 57.9231 69.9943 57.9142 68.8477C57.9076 68.1063 57.9098 67.3672 57.9142 66.6258C57.9209 65.9958 58.1634 65.4614 58.6752 65.0941C58.9266 64.9137 58.9711 64.7356 58.9355 64.444C58.7464 62.9011 58.159 61.5185 57.2734 60.2584C54.3965 56.1575 56.7461 50.0906 61.9838 48.9663C66.1223 48.078 70.3009 50.9968 70.8794 55.1845C71.1308 57.0079 70.797 58.6822 69.7602 60.205C68.8813 61.4941 68.2583 62.8744 68.0692 64.4395C68.0336 64.7267 68.0647 64.9093 68.3228 65.0918C68.8346 65.457 69.0816 65.9891 69.0882 66.6214C69.0971 67.3984 69.1016 68.1754 69.0882 68.9546C69.0704 69.9787 68.4474 70.7067 67.4395 70.8782C67.0946 70.936 66.8988 71.0295 66.841 71.4437C66.7053 72.4255 65.9599 73.0177 64.8919 73.0689C64.4313 73.0912 63.9663 73.0733 63.3433 73.0733L63.3388 73.0711ZM64.3156 61.2848C64.3156 61.9326 64.3022 62.5805 64.3178 63.2284C64.3601 64.9716 63.9618 64.6488 65.8753 64.6911C66.1935 64.6978 66.3404 64.5887 66.3826 64.2614C66.6207 62.3846 67.355 60.7037 68.423 59.1564C69.0437 58.2569 69.3041 57.2528 69.2507 56.1619C69.1305 53.704 67.9602 51.9229 65.7085 50.9745C63.4968 50.0439 61.4231 50.4491 59.6119 52.0276C57.6317 53.753 57.0665 57.0458 58.6196 59.2521C59.5007 60.5033 60.1482 61.8659 60.4552 63.3842C60.7289 64.7423 60.7489 64.7267 62.1685 64.6978C62.5512 64.6889 62.6891 64.5687 62.6847 64.1813C62.6713 62.2733 62.6735 60.3675 62.6847 58.4595C62.6847 58.1412 62.5801 57.943 62.3042 57.7916C61.6567 57.4332 61.0159 57.0614 60.3818 56.6807C59.8456 56.3601 59.692 55.9237 59.9368 55.4829C60.1838 55.0421 60.6532 54.9263 61.1828 55.2135C61.8347 55.5653 62.4755 55.9348 63.1096 56.3155C63.3811 56.4781 63.6058 56.4847 63.8795 56.32C64.5136 55.9371 65.1566 55.5697 65.8064 55.2179C66.3381 54.9285 66.8076 55.0398 67.0546 55.4784C67.3038 55.917 67.1525 56.3601 66.6185 56.6807C65.9999 57.0525 65.3769 57.4176 64.7428 57.7627C64.4291 57.9341 64.2978 58.1478 64.3089 58.513C64.3312 59.4391 64.3156 60.3653 64.3156 61.2915V61.2848ZM63.4901 66.3965C62.4733 66.3965 61.4542 66.3965 60.4374 66.3965C59.6253 66.3965 59.6208 66.4009 59.6186 67.1891C59.6186 67.5965 59.6186 68.0039 59.6186 68.4114C59.6208 69.2396 59.6253 69.2418 60.4552 69.2462C61.59 69.2507 61.8236 69.4778 61.8369 70.6021C61.8369 70.6956 61.8436 70.7869 61.8369 70.8804C61.8169 71.2388 61.9882 71.3724 62.3398 71.368C63.1163 71.3546 63.8951 71.3546 64.6716 71.368C65.0365 71.3746 65.1767 71.2099 65.1589 70.8648C65.0854 69.5067 65.417 69.1394 66.7787 69.2485C67.2548 69.2863 67.395 69.0525 67.3817 68.6184C67.3639 68.0818 67.3594 67.5431 67.3817 67.0087C67.4039 66.5501 67.217 66.3854 66.7631 66.392C65.6706 66.4121 64.5804 66.3987 63.4879 66.3987L63.4901 66.3965ZM57.5694 37.4471C56.4502 38.0371 55.4267 38.7696 54.5523 39.6891C54.1762 40.0854 54.1673 40.5462 54.5122 40.878C54.8771 41.2275 55.2754 41.2075 55.667 40.9136C55.8294 40.7911 55.9718 40.6442 56.1209 40.5062C59.9857 36.944 66.1423 36.7169 70.2541 39.9896C70.6302 40.288 70.9684 40.6353 71.3444 40.9314C71.7204 41.2297 72.2099 41.1919 72.497 40.8624C72.8107 40.5017 72.7973 40.121 72.5036 39.7536C72.4013 39.6245 72.2789 39.5087 72.1565 39.3952C69.7046 37.151 66.8187 36.0045 63.4901 36C61.3252 36.0089 59.4517 36.452 57.5694 37.4471ZM61.6189 39.9273C59.9657 40.2635 58.5372 41.0494 57.309 42.2004C56.7328 42.7392 56.824 43.5117 57.4759 43.7232C57.8742 43.8524 58.1768 43.6809 58.4772 43.4182C61.5722 40.7377 65.4058 40.7288 68.4897 43.3893C69.0148 43.8412 69.5043 43.8835 69.8514 43.5051C70.2119 43.1132 70.1384 42.619 69.6289 42.1514C67.8912 40.5596 65.8375 39.7603 63.2298 39.7069C62.8604 39.7559 62.2308 39.8048 61.6189 39.9295V39.9273ZM59.8611 44.9633C59.4895 45.3307 59.4873 45.8272 59.7988 46.1589C60.1103 46.4906 60.5909 46.4995 60.9981 46.1811C61.056 46.1366 61.1071 46.0832 61.165 46.0342C62.5623 44.8587 64.438 44.8654 65.8419 46.0476C66.3737 46.4951 66.8632 46.5285 67.2081 46.1433C67.5663 45.7426 67.4618 45.2194 66.9211 44.7518C65.9443 43.9058 64.7962 43.5051 63.5146 43.4583C62.1062 43.4984 60.8691 43.9681 59.8589 44.9633H59.8611Z" fill="url(#paint0_linear_9_3968)"></path></g><defs><filter id="filter0_d_9_3968" x="0" y="0" width="128" height="128" filterUnits="userSpaceOnUse" color-interpolation-filters="sRGB"><feFlood flood-opacity="0" result="BackgroundImageFix"></feFlood><feColorMatrix in="SourceAlpha" type="matrix" values="0 0 0 0 0 0 0 0 0 0 0 0 0 0 0 0 0 0 127 0" result="hardAlpha"></feColorMatrix><feMorphology radius="2" operator="dilate" in="SourceAlpha" result="effect1_dropShadow_9_3968"></feMorphology><feOffset dx="1" dy="1"></feOffset><feGaussianBlur stdDeviation="8.5"></feGaussianBlur><feComposite in2="hardAlpha" operator="out"></feComposite><feColorMatrix type="matrix" values="0 0 0 0 0.6875 0 0 0 0 0.644531 0 0 0 0 0.644531 0 0 0 0.15 0"></feColorMatrix><feBlend mode="normal" in2="BackgroundImageFix" result="effect1_dropShadow_9_3968"></feBlend><feBlend mode="normal" in="SourceGraphic" in2="effect1_dropShadow_9_3968" result="shape"></feBlend></filter><linearGradient id="paint0_linear_9_3968" x1="37.8695" y1="63.4994" x2="94.3469" y2="63.4994" gradientUnits="userSpaceOnUse"><stop stop-color="#FD5DC8"></stop><stop offset="0.61" stop-color="#018ACB"></stop><stop offset="1" stop-color="#53C0B0"></stop></linearGradient><clipPath id="clip0_9_3968"><rect width="55" height="55" fill="white" transform="translate(36 36)"></rect></clipPath></defs></svg> 