<svg xmlns="http://www.w3.org/2000/svg" width="68" height="68" viewBox="0 0 68 68"><defs><style>.a{fill:#1328c9;stroke:#384df2;}.b{fill:#fff;}.c{stroke:none;}.d{fill:none;}</style></defs><g transform="translate(-160 -11525)"><g transform="translate(160 11525)"><g class="a"><rect class="c" width="68" height="68" rx="5"/><rect class="d" x="0.5" y="0.5" width="67" height="67" rx="4.5"/></g></g><g transform="translate(157 11523.406)"><g transform="translate(20 17.594)"><rect class="b" width="21" height="4" transform="translate(5.951 0)"/><path class="b" d="M20,38.7v14.52a6.7,6.7,0,0,0,6.7,6.7h20.1a6.7,6.7,0,0,0,6.7-6.7V38.7a6.7,6.7,0,0,0-6.7-6.7H26.7A6.7,6.7,0,0,0,20,38.7ZM46.806,55.455H26.7a2.234,2.234,0,0,1-2.234-2.234V43.2L31.4,48.156a9.2,9.2,0,0,0,10.7,0L49.04,43.2V53.221A2.234,2.234,0,0,1,46.806,55.455ZM26.7,36.468h20.1a2.234,2.234,0,0,1,2.061,1.368l-9.36,6.7a4.819,4.819,0,0,1-5.506,0l-9.36-6.7A2.234,2.234,0,0,1,26.7,36.468Z" transform="translate(-20 -23.736)"/></g></g></g></svg>