<svg xmlns="http://www.w3.org/2000/svg" width="68" height="68" viewBox="0 0 68 68"><defs><style>.a{fill:#1328c9;stroke:#384df2;}.b{fill:#fff;}.c{stroke:none;}.d{fill:none;}</style></defs><g transform="translate(-448 -11525)"><g transform="translate(448 11525)"><g class="a"><rect class="c" width="68" height="68" rx="5"/><rect class="d" x="0.5" y="0.5" width="67" height="67" rx="4.5"/></g></g><g transform="translate(446.737 11524.168)"><path class="b" d="M515.412,195.211a8.1,8.1,0,0,1,6.6,6.593,1.336,1.336,0,0,0,1.325,1.118,1.181,1.181,0,0,0,.213-.02.012.012,0,0,0,.01,0,1.339,1.339,0,0,0,1.1-1.551,10.773,10.773,0,0,0-8.8-8.787h0a1.344,1.344,0,0,0-.443,2.65Z" transform="translate(-478.793 -168.099)"/><path class="b" d="M44.888,92.3a3.535,3.535,0,0,0-2.572-1.168,3.627,3.627,0,0,0-2.585,1.151l-1.866,1.866c-.046-.023-.092-.046-.134-.069l-.1-.046c-.2-.1-.43-.216-.62-.335a22.434,22.434,0,0,1-5.35-4.877,13.087,13.087,0,0,1-1.6-2.447c.469-.443.905-.886,1.315-1.305.092-.092.184-.187.279-.282s.187-.19.282-.285a3.458,3.458,0,0,0,0-5.222l-1.814-1.814c-.1-.1-.21-.21-.312-.315s-.207-.21-.308-.312l-.144-.148c-.358-.364-.728-.741-1.1-1.086A3.577,3.577,0,0,0,25.719,74.5a3.708,3.708,0,0,0-2.578,1.109s-.007,0-.007.007l-2.273,2.27a5.3,5.3,0,0,0-1.571,3.362v0a11.886,11.886,0,0,0,.879,5.12,29.094,29.094,0,0,0,5.156,8.607,31.825,31.825,0,0,0,10.555,8.266h0a16.568,16.568,0,0,0,6.012,1.771h.026c.134.007.276.013.423.013a5.439,5.439,0,0,0,4.149-1.784l.016-.016a.327.327,0,0,0,.033-.036,14.8,14.8,0,0,1,1.128-1.164c.292-.279.59-.564.879-.872a3.758,3.758,0,0,0,1.135-2.617,3.661,3.661,0,0,0-1.158-2.588L44.888,92.3Zm-.361,9.141a2.744,2.744,0,0,1-2.165.9c-.085,0-.18-.007-.279-.013a14.118,14.118,0,0,1-5.022-1.509,28.9,28.9,0,0,1-9.673-7.567h0a26.515,26.515,0,0,1-4.694-7.816,9.138,9.138,0,0,1-.722-3.969,2.569,2.569,0,0,1,.794-1.689l2.257-2.257a1.064,1.064,0,0,1,.705-.348,1.021,1.021,0,0,1,.679.351l.01.01c.39.367.771.754,1.174,1.161l.013.013c.194.2.417.43.643.649l1.811,1.811c.528.528.528.9,0,1.427-.19.19-.384.384-.574.581l-.134.138c-.508.515-.987,1-1.509,1.463a.151.151,0,0,0-.023.023l-.033.033a1.775,1.775,0,0,0-.446,1.965c.007.02.013.036.02.052h0a.116.116,0,0,0,.013.03,15.014,15.014,0,0,0,2.217,3.611s0,0,0,.007A24.966,24.966,0,0,0,35.6,95.968a9.723,9.723,0,0,0,.856.469c.2.1.433.22.623.335a.245.245,0,0,0,.039.023l.01.007c.02.01.039.023.062.033a1.87,1.87,0,0,0,.859.213,1.807,1.807,0,0,0,1.328-.6l2.27-2.27a1.075,1.075,0,0,1,.689-.361,1.01,1.01,0,0,1,.649.358l.007.007,3.664,3.664c.361.361.607.787-.03,1.456l0,0c-.2.216-.413.423-.64.643-.049.046-.1.1-.148.144a15.458,15.458,0,0,0-1.312,1.348Z" transform="translate(0 -53.929)"/><path class="b" d="M538.144,32.986A17.452,17.452,0,0,0,523.905,18.76a1.342,1.342,0,0,0-.446,2.647,14.773,14.773,0,0,1,12.034,12.031,1.336,1.336,0,0,0,1.325,1.118h.01a1.09,1.09,0,0,0,.2-.02.012.012,0,0,0,.01,0,1.343,1.343,0,0,0,1.1-1.548Z" transform="translate(-486.578 0)"/></g></g></svg>