<?xml version="1.0" encoding="UTF-8"?> <svg xmlns="http://www.w3.org/2000/svg" width="212" height="19" viewBox="0 0 212 19" fill="none"><g clip-path="url(#clip0_258_3137)"><path d="M1.18794 5.06446C2.4161 5.74128 3.85506 5.93847 5.22244 5.6173C7.04651 6.17146 9.00225 6.13094 10.8013 5.50164C11.4111 5.50164 12.0334 6.10594 12.6821 5.83594C14.4594 5.36022 16.1852 5.83594 17.9626 5.83594C19.2599 5.48879 20.3491 6.2345 21.6594 6.22163C23.5017 6.04163 25.3572 6.22165 27.2643 6.08022C28.5616 6.54308 29.5732 5.97733 30.7927 6.1959C32.4662 6.80018 34.1143 6.2859 35.8268 6.1959C37.6339 6.78738 39.5846 6.78738 41.3917 6.1959C43.4934 6.89018 45.9843 6.19591 48.5529 6.6202C49.8503 6.28591 50.9402 7.04451 52.2504 7.04451C54.1057 6.87736 55.9483 7.04448 57.8553 6.94162C59.0748 7.39162 60.1901 6.86446 61.3577 7.07017C63.0312 7.67446 64.692 7.18588 66.4045 7.07017C66.9105 7.07017 67.4033 7.37879 67.8963 7.36594C69.5179 8.12451 71.1135 6.68447 72.6573 7.25018C74.2012 7.8159 75.5502 6.74875 77.0421 7.25018C78.8325 7.5459 80.4027 7.17305 82.1282 7.73877C83.7628 7.66162 85.3326 7.91877 86.9672 7.73877C88.1349 7.41734 89.4841 8.27873 90.5868 7.8673C91.6896 7.45587 92.701 8.16307 93.7129 8.24021C94.7794 8.03282 95.8588 7.89538 96.9436 7.82877C98.7552 8.39752 100.704 8.36591 102.496 7.73877C103.793 8.35591 105.194 7.93161 106.608 7.80304C107.79 8.07185 109.011 8.13712 110.215 7.99592C113.098 8.40955 116.02 8.4829 118.92 8.21447C120.217 8.63875 121.268 8.08588 122.462 8.27874C124.122 8.84446 125.744 8.27877 127.443 8.1502C129.263 8.68745 131.209 8.6151 132.983 7.94444C134.28 8.53587 135.669 8.08587 137.082 7.94444C138.271 8.1733 139.49 8.20373 140.689 8.03446C142.155 7.9316 143.699 8.81876 145.191 8.12447C147.112 8.60018 149.018 7.63594 150.965 8.25308C152.184 7.64879 153.403 8.09879 154.687 8.25308C155.945 7.8672 157.265 7.71033 158.579 7.79017C160.193 8.15513 161.883 7.98811 163.392 7.31446C164.69 7.86731 166.078 7.31446 167.492 7.14731C168.876 7.36214 170.289 7.31857 171.656 7.01877C174.342 7.80305 177.041 6.89022 179.777 6.80022C180.696 6.9944 181.651 6.90464 182.516 6.54305C184.441 6.83657 186.411 6.69594 188.275 6.13162C191.077 7.2502 194.918 5.00023 192.31 1.99166C190.909 0.795946 189.326 1.51593 187.757 1.16878C187.324 1.13499 186.891 1.13499 186.459 1.16878C184.467 1.47977 182.495 1.90911 180.555 2.4545C178.304 2.11019 176.019 2.0153 173.744 2.1716C173.177 2.57368 172.518 2.83292 171.827 2.92698C171.135 3.02106 170.432 2.94719 169.775 2.71165C168.816 3.45736 168.037 3.11018 167.011 2.82733C165.52 2.71161 164.262 3.39304 162.756 2.66018C160.915 2.40304 159.371 3.40592 157.477 2.77592H157.411C155.037 2.44164 152.625 3.26446 150.316 3.7016C148.136 3.39303 144.957 2.73737 142.869 3.43165C142.354 3.70067 141.785 3.85184 141.204 3.87409C140.621 3.89633 140.043 3.78908 139.509 3.5602C138.289 4.38305 137.55 3.68877 136.292 3.5602C135.033 3.43162 133.8 3.99733 132.555 3.30304C130.583 2.8659 129.026 3.92023 127.054 3.20023C124.68 2.78881 122.215 3.57309 119.88 3.92023C117.648 3.52166 114.691 2.82731 112.485 3.45731C111.959 3.70807 111.382 3.83831 110.799 3.83831C110.215 3.83831 109.639 3.70807 109.112 3.45731C107.815 4.26731 107.154 3.53447 105.882 3.39304C104.611 3.25161 103.378 3.76589 102.159 3.05874C100.187 2.58303 98.6038 3.5859 96.6579 2.82733C94.2968 2.40304 91.8321 3.0845 89.5099 3.41878C88.2064 2.97386 86.8217 2.81163 85.4495 2.94308C84.3651 2.48711 83.1472 2.45039 82.037 2.8402C81.5107 3.09095 80.9346 3.22119 80.3507 3.22119C79.7669 3.22119 79.19 3.09095 78.6638 2.8402C77.4963 3.59877 76.6404 2.84017 75.4338 2.73731C74.2273 2.63446 72.9558 3.09735 71.7103 2.36448C69.7643 1.8502 68.1819 2.86589 66.2619 2.09446H66.1967C63.8225 1.64446 61.3709 2.31309 59.0228 2.63452C57.7261 2.17877 56.3449 2.00767 54.975 2.13307C53.891 1.67904 52.6759 1.63779 51.5632 2.01733C51.0352 2.27008 50.4562 2.40137 49.8699 2.40137C49.2836 2.40137 48.7046 2.27008 48.1767 2.01733C46.9961 2.7759 46.1532 2.08166 44.9466 1.91452C43.7401 1.74738 42.4427 2.26161 41.2232 1.54161C39.2512 1.04018 37.6556 2.04309 35.7096 1.27166C35.2806 1.19238 34.8475 1.13658 34.4123 1.10451C32.4169 1.2124 30.4315 1.4572 28.4704 1.8373C26.2208 1.31437 23.9183 1.04694 21.6075 1.04017C21.0011 1.38992 20.3212 1.59524 19.6209 1.63986C18.9208 1.68449 18.2197 1.56722 17.5729 1.29732C16.5611 1.9659 15.8214 1.59304 14.7965 1.29732C13.3176 1.07875 12.0073 1.69589 10.5543 0.885886C8.72504 0.5516 7.10358 1.45163 5.24842 0.757346C2.29052 -0.194083 -2.00348 1.9016 1.18794 5.06446Z" fill="url(#paint0_linear_258_3137)"></path><path d="M210.433 10.4124C208.876 9.25529 207.164 10.0524 205.464 9.74384C202.87 9.58955 200.275 10.5667 197.81 11.1453C195.216 10.991 192.219 10.5153 189.78 11.351C189.233 11.6534 188.628 11.8373 188.003 11.8905C187.38 11.9437 186.752 11.8649 186.16 11.6595C184.98 12.521 183.982 11.9296 182.697 11.8524C181.412 11.7753 180.102 12.431 178.675 11.8524C176.535 11.5181 174.873 12.6496 172.746 12.0196C169.152 11.5824 165.779 13.7166 162.225 12.611C161.089 12.7778 159.935 12.7778 158.8 12.611C157.645 12.3795 156.788 13.2795 155.686 13.3566C154.907 13.6909 154.182 13.2024 153.429 13.0995C152.936 13.0995 152.521 13.6139 152.027 13.6268C150.617 13.0822 149.071 12.9878 147.603 13.3566C145.009 12.2767 142.621 13.5366 140.015 12.8681C137.419 12.5081 134.824 13.2539 132.334 13.6396C129.739 13.2796 126.846 12.5724 124.304 13.2153C123.732 13.4693 123.114 13.6005 122.488 13.6005C121.861 13.6005 121.243 13.4693 120.671 13.2153C119.374 13.9995 118.479 13.3053 117.194 13.2153C115.91 13.1253 114.522 13.6009 113.173 12.8939C111.071 12.3924 109.384 13.4338 107.309 12.6881H107.244C104.649 12.2509 102.055 12.9581 99.4601 13.2796C96.8654 12.8424 93.9984 12.1095 91.4557 12.701C90.8835 12.9518 90.265 13.0814 89.6395 13.0814C89.014 13.0814 88.3948 12.9518 87.8227 12.701C86.5254 13.4595 85.6174 12.701 84.333 12.5853C83.0487 12.4696 81.6214 12.9324 80.3113 12.2124C78.2095 11.6981 76.5099 12.701 74.4473 11.9296H74.37C71.8402 11.4667 69.1807 12.1481 66.586 12.4567C63.9913 11.9938 61.137 11.2481 58.5684 11.8138C57.9958 12.0713 57.3746 12.2045 56.7459 12.2045C56.1172 12.2045 55.4953 12.0713 54.9227 11.8138C53.6254 12.5724 52.7174 11.8139 51.433 11.711C50.1486 11.6082 48.657 12.0324 47.4246 11.3252C45.3228 10.811 43.5973 11.8139 41.5347 11.0553C34.049 9.46101 34.6583 17.2782 41.6898 16.0311C43.6651 16.6227 45.7735 16.6227 47.7488 16.0311C48.6768 16.4296 49.7099 16.5198 50.6938 16.2882C52.2635 15.9539 53.8328 16.5581 55.4156 16.4681C56.8038 16.1466 58.0104 16.9052 59.4115 16.9052C61.3964 16.7381 63.3944 16.9052 65.4313 16.8152C66.4044 17.1048 67.4417 17.1048 68.4149 16.8152C70.4604 17.3011 72.5859 17.358 74.6551 16.9824C76.6073 17.5806 78.6966 17.5806 80.6488 16.9824C82.0889 17.6124 83.5547 17.2139 85.0856 17.0982C86.3624 17.3781 87.6753 17.4605 88.9776 17.3425C92.6101 18.1525 96.3594 17.3425 100.083 17.9853C101.38 17.4068 102.678 17.9852 104.13 18.1909C105.513 17.8516 106.945 17.7602 108.359 17.9209C110.076 18.3425 111.878 18.2622 113.549 17.6895C114.976 18.3452 116.429 17.8438 117.934 17.6895C119.417 17.9805 120.94 18.0153 122.436 17.7924C125.29 18.7181 128.247 17.9853 131.192 18.0496C132.49 18.4611 133.787 17.8953 135.02 18.0496C136.81 18.6025 138.561 18.0496 140.377 17.8825C142.345 18.4069 144.428 18.3217 146.345 17.6382C148.824 18.2296 151.443 17.4068 154.051 17.7411C155.414 17.3425 156.646 18.0368 158.035 17.9596C160.006 17.6896 161.991 17.7409 164.028 17.5224C165.01 17.7486 166.038 17.6862 166.986 17.3425C169.027 17.6904 171.12 17.5983 173.122 17.0724H173.187C175.178 17.5222 177.261 17.3562 179.155 16.5968C181.646 17.0853 184.254 16.1596 186.874 16.3653C188.17 15.9025 189.468 16.5709 190.843 16.4295C192.803 16.0566 194.735 16.0181 196.824 15.7096C197.82 15.8835 198.847 15.772 199.782 15.3882C201.85 15.6393 203.947 15.4463 205.931 14.8224C208.811 15.6581 213.313 13.5496 210.433 10.4124Z" fill="url(#paint1_linear_258_3137)"></path></g><defs><linearGradient id="paint0_linear_258_3137" x1="6.62412" y1="4.52565" x2="204.952" y2="4.52565" gradientUnits="userSpaceOnUse"><stop stop-color="#FD5DC8"></stop><stop offset="0.61" stop-color="#018ACB"></stop><stop offset="1" stop-color="#53C0B0"></stop></linearGradient><linearGradient id="paint1_linear_258_3137" x1="42.1194" y1="14.0082" x2="222.04" y2="14.0082" gradientUnits="userSpaceOnUse"><stop stop-color="#FD5DC8"></stop><stop offset="0.61" stop-color="#018ACB"></stop><stop offset="1" stop-color="#53C0B0"></stop></linearGradient><clipPath id="clip0_258_3137"><rect width="212" height="18" fill="white" transform="translate(0 0.46582)"></rect></clipPath></defs></svg> 