<svg xmlns="http://www.w3.org/2000/svg" xmlns:xlink="http://www.w3.org/1999/xlink" width="107" height="107" viewBox="0 0 107 107">
  <defs>
    <filter id="Rectangle_16562" x="0" y="0" width="107" height="107" filterUnits="userSpaceOnUse">
      <feOffset dy="4" input="SourceAlpha"/>
      <feGaussianBlur stdDeviation="6.5" result="blur"/>
      <feFlood flood-color="#dce1e5"/>
      <feComposite operator="in" in2="blur"/>
      <feComposite in="SourceGraphic"/>
    </filter>
    <linearGradient id="linear-gradient" x1="0.25" x2="0.624" y2="0.891" gradientUnits="objectBoundingBox">
      <stop offset="0" stop-color="#53c0b0"/>
      <stop offset="0.488" stop-color="#018acb"/>
      <stop offset="1" stop-color="#fd5dc8"/>
    </linearGradient>
    <linearGradient id="linear-gradient-6" y1="0.038" x2="0.867" y2="0.889" gradientUnits="objectBoundingBox">
      <stop offset="0" stop-color="#53c0b0"/>
      <stop offset="0.507" stop-color="#018acb"/>
      <stop offset="1" stop-color="#fd5dc8"/>
    </linearGradient>
  </defs>
  <g id="Group_58639" data-name="Group 58639" transform="translate(-716.5 -13.5)">
    <g transform="matrix(1, 0, 0, 1, 716.5, 13.5)" filter="url(#Rectangle_16562)">
      <rect id="Rectangle_16562-2" data-name="Rectangle 16562" width="68" height="68" rx="5" transform="translate(19.5 15.5)" fill="#fff"/>
    </g>
    <g id="Group_59263" data-name="Group 59263" transform="translate(752 44)">
      <path id="Path_99231" data-name="Path 99231" d="M68.982,25.116a1.447,1.447,0,0,0-.425-.976,1.492,1.492,0,0,0-1.07-.425,2.748,2.748,0,0,0-2.65,2.826l.089,2.744-.509,2.061c-.058-.005-.115-.017-.174-.017a1.927,1.927,0,0,0-1.372.567L59.8,34.966l-1.111.192a3.149,3.149,0,0,0-1.686.871l-2.079,2.079a3.124,3.124,0,0,0-.919,2.145l-.081,3.615A2.21,2.21,0,0,0,52.242,46l-.048,4.512a2.252,2.252,0,0,0,2.223,2.27l7.487.08h.025a2.252,2.252,0,0,0,2.246-2.223l.048-4.512a2.249,2.249,0,0,0-1.635-2.184l.041-.282A3.774,3.774,0,0,1,63.7,41.539l3.512-3.512a5.338,5.338,0,0,0,1.534-3.209l.373-3.538a2.053,2.053,0,0,0,.042-.4v-.007s0,0,0,0c0-.018,0-.035,0-.053ZM63.4,46.122l-.048,4.512a1.434,1.434,0,0,1-1.444,1.413l-7.486-.08a1.435,1.435,0,0,1-1.414-1.444l.048-4.512A1.435,1.435,0,0,1,54.488,44.6H54.5l7.486.08A1.431,1.431,0,0,1,63.4,46.122Zm3.229-8.674L63.121,40.96a4.588,4.588,0,0,0-1.3,2.586l-.045.312-7.027-.075.079-3.511a2.307,2.307,0,0,1,.68-1.585l2.079-2.079a2.327,2.327,0,0,1,1.246-.643l1.241-.214c.014,0,.025-.011.039-.015a.386.386,0,0,0,.077-.03.408.408,0,0,0,.068-.045.336.336,0,0,0,.036-.024l3.158-3.16a1.154,1.154,0,0,1,1.588,0,1.124,1.124,0,0,1,0,1.587l-3.628,3.628a.409.409,0,1,0,.578.578l3.628-3.628A1.914,1.914,0,0,0,65.2,31.59l.535-2.163a.421.421,0,0,0,0-.055.374.374,0,0,0,.009-.056l-.091-2.8a1.927,1.927,0,0,1,1.855-1.983.636.636,0,0,1,.655.611l.181,5.671-.413,3.917A4.526,4.526,0,0,1,66.633,37.448Z" transform="translate(-33.43 -14.21)" fill="url(#linear-gradient)"/>
      <ellipse id="Ellipse_3725" data-name="Ellipse 3725" cx="1.062" cy="1.062" rx="1.062" ry="1.062" transform="translate(27.217 31.417)" fill="url(#linear-gradient)"/>
      <path id="Path_99232" data-name="Path 99232" d="M22.553,44.422a2.212,2.212,0,0,0-1.008-.558l-.081-3.612a3.12,3.12,0,0,0-.919-2.145l-2.079-2.079a3.144,3.144,0,0,0-1.685-.871l-1.113-.192L12.6,31.9a1.926,1.926,0,0,0-1.372-.567c-.059,0-.116.012-.174.017l-.509-2.061.089-2.745a2.749,2.749,0,0,0-2.655-2.826,1.479,1.479,0,0,0-1.064.425,1.449,1.449,0,0,0-.425.978l-.182,5.7c0,.017,0,.034,0,.051h0v0a2.07,2.07,0,0,0,.043.405l.373,3.537a5.342,5.342,0,0,0,1.534,3.21l3.512,3.512a3.77,3.77,0,0,1,1.07,2.125l.041.283A2.249,2.249,0,0,0,11.25,46.13l.048,4.512a2.251,2.251,0,0,0,2.246,2.223h.025l7.486-.08a2.252,2.252,0,0,0,2.223-2.27L23.23,46A2.232,2.232,0,0,0,22.553,44.422Zm-10.2-3.462L8.839,37.448a4.519,4.519,0,0,1-1.3-2.717l-.413-3.917.181-5.669a.625.625,0,0,1,.186-.427.611.611,0,0,1,.464-.186,1.928,1.928,0,0,1,1.859,1.983l-.091,2.8a.373.373,0,0,0,.009.056.413.413,0,0,0,0,.055l.534,2.163a1.915,1.915,0,0,0-.416.307,1.942,1.942,0,0,0,0,2.744l3.628,3.628a.409.409,0,0,0,.578-.578l-3.628-3.628a1.124,1.124,0,0,1,0-1.588,1.154,1.154,0,0,1,1.587,0l3.158,3.16a.415.415,0,0,0,.036.024.38.38,0,0,0,.145.075.324.324,0,0,0,.039.015l1.242.215a2.323,2.323,0,0,1,1.244.643l2.079,2.079a2.311,2.311,0,0,1,.68,1.585l.079,3.512-7.027.075-.045-.313A4.589,4.589,0,0,0,12.352,40.96Zm9.7,10.576a1.417,1.417,0,0,1-1,.431l-7.486.08a1.434,1.434,0,0,1-1.444-1.413l-.048-4.512a1.431,1.431,0,0,1,1.414-1.444l7.486-.08h.016a1.435,1.435,0,0,1,1.428,1.414l.048,4.512A1.42,1.42,0,0,1,22.051,51.536Z" transform="translate(-6.309 -14.209)" fill="url(#linear-gradient)"/>
      <ellipse id="Ellipse_3726" data-name="Ellipse 3726" cx="1.062" cy="1.062" rx="1.062" ry="1.062" transform="translate(6.394 31.417)" fill="url(#linear-gradient)"/>
      <path id="Path_99235" data-name="Path 99235" d="M57.3,25.677a9.713,9.713,0,1,0-9.713,9.714A9.724,9.724,0,0,0,57.3,25.677ZM47.587,33.79A8.112,8.112,0,1,1,55.7,25.677,8.12,8.12,0,0,1,47.587,33.79Z" transform="translate(-29.786 -15.964)" fill="url(#linear-gradient)"/>
      <g id="noun_bill_3792781" transform="translate(14.721 3.869)">
        <g id="Group_59257" data-name="Group 59257" transform="translate(0 0)">
          <path id="Path_99582" data-name="Path 99582" d="M31.352,967.54a.709.709,0,0,0-.61.7v.727a2.677,2.677,0,0,0-2.033,1.177,2.307,2.307,0,0,0-.043,2.4,3.755,3.755,0,0,0,2.621,1.594H31.3a2.423,2.423,0,0,1,1.7.984.985.985,0,0,1-.011,1.048,1.375,1.375,0,0,1-1.145.62,3.743,3.743,0,0,1-2.407-.888.685.685,0,1,0-.813,1.1,6.119,6.119,0,0,0,2.118,1.048v.46a.685.685,0,1,0,1.369,0v-.374a2.758,2.758,0,0,0,2.054-1.262,2.4,2.4,0,0,0,.021-2.428,3.783,3.783,0,0,0-2.621-1.658h-.011a2.393,2.393,0,0,1-1.7-.941.862.862,0,0,1,.011-.963c.375-.591,1.569-1.146,3.53.321a.685.685,0,1,0,.824-1.091,5.931,5.931,0,0,0-2.107-1.038v-.834A.715.715,0,0,0,31.352,967.54Z" transform="translate(-28.349 -967.536)" fill="url(#linear-gradient-6)"/>
        </g>
      </g>
    </g>
  </g>
</svg>
