<svg xmlns="http://www.w3.org/2000/svg" xmlns:xlink="http://www.w3.org/1999/xlink" width="107" height="107" viewBox="0 0 107 107">
  <defs>
    <filter id="Rectangle_16562" x="0" y="0" width="107" height="107" filterUnits="userSpaceOnUse">
      <feOffset dy="4" input="SourceAlpha"/>
      <feGaussianBlur stdDeviation="6.5" result="blur"/>
      <feFlood flood-color="#dce1e5"/>
      <feComposite operator="in" in2="blur"/>
      <feComposite in="SourceGraphic"/>
    </filter>
    <linearGradient id="linear-gradient" x1="0.304" y1="0.171" x2="0.929" y2="0.928" gradientUnits="objectBoundingBox">
      <stop offset="0" stop-color="#53c0b0"/>
      <stop offset="0.512" stop-color="#018acb"/>
      <stop offset="1" stop-color="#fd5dc8"/>
    </linearGradient>
  </defs>
  <g id="Group_59086" data-name="Group 59086" transform="translate(-263.5 -2488.5)">
    <g transform="matrix(1, 0, 0, 1, 263.5, 2488.5)" filter="url(#Rectangle_16562)">
      <rect id="Rectangle_16562-2" data-name="Rectangle 16562" width="68" height="68" rx="5" transform="translate(19.5 15.5)" fill="#fff"/>
    </g>
    <path id="Union_5" data-name="Union 5" d="M3.534,37.524a.858.858,0,0,1-.593-.232L.262,34.743A.884.884,0,0,1,0,34.072a.905.905,0,0,1,.154-.506A.847.847,0,0,1,.25,33.45l2.691-2.556a.832.832,0,0,1,.852-.235.863.863,0,0,1,.594.671.886.886,0,0,1-.308.851L2.989,33.218h16.3A14.613,14.613,0,0,0,33.482,21.441a15.047,15.047,0,0,0-8.2-16.755L26.82,7.437a.907.907,0,0,1,.091.677.883.883,0,0,1-.405.542.9.9,0,0,1-.421.116.85.85,0,0,1-.741-.445l-2.6-4.69a.915.915,0,0,1-.089-.7.86.86,0,0,1,.445-.525L27.839.088A.851.851,0,0,1,28.989.5a.9.9,0,0,1-.4,1.183L25.818,3.021A16.681,16.681,0,0,1,35.5,17.895a16.733,16.733,0,0,1-9,15.323H37.069a.881.881,0,0,1,0,1.751H2.989l1.138,1.043a.891.891,0,0,1,.211.967.848.848,0,0,1-.786.546Zm2.638-9.441A17.077,17.077,0,0,1,4.247,12.042a16.316,16.316,0,0,1,12.2-10.185.857.857,0,0,1,.934.72.879.879,0,0,1-.637,1.006A14.608,14.608,0,0,0,5.828,12.7,15.291,15.291,0,0,0,7.541,27.052a.9.9,0,0,1,.069.908.83.83,0,0,1-1.438.123Zm17.274-.915-2.721-.03a.845.845,0,0,1-.593-.268l-1.867-2a.866.866,0,0,1-.243-.61v-2.8a.888.888,0,0,1,.261-.61L20.228,18.9a.846.846,0,0,1,.593-.25l2.721.037a.836.836,0,0,1,.593.262l1.9,2a.893.893,0,0,1,.243.61l-.035,2.8a.887.887,0,0,1-.255.61l-1.945,1.952a.824.824,0,0,1-.589.25Zm-3.752-5.355-.023,2.116,1.411,1.488H23.1l1.464-1.469V21.874l-1.4-1.482-2.016-.031Zm-7,.695a.836.836,0,0,1-.593-.262l-1.9-2a.9.9,0,0,1-.243-.61l.035-2.8a.887.887,0,0,1,.255-.61L12.2,14.274a.823.823,0,0,1,.593-.25l2.721.03a.845.845,0,0,1,.593.268l1.9,2a.865.865,0,0,1,.243.61l-.036,2.8a.882.882,0,0,1-.255.61l-1.944,1.951a.846.846,0,0,1-.593.25ZM11.65,17.269v2.074l1.411,1.482h2.015l1.447-1.452.053-2.129-1.441-1.53H13.12Zm9.076.628a.836.836,0,0,1-.593-.262l-1.873-2.019a.846.846,0,0,1-.243-.61v-2.8a.877.877,0,0,1,.26-.61l1.945-1.958a.842.842,0,0,1,.593-.244l2.721.031a.863.863,0,0,1,.593.262l1.9,2.006a.894.894,0,0,1,.243.61l-.035,2.8a.863.863,0,0,1-.255.61l-1.939,1.97a.851.851,0,0,1-.593.25Zm-1.008-5.3-.047,2.1,1.411,1.482H23.1l1.464-1.439V12.664L23.18,11.145H21.164Z" transform="translate(298 2519)" fill="url(#linear-gradient)"/>
  </g>
</svg>
