<svg xmlns="http://www.w3.org/2000/svg" xmlns:xlink="http://www.w3.org/1999/xlink" width="107" height="107" viewBox="0 0 107 107">
  <defs>
    <filter id="Rectangle_16637" x="0" y="0" width="107" height="107" filterUnits="userSpaceOnUse">
      <feOffset dy="4" input="SourceAlpha"/>
      <feGaussianBlur stdDeviation="6.5" result="blur"/>
      <feFlood flood-color="#dce1e5"/>
      <feComposite operator="in" in2="blur"/>
      <feComposite in="SourceGraphic"/>
    </filter>
    <linearGradient id="linear-gradient" x1="0.25" x2="0.624" y2="0.891" gradientUnits="objectBoundingBox">
      <stop offset="0" stop-color="#53c0b0"/>
      <stop offset="0.488" stop-color="#018acb"/>
      <stop offset="1" stop-color="#fd5dc8"/>
    </linearGradient>
  </defs>
  <g id="Group_59111" data-name="Group 59111" transform="translate(-1343.5 -2113.5)">
    <g transform="matrix(1, 0, 0, 1, 1343.5, 2113.5)" filter="url(#Rectangle_16637)">
      <rect id="Rectangle_16637-2" data-name="Rectangle 16637" width="68" height="68" rx="5" transform="translate(19.5 15.5)" fill="#fff"/>
    </g>
    <g id="noun_Time_4290556" transform="translate(1282.067 2128.067)">
      <path id="Path_99280" data-name="Path 99280" d="M96.924,30.792a.925.925,0,0,0-.924.925v5.547a.925.925,0,0,0,.924.925h3.24A14.622,14.622,0,0,0,101.747,42L99.455,44.3a.925.925,0,0,0,0,1.307l3.922,3.922a.924.924,0,0,0,1.307,0l2.292-2.292a14.622,14.622,0,0,0,3.816,1.582v3.24a.925.925,0,0,0,.925.925h5.547a.925.925,0,0,0,.924-.925v-3.24A14.623,14.623,0,0,0,122,47.234l2.292,2.292a.925.925,0,0,0,1.307,0l3.922-3.922a.925.925,0,0,0,0-1.307L127.234,42a14.622,14.622,0,0,0,1.582-3.816h3.24a.925.925,0,0,0,.925-.925V31.717a.925.925,0,0,0-.925-.925h-3.24a14.622,14.622,0,0,0-1.582-3.816l2.292-2.292a.925.925,0,0,0,0-1.307L125.6,19.455a.925.925,0,0,0-1.307,0L122,21.747a14.623,14.623,0,0,0-3.816-1.582v-3.24a.925.925,0,0,0-.924-.925h-5.547a.925.925,0,0,0-.925.925v3.24a14.622,14.622,0,0,0-3.816,1.582l-2.292-2.292a.924.924,0,0,0-1.307,0l-3.922,3.922a.925.925,0,0,0,0,1.307l2.292,2.292a14.622,14.622,0,0,0-1.582,3.816Zm4.882,1.108a12.814,12.814,0,0,1,1.885-4.547.925.925,0,0,0-.117-1.164l-2.159-2.159,2.615-2.615,2.159,2.159a.925.925,0,0,0,1.164.117,12.814,12.814,0,0,1,4.547-1.885.925.925,0,0,0,.741-.906V17.849h3.7V20.9a.925.925,0,0,0,.741.906,12.814,12.814,0,0,1,4.547,1.885.925.925,0,0,0,1.164-.117l2.159-2.158,2.615,2.615-2.159,2.159a.925.925,0,0,0-.117,1.164,12.818,12.818,0,0,1,1.886,4.547.925.925,0,0,0,.906.741h3.051v3.7H128.08a.925.925,0,0,0-.906.741,12.818,12.818,0,0,1-1.886,4.547.924.924,0,0,0,.117,1.164l2.159,2.159-2.615,2.615-2.159-2.159a.925.925,0,0,0-1.164-.117,12.814,12.814,0,0,1-4.547,1.885.925.925,0,0,0-.741.906v3.051h-3.7V48.08a.924.924,0,0,0-.741-.906,12.814,12.814,0,0,1-4.547-1.885.924.924,0,0,0-1.164.117l-2.159,2.158-2.615-2.615,2.159-2.159a.925.925,0,0,0,.117-1.164,12.813,12.813,0,0,1-1.885-4.547.925.925,0,0,0-.906-.741H97.849v-3.7H100.9A.925.925,0,0,0,101.806,31.9Z" fill="url(#linear-gradient)"/>
      <path id="Path_99281" data-name="Path 99281" d="M171.094,102.188A11.094,11.094,0,1,0,160,91.094,11.094,11.094,0,0,0,171.094,102.188Zm0-20.339a9.245,9.245,0,1,1-9.245,9.245,9.245,9.245,0,0,1,9.245-9.245Z" transform="translate(-56.604 -56.604)" fill="url(#linear-gradient)"/>
      <path id="Path_99282" data-name="Path 99282" d="M234.78,129.245a2.778,2.778,0,0,0,2.615-1.849h3.857a.925.925,0,1,0,0-1.849h-3.857a2.787,2.787,0,0,0-1.69-1.69v-2.933a.925.925,0,1,0-1.849,0v2.933a2.774,2.774,0,0,0,.924,5.388Zm0-3.7a.925.925,0,1,1-.924.925A.925.925,0,0,1,234.78,125.547Z" transform="translate(-120.29 -91.981)" fill="url(#linear-gradient)"/>
    </g>
  </g>
</svg>
