<svg xmlns="http://www.w3.org/2000/svg" xmlns:xlink="http://www.w3.org/1999/xlink" width="107" height="107" viewBox="0 0 107 107">
  <defs>
    <filter id="Rectangle_16756" x="0" y="0" width="107" height="107" filterUnits="userSpaceOnUse">
      <feOffset dy="4" input="SourceAlpha"/>
      <feGaussianBlur stdDeviation="6.5" result="blur"/>
      <feFlood flood-color="#dce1e5"/>
      <feComposite operator="in" in2="blur"/>
      <feComposite in="SourceGraphic"/>
    </filter>
    <linearGradient id="linear-gradient" x1="0.069" y1="0.101" x2="0.5" y2="0.913" gradientUnits="objectBoundingBox">
      <stop offset="0" stop-color="#53c0b0"/>
      <stop offset="0.147" stop-color="#018acb"/>
      <stop offset="1" stop-color="#fd5dc8"/>
    </linearGradient>
  </defs>
  <g id="Group_59396" data-name="Group 59396" transform="translate(-1290.5 -1509.5)">
    <g transform="matrix(1, 0, 0, 1, 1290.5, 1509.5)" filter="url(#Rectangle_16756)">
      <rect id="Rectangle_16756-2" data-name="Rectangle 16756" width="68" height="68" rx="5" transform="translate(19.5 15.5)" fill="#fff"/>
    </g>
    <g id="noun_focus_1766492" transform="translate(1315.334 1538.22)">
      <g id="Group_58626" data-name="Group 58626" transform="translate(10.387 2.5)">
        <path id="Path_98591" data-name="Path 98591" d="M67.573,18.707V22.8a1.3,1.3,0,0,0,1.285,1.285h0A1.3,1.3,0,0,0,70.143,22.8v-4.09A4.912,4.912,0,0,0,65.236,13.8H61.185A1.3,1.3,0,0,0,59.9,15.085h0a1.3,1.3,0,0,0,1.285,1.285h4.09A2.263,2.263,0,0,1,67.573,18.707Z" transform="translate(-37.544 -9.399)" fill="url(#linear-gradient)"/>
        <path id="Path_98592" data-name="Path 98592" d="M16.271,65.236V61.185A1.3,1.3,0,0,0,14.985,59.9h0A1.3,1.3,0,0,0,13.7,61.185v4.09a4.937,4.937,0,0,0,4.907,4.907H22.7A1.3,1.3,0,0,0,23.982,68.9h0A1.3,1.3,0,0,0,22.7,67.612H18.646A2.438,2.438,0,0,1,16.271,65.236Z" transform="translate(-9.338 -37.544)" fill="url(#linear-gradient)"/>
        <path id="Path_98593" data-name="Path 98593" d="M16.332,18.646a2.385,2.385,0,0,1,2.376-2.376H22.8a1.3,1.3,0,0,0,1.285-1.285h0A1.3,1.3,0,0,0,22.8,13.7h-4.09A4.912,4.912,0,0,0,13.8,18.607V22.7a1.3,1.3,0,0,0,1.285,1.285h0A1.3,1.3,0,0,0,16.371,22.7V18.646Z" transform="translate(-9.399 -9.338)" fill="url(#linear-gradient)"/>
        <path id="Path_98594" data-name="Path 98594" d="M67.573,65.236a2.344,2.344,0,0,1-2.337,2.337H61.185A1.3,1.3,0,0,0,59.9,68.858h0a1.3,1.3,0,0,0,1.285,1.285h4.09a4.937,4.937,0,0,0,4.907-4.907V61.185A1.3,1.3,0,0,0,68.9,59.9h0a1.3,1.3,0,0,0-1.285,1.285v4.051Z" transform="translate(-37.544 -37.544)" fill="url(#linear-gradient)"/>
        <path id="Path_98595" data-name="Path 98595" d="M38.215,19.715H29.257a8.391,8.391,0,0,0-6.972-6.972V3.785a1.285,1.285,0,0,0-2.571,0v8.958a8.391,8.391,0,0,0-6.972,6.972H3.785a1.285,1.285,0,0,0,0,2.571h8.958a8.391,8.391,0,0,0,6.972,6.972v8.958a1.285,1.285,0,1,0,2.571,0V29.257a8.391,8.391,0,0,0,6.972-6.972h8.958a1.285,1.285,0,1,0,0-2.571ZM21,26.8h0A5.8,5.8,0,1,1,26.8,21h0A5.818,5.818,0,0,1,21,26.8Z" transform="translate(-2.5 -2.5)" fill="url(#linear-gradient)"/>
      </g>
    </g>
  </g>
</svg>
