<svg xmlns="http://www.w3.org/2000/svg" xmlns:xlink="http://www.w3.org/1999/xlink" width="176.724" height="100.627" viewBox="0 0 176.724 100.627">
  <defs>
    <clipPath id="clip-path">
      <rect id="Rectangle_16824" data-name="Rectangle 16824" width="176.724" height="100.627" fill="none"/>
    </clipPath>
    <clipPath id="clip-path-3">
      <rect id="Rectangle_16821" data-name="Rectangle 16821" width="175.947" height="75.019" fill="none"/>
    </clipPath>
    <clipPath id="clip-path-4">
      <rect id="Rectangle_16789" data-name="Rectangle 16789" width="169.997" height="75.019" fill="none"/>
    </clipPath>
    <clipPath id="clip-path-5">
      <rect id="Rectangle_16790" data-name="Rectangle 16790" width="169.133" height="74.434" fill="none"/>
    </clipPath>
    <clipPath id="clip-path-6">
      <rect id="Rectangle_16791" data-name="Rectangle 16791" width="168.271" height="73.858" fill="none"/>
    </clipPath>
    <clipPath id="clip-path-7">
      <rect id="Rectangle_16792" data-name="Rectangle 16792" width="167.414" height="73.294" fill="none"/>
    </clipPath>
    <clipPath id="clip-path-8">
      <rect id="Rectangle_16793" data-name="Rectangle 16793" width="166.559" height="72.759" fill="none"/>
    </clipPath>
    <clipPath id="clip-path-9">
      <rect id="Rectangle_16794" data-name="Rectangle 16794" width="165.707" height="72.219" fill="none"/>
    </clipPath>
    <clipPath id="clip-path-10">
      <rect id="Rectangle_16795" data-name="Rectangle 16795" width="164.859" height="71.689" fill="none"/>
    </clipPath>
    <clipPath id="clip-path-11">
      <rect id="Rectangle_16796" data-name="Rectangle 16796" width="164.013" height="71.169" fill="none"/>
    </clipPath>
    <clipPath id="clip-path-12">
      <rect id="Rectangle_16797" data-name="Rectangle 16797" width="163.171" height="70.66" fill="none"/>
    </clipPath>
    <clipPath id="clip-path-13">
      <rect id="Rectangle_16798" data-name="Rectangle 16798" width="162.332" height="70.161" fill="none"/>
    </clipPath>
    <clipPath id="clip-path-14">
      <rect id="Rectangle_16799" data-name="Rectangle 16799" width="161.496" height="69.673" fill="none"/>
    </clipPath>
    <clipPath id="clip-path-15">
      <rect id="Rectangle_16800" data-name="Rectangle 16800" width="160.664" height="69.194" fill="none"/>
    </clipPath>
    <clipPath id="clip-path-16">
      <rect id="Rectangle_16801" data-name="Rectangle 16801" width="159.834" height="68.726" fill="none"/>
    </clipPath>
    <clipPath id="clip-path-17">
      <rect id="Rectangle_16802" data-name="Rectangle 16802" width="159.008" height="68.267" fill="none"/>
    </clipPath>
    <clipPath id="clip-path-18">
      <rect id="Rectangle_16803" data-name="Rectangle 16803" width="158.184" height="67.818" fill="none"/>
    </clipPath>
    <clipPath id="clip-path-19">
      <rect id="Rectangle_16804" data-name="Rectangle 16804" width="157.363" height="67.378" fill="none"/>
    </clipPath>
    <clipPath id="clip-path-20">
      <rect id="Rectangle_16805" data-name="Rectangle 16805" width="156.544" height="66.948" fill="none"/>
    </clipPath>
    <clipPath id="clip-path-21">
      <rect id="Rectangle_16806" data-name="Rectangle 16806" width="155.728" height="66.529" fill="none"/>
    </clipPath>
    <clipPath id="clip-path-22">
      <rect id="Rectangle_16807" data-name="Rectangle 16807" width="154.915" height="66.118" fill="none"/>
    </clipPath>
    <clipPath id="clip-path-23">
      <rect id="Rectangle_16808" data-name="Rectangle 16808" width="154.105" height="65.714" fill="none"/>
    </clipPath>
    <clipPath id="clip-path-24">
      <rect id="Rectangle_16809" data-name="Rectangle 16809" width="153.298" height="65.318" fill="none"/>
    </clipPath>
    <clipPath id="clip-path-25">
      <rect id="Rectangle_16810" data-name="Rectangle 16810" width="152.494" height="64.928" fill="none"/>
    </clipPath>
    <clipPath id="clip-path-26">
      <rect id="Rectangle_16811" data-name="Rectangle 16811" width="151.693" height="64.545" fill="none"/>
    </clipPath>
    <clipPath id="clip-path-27">
      <rect id="Rectangle_16812" data-name="Rectangle 16812" width="150.897" height="64.169" fill="none"/>
    </clipPath>
    <clipPath id="clip-path-28">
      <rect id="Rectangle_16813" data-name="Rectangle 16813" width="150.104" height="63.798" fill="none"/>
    </clipPath>
    <clipPath id="clip-path-29">
      <rect id="Rectangle_16814" data-name="Rectangle 16814" width="149.315" height="63.433" fill="none"/>
    </clipPath>
    <clipPath id="clip-path-30">
      <rect id="Rectangle_16815" data-name="Rectangle 16815" width="148.532" height="63.074" fill="none"/>
    </clipPath>
    <clipPath id="clip-path-31">
      <rect id="Rectangle_16816" data-name="Rectangle 16816" width="147.754" height="62.719" fill="none"/>
    </clipPath>
    <clipPath id="clip-path-32">
      <rect id="Rectangle_16817" data-name="Rectangle 16817" width="147.097" height="62.37" fill="none"/>
    </clipPath>
    <clipPath id="clip-path-33">
      <rect id="Rectangle_16818" data-name="Rectangle 16818" width="146.621" height="62.025" fill="none"/>
    </clipPath>
    <clipPath id="clip-path-34">
      <rect id="Rectangle_16819" data-name="Rectangle 16819" width="146.541" height="61.684" fill="none"/>
    </clipPath>
    <clipPath id="clip-path-35">
      <rect id="Rectangle_16820" data-name="Rectangle 16820" width="146.803" height="61.348" fill="none"/>
    </clipPath>
    <clipPath id="clip-path-36">
      <path id="Path_100308" data-name="Path 100308" d="M3.5,38.944l-.62.465-.8.707-.672.742-.542.771-.411.788-.282.806-.151.813L0,44.852V58.067l.109.816.238.806.368.8.5.777.629.753.758.722.889.689.994.633L63.837,98.328l1.087.569.8.359,1.225.46,1.289.386,1.332.313,1.368.237,1.393.164,1.41.088,1.414.012,1.412-.063,1.4-.138,1.376-.212,1.346-.288,1.3-.363,1.254-.438,1.191-.513,1.095-.574L144.89,64.06l.986-.628.62-.465.8-.706.672-.743.542-.771.411-.788.28-.8.152-.813.021-.817V44.309l-.108-.814-.239-.808-.37-.8-.5-.778-.629-.752-.759-.723-.886-.688-.995-.633L4.817,38.164Z" transform="translate(0 -38.164)" fill="none"/>
    </clipPath>
    <linearGradient id="linear-gradient" y1="1.013" x2="0.006" y2="1.013" gradientUnits="objectBoundingBox">
      <stop offset="0" stop-color="#eff1fe"/>
      <stop offset="0.457" stop-color="#e5e8fb"/>
      <stop offset="0.5" stop-color="#e4e7fb"/>
      <stop offset="0.952" stop-color="#d4d8f6"/>
      <stop offset="1" stop-color="#d2d7f6"/>
    </linearGradient>
    <linearGradient id="linear-gradient-2" x1="0.25" x2="0.624" y2="0.891" gradientUnits="objectBoundingBox">
      <stop offset="0" stop-color="#53c0b0"/>
      <stop offset="0.488" stop-color="#018acb"/>
      <stop offset="1" stop-color="#fd5dc8"/>
    </linearGradient>
  </defs>
  <g id="Group_61706" data-name="Group 61706" transform="translate(-1425 -2327.683)">
    <g id="Group_61579" data-name="Group 61579" transform="translate(1425 2327.683)">
      <g id="Group_61676" data-name="Group 61676" clip-path="url(#clip-path)">
        <g id="Group_61673" data-name="Group 61673">
          <g id="Group_61672" data-name="Group 61672" clip-path="url(#clip-path)">
            <g id="Group_61671" data-name="Group 61671" transform="translate(0.777 25.608)" opacity="0.75" style="mix-blend-mode: multiply;isolation: isolate">
              <g id="Group_61670" data-name="Group 61670">
                <g id="Group_61669" data-name="Group 61669" clip-path="url(#clip-path-3)">
                  <g id="Group_61575" data-name="Group 61575" transform="translate(5.951)" opacity="0">
                    <g id="Group_61574" data-name="Group 61574">
                      <g id="Group_61573" data-name="Group 61573" clip-path="url(#clip-path-4)">
                        <path id="Path_100275" data-name="Path 100275" d="M138.578,29.354C184.3,39.273,176.41,54.5,176.41,54.5l-1.4,2.679-1.664,1.646L101.086,100.2l-4.567.979-3.189.227-3.2-.114-4.643-.808-7.7-1.456L13.968,59.613,12.841,58.9l-1.007-.779-.86-.821-.712-.854-.567-.88-.416-.9-.272-.915-.122-.925S.467,38.065,18.595,30.732s109.471-3.658,119.984-1.378" transform="translate(-6.933 -26.388)" fill="#fff"/>
                      </g>
                    </g>
                  </g>
                  <g id="Group_61578" data-name="Group 61578" transform="translate(5.791 0.574)" opacity="0.032">
                    <g id="Group_61577" data-name="Group 61577">
                      <g id="Group_61576" data-name="Group 61576" clip-path="url(#clip-path-5)">
                        <path id="Path_100276" data-name="Path 100276" d="M18.226,31.153c.2-.082.423-.186.642-.265s.465-.181.7-.256.509-.176.767-.249.555-.171.833-.242c.187-.049.4-.112.594-.159,17.461-4.217,69.366-3.219,97.551-1.648A165.156,165.156,0,0,1,138.87,30.3c2.094.455,4.071.947,5.939,1.422,2.126.541,4.1,1.121,5.956,1.683,2.18.662,4.166,1.362,5.991,2.045,2.284.854,4.29,1.744,6.074,2.611a41.8,41.8,0,0,1,6.027,3.546,20.328,20.328,0,0,1,5.261,5.205c2.378,3.572,1.813,6.44,1.458,7.523a3.32,3.32,0,0,1-.187.474l-1.365,2.6-1.619,1.6-1.155.664L103.1,98.726l-1.242.709-1.345.765-1.521.332-1.575.341-1.45.311-1.669.122-1.506.109-1.725-.057-1.459-.05-.157-.027L87.79,101l-1.605-.278-1.2-.209-.428-.081-1.642-.312-1.577-.3-1.534-.3-1.07-.209-1.4-.277L13.72,59.8,12.6,59.088l-1-.77-.348-.33-.5-.478-.706-.839L9.476,55.8l-.21-.444-.21-.444-.275-.9-.13-.912s-.071-.123-.179-.34c-.12-.243-.306-.638-.5-1.11-.128-.319-.271-.711-.4-1.119-.11-.336-.22-.725-.32-1.112-1.094-4.248-1.03-11.762,7.78-16.677.327-.182.667-.388,1.018-.564.331-.166.677-.354,1.031-.514s.753-.352,1.144-.51" transform="translate(-6.768 -26.98)" fill="#fdfdfe"/>
                      </g>
                    </g>
                  </g>
                  <g id="Group_61581" data-name="Group 61581" transform="translate(5.629 1.138)" opacity="0.065">
                    <g id="Group_61580" data-name="Group 61580">
                      <g id="Group_61579-2" data-name="Group 61579" clip-path="url(#clip-path-6)">
                        <path id="Path_100277" data-name="Path 100277" d="M17.856,31.574c.194-.079.423-.207.635-.282s.468-.2.7-.273.515-.2.765-.267.563-.188.831-.257c.181-.047.406-.123.595-.169,16.879-4.077,70.382-2.864,98.187-1.295a148.6,148.6,0,0,1,19.6,2.217c2.024.44,3.935.942,5.74,1.4,2.055.523,3.963,1.11,5.753,1.654,2.107.64,4.018,1.344,5.782,2,2.209.825,4.134,1.712,5.857,2.55a40.15,40.15,0,0,1,5.809,3.454,19.532,19.532,0,0,1,5.063,5.057c2.3,3.453,1.725,6.249,1.383,7.3a3.189,3.189,0,0,1-.182.458l-1.331,2.524L171.462,59.2l-1.15.662-67.8,38.878-1.238.706-1.339.756-1.512.335-1.566.342-1.446.31-1.659.126-1.5.11-1.715-.054-1.453-.049-.157-.025-1.65-.278-1.6-.273-1.192-.208-.427-.081-1.632-.312-1.567-.3-1.524-.3-1.062-.214-1.391-.285L13.473,59.986l-1.118-.707-.99-.76-.345-.324-.5-.473-.7-.825-.563-.855L9.045,55.6l-.21-.439-.279-.887-.137-.9s-.075-.128-.179-.337c-.116-.234-.308-.642-.491-1.1-.123-.309-.271-.715-.4-1.108-.106-.325-.217-.729-.313-1.1-1.057-4.1-.8-11.789,7.716-16.54.315-.177.645-.4.985-.573.319-.16.66-.37,1-.524s.738-.367,1.115-.52" transform="translate(-6.601 -27.561)" fill="#fafbfe"/>
                      </g>
                    </g>
                  </g>
                  <g id="Group_61584" data-name="Group 61584" transform="translate(5.463 1.691)" opacity="0.097">
                    <g id="Group_61583" data-name="Group 61583">
                      <g id="Group_61582" data-name="Group 61582" clip-path="url(#clip-path-7)">
                        <path id="Path_100278" data-name="Path 100278" d="M17.487,31.993c.187-.076.422-.226.627-.3s.471-.219.692-.29.52-.213.761-.282.571-.207.83-.274c.175-.045.413-.135.6-.179,16.3-3.936,71.4-2.508,98.821-.942a134.289,134.289,0,0,1,19.64,2.469c1.953.424,3.8.937,5.541,1.381,1.985.506,3.822,1.1,5.549,1.624,2.034.618,3.869,1.326,5.573,1.962,2.132.8,3.976,1.681,5.641,2.49a38.4,38.4,0,0,1,5.59,3.361,18.775,18.775,0,0,1,4.866,4.908,8.041,8.041,0,0,1,1.307,7.069,3.111,3.111,0,0,1-.178.443l-1.3,2.445-1.526,1.5-1.144.662-67.449,38.7-1.232.7-1.334.747-1.5.34-1.558.342-1.442.309-1.65.129-1.5.111-1.7-.049-1.446-.049L88.4,101.3l-1.641-.271-1.591-.27-1.185-.207-.425-.08-1.622-.312-1.558-.308-1.513-.309-1.053-.218-1.38-.3L13.226,60.171l-1.114-.7-.98-.749-.344-.319-.493-.465-.7-.811-.56-.842-.213-.432-.21-.433-.283-.873-.145-.886s-.077-.132-.177-.334c-.113-.226-.31-.647-.487-1.089-.119-.3-.27-.718-.394-1.1-.1-.313-.213-.731-.307-1.093-1.02-3.964-.57-11.817,7.653-16.4.3-.17.623-.416.952-.581.309-.154.642-.384.972-.533s.721-.383,1.086-.531" transform="translate(-6.431 -28.131)" fill="#f8f9fd"/>
                      </g>
                    </g>
                  </g>
                  <g id="Group_61587" data-name="Group 61587" transform="translate(5.295 2.214)" opacity="0.129">
                    <g id="Group_61586" data-name="Group 61586">
                      <g id="Group_61585" data-name="Group 61585" clip-path="url(#clip-path-8)">
                        <path id="Path_100279" data-name="Path 100279" d="M17.118,32.413c.181-.073.422-.246.619-.317s.473-.239.686-.308.526-.232.758-.3.579-.224.829-.288c.169-.044.421-.147.6-.189,15.714-3.8,72.418-2.209,99.457-.589a118.776,118.776,0,0,1,19.682,2.719c1.885.409,3.661.934,5.343,1.361,1.913.487,3.679,1.09,5.344,1.6,1.962.6,3.722,1.306,5.365,1.92,2.055.768,3.82,1.649,5.425,2.429a36.656,36.656,0,0,1,5.371,3.268,18,18,0,0,1,4.668,4.759,7.758,7.758,0,0,1,1.231,6.842,2.836,2.836,0,0,1-.173.429l-1.263,2.368-1.48,1.456-1.138.66-67.1,38.528-1.228.7-1.329.739-1.493.343-1.548.343-1.44.309-1.64.131-1.494.112-1.694-.046-1.439-.047-.157-.024-1.633-.264-1.584-.266-1.177-.2-.424-.08-1.612-.312L79.9,99.875l-1.5-.313-1.043-.224-1.37-.306-63-38.676-1.11-.7-.971-.739-.341-.313-.488-.459-.69-.8-.558-.83-.214-.424L8.4,55.666l-.287-.859-.151-.873s-.08-.136-.177-.331c-.109-.218-.312-.653-.482-1.079-.115-.286-.269-.721-.388-1.087-.1-.3-.21-.735-.3-1.083A14.841,14.841,0,0,1,14.2,34.086c.294-.164.6-.431.919-.589.3-.149.624-.4.942-.543s.706-.4,1.058-.541" transform="translate(-6.257 -28.67)" fill="#f6f7fc"/>
                      </g>
                    </g>
                  </g>
                  <g id="Group_61590" data-name="Group 61590" transform="translate(5.125 2.743)" opacity="0.161">
                    <g id="Group_61589" data-name="Group 61589">
                      <g id="Group_61588" data-name="Group 61588" clip-path="url(#clip-path-9)">
                        <path id="Path_100280" data-name="Path 100280" d="M16.749,32.833c.174-.07.422-.267.611-.335s.476-.259.681-.324.532-.252.755-.315.586-.243.827-.3c.163-.042.428-.158.6-.2,15.132-3.655,73.435-1.862,100.092-.236a107.667,107.667,0,0,1,19.725,2.969c1.815.394,3.526.93,5.144,1.341,1.843.469,3.537,1.08,5.141,1.567,1.889.574,3.573,1.288,5.155,1.879,1.98.74,3.663,1.617,5.209,2.369a34.863,34.863,0,0,1,5.151,3.175,17.2,17.2,0,0,1,4.471,4.611,7.478,7.478,0,0,1,1.157,6.613,2.7,2.7,0,0,1-.168.414l-1.23,2.289-1.433,1.409-1.133.659L100.757,98.767l-1.223.692-1.325.731-1.486.345-1.538.344-1.436.308-1.63.135-1.492.113-1.684-.042-1.432-.046-.156-.023-1.625-.258-1.577-.261-1.17-.2-.422-.079-1.6-.312L79.42,99.9l-1.493-.318-1.034-.229-1.36-.315L12.731,60.54l-1.105-.695-.962-.729-.338-.309-.484-.451-.683-.783L8.6,56.757l-.215-.417-.212-.422-.292-.844-.157-.861s-.083-.141-.177-.328c-.1-.21-.313-.658-.478-1.068-.111-.277-.267-.724-.382-1.077-.1-.29-.206-.738-.292-1.072a15.085,15.085,0,0,1,7.525-16.132c.283-.158.58-.445.885-.6.287-.144.607-.415.914-.553s.69-.413,1.029-.55" transform="translate(-6.081 -29.215)" fill="#f3f5fc"/>
                      </g>
                    </g>
                  </g>
                  <g id="Group_61593" data-name="Group 61593" transform="translate(4.951 3.262)" opacity="0.194">
                    <g id="Group_61592" data-name="Group 61592">
                      <g id="Group_61591" data-name="Group 61591" clip-path="url(#clip-path-10)">
                        <path id="Path_100281" data-name="Path 100281" d="M16.379,33.252c.167-.068.421-.286.6-.352s.478-.279.675-.342.538-.271.752-.332.595-.26.826-.319c.156-.041.436-.171.6-.21,14.55-3.515,74.452-1.516,100.727.117a97.935,97.935,0,0,1,19.767,3.219c1.746.378,3.39.925,4.946,1.321,1.771.451,3.4,1.069,4.938,1.538,1.817.551,3.425,1.269,4.946,1.838a54.338,54.338,0,0,1,4.993,2.308,33.147,33.147,0,0,1,4.932,3.083,16.432,16.432,0,0,1,4.273,4.462,7.2,7.2,0,0,1,1.082,6.386,2.62,2.62,0,0,1-.163.4l-1.2,2.212-1.388,1.361-1.128.658L100.17,98.777l-1.218.687-1.319.722-1.477.35-1.529.344-1.432.307-1.621.138-1.488.114-1.674-.038-1.425-.044-.157-.022-1.617-.251-1.57-.258-1.164-.2-.42-.078-1.591-.312-1.528-.317-1.483-.324-1.026-.234-1.349-.325-62.6-38.307-1.1-.691-.953-.718-.335-.3-.478-.444L8.937,57.8l-.555-.8-.216-.41-.213-.416-.3-.83-.165-.848s-.085-.145-.175-.325c-.1-.2-.316-.663-.475-1.058-.107-.266-.266-.728-.377-1.067-.092-.279-.2-.74-.286-1.064a15.357,15.357,0,0,1,7.462-16c.273-.151.559-.459.852-.607.276-.138.59-.43.884-.563s.674-.428,1-.56" transform="translate(-5.902 -29.75)" fill="#f1f3fb"/>
                      </g>
                    </g>
                  </g>
                  <g id="Group_61596" data-name="Group 61596" transform="translate(4.774 3.77)" opacity="0.226">
                    <g id="Group_61595" data-name="Group 61595">
                      <g id="Group_61594" data-name="Group 61594" clip-path="url(#clip-path-11)">
                        <path id="Path_100282" data-name="Path 100282" d="M16.009,33.67c.16-.065.421-.307.6-.369s.48-.3.671-.36.542-.289.748-.348.6-.278.825-.335c.15-.039.443-.181.6-.219,13.968-3.373,75.468-1.167,101.362.47a89.487,89.487,0,0,1,19.81,3.47c1.675.363,3.252.922,4.746,1.3,1.7.433,3.254,1.06,4.735,1.51,1.744.529,3.276,1.25,4.737,1.8a51.413,51.413,0,0,1,4.776,2.248,31.407,31.407,0,0,1,4.713,2.991,15.651,15.651,0,0,1,4.075,4.313A6.924,6.924,0,0,1,169.41,56.3a2.457,2.457,0,0,1-.157.383l-1.162,2.133-1.341,1.314-1.122.656-66.043,38-1.213.682-1.313.714-1.468.353-1.521.345-1.428.306-1.611.141-1.485.114-1.662-.033-1.419-.042-.157-.022L84.7,101.1l-1.562-.254-1.156-.2-.419-.078-1.581-.312-1.52-.32L76.988,99.6l-1.017-.239-1.338-.335-62.4-38.122-1.1-.686-.944-.708-.333-.3-.474-.438-.673-.755-.553-.791-.217-.4-.213-.41-.3-.817-.172-.835s-.088-.149-.175-.322c-.1-.194-.318-.668-.47-1.047-.1-.254-.265-.731-.372-1.056-.087-.269-.2-.744-.279-1.054-.874-3.4.35-11.928,7.4-15.86.262-.145.538-.474.819-.614.265-.133.573-.445.855-.574s.659-.443.971-.57" transform="translate(-5.72 -30.273)" fill="#eff1fa"/>
                      </g>
                    </g>
                  </g>
                  <g id="Group_61599" data-name="Group 61599" transform="translate(4.595 4.267)" opacity="0.258">
                    <g id="Group_61598" data-name="Group 61598">
                      <g id="Group_61597" data-name="Group 61597" clip-path="url(#clip-path-12)">
                        <path id="Path_100283" data-name="Path 100283" d="M15.64,34.089c.153-.062.42-.327.588-.387s.483-.317.666-.376.547-.309.744-.365.611-.3.824-.351c.144-.037.45-.193.6-.23,13.387-3.232,76.486-.817,102,.824a82.022,82.022,0,0,1,19.852,3.721c1.605.348,3.116.916,4.548,1.28,1.63.415,3.111,1.049,4.531,1.48,1.671.508,3.128,1.232,4.527,1.755a48.551,48.551,0,0,1,4.561,2.186,29.746,29.746,0,0,1,4.494,2.9,14.893,14.893,0,0,1,3.877,4.165,6.648,6.648,0,0,1,.932,5.932,2.258,2.258,0,0,1-.152.37L167.1,59.047l-1.3,1.265-1.116.656L99,98.8l-1.208.677-1.309.706-1.459.356-1.512.345-1.425.306-1.6.144-1.481.115-1.653-.03-1.412-.041-.157-.021-1.6-.238-1.556-.25-1.149-.2-.417-.078-1.571-.312-1.509-.322-1.462-.335-1.007-.245-1.329-.344L11.989,61.092,10.9,60.41l-.935-.7-.33-.293-.468-.43-.668-.74-.551-.779-.219-.4-.213-.406-.3-.8-.179-.823s-.092-.152-.175-.318c-.092-.185-.32-.673-.466-1.036-.1-.245-.264-.734-.366-1.046-.083-.257-.194-.746-.271-1.043-.838-3.256.58-11.955,7.334-15.724.25-.14.516-.488.786-.623.253-.127.554-.461.826-.583s.642-.458.942-.579" transform="translate(-5.535 -30.786)" fill="#eceffa"/>
                      </g>
                    </g>
                  </g>
                  <g id="Group_61602" data-name="Group 61602" transform="translate(4.412 4.755)" opacity="0.29">
                    <g id="Group_61601" data-name="Group 61601">
                      <g id="Group_61600" data-name="Group 61600" clip-path="url(#clip-path-13)">
                        <path id="Path_100284" data-name="Path 100284" d="M15.271,34.508c.147-.059.42-.347.58-.4s.486-.338.66-.393.553-.327.742-.381.619-.313.822-.366c.138-.036.458-.206.6-.241,12.8-3.093,77.5-.466,102.633,1.177a75.553,75.553,0,0,1,19.895,3.97c1.536.334,2.98.912,4.349,1.261,1.559.4,2.97,1.038,4.327,1.451,1.6.486,2.98,1.214,4.319,1.715a45.551,45.551,0,0,1,4.344,2.125,28.036,28.036,0,0,1,4.276,2.806,14.135,14.135,0,0,1,3.679,4.016,6.371,6.371,0,0,1,.857,5.705,2.135,2.135,0,0,1-.148.355l-1.094,1.977-1.25,1.219-1.11.654L98.414,98.8l-1.2.673-1.3.7-1.45.361-1.5.345-1.423.3-1.591.147-1.478.116-1.642-.025-1.405-.041-.157-.019-1.591-.232-1.549-.246-1.141-.2-.416-.077L79,100.3l-1.5-.325-1.452-.341-1-.248-1.318-.354L11.741,61.276,10.653,60.6l-.927-.687L9.4,59.623,8.937,59.2l-.661-.726-.55-.767-.22-.39-.214-.4-.308-.788L6.8,55.32S6.7,55.163,6.624,55c-.089-.178-.322-.679-.462-1.026-.094-.234-.263-.738-.36-1.035-.081-.246-.191-.75-.264-1.034-.8-3.115.809-11.983,7.269-15.588.24-.133.495-.5.753-.631.243-.122.537-.476.8-.594s.628-.474.914-.589" transform="translate(-5.348 -31.288)" fill="#eaedf9"/>
                      </g>
                    </g>
                  </g>
                  <g id="Group_61605" data-name="Group 61605" transform="translate(4.228 5.231)" opacity="0.323">
                    <g id="Group_61604" data-name="Group 61604">
                      <g id="Group_61603" data-name="Group 61603" clip-path="url(#clip-path-14)">
                        <path id="Path_100285" data-name="Path 100285" d="M14.9,34.926c.141-.057.419-.367.573-.422s.488-.357.655-.41.558-.345.738-.4.627-.331.821-.381c.132-.034.465-.217.6-.25,12.223-2.952,78.519-.115,103.268,1.529,12.017.8,18.223,3.85,19.938,4.221,1.465.318,2.843.908,4.151,1.24,1.489.378,2.828,1.029,4.123,1.422,1.526.464,2.832,1.2,4.11,1.673a42.857,42.857,0,0,1,4.128,2.065,26.5,26.5,0,0,1,4.056,2.712,13.385,13.385,0,0,1,3.481,3.867,6.1,6.1,0,0,1,.781,5.478,1.917,1.917,0,0,1-.143.341l-1.059,1.9-1.2,1.172-1.105.653L97.827,98.813l-1.2.669-1.3.689-1.441.364-1.493.346-1.419.3-1.582.15-1.474.116-1.631-.021-1.4-.039-.157-.018-1.583-.225L81.61,100.9l-1.134-.2-.415-.077-1.549-.312L77.02,99.99l-1.441-.345-.99-.254-1.307-.364L11.493,61.46l-1.084-.673-.917-.677-.324-.282L8.71,59.41,8.054,58.7l-.547-.754-.222-.382-.215-.394-.312-.773-.193-.8s-.1-.161-.173-.312c-.084-.17-.324-.684-.457-1.015-.09-.224-.262-.74-.355-1.026-.077-.235-.187-.752-.257-1.024-.765-2.972,1.04-12.01,7.206-15.451.229-.127.474-.516.719-.64s.52-.491.768-.6.611-.489.885-.6" transform="translate(-5.157 -31.779)" fill="#e8ebf9"/>
                      </g>
                    </g>
                  </g>
                  <g id="Group_61608" data-name="Group 61608" transform="translate(4.04 5.698)" opacity="0.355">
                    <g id="Group_61607" data-name="Group 61607">
                      <g id="Group_61606" data-name="Group 61606" clip-path="url(#clip-path-15)">
                        <path id="Path_100286" data-name="Path 100286" d="M14.53,35.344c.134-.054.419-.388.565-.441s.491-.377.649-.426.564-.365.736-.414.636-.35.821-.4c.124-.034.472-.231.6-.262,11.64-2.81,79.536.24,103.9,1.884,12.242.825,18.347,4.117,19.98,4.471,1.4.3,2.707.9,3.953,1.22,1.417.362,2.685,1.018,3.92,1.395,1.453.44,2.683,1.176,3.9,1.63a40.179,40.179,0,0,1,3.912,2,24.894,24.894,0,0,1,3.838,2.62,12.639,12.639,0,0,1,3.283,3.719,5.821,5.821,0,0,1,.706,5.25,1.841,1.841,0,0,1-.138.326l-1.026,1.821-1.157,1.125-1.1.651-64.636,37.3-1.194.664-1.293.68-1.432.368-1.485.346-1.415.3-1.572.151-1.47.118-1.621-.017-1.392-.038-.158-.018-1.575-.219-1.534-.238-1.127-.2-.414-.077-1.539-.312-1.481-.331-1.43-.351-.982-.258-1.3-.374L11.246,61.642l-1.08-.67-.908-.667-.321-.277-.453-.41-.65-.7-.545-.741L7.064,57.8l-.216-.388-.315-.761-.2-.784s-.1-.164-.173-.31c-.081-.161-.326-.688-.453-1.005-.085-.212-.26-.742-.348-1.014-.074-.223-.184-.756-.25-1.014-.729-2.831,1.27-12.037,7.143-15.313.217-.122.451-.533.685-.649s.5-.508.738-.613.6-.5.857-.608" transform="translate(-4.964 -32.26)" fill="#e5e9f8"/>
                      </g>
                    </g>
                  </g>
                  <g id="Group_61611" data-name="Group 61611" transform="translate(3.851 6.155)" opacity="0.387">
                    <g id="Group_61610" data-name="Group 61610">
                      <g id="Group_61609" data-name="Group 61609" clip-path="url(#clip-path-16)">
                        <path id="Path_100287" data-name="Path 100287" d="M14.161,35.761c.127-.051.419-.408.557-.457s.494-.4.644-.444.569-.384.732-.431.643-.367.82-.412c.118-.031.479-.241.6-.271,11.058-2.671,80.552.593,104.538,2.236,12.468.854,18.471,4.385,20.023,4.722,1.327.287,2.571.9,3.754,1.2,1.347.343,2.544,1.008,3.717,1.364,1.38.419,2.535,1.158,3.692,1.59a37.428,37.428,0,0,1,3.7,1.944,23.159,23.159,0,0,1,3.619,2.528,11.9,11.9,0,0,1,3.085,3.569,5.557,5.557,0,0,1,.632,5.024,1.7,1.7,0,0,1-.133.31l-.992,1.743-1.111,1.077-1.093.65L96.656,98.829l-1.188.66-1.289.672-1.423.371-1.476.348-1.411.3-1.562.155-1.467.119-1.61-.014-1.385-.036-.158-.017-1.566-.213-1.527-.235-1.12-.2-.412-.075-1.528-.312-1.472-.335-1.42-.356-.973-.264-1.286-.383L11,61.823,9.922,61.16l-.9-.657L8.7,60.231l-.447-.4-.645-.684-.543-.728-.224-.37-.217-.382-.32-.745L6.1,56.147s-.1-.17-.171-.307c-.077-.153-.329-.695-.449-.995-.082-.2-.259-.746-.344-1-.07-.213-.18-.758-.243-1-.693-2.69,1.5-12.065,7.079-15.178.207-.115.43-.546.652-.657s.484-.522.708-.623.58-.519.828-.619" transform="translate(-4.769 -32.731)" fill="#e3e7f7"/>
                      </g>
                    </g>
                  </g>
                  <g id="Group_61614" data-name="Group 61614" transform="translate(3.659 6.602)" opacity="0.419">
                    <g id="Group_61613" data-name="Group 61613" transform="translate(0)">
                      <g id="Group_61612" data-name="Group 61612" clip-path="url(#clip-path-17)">
                        <path id="Path_100288" data-name="Path 100288" d="M13.791,36.178c.12-.049.418-.427.549-.475s.5-.416.639-.461.575-.4.73-.447.651-.385.818-.429c.112-.029.486-.252.6-.28,10.477-2.531,81.569.947,105.174,2.588,12.693.883,18.594,4.654,20.066,4.972,1.256.273,2.434.895,3.555,1.18,1.275.325,2.4,1,3.512,1.335,1.308.4,2.387,1.139,3.483,1.549a34.525,34.525,0,0,1,3.479,1.882,21.657,21.657,0,0,1,3.4,2.436,11.16,11.16,0,0,1,2.887,3.421,5.286,5.286,0,0,1,.557,4.8,1.586,1.586,0,0,1-.128.3l-.958,1.665-1.065,1.03L160,61.885,96.07,98.836l-1.183.656-1.283.664-1.414.375-1.467.348-1.407.3-1.553.159-1.463.119-1.6-.009-1.378-.035-.157-.017-1.558-.206-1.521-.232-1.113-.193-.41-.075-1.519-.312-1.461-.337-1.41-.362-.964-.269-1.276-.393L10.75,62.006l-1.071-.66-.89-.646-.316-.267-.443-.4-.639-.67-.542-.715-.226-.362-.217-.377-.324-.731-.213-.759s-.107-.174-.171-.3c-.073-.146-.331-.7-.444-.984-.077-.191-.258-.75-.339-.994-.065-.2-.176-.762-.236-.994-.656-2.548,1.73-12.093,7.016-15.043.2-.11.409-.56.619-.666s.467-.537.679-.633.564-.534.8-.629" transform="translate(-4.571 -33.192)" fill="#e1e4f7"/>
                      </g>
                    </g>
                  </g>
                  <g id="Group_61617" data-name="Group 61617" transform="translate(3.466 7.04)" opacity="0.452">
                    <g id="Group_61616" data-name="Group 61616" transform="translate(0)">
                      <g id="Group_61615" data-name="Group 61615" clip-path="url(#clip-path-18)">
                        <path id="Path_100289" data-name="Path 100289" d="M13.42,36.6c.114-.046.418-.447.542-.492s.5-.436.633-.478.58-.422.726-.464.66-.4.817-.443c.106-.027.494-.265.6-.291,9.894-2.39,82.585,1.3,105.808,2.941,12.919.911,18.72,4.922,20.108,5.223,1.187.258,2.3.891,3.356,1.16,1.205.307,2.261.988,3.309,1.306,1.235.376,2.239,1.121,3.273,1.507a32.273,32.273,0,0,1,3.264,1.821,20.026,20.026,0,0,1,3.18,2.344A10.45,10.45,0,0,1,161.732,54a5.02,5.02,0,0,1,.48,4.569,1.408,1.408,0,0,1-.122.28l-.924,1.587-1.019.982-1.082.648L95.483,98.843l-1.178.651-1.278.655-1.405.378-1.458.349-1.405.3-1.542.162-1.46.121-1.59-.006-1.371-.033-.157-.016-1.551-.2-1.513-.227-1.105-.192-.41-.075-1.508-.312-1.453-.34-1.4-.368-.955-.274-1.265-.4L10.5,62.188l-1.067-.656-.88-.636-.314-.261L7.8,60.246l-.633-.656-.541-.7L6.4,58.533l-.218-.372-.328-.716-.22-.746s-.11-.178-.171-.3-.333-.706-.441-.973c-.072-.181-.256-.753-.332-.984-.062-.19-.173-.765-.229-.984-.62-2.407,1.96-12.121,6.952-14.906.185-.1.386-.574.586-.674s.449-.552.649-.642.549-.549.771-.639" transform="translate(-4.372 -33.643)" fill="#dee2f6"/>
                      </g>
                    </g>
                  </g>
                  <g id="Group_61620" data-name="Group 61620" transform="translate(3.27 7.469)" opacity="0.484">
                    <g id="Group_61619" data-name="Group 61619" transform="translate(0)">
                      <g id="Group_61618" data-name="Group 61618" clip-path="url(#clip-path-19)">
                        <path id="Path_100290" data-name="Path 100290" d="M13.05,37.012c.107-.044.417-.468.535-.509s.5-.455.627-.5.586-.441.723-.48.668-.42.816-.459c.1-.025.5-.277.606-.3,9.312-2.248,83.6,1.66,106.444,3.3,13.144.94,18.843,5.19,20.15,5.473,1.117.243,2.161.886,3.158,1.139,1.133.288,2.118.977,3.105,1.277,1.163.353,2.09,1.1,3.064,1.466a29.468,29.468,0,0,1,3.047,1.76,18.506,18.506,0,0,1,2.962,2.25,9.736,9.736,0,0,1,2.493,3.124,4.757,4.757,0,0,1,.406,4.342,1.272,1.272,0,0,1-.118.266l-.889,1.509-.973.935-1.076.646L94.9,98.85l-1.173.646-1.273.647-1.4.381-1.449.35-1.4.3-1.533.164-1.456.122h-1.58l-1.364-.033-.157-.015-1.542-.192L79.067,101l-1.1-.191-.408-.074-1.5-.312-1.442-.343-1.39-.373-.946-.279-1.255-.412L10.254,62.37,9.19,61.719l-.871-.626-.311-.256-.433-.382-.628-.641-.539-.69-.228-.347-.219-.367-.332-.7L5.4,56.973s-.112-.182-.169-.3-.335-.71-.437-.963c-.068-.17-.256-.757-.327-.973-.058-.18-.169-.768-.221-.974C3.664,51.5,6.437,41.616,11.136,39c.174-.1.365-.589.553-.682s.431-.568.62-.653.533-.564.741-.648" transform="translate(-4.17 -34.085)" fill="#dce0f5"/>
                      </g>
                    </g>
                  </g>
                  <g id="Group_61623" data-name="Group 61623" transform="translate(3.073 7.889)" opacity="0.516">
                    <g id="Group_61622" data-name="Group 61622">
                      <g id="Group_61621" data-name="Group 61621" clip-path="url(#clip-path-20)">
                        <path id="Path_100291" data-name="Path 100291" d="M12.68,37.427c.1-.041.417-.487.527-.527s.5-.475.622-.512.591-.46.72-.5.675-.439.814-.475c.093-.024.509-.288.607-.312C24.7,33,100.588,37.123,123.049,38.752c13.371.97,18.968,5.459,20.193,5.725,1.047.227,2.025.881,2.959,1.119,1.064.271,1.977.968,2.9,1.248,1.09.331,1.942,1.084,2.855,1.425a27.106,27.106,0,0,1,2.831,1.7,16.949,16.949,0,0,1,2.742,2.158,9.024,9.024,0,0,1,2.3,2.974,4.5,4.5,0,0,1,.331,4.115,1.172,1.172,0,0,1-.114.251l-.855,1.43-.927.887-1.071.646L94.311,98.856l-1.167.642-1.268.639-1.387.385-1.44.35-1.4.3-1.524.168-1.453.123-1.568,0-1.358-.031-.158-.014-1.533-.186-1.5-.22-1.091-.189-.407-.074-1.488-.312-1.433-.345-1.379-.378-.937-.284-1.244-.422L10.006,62.551,8.946,61.9l-.862-.615-.309-.25-.428-.376-.622-.628-.537-.677-.229-.341-.22-.361L5.4,57.967l-.235-.721s-.115-.185-.169-.294-.337-.715-.432-.952c-.064-.16-.255-.76-.321-.964-.055-.168-.165-.771-.215-.964-.546-2.124,2.42-12.177,6.825-14.634.163-.091.344-.6.519-.691s.414-.583.591-.663.518-.579.713-.658" transform="translate(-3.967 -34.518)" fill="#dadef5"/>
                      </g>
                    </g>
                  </g>
                  <g id="Group_61626" data-name="Group 61626" transform="translate(2.875 8.301)" opacity="0.548">
                    <g id="Group_61625" data-name="Group 61625" transform="translate(0)">
                      <g id="Group_61624" data-name="Group 61624" clip-path="url(#clip-path-21)">
                        <path id="Path_100292" data-name="Path 100292" d="M12.311,37.844c.093-.038.416-.508.519-.544s.506-.495.617-.53.6-.478.716-.513.683-.456.813-.49c.087-.022.516-.3.607-.322,8.148-1.968,85.634,2.377,107.714,4,13.6,1,19.091,5.726,20.235,5.975.977.212,1.888.877,2.76,1.1.992.252,1.835.957,2.7,1.219,1.017.31,1.793,1.066,2.645,1.384a24.4,24.4,0,0,1,2.615,1.639,15.464,15.464,0,0,1,2.523,2.066,8.325,8.325,0,0,1,2.1,2.826,4.237,4.237,0,0,1,.255,3.888,1.083,1.083,0,0,1-.108.236l-.821,1.353-.881.839-1.066.644L93.725,98.863l-1.164.638-1.263.63-1.379.389-1.43.352-1.394.3-1.514.171-1.449.124-1.559.006-1.351-.029-.158-.013-1.526-.181-1.492-.215-1.084-.188-.4-.074-1.478-.312-1.424-.348-1.368-.383-.928-.288-1.233-.433L9.757,62.732,8.7,62.09l-.853-.606-.306-.246-.422-.369-.616-.613-.536-.664-.23-.335L5.519,58.9l-.34-.673-.242-.708s-.118-.19-.169-.291-.339-.721-.428-.941c-.059-.149-.253-.764-.315-.953-.051-.157-.161-.773-.208-.954-.51-1.983,2.65-12.2,6.761-14.5.152-.085.322-.617.486-.7s.4-.6.562-.673.5-.594.684-.668" transform="translate(-3.763 -34.942)" fill="#d7ddf4"/>
                      </g>
                    </g>
                  </g>
                  <g id="Group_61629" data-name="Group 61629" transform="translate(2.675 8.705)" opacity="0.581">
                    <g id="Group_61628" data-name="Group 61628" transform="translate(0)">
                      <g id="Group_61627" data-name="Group 61627" clip-path="url(#clip-path-22)">
                        <path id="Path_100293" data-name="Path 100293" d="M11.94,38.26c.087-.035.416-.528.511-.562s.509-.514.611-.547.6-.5.713-.53.692-.475.812-.506c.082-.02.523-.312.608-.332,7.565-1.827,86.65,2.736,108.349,4.354,13.822,1.032,19.216,5.994,20.278,6.224.907.2,1.752.873,2.562,1.079.921.235,1.692.947,2.494,1.191.945.286,1.646,1.046,2.437,1.342.99.37,1.626,1.2,2.4,1.578,1.051.511,1.6,1.47,2.3,1.973a7.662,7.662,0,0,1,1.9,2.677,3.985,3.985,0,0,1,.18,3.66.99.99,0,0,1-.1.221l-.788,1.274-.835.793-1.059.643L93.138,98.87,91.98,99.5l-1.258.622-1.37.392-1.421.353-1.391.3-1.5.174-1.446.125-1.548.011-1.344-.028-.158-.013-1.517-.173-1.485-.213-1.077-.187-.4-.073-1.467-.312-1.414-.352-1.359-.388-.919-.294L69.678,99,9.509,62.913l-1.051-.639-.844-.595-.3-.24-.417-.362-.61-.6-.533-.651L5.517,59.5,5.3,59.151l-.345-.66L4.7,57.8s-.12-.194-.167-.288-.342-.726-.424-.931c-.055-.139-.252-.767-.31-.943-.048-.146-.158-.776-.2-.944-.475-1.84,2.879-12.231,6.7-14.361.142-.079.3-.632.453-.707s.379-.613.532-.682.486-.609.656-.678" transform="translate(-3.557 -35.358)" fill="#d5dbf3"/>
                      </g>
                    </g>
                  </g>
                  <g id="Group_61632" data-name="Group 61632" transform="translate(2.474 9.101)" opacity="0.613">
                    <g id="Group_61631" data-name="Group 61631" transform="translate(0)">
                      <g id="Group_61630" data-name="Group 61630" clip-path="url(#clip-path-23)">
                        <path id="Path_100294" data-name="Path 100294" d="M11.569,38.675c.081-.032.416-.548.5-.579s.511-.534.607-.564.607-.517.709-.546.7-.493.811-.521c.075-.019.531-.324.609-.343,6.984-1.687,87.666,3.095,108.985,4.708,14.046,1.062,19.34,6.262,20.32,6.475.837.181,1.616.869,2.363,1.059.85.216,1.551.936,2.291,1.162.872.265,1.5,1.028,2.228,1.3.913.342,1.468,1.171,2.182,1.518.969.472,1.433,1.416,2.085,1.881,1.018.724,1.272,1.884,1.7,2.528a3.737,3.737,0,0,1,.106,3.433.9.9,0,0,1-.1.207l-.754,1.2-.788.744-1.054.642-61.826,35.9L91.4,99.5l-1.253.614-1.361.4-1.412.353-1.388.3-1.493.177-1.443.126-1.537.014-1.337-.026-.158-.012-1.508-.167-1.478-.208-1.069-.186-.4-.072L74.1,100.5l-1.405-.354-1.348-.394-.91-.3L69.227,99,9.261,63.094,8.214,62.46l-.835-.584-.3-.235-.411-.354L6.061,60.7l-.531-.639-.234-.32L5.074,59.4l-.348-.646-.255-.682s-.124-.2-.167-.285-.344-.732-.419-.921c-.051-.127-.251-.77-.3-.932-.044-.135-.154-.779-.194-.935C2.949,53.3,6.5,42.738,10.02,40.771c.131-.073.279-.645.42-.716s.361-.629.5-.692.471-.625.627-.688" transform="translate(-3.35 -35.767)" fill="#d3d8f3"/>
                      </g>
                    </g>
                  </g>
                  <g id="Group_61635" data-name="Group 61635" transform="translate(2.271 9.49)" opacity="0.645">
                    <g id="Group_61634" data-name="Group 61634">
                      <g id="Group_61633" data-name="Group 61633" clip-path="url(#clip-path-24)">
                        <path id="Path_100295" data-name="Path 100295" d="M11.2,39.09c.074-.03.415-.568.5-.6s.514-.553.6-.581.612-.536.707-.563.707-.51.809-.537c.069-.017.539-.335.609-.352,6.4-1.547,88.683,3.455,109.62,5.06,14.272,1.095,19.465,6.531,20.363,6.726.768.166,1.479.865,2.164,1.038.779.2,1.409.927,2.087,1.132.8.243,1.349,1.009,2.018,1.26.837.312,1.312,1.139,1.966,1.457.89.433,1.269,1.362,1.867,1.788.933.665,1.11,1.789,1.5,2.38a3.486,3.486,0,0,1,.03,3.205.817.817,0,0,1-.092.192l-.72,1.118-.742.7-1.048.64L91.966,98.881l-1.149.624-1.247.6-1.352.4-1.4.354-1.384.3-1.484.18-1.439.126-1.526.018-1.331-.025-.158-.011-1.5-.16-1.471-.2-1.063-.184-.4-.072-1.447-.312-1.395-.357-1.338-.4-.9-.3-1.2-.461L9.013,63.274l-1.043-.63-.826-.574-.3-.23-.408-.347-.6-.572-.529-.626-.235-.313-.223-.338L4.5,59.012l-.262-.67s-.127-.2-.167-.281-.345-.738-.414-.911c-.048-.116-.25-.772-.3-.922-.04-.123-.149-.782-.186-.924-.4-1.558,3.34-12.288,6.57-14.09.12-.067.258-.66.387-.725s.344-.643.474-.7.454-.64.6-.7" transform="translate(-3.141 -36.167)" fill="#d1d6f2"/>
                      </g>
                    </g>
                  </g>
                  <g id="Group_61638" data-name="Group 61638" transform="translate(2.068 9.872)" opacity="0.677">
                    <g id="Group_61637" data-name="Group 61637">
                      <g id="Group_61636" data-name="Group 61636" clip-path="url(#clip-path-25)">
                        <path id="Path_100296" data-name="Path 100296" d="M10.828,39.505c.068-.027.416-.588.489-.614s.515-.574.595-.6.618-.554.7-.578.716-.529.809-.552c.062-.016.544-.347.609-.363,5.822-1.406,89.7,3.816,110.255,5.413,14.5,1.127,19.589,6.8,20.407,6.976.7.151,1.342.86,1.965,1.018.709.18,1.267.916,1.885,1.1.726.22,1.2.991,1.809,1.218.762.284,1.155,1.108,1.751,1.4.807.393,1.1,1.308,1.648,1.7.848.6.948,1.694,1.305,2.231.793,1.191.074,2.617-.046,2.978a.66.66,0,0,1-.087.178l-.685,1.04-.7.65-1.041.64L91.379,98.887l-1.143.619-1.241.6-1.344.4-1.394.355-1.38.3-1.475.182-1.436.128-1.515.022-1.326-.024-.157-.01-1.493-.153-1.462-.2-1.056-.183-.4-.071-1.436-.312-1.387-.36-1.328-.4-.891-.309-1.193-.472L8.763,63.454l-1.037-.626-.817-.565-.294-.223-.4-.341-.594-.558-.529-.613-.236-.306L4.63,59.89l-.356-.617L4,58.616s-.129-.207-.166-.279-.346-.742-.41-.9c-.044-.106-.248-.775-.294-.911-.037-.113-.147-.786-.179-.915C2.59,54.2,6.526,43.3,9.461,41.658c.11-.06.238-.674.355-.733s.325-.659.443-.712.44-.655.569-.707" transform="translate(-2.932 -36.561)" fill="#ced4f1"/>
                      </g>
                    </g>
                  </g>
                  <g id="Group_61641" data-name="Group 61641" transform="translate(1.864 10.247)" opacity="0.71">
                    <g id="Group_61640" data-name="Group 61640">
                      <g id="Group_61639" data-name="Group 61639" clip-path="url(#clip-path-26)">
                        <path id="Path_100297" data-name="Path 100297" d="M10.458,39.92c.06-.024.414-.608.48-.632s.519-.593.59-.615.624-.574.7-.6.724-.546.807-.568c.056-.015.553-.359.611-.373,5.238-1.265,90.715,4.177,110.891,5.766,14.722,1.159,19.713,7.067,20.448,7.226.628.137,1.206.856,1.767,1,.638.162,1.125.905,1.68,1.074.654.2,1.053.972,1.6,1.177.685.256,1,1.075,1.533,1.335.728.354.94,1.255,1.429,1.6.763.543.786,1.6,1.107,2.082.713,1.072-.013,2.427-.119,2.752a.609.609,0,0,1-.083.162l-.651.962-.65.6-1.037.639L90.792,98.892l-1.138.614-1.237.588-1.333.408-1.386.355-1.376.294-1.465.186-1.431.129-1.506.026L78.6,101.47l-.158-.009-1.484-.148-1.457-.2-1.048-.182-.4-.071-1.427-.312-1.375-.363-1.318-.41-.883-.313-1.181-.48L8.515,63.635l-1.034-.622-.808-.554-.292-.218-.4-.334L5.4,61.363l-.526-.6-.237-.3-.225-.327-.36-.6-.277-.643s-.133-.212-.165-.276-.349-.748-.407-.89c-.039-.1-.248-.779-.288-.9-.033-.1-.143-.788-.173-.9C2.411,54.644,6.54,43.576,9.182,42.1c.1-.054.215-.688.32-.741s.31-.674.415-.722.423-.67.541-.717" transform="translate(-2.722 -36.948)" fill="#ccd2f1"/>
                      </g>
                    </g>
                  </g>
                  <g id="Group_61644" data-name="Group 61644" transform="translate(1.66 10.616)" opacity="0.742">
                    <g id="Group_61643" data-name="Group 61643">
                      <g id="Group_61642" data-name="Group 61642" clip-path="url(#clip-path-27)">
                        <path id="Path_100298" data-name="Path 100298" d="M10.088,40.335c.053-.021.414-.628.473-.649s.522-.612.585-.633.629-.592.7-.612.733-.564.806-.583c.05-.013.561-.371.612-.383,4.656-1.124,91.731,4.54,111.525,6.12,14.948,1.194,19.837,7.335,20.491,7.477.559.121,1.07.852,1.568.978.568.145.984.9,1.477,1.045.581.177.9.954,1.392,1.135.609.228.842,1.044,1.318,1.275.646.314.775,1.2,1.209,1.51.679.483.625,1.5.91,1.934.635.952-.1,2.235-.194,2.524a.558.558,0,0,1-.079.148l-.617.883-.6.556-1.032.638L90.206,98.9l-1.133.61-1.232.579-1.325.41-1.376.356-1.373.294-1.456.188-1.428.13-1.5.03-1.31-.021-.158-.008-1.475-.141-1.45-.193-1.04-.181-.4-.071-1.416-.312-1.366-.366-1.306-.415-.875-.318-1.17-.491L8.268,63.815,7.238,63.2l-.8-.544-.29-.213-.391-.327-.583-.53L4.651,61,4.413,60.7l-.226-.321-.364-.589-.284-.631s-.135-.215-.164-.273-.351-.753-.4-.879c-.035-.085-.247-.782-.282-.891-.03-.089-.139-.792-.166-.895-.291-1.132,4.03-12.37,6.379-13.681.087-.049.194-.7.287-.75s.291-.689.385-.732.409-.685.512-.727" transform="translate(-2.511 -37.328)" fill="#cad0f0"/>
                      </g>
                    </g>
                  </g>
                  <g id="Group_61647" data-name="Group 61647" transform="translate(1.454 10.979)" opacity="0.774">
                    <g id="Group_61646" data-name="Group 61646">
                      <g id="Group_61645" data-name="Group 61645" clip-path="url(#clip-path-28)">
                        <path id="Path_100299" data-name="Path 100299" d="M9.718,40.749c.047-.019.413-.648.465-.667s.524-.631.579-.65.635-.611.695-.627.739-.583.8-.6c.044-.012.568-.382.613-.394,4.074-.984,92.748,4.9,112.161,6.474,15.174,1.227,19.962,7.6,20.533,7.727.488.106.934.847,1.369.959.5.125.841.884,1.273,1.016.508.154.756.935,1.182,1.094.534.2.686,1.012,1.1,1.214.566.277.61,1.147.991,1.418.594.422.463,1.409.713,1.785.554.835-.187,2.046-.271,2.3a.458.458,0,0,1-.073.133l-.584.805-.557.508-1.026.636L89.62,98.9l-1.129.606-1.227.572-1.316.413-1.367.357-1.37.293-1.445.191-1.425.132-1.486.034-1.3-.019-.158-.008-1.467-.134-1.442-.189-1.034-.18-.395-.069-1.405-.313-1.357-.369L69,99.8l-.867-.324-1.16-.5L8.02,63.994,6.994,63.38l-.79-.534-.287-.208-.386-.32L4.953,61.8l-.522-.575-.24-.285-.226-.316L3.6,60.053l-.291-.619s-.139-.218-.164-.269-.353-.759-.4-.869c-.03-.075-.246-.786-.277-.881-.025-.077-.135-.793-.158-.884-.255-.992,4.259-12.4,6.315-13.545.077-.042.172-.716.254-.758s.274-.7.356-.742.392-.7.483-.737" transform="translate(-2.299 -37.702)" fill="#c7ceef"/>
                      </g>
                    </g>
                  </g>
                  <g id="Group_61650" data-name="Group 61650" transform="translate(1.248 11.337)" opacity="0.806">
                    <g id="Group_61649" data-name="Group 61649">
                      <g id="Group_61648" data-name="Group 61648" clip-path="url(#clip-path-29)">
                        <path id="Path_100300" data-name="Path 100300" d="M9.347,41.164c.04-.016.413-.669.457-.684s.527-.652.574-.667.64-.631.691-.645.749-.6.8-.614c.038-.01.575-.394.614-.4,3.493-.843,93.763,5.266,112.8,6.826,15.4,1.263,20.086,7.871,20.575,7.978.42.09.8.842,1.171.937.425.109.7.875,1.069.988.436.132.607.916.973,1.052.456.171.528.981.885,1.154.485.236.445,1.093.771,1.325.51.363.3,1.315.515,1.637.476.714-.275,1.853-.345,2.069a.411.411,0,0,1-.067.117l-.55.728-.512.461-1.02.635L89.032,98.907l-1.123.6-1.222.563-1.307.418-1.359.357-1.366.292-1.435.2-1.422.132-1.474.038-1.3-.018-.158-.007-1.458-.127-1.436-.185-1.027-.179-.393-.069-1.394-.312-1.347-.372-1.287-.427-.857-.328-1.15-.51L7.77,64.174l-1.021-.608-.78-.524-.285-.2L5.3,62.526l-.571-.5-.521-.563-.241-.279-.227-.311-.373-.56-.3-.607s-.142-.223-.163-.266-.356-.764-.394-.858c-.025-.064-.245-.789-.271-.87s-.132-.8-.152-.875c-.218-.849,4.49-12.424,6.251-13.407.066-.037.15-.733.221-.768s.256-.72.327-.751.376-.715.454-.747" transform="translate(-2.086 -38.07)" fill="#c5ccef"/>
                      </g>
                    </g>
                  </g>
                  <g id="Group_61653" data-name="Group 61653" transform="translate(1.041 11.689)" opacity="0.839">
                    <g id="Group_61652" data-name="Group 61652">
                      <g id="Group_61651" data-name="Group 61651" clip-path="url(#clip-path-30)">
                        <path id="Path_100301" data-name="Path 100301" d="M8.977,41.578c.033-.014.413-.688.449-.7s.53-.672.57-.684.644-.649.687-.661.757-.618.8-.63.582-.407.615-.414c2.91-.7,94.779,5.628,113.431,7.178,15.623,1.3,20.209,8.14,20.618,8.228.349.076.661.838.972.918.354.09.558.865.867.959.363.111.459.9.764,1.011.38.143.372.948.669,1.093.4.2.281,1.039.553,1.232.424.3.139,1.219.317,1.488.4.595-.361,1.661-.42,1.842a.363.363,0,0,1-.063.1l-.516.65-.466.413-1.014.634L88.446,98.912l-1.118.6-1.217.555-1.3.421-1.35.358-1.362.291-1.426.2-1.418.133-1.464.043-1.291-.017-.158-.006-1.45-.121-1.428-.181L72.447,101l-.392-.069-1.385-.312-1.337-.375-1.275-.432-.848-.334-1.139-.519L7.522,64.353l-1.017-.6-.771-.513-.281-.2-.377-.307-.566-.486-.518-.55-.243-.272-.227-.3-.377-.546-.3-.593s-.144-.227-.162-.263-.358-.769-.389-.848c-.021-.052-.244-.792-.266-.86s-.128-.8-.145-.865C1.7,56.436,6.6,44.691,8.065,43.872c.055-.031.129-.746.188-.775s.239-.736.3-.762.361-.731.426-.757" transform="translate(-1.873 -38.433)" fill="#c3caee"/>
                      </g>
                    </g>
                  </g>
                  <g id="Group_61656" data-name="Group 61656" transform="translate(0.834 12.035)" opacity="0.871">
                    <g id="Group_61655" data-name="Group 61655">
                      <g id="Group_61654" data-name="Group 61654" clip-path="url(#clip-path-31)">
                        <path id="Path_100302" data-name="Path 100302" d="M8.606,41.992c.027-.011.412-.708.442-.719s.532-.691.564-.7.65-.669.685-.678.764-.636.8-.645.59-.418.616-.424c2.328-.563,95.795,5.993,114.066,7.531,15.849,1.334,20.334,8.408,20.661,8.479.279.061.524.835.773.9.283.072.415.855.662.93.291.088.312.879.555.97.3.114.215.916.453,1.032.323.157.116.985.334,1.14.34.241-.024,1.124.119,1.338.316.476-.448,1.471-.5,1.616a.28.28,0,0,1-.058.087l-.481.572-.419.366-1.009.633L87.86,98.917l-1.113.592-1.212.546-1.289.424-1.341.359-1.359.291-1.417.2-1.414.134-1.454.047-1.283-.016-.159,0-1.442-.115-1.421-.178-1.012-.176-.39-.068-1.374-.312-1.328-.377-1.265-.437-.839-.339-1.129-.53L7.274,64.533l-1.013-.6-.763-.5-.279-.192-.372-.3-.56-.473-.516-.537-.244-.265-.228-.3-.381-.532-.312-.58s-.148-.232-.162-.26-.36-.774-.385-.837c-.016-.043-.242-.795-.26-.849s-.123-.8-.137-.855c-.146-.567,4.949-12.481,6.124-13.136.043-.024.107-.761.153-.784s.221-.75.269-.771.345-.745.4-.767" transform="translate(-1.66 -38.791)" fill="#c0c8ee"/>
                      </g>
                    </g>
                  </g>
                  <g id="Group_61659" data-name="Group 61659" transform="translate(0.626 12.377)" opacity="0.903">
                    <g id="Group_61658" data-name="Group 61658">
                      <g id="Group_61657" data-name="Group 61657" clip-path="url(#clip-path-32)">
                        <path id="Path_100303" data-name="Path 100303" d="M8.236,42.407c.02-.008.412-.729.434-.737s.535-.71.559-.718.655-.687.681-.695.772-.653.8-.661.6-.429.617-.434c1.746-.422,96.808,6.386,114.7,7.885,16.071,1.4,20.458,8.676,20.7,8.729.21.046.388.83.575.877.213.054.274.844.459.9.218.066.164.861.346.929.228.085.058.885.237.971.242.118-.049.932.115,1.047.254.181-.186,1.03-.079,1.191.238.357-.535,1.279-.571,1.388a.257.257,0,0,1-.053.073l-.447.494-.374.318-1,.631L87.273,98.921l-1.108.587-1.206.538-1.28.428-1.331.36-1.356.29-1.407.2-1.411.135-1.443.05-1.276-.016-.159,0-1.433-.108-1.414-.174-1-.175-.389-.068-1.363-.312-1.319-.38-1.255-.443-.831-.344-1.118-.539L7.026,64.712l-1.009-.6-.753-.493-.277-.186-.366-.293-.555-.458-.514-.524L3.307,61.9l-.229-.293-.385-.518-.318-.568s-.15-.236-.161-.257-.362-.779-.381-.827c-.013-.032-.242-.8-.254-.839s-.12-.806-.13-.844c-.11-.425,5.179-12.509,6.06-13,.032-.018.085-.775.12-.793s.2-.766.239-.781.33-.761.369-.776" transform="translate(-1.446 -39.143)" fill="#bec6ed"/>
                      </g>
                    </g>
                  </g>
                  <g id="Group_61662" data-name="Group 61662" transform="translate(0.418 12.715)" opacity="0.935">
                    <g id="Group_61661" data-name="Group 61661">
                      <g id="Group_61660" data-name="Group 61660" clip-path="url(#clip-path-33)">
                        <path id="Path_100304" data-name="Path 100304" d="M7.866,42.82c.014-.006.41-.749.426-.754s.538-.731.552-.736.661-.706.679-.71.78-.672.8-.676.6-.442.618-.444c1.163-.281,97.823,6.743,115.336,8.238,16.3,1.428,20.583,8.943,20.746,8.979.14.03.251.825.377.857.142.036.132.835.255.871.146.045.016.842.137.888.151.056-.1.853.02.91.162.079-.213.877-.1.955.17.12-.348.934-.278,1.041.159.238-.621,1.089-.644,1.161a.237.237,0,0,1-.049.058l-.413.415-.328.272-1,.63L86.686,98.925l-1.1.582-1.2.53-1.271.432-1.322.36-1.353.289-1.4.207-1.407.136-1.432.054-1.27-.014-.159,0-1.425-.1-1.407-.17-1-.173-.387-.068-1.354-.312-1.307-.383-1.245-.447-.822-.348-1.108-.549L6.777,64.89l-1-.592-.744-.482-.275-.181-.36-.285L3.844,62.9l-.512-.511-.247-.251-.229-.287-.389-.5L2.14,60.8s-.153-.24-.16-.254-.364-.785-.377-.816-.24-.8-.248-.829-.116-.809-.123-.836c-.073-.282,5.409-12.535,6-12.863.022-.013.064-.789.088-.8s.186-.781.21-.792.312-.775.34-.786" transform="translate(-1.231 -39.491)" fill="#bcc4ec"/>
                      </g>
                    </g>
                  </g>
                  <g id="Group_61665" data-name="Group 61665" transform="translate(0.209 13.047)" opacity="0.968">
                    <g id="Group_61664" data-name="Group 61664">
                      <g id="Group_61663" data-name="Group 61663" clip-path="url(#clip-path-34)">
                        <path id="Path_100305" data-name="Path 100305" d="M7.495,43.233c.007,0,.411-.769.418-.771s.541-.75.548-.752.666-.725.674-.728.789-.689.8-.692.612-.453.619-.455c.581-.14,98.84,7.1,115.972,8.591,16.521,1.46,20.706,9.212,20.788,9.23s.115.822.177.837-.01.824.052.842-.133.824-.073.846c.077.029-.255.821-.2.85.081.04-.378.823-.323.862.084.061-.51.839-.475.893.08.119-.708.9-.721.934,0,.011-.043.044-.043.044l-.379.338-.281.223-.992.629L86.1,98.929l-1.1.578-1.2.52-1.263.436-1.313.361-1.349.289-1.387.209-1.4.137-1.422.059-1.263-.013-.158,0-1.417-.1-1.4-.167-.99-.172L70.053,101l-1.343-.312-1.3-.385-1.234-.454-.812-.353-1.1-.559L6.528,65.069l-1-.587-.735-.473-.272-.176-.355-.279-.543-.431-.511-.5-.247-.244-.23-.282-.393-.49-.333-.541-.16-.251-.373-.805c0-.011-.239-.805-.243-.819s-.114-.812-.116-.825C.979,58.225,6.655,45.8,6.949,45.64c.011-.006.043-.8.054-.809s.168-.8.18-.8.3-.791.311-.8" transform="translate(-1.016 -39.833)" fill="#b9c2ec"/>
                      </g>
                    </g>
                  </g>
                  <g id="Group_61668" data-name="Group 61668" transform="translate(0 13.376)">
                    <g id="Group_61667" data-name="Group 61667">
                      <g id="Group_61666" data-name="Group 61666" clip-path="url(#clip-path-35)">
                        <path id="Path_100306" data-name="Path 100306" d="M126.772,49.116C143.52,50.607,147.6,58.6,147.6,58.6l-.021.817-.151.814-.281.8-.412.789-.541.77-.673.744-.8.706-.619.464-.986.628-57.608,33.8-1.094.574-1.191.512-1.254.44-1.3.361-1.345.288-1.377.213-1.4.138-1.412.062-1.415-.012-1.409-.089-1.393-.162-1.367-.237-1.333-.312-1.29-.389-1.224-.459-.8-.358-1.086-.569L5.283,64.665l-.994-.633L3.4,63.344l-.758-.723-.628-.752-.5-.777L1.147,60.3.91,59.488.8,58.673,6.67,46.082l.021-.818.15-.811.282-.805.411-.789.541-.77.673-.743.8-.707.619-.466s99.857,7.455,116.606,8.944" transform="translate(-0.801 -40.172)" fill="#b7c0eb"/>
                      </g>
                    </g>
                  </g>
                </g>
              </g>
            </g>
          </g>
        </g>
        <path id="Path_100307" data-name="Path 100307" d="M2.876,40l-.8.706-.672.743-.542.771-.411.789-.281.8-.152.811L0,45.44V58.655l.109.814.239.809.368.8.5.776.629.753.759.722.888.688.994.633L63.836,98.915l1.087.57.8.357,1.225.459,1.288.388,1.332.313,1.368.238,1.393.162,1.41.088,1.414.012,1.412-.062,1.4-.138,1.376-.212,1.346-.289,1.3-.362L83.25,100l1.191-.513,1.095-.573,59.356-34.269.985-.627.62-.464.8-.707.672-.743.542-.771.412-.788.28-.8.151-.813.022-.818V44.9l-.109-.815-.239-.807-.369-.8-.5-.776-.63-.754-.759-.723-.886-.687L3.5,39.53Z" transform="translate(0 -1.169)" fill="#b7c0eb"/>
        <g id="Group_61675" data-name="Group 61675" transform="translate(0 37.035)">
          <g id="Group_61674" data-name="Group 61674" clip-path="url(#clip-path-36)">
            <rect id="Rectangle_16823" data-name="Rectangle 16823" width="149.372" height="62.752" fill="url(#linear-gradient)"/>
          </g>
        </g>
        <path id="Path_100309" data-name="Path 100309" d="M72.993.9l-1.272.126-1.253.192-1.223.262-1.184.33-1.138.4-1.084.468-1.019.535L4.707,37.061l-.926.586-.552.414-.728.648-.61.675-.493.7-.374.717-.256.732-.138.739-.019.741.1.742.215.734.336.723.453.706.571.683.689.658.807.625.926.588L64.82,83.1l1.019.536.715.317,1.121.421,1.172.352,1.21.283,1.242.216,1.266.148,1.28.079,1.287.012,1.285-.057,1.271-.124,1.252-.193,1.223-.262,1.185-.329,1.137-.4,1.084-.465,1.019-.536,60.163-34.631.925-.588.553-.412.728-.647.61-.676.493-.7.373-.717L148.69,44l.137-.739.021-.743-.1-.74-.216-.734-.336-.724-.452-.706-.571-.683-.69-.656-.808-.628-.925-.586L84.588,3.208l-1.019-.535-.716-.319-1.122-.42-1.169-.351L79.351,1.3l-1.242-.216L76.842.935,75.561.855,74.275.842Z" transform="translate(-0.018 -0.025)" fill="#fff"/>
        <path id="Path_100310" data-name="Path 100310" d="M74.3,0,73.018.056,71.744.18,70.492.373,69.27.635l-1.185.33-1.137.4-1.084.467-1.019.535L5.537,36.6l-.926.589-.551.412-.729.648-.61.675-.492.7-.374.717-.256.731-.138.739-.02.742.1.741.215.734.336.723.454.706.57.684L3.8,46.8l.807.626.926.589L64.845,82.26l1.019.533.715.319,1.121.421,1.171.352,1.211.283,1.242.215,1.266.148,1.28.081,1.287.013,1.285-.059,1.271-.124,1.252-.192,1.223-.262,1.185-.33,1.137-.4,1.084-.467,1.019-.533,59.308-34.242.926-.589.55-.412.728-.648.611-.676.492-.7.375-.718.257-.732.137-.738.019-.742-.1-.741-.217-.734-.335-.724-.452-.706-.572-.682-.69-.658-.805-.625-.926-.589L84.613,2.364l-1.019-.535-.716-.319-1.122-.421L80.587.738,79.376.453,78.134.237,76.867.089,75.586.009Z" transform="translate(-0.043 0)" fill="#fcfcff"/>
      </g>
    </g>
    <g id="noun_invoice_4299132" transform="translate(1454.667 2344.842)">
      <path id="Path_99243" data-name="Path 99243" d="M35.8,37.014l-8.453,5.041a1.728,1.728,0,0,0-.445.368.915.915,0,0,0-.2.4.6.6,0,0,0,.047.385.8.8,0,0,0,.308.323l8.17,5.1a9.74,9.74,0,0,0,3.258,1.223,15.6,15.6,0,0,0,3.929.24,18.4,18.4,0,0,0,4.1-.72,15.9,15.9,0,0,0,3.765-1.647L79.3,29.98a12.112,12.112,0,0,0,3.33-2.875,6.2,6.2,0,0,0,1.332-3.086,4.552,4.552,0,0,0-.679-2.926,7.1,7.1,0,0,0-2.7-2.409L47.547.56a1.568,1.568,0,0,0-.5-.162A2.567,2.567,0,0,0,46.46.373a3.014,3.014,0,0,0-.615.108,2.551,2.551,0,0,0-.567.235L10.965,20.375a1.723,1.723,0,0,0-.435.341.87.87,0,0,0-.206.37.527.527,0,0,0,.034.354.711.711,0,0,0,.285.3ZM77.04,28.7a15.1,15.1,0,0,1-3.588,1.557,18.186,18.186,0,0,1-3.955.693,15.918,15.918,0,0,1-3.833-.2,10.129,10.129,0,0,1-3.225-1.124q-.737-.425-1.5-.853t-1.536-.866q-.777-.437-1.574-.887T56.226,26.1l-2.389.153L38.477,35.416,14.28,20.827,46.067,2.56,78.04,20.22a5.307,5.307,0,0,1,2.018,1.817,3.416,3.416,0,0,1,.5,2.2,4.679,4.679,0,0,1-1.011,2.315,9.135,9.135,0,0,1-2.5,2.151ZM54.7,28.291,30.842,42.569l7.113,4.4a6.572,6.572,0,0,0,2.189.816,10.492,10.492,0,0,0,2.633.158,12.359,12.359,0,0,0,2.746-.482,10.689,10.689,0,0,0,2.524-1.1L70.123,32.917a23.153,23.153,0,0,1-2.937.111,20.131,20.131,0,0,1-2.759-.259,15.968,15.968,0,0,1-2.487-.613,11.624,11.624,0,0,1-2.122-.949h0q-.612-.355-1.238-.712t-1.266-.72l-1.293-.733Q55.369,28.672,54.7,28.291Zm2.526-12.84L37.137,27.3a1.65,1.65,0,0,0-.43.352.848.848,0,0,0-.193.382.557.557,0,0,0,.052.366.788.788,0,0,0,.307.306,1.568,1.568,0,0,0,.515.184,2.546,2.546,0,0,0,.62.033,3.017,3.017,0,0,0,.647-.113,2.609,2.609,0,0,0,.6-.254l20.117-11.9a1.543,1.543,0,0,0,.414-.342.774.774,0,0,0,.176-.369.532.532,0,0,0-.067-.353.813.813,0,0,0-.317-.293,1.637,1.637,0,0,0-.517-.174,2.607,2.607,0,0,0-.613-.029,3.014,3.014,0,0,0-.635.111A2.536,2.536,0,0,0,57.229,15.452Zm-5.96-3.345-20.022,11.7a1.661,1.661,0,0,0-.43.347.846.846,0,0,0-.2.376.544.544,0,0,0,.048.361.765.765,0,0,0,.3.3,1.54,1.54,0,0,0,.508.18,2.527,2.527,0,0,0,.613.032,3.017,3.017,0,0,0,.642-.112,2.623,2.623,0,0,0,.594-.251L53.376,13.289a1.553,1.553,0,0,0,.413-.337.772.772,0,0,0,.179-.364.52.52,0,0,0-.063-.348.79.79,0,0,0-.31-.288,1.609,1.609,0,0,0-.51-.171,2.589,2.589,0,0,0-.607-.028,3.015,3.015,0,0,0-.63.11A2.55,2.55,0,0,0,51.269,12.106ZM45.4,8.814,36.41,14.023a1.615,1.615,0,0,0-.42.337.806.806,0,0,0-.189.364.518.518,0,0,0,.051.349.754.754,0,0,0,.3.29,1.547,1.547,0,0,0,.5.173,2.541,2.541,0,0,0,.6.029,3.016,3.016,0,0,0,.631-.11,2.594,2.594,0,0,0,.583-.245l9.005-5.232a1.564,1.564,0,0,0,.413-.333.771.771,0,0,0,.181-.359.508.508,0,0,0-.058-.343.768.768,0,0,0-.3-.284,1.581,1.581,0,0,0-.5-.168,2.57,2.57,0,0,0-.6-.027,3.015,3.015,0,0,0-.625.109A2.563,2.563,0,0,0,45.4,8.814Z" fill="url(#linear-gradient-2)"/>
    </g>
  </g>
</svg>
