<svg version="1.2" xmlns="http://www.w3.org/2000/svg" viewBox="0 0 60 60" width="60" height="60">
	<title>noun_brand_4326167-1-svg</title>
	<style>
		.s0 { fill: #1328c9 } 
	</style>
	<path id="Path_100220" class="s0" d="m50.7 52.8q0 0.1-0.1 0.2-0.1 0-0.2 0-0.1 0-0.2 0-0.1-0.1-0.2-0.2c-1.1-4.4-2.3-5.6-6.7-6.7q-0.1-0.1-0.2-0.2 0-0.1 0-0.2 0-0.1 0-0.2 0.1-0.1 0.2-0.1c4.4-1.1 5.6-2.4 6.7-6.7q0.1-0.2 0.2-0.2 0.1-0.1 0.2-0.1 0.1 0 0.2 0.1 0.1 0 0.1 0.2c1.1 4.3 2.4 5.6 6.7 6.7q0.2 0 0.2 0.1 0.1 0.1 0.1 0.2 0 0.1-0.1 0.2 0 0.1-0.2 0.2c-4.3 1.1-5.6 2.3-6.7 6.7z"/>
	<path id="Path_100221" class="s0" d="m10 6.5q0-0.1 0.1-0.2 0.1-0.1 0.2-0.1 0.2 0 0.3 0.1 0.1 0.1 0.1 0.2c1.1 4.4 2.3 5.6 6.7 6.7q0.1 0 0.2 0.1 0.1 0.1 0.1 0.3 0 0.1-0.1 0.2-0.1 0.1-0.2 0.1c-4.4 1.1-5.6 2.4-6.7 6.7q0 0.1-0.1 0.2-0.1 0.1-0.3 0.1-0.1 0-0.2-0.1-0.1-0.1-0.1-0.2c-1.1-4.3-2.4-5.6-6.7-6.7q-0.1 0-0.2-0.1-0.1-0.1-0.1-0.2 0-0.2 0.1-0.3 0.1-0.1 0.2-0.1c4.3-1.1 5.6-2.3 6.7-6.7z"/>
	<path id="Path_100222" fill-rule="evenodd" class="s0" d="m16.9 23.9c0.8-1.8 1.9-3.4 3.2-4.8 1.4-1.3 3-2.4 4.8-3.1 1.8-0.8 3.7-1.2 5.6-1.2 5.9 0 11.3 3.6 13.5 9.1 2.3 5.5 1.1 11.8-3.1 16-4.2 4.2-10.5 5.4-16 3.2-5.5-2.3-9.1-7.7-9.1-13.6 0-1.9 0.4-3.8 1.1-5.6zm15.9 2.2l-2.3-4.8-2.3 4.8-5 0.8 3.6 3.7-0.8 5.3 4.5-2.5 4.5 2.5-0.8-5.3 3.6-3.7z"/>
	<path id="Path_100223" class="s0" d="m29.1 57c-5.3-0.3-10.5-2.1-14.8-5.3-4.3-3.1-7.6-7.4-9.5-12.4-1.9-5-2.3-10.4-1.2-15.7l3.6 0.8c-1 4.5-0.6 9.3 1 13.6 1.7 4.3 4.5 8 8.3 10.8 3.7 2.7 8.2 4.3 12.8 4.5 4.6 0.2 9.2-0.9 13.2-3.2l1.8 3.2c-4.6 2.6-9.9 3.9-15.2 3.7z"/>
	<path id="Path_100224" class="s0" d="m53.4 36.2c1.3-4.6 1.2-9.4-0.2-13.9-1.4-4.5-4.1-8.4-7.8-11.4-3.7-2.9-8.2-4.7-12.9-5.1-4.7-0.4-9.4 0.6-13.5 2.8l-1.8-3.2c4.8-2.6 10.2-3.8 15.7-3.3 5.4 0.5 10.5 2.5 14.8 5.9 4.2 3.4 7.4 8 9 13.2 1.7 5.2 1.7 10.8 0.2 16z"/>
</svg>