<svg version="1.2" xmlns="http://www.w3.org/2000/svg" viewBox="0 0 60 60" width="60" height="60">
	<title>noun_Clean-Code_3611465-svg</title>
	<style>
		.s0 { fill: #1328c9 } 
	</style>
	<g id="noun_Clean_Code_3611465">
		<path id="Path_98644" class="s0" d="m21.8 30.3l4.3 1.8-4.4 1.7-1.8 4.3-1.7-4.3-4.3-1.9 4.4-1.7 1.8-4.3z"/>
		<path id="Path_98645" class="s0" d="m43.7 33.8l-1.8 4.3-1.7-4.3-4.3-1.9 4.4-1.7 1.8-4.3 1.7 4.4 4.3 1.8z"/>
		<path id="Path_98646" class="s0" d="m32.3 21.6l3 1.3-3.1 1.2-1.3 3.1-1.2-3.1-3-1.3 3.1-1.2 1.3-3.1z"/>
		<path id="Path_98647" class="s0" d="m60.8 28.6q0.2 0.5 0.2 1.1 0 0.6-0.2 1.1-0.2 0.5-0.6 0.9l-13.9 13.9c-0.4 0.4-1 0.6-1.6 0.6-0.6 0-1.1-0.2-1.6-0.6-0.4-0.4-0.6-1-0.6-1.6 0-0.6 0.2-1.1 0.6-1.6l12.8-12.7-12.8-12.7c-0.4-0.5-0.6-1-0.6-1.6 0-0.6 0.2-1.2 0.6-1.6 0.5-0.4 1-0.6 1.6-0.6 0.6 0 1.2 0.2 1.6 0.6l13.9 13.9q0.4 0.4 0.6 0.9z"/>
		<path id="Path_98648" class="s0" d="m18.9 42.4c0.4 0.5 0.6 1 0.6 1.6 0 0.6-0.2 1.2-0.6 1.6-0.5 0.4-1 0.6-1.6 0.6-0.6 0-1.2-0.2-1.6-0.6l-13.9-13.9q-0.4-0.4-0.6-0.9-0.2-0.5-0.2-1.1 0-0.6 0.2-1.1 0.2-0.5 0.6-0.9l13.9-13.9c0.4-0.4 1-0.6 1.6-0.6 0.6 0 1.1 0.2 1.6 0.6 0.4 0.4 0.6 1 0.6 1.6 0 0.6-0.2 1.1-0.6 1.6l-12.8 12.7z"/>
	</g>
</svg>